<svg xmlns="http://www.w3.org/2000/svg" xmlns:xlink="http://www.w3.org/1999/xlink" width="436" zoomAndPan="magnify" viewBox="0 0 327 136.499996" height="182" preserveAspectRatio="xMidYMid meet" version="1.0"><defs><filter x="0%" y="0%" width="100%" height="100%" id="eb3150e2bc"><feColorMatrix values="0 0 0 0 1 0 0 0 0 1 0 0 0 0 1 0 0 0 1 0" color-interpolation-filters="sRGB"/></filter><g/><clipPath id="1c9480f4a4"><path d="M 125.558594 0 L 195.054688 0 L 195.054688 4 L 125.558594 4 Z M 125.558594 0 " clip-rule="nonzero"/></clipPath><clipPath id="3cf21840f0"><path d="M 161 5 L 191 5 L 191 66.507812 L 161 66.507812 Z M 161 5 " clip-rule="nonzero"/></clipPath><clipPath id="2f6606709a"><path d="M 130 5 L 159 5 L 159 66.507812 L 130 66.507812 Z M 130 5 " clip-rule="nonzero"/></clipPath><clipPath id="ba83930b32"><path d="M 0.597656 0 L 326.402344 0 L 326.402344 136 L 0.597656 136 Z M 0.597656 0 " clip-rule="nonzero"/></clipPath><clipPath id="55d53dbcc2"><path d="M 0.597656 0 L 326.402344 0 L 326.402344 136 L 0.597656 136 Z M 0.597656 0 " clip-rule="nonzero"/></clipPath><clipPath id="c57d5c092b"><path d="M 0.597656 0 L 326.402344 0 L 326.402344 136 L 0.597656 136 Z M 0.597656 0 " clip-rule="nonzero"/></clipPath><linearGradient x1="177.5" gradientTransform="matrix(0.746044, 0, 0, 0.744611, 30.72015, 52.676661)" y1="-70.743893" x2="177.5" gradientUnits="userSpaceOnUse" y2="111.904318" id="a39d71a085"><stop stop-opacity="1" stop-color="rgb(90.589905%, 66.668701%, 31.759644%)" offset="0"/><stop stop-opacity="1" stop-color="rgb(90.589905%, 66.668701%, 31.759644%)" offset="0.25"/><stop stop-opacity="1" stop-color="rgb(90.589905%, 66.668701%, 31.759644%)" offset="0.257812"/><stop stop-opacity="1" stop-color="rgb(90.722656%, 66.990662%, 32.159424%)" offset="0.261719"/><stop stop-opacity="1" stop-color="rgb(90.855408%, 67.314148%, 32.559204%)" offset="0.265625"/><stop stop-opacity="1" stop-color="rgb(91.101074%, 67.909241%, 33.297729%)" offset="0.269531"/><stop stop-opacity="1" stop-color="rgb(91.348267%, 68.504333%, 34.037781%)" offset="0.273438"/><stop stop-opacity="1" stop-color="rgb(91.593933%, 69.099426%, 34.776306%)" offset="0.277344"/><stop stop-opacity="1" stop-color="rgb(91.841125%, 69.694519%, 35.516357%)" offset="0.28125"/><stop stop-opacity="1" stop-color="rgb(92.086792%, 70.289612%, 36.254883%)" offset="0.285156"/><stop stop-opacity="1" stop-color="rgb(92.333984%, 70.88623%, 36.994934%)" offset="0.289062"/><stop stop-opacity="1" stop-color="rgb(92.579651%, 71.481323%, 37.734985%)" offset="0.292969"/><stop stop-opacity="1" stop-color="rgb(92.826843%, 72.076416%, 38.475037%)" offset="0.296875"/><stop stop-opacity="1" stop-color="rgb(93.07251%, 72.671509%, 39.213562%)" offset="0.300781"/><stop stop-opacity="1" stop-color="rgb(93.319702%, 73.268127%, 39.953613%)" offset="0.304688"/><stop stop-opacity="1" stop-color="rgb(93.565369%, 73.86322%, 40.692139%)" offset="0.308594"/><stop stop-opacity="1" stop-color="rgb(93.812561%, 74.458313%, 41.43219%)" offset="0.3125"/><stop stop-opacity="1" stop-color="rgb(94.058228%, 75.053406%, 42.170715%)" offset="0.316406"/><stop stop-opacity="1" stop-color="rgb(94.30542%, 75.648499%, 42.910767%)" offset="0.320312"/><stop stop-opacity="1" stop-color="rgb(94.551086%, 76.243591%, 43.649292%)" offset="0.324219"/><stop stop-opacity="1" stop-color="rgb(94.798279%, 76.84021%, 44.389343%)" offset="0.328125"/><stop stop-opacity="1" stop-color="rgb(95.043945%, 77.435303%, 45.127869%)" offset="0.332031"/><stop stop-opacity="1" stop-color="rgb(95.291138%, 78.030396%, 45.86792%)" offset="0.335938"/><stop stop-opacity="1" stop-color="rgb(95.536804%, 78.625488%, 46.606445%)" offset="0.339844"/><stop stop-opacity="1" stop-color="rgb(95.783997%, 79.220581%, 47.346497%)" offset="0.34375"/><stop stop-opacity="1" stop-color="rgb(96.029663%, 79.815674%, 48.086548%)" offset="0.347656"/><stop stop-opacity="1" stop-color="rgb(96.276855%, 80.412292%, 48.826599%)" offset="0.351562"/><stop stop-opacity="1" stop-color="rgb(96.522522%, 81.007385%, 49.565125%)" offset="0.355469"/><stop stop-opacity="1" stop-color="rgb(96.768188%, 81.602478%, 50.305176%)" offset="0.359375"/><stop stop-opacity="1" stop-color="rgb(97.013855%, 82.197571%, 51.043701%)" offset="0.363281"/><stop stop-opacity="1" stop-color="rgb(97.261047%, 82.794189%, 51.783752%)" offset="0.367188"/><stop stop-opacity="1" stop-color="rgb(97.506714%, 83.389282%, 52.522278%)" offset="0.371094"/><stop stop-opacity="1" stop-color="rgb(97.753906%, 83.984375%, 53.262329%)" offset="0.375"/><stop stop-opacity="1" stop-color="rgb(97.999573%, 84.579468%, 54.000854%)" offset="0.378906"/><stop stop-opacity="1" stop-color="rgb(98.246765%, 85.174561%, 54.740906%)" offset="0.382812"/><stop stop-opacity="1" stop-color="rgb(98.492432%, 85.769653%, 55.479431%)" offset="0.386719"/><stop stop-opacity="1" stop-color="rgb(98.739624%, 86.366272%, 56.219482%)" offset="0.390625"/><stop stop-opacity="1" stop-color="rgb(98.985291%, 86.961365%, 56.958008%)" offset="0.394531"/><stop stop-opacity="1" stop-color="rgb(99.232483%, 87.556458%, 57.698059%)" offset="0.398438"/><stop stop-opacity="1" stop-color="rgb(99.478149%, 88.15155%, 58.436584%)" offset="0.402344"/><stop stop-opacity="1" stop-color="rgb(99.725342%, 88.748169%, 59.176636%)" offset="0.40625"/><stop stop-opacity="1" stop-color="rgb(99.342346%, 88.449097%, 59.013367%)" offset="0.410156"/><stop stop-opacity="1" stop-color="rgb(98.959351%, 88.150024%, 58.850098%)" offset="0.414062"/><stop stop-opacity="1" stop-color="rgb(97.789001%, 86.732483%, 57.556152%)" offset="0.417969"/><stop stop-opacity="1" stop-color="rgb(96.618652%, 85.316467%, 56.262207%)" offset="0.421875"/><stop stop-opacity="1" stop-color="rgb(95.446777%, 83.898926%, 54.968262%)" offset="0.425781"/><stop stop-opacity="1" stop-color="rgb(94.276428%, 82.48291%, 53.675842%)" offset="0.429688"/><stop stop-opacity="1" stop-color="rgb(93.106079%, 81.065369%, 52.381897%)" offset="0.433594"/><stop stop-opacity="1" stop-color="rgb(91.93573%, 79.647827%, 51.087952%)" offset="0.4375"/><stop stop-opacity="1" stop-color="rgb(90.765381%, 78.230286%, 49.794006%)" offset="0.441406"/><stop stop-opacity="1" stop-color="rgb(89.595032%, 76.81427%, 48.500061%)" offset="0.445312"/><stop stop-opacity="1" stop-color="rgb(88.423157%, 75.396729%, 47.206116%)" offset="0.449219"/><stop stop-opacity="1" stop-color="rgb(87.252808%, 73.980713%, 45.913696%)" offset="0.453125"/><stop stop-opacity="1" stop-color="rgb(86.082458%, 72.563171%, 44.619751%)" offset="0.457031"/><stop stop-opacity="1" stop-color="rgb(84.912109%, 71.147156%, 43.325806%)" offset="0.460938"/><stop stop-opacity="1" stop-color="rgb(83.740234%, 69.729614%, 42.03186%)" offset="0.464844"/><stop stop-opacity="1" stop-color="rgb(82.569885%, 68.312073%, 40.737915%)" offset="0.46875"/><stop stop-opacity="1" stop-color="rgb(81.399536%, 66.894531%, 39.44397%)" offset="0.472656"/><stop stop-opacity="1" stop-color="rgb(80.229187%, 65.478516%, 38.15155%)" offset="0.476563"/><stop stop-opacity="1" stop-color="rgb(79.058838%, 64.060974%, 36.857605%)" offset="0.480469"/><stop stop-opacity="1" stop-color="rgb(77.888489%, 62.644958%, 35.56366%)" offset="0.484375"/><stop stop-opacity="1" stop-color="rgb(76.716614%, 61.227417%, 34.269714%)" offset="0.488281"/><stop stop-opacity="1" stop-color="rgb(75.546265%, 59.809875%, 32.975769%)" offset="0.492188"/><stop stop-opacity="1" stop-color="rgb(74.375916%, 58.392334%, 31.681824%)" offset="0.496094"/><stop stop-opacity="1" stop-color="rgb(73.205566%, 56.976318%, 30.389404%)" offset="0.5"/><stop stop-opacity="1" stop-color="rgb(72.035217%, 55.558777%, 29.095459%)" offset="0.503906"/><stop stop-opacity="1" stop-color="rgb(70.864868%, 54.142761%, 27.801514%)" offset="0.507812"/><stop stop-opacity="1" stop-color="rgb(69.692993%, 52.72522%, 26.507568%)" offset="0.511719"/><stop stop-opacity="1" stop-color="rgb(68.522644%, 51.309204%, 25.215149%)" offset="0.515625"/><stop stop-opacity="1" stop-color="rgb(67.352295%, 49.891663%, 23.921204%)" offset="0.519531"/><stop stop-opacity="1" stop-color="rgb(66.181946%, 48.474121%, 22.627258%)" offset="0.523438"/><stop stop-opacity="1" stop-color="rgb(65.011597%, 47.05658%, 21.333313%)" offset="0.527344"/><stop stop-opacity="1" stop-color="rgb(63.841248%, 45.640564%, 20.039368%)" offset="0.53125"/><stop stop-opacity="1" stop-color="rgb(62.669373%, 44.223022%, 18.745422%)" offset="0.535156"/><stop stop-opacity="1" stop-color="rgb(61.499023%, 42.807007%, 17.453003%)" offset="0.539062"/><stop stop-opacity="1" stop-color="rgb(60.328674%, 41.389465%, 16.159058%)" offset="0.542969"/><stop stop-opacity="1" stop-color="rgb(59.158325%, 39.971924%, 14.865112%)" offset="0.546875"/><stop stop-opacity="1" stop-color="rgb(57.987976%, 38.554382%, 13.571167%)" offset="0.550781"/><stop stop-opacity="1" stop-color="rgb(56.817627%, 37.138367%, 12.277222%)" offset="0.554688"/><stop stop-opacity="1" stop-color="rgb(56.373596%, 36.499023%, 11.625671%)" offset="0.558594"/><stop stop-opacity="1" stop-color="rgb(55.931091%, 35.85968%, 10.974121%)" offset="0.5625"/><stop stop-opacity="1" stop-color="rgb(56.855774%, 36.680603%, 11.528015%)" offset="0.566406"/><stop stop-opacity="1" stop-color="rgb(57.780457%, 37.503052%, 12.083435%)" offset="0.570312"/><stop stop-opacity="1" stop-color="rgb(58.703613%, 38.323975%, 12.637329%)" offset="0.574219"/><stop stop-opacity="1" stop-color="rgb(59.628296%, 39.146423%, 13.191223%)" offset="0.578125"/><stop stop-opacity="1" stop-color="rgb(60.551453%, 39.967346%, 13.745117%)" offset="0.582031"/><stop stop-opacity="1" stop-color="rgb(61.476135%, 40.789795%, 14.300537%)" offset="0.585938"/><stop stop-opacity="1" stop-color="rgb(62.400818%, 41.610718%, 14.854431%)" offset="0.589844"/><stop stop-opacity="1" stop-color="rgb(63.3255%, 42.433167%, 15.408325%)" offset="0.59375"/><stop stop-opacity="1" stop-color="rgb(64.248657%, 43.254089%, 15.962219%)" offset="0.597656"/><stop stop-opacity="1" stop-color="rgb(65.17334%, 44.076538%, 16.517639%)" offset="0.601562"/><stop stop-opacity="1" stop-color="rgb(66.098022%, 44.897461%, 17.071533%)" offset="0.605469"/><stop stop-opacity="1" stop-color="rgb(67.022705%, 45.71991%, 17.625427%)" offset="0.609375"/><stop stop-opacity="1" stop-color="rgb(67.945862%, 46.540833%, 18.179321%)" offset="0.613281"/><stop stop-opacity="1" stop-color="rgb(68.870544%, 47.363281%, 18.734741%)" offset="0.617188"/><stop stop-opacity="1" stop-color="rgb(69.795227%, 48.184204%, 19.288635%)" offset="0.621094"/><stop stop-opacity="1" stop-color="rgb(70.71991%, 49.005127%, 19.842529%)" offset="0.625"/><stop stop-opacity="1" stop-color="rgb(71.643066%, 49.82605%, 20.396423%)" offset="0.628906"/><stop stop-opacity="1" stop-color="rgb(72.567749%, 50.648499%, 20.951843%)" offset="0.632812"/><stop stop-opacity="1" stop-color="rgb(73.490906%, 51.469421%, 21.505737%)" offset="0.636719"/><stop stop-opacity="1" stop-color="rgb(74.415588%, 52.29187%, 22.059631%)" offset="0.640625"/><stop stop-opacity="1" stop-color="rgb(75.340271%, 53.112793%, 22.613525%)" offset="0.644531"/><stop stop-opacity="1" stop-color="rgb(76.264954%, 53.935242%, 23.168945%)" offset="0.648437"/><stop stop-opacity="1" stop-color="rgb(77.18811%, 54.756165%, 23.722839%)" offset="0.652344"/><stop stop-opacity="1" stop-color="rgb(78.112793%, 55.578613%, 24.276733%)" offset="0.65625"/><stop stop-opacity="1" stop-color="rgb(79.037476%, 56.399536%, 24.830627%)" offset="0.660156"/><stop stop-opacity="1" stop-color="rgb(79.962158%, 57.221985%, 25.386047%)" offset="0.664062"/><stop stop-opacity="1" stop-color="rgb(80.885315%, 58.042908%, 25.939941%)" offset="0.667969"/><stop stop-opacity="1" stop-color="rgb(81.809998%, 58.865356%, 26.493835%)" offset="0.671875"/><stop stop-opacity="1" stop-color="rgb(82.733154%, 59.686279%, 27.047729%)" offset="0.675781"/><stop stop-opacity="1" stop-color="rgb(83.657837%, 60.508728%, 27.603149%)" offset="0.679688"/><stop stop-opacity="1" stop-color="rgb(84.58252%, 61.329651%, 28.157043%)" offset="0.683594"/><stop stop-opacity="1" stop-color="rgb(85.507202%, 62.1521%, 28.710938%)" offset="0.6875"/><stop stop-opacity="1" stop-color="rgb(86.430359%, 62.973022%, 29.264832%)" offset="0.691406"/><stop stop-opacity="1" stop-color="rgb(87.355042%, 63.793945%, 29.820251%)" offset="0.695312"/><stop stop-opacity="1" stop-color="rgb(88.279724%, 64.614868%, 30.374146%)" offset="0.699219"/><stop stop-opacity="1" stop-color="rgb(89.204407%, 65.437317%, 30.92804%)" offset="0.703125"/><stop stop-opacity="1" stop-color="rgb(89.744568%, 65.904236%, 31.260681%)" offset="0.707031"/><stop stop-opacity="1" stop-color="rgb(90.286255%, 66.371155%, 31.594849%)" offset="0.710938"/><stop stop-opacity="1" stop-color="rgb(89.678955%, 65.774536%, 31.266785%)" offset="0.714844"/><stop stop-opacity="1" stop-color="rgb(89.073181%, 65.179443%, 30.938721%)" offset="0.71875"/><stop stop-opacity="1" stop-color="rgb(88.467407%, 64.582825%, 30.609131%)" offset="0.722656"/><stop stop-opacity="1" stop-color="rgb(87.861633%, 63.987732%, 30.281067%)" offset="0.726562"/><stop stop-opacity="1" stop-color="rgb(87.255859%, 63.392639%, 29.953003%)" offset="0.730469"/><stop stop-opacity="1" stop-color="rgb(86.650085%, 62.797546%, 29.624939%)" offset="0.734375"/><stop stop-opacity="1" stop-color="rgb(86.044312%, 62.200928%, 29.296875%)" offset="0.738281"/><stop stop-opacity="1" stop-color="rgb(85.438538%, 61.605835%, 28.968811%)" offset="0.742187"/><stop stop-opacity="1" stop-color="rgb(84.832764%, 61.009216%, 28.639221%)" offset="0.746094"/><stop stop-opacity="1" stop-color="rgb(84.22699%, 60.414124%, 28.311157%)" offset="0.75"/><stop stop-opacity="1" stop-color="rgb(83.621216%, 59.817505%, 27.983093%)" offset="0.753906"/><stop stop-opacity="1" stop-color="rgb(83.015442%, 59.222412%, 27.655029%)" offset="0.757813"/><stop stop-opacity="1" stop-color="rgb(82.409668%, 58.627319%, 27.325439%)" offset="0.761719"/><stop stop-opacity="1" stop-color="rgb(81.803894%, 58.032227%, 26.997375%)" offset="0.765625"/><stop stop-opacity="1" stop-color="rgb(81.19812%, 57.435608%, 26.669312%)" offset="0.769531"/><stop stop-opacity="1" stop-color="rgb(80.592346%, 56.840515%, 26.341248%)" offset="0.773438"/><stop stop-opacity="1" stop-color="rgb(79.986572%, 56.243896%, 26.013184%)" offset="0.777344"/><stop stop-opacity="1" stop-color="rgb(79.380798%, 55.648804%, 25.68512%)" offset="0.78125"/><stop stop-opacity="1" stop-color="rgb(78.773499%, 55.052185%, 25.35553%)" offset="0.785156"/><stop stop-opacity="1" stop-color="rgb(78.167725%, 54.457092%, 25.027466%)" offset="0.789062"/><stop stop-opacity="1" stop-color="rgb(77.561951%, 53.862%, 24.699402%)" offset="0.792969"/><stop stop-opacity="1" stop-color="rgb(76.956177%, 53.266907%, 24.371338%)" offset="0.796875"/><stop stop-opacity="1" stop-color="rgb(76.350403%, 52.670288%, 24.043274%)" offset="0.800781"/><stop stop-opacity="1" stop-color="rgb(75.744629%, 52.075195%, 23.71521%)" offset="0.804688"/><stop stop-opacity="1" stop-color="rgb(75.138855%, 51.478577%, 23.38562%)" offset="0.808594"/><stop stop-opacity="1" stop-color="rgb(74.533081%, 50.883484%, 23.057556%)" offset="0.8125"/><stop stop-opacity="1" stop-color="rgb(73.927307%, 50.288391%, 22.729492%)" offset="0.816406"/><stop stop-opacity="1" stop-color="rgb(73.321533%, 49.693298%, 22.401428%)" offset="0.820312"/><stop stop-opacity="1" stop-color="rgb(72.715759%, 49.09668%, 22.073364%)" offset="0.824219"/><stop stop-opacity="1" stop-color="rgb(72.109985%, 48.501587%, 21.7453%)" offset="0.828125"/><stop stop-opacity="1" stop-color="rgb(71.504211%, 47.904968%, 21.41571%)" offset="0.832031"/><stop stop-opacity="1" stop-color="rgb(70.898438%, 47.309875%, 21.087646%)" offset="0.835938"/><stop stop-opacity="1" stop-color="rgb(70.292664%, 46.713257%, 20.759583%)" offset="0.839844"/><stop stop-opacity="1" stop-color="rgb(69.68689%, 46.118164%, 20.431519%)" offset="0.84375"/><stop stop-opacity="1" stop-color="rgb(69.081116%, 45.523071%, 20.103455%)" offset="0.847656"/><stop stop-opacity="1" stop-color="rgb(68.475342%, 44.927979%, 19.775391%)" offset="0.851563"/><stop stop-opacity="1" stop-color="rgb(67.962646%, 44.422913%, 19.497681%)" offset="0.855469"/><stop stop-opacity="1" stop-color="rgb(67.449951%, 43.919373%, 19.219971%)" offset="0.859375"/><stop stop-opacity="1" stop-color="rgb(67.449951%, 43.919373%, 19.219971%)" offset="0.875"/><stop stop-opacity="1" stop-color="rgb(67.449951%, 43.919373%, 19.219971%)" offset="1"/></linearGradient><clipPath id="34f0dde71e"><rect x="0" width="327" y="0" height="136"/></clipPath><clipPath id="207fe7478c"><path d="M 0.597656 0 L 326.402344 0 L 326.402344 136 L 0.597656 136 Z M 0.597656 0 " clip-rule="nonzero"/></clipPath><clipPath id="7ccba05bea"><rect x="0" width="327" y="0" height="136"/></clipPath><clipPath id="e65a06ef5e"><rect x="0" width="327" y="0" height="136"/></clipPath><mask id="3a38089fca"><g filter="url(#eb3150e2bc)"><g><g clip-path="url(#e65a06ef5e)"><g clip-path="url(#207fe7478c)"><g><g clip-path="url(#7ccba05bea)"><g fill="#000000" fill-opacity="1"><g transform="translate(30.497933, 94.426274)"><g><path d="M 24.1875 -11.75 C 23.414062 -11.75 22.847656 -11.601562 22.484375 -11.3125 C 22.128906 -11.03125 21.90625 -10.640625 21.8125 -10.140625 C 21.71875 -9.640625 21.671875 -9.0625 21.671875 -8.40625 L 21.671875 -1.5 C 20.429688 -0.78125 19.148438 -0.265625 17.828125 0.046875 C 16.503906 0.367188 15.132812 0.53125 13.71875 0.53125 C 11.101562 0.53125 8.859375 0.0195312 6.984375 -1 C 5.117188 -2.019531 3.6875 -3.398438 2.6875 -5.140625 C 1.6875 -6.890625 1.1875 -8.835938 1.1875 -10.984375 C 1.1875 -12.453125 1.441406 -13.90625 1.953125 -15.34375 C 2.472656 -16.78125 3.238281 -18.09375 4.25 -19.28125 C 5.257812 -20.46875 6.507812 -21.410156 8 -22.109375 C 9.5 -22.816406 11.226562 -23.171875 13.1875 -23.171875 C 14.445312 -23.171875 15.5 -23.046875 16.34375 -22.796875 C 17.195312 -22.554688 17.878906 -22.316406 18.390625 -22.078125 C 18.910156 -21.835938 19.3125 -21.71875 19.59375 -21.71875 C 19.71875 -21.71875 19.867188 -21.8125 20.046875 -22 C 20.234375 -22.1875 20.347656 -22.578125 20.390625 -23.171875 L 21.03125 -23.171875 L 21.59375 -16.015625 L 21.03125 -16.015625 C 20.289062 -18.179688 19.273438 -19.722656 17.984375 -20.640625 C 16.703125 -21.554688 15.21875 -22.015625 13.53125 -22.015625 C 11.695312 -22.015625 10.144531 -21.554688 8.875 -20.640625 C 7.613281 -19.734375 6.660156 -18.503906 6.015625 -16.953125 C 5.378906 -15.410156 5.046875 -13.671875 5.015625 -11.734375 C 4.992188 -9.578125 5.367188 -7.660156 6.140625 -5.984375 C 6.910156 -4.304688 7.957031 -2.992188 9.28125 -2.046875 C 10.613281 -1.109375 12.109375 -0.640625 13.765625 -0.640625 C 14.566406 -0.640625 15.351562 -0.734375 16.125 -0.921875 C 16.90625 -1.109375 17.671875 -1.429688 18.421875 -1.890625 L 18.421875 -8.40625 C 18.421875 -9.351562 18.34375 -10.0625 18.1875 -10.53125 C 18.039062 -11.007812 17.753906 -11.328125 17.328125 -11.484375 C 16.910156 -11.648438 16.289062 -11.738281 15.46875 -11.75 L 15.46875 -12.328125 L 24.1875 -12.328125 Z M 24.1875 -11.75 "/></g></g></g><g fill="#000000" fill-opacity="1"><g transform="translate(55.203383, 94.426274)"><g><path d="M 17.140625 -1.421875 L 12.515625 0.5 L 11.75 0.5 L 11.75 -2.765625 C 10.894531 -1.867188 10.171875 -1.1875 9.578125 -0.71875 C 8.992188 -0.25 8.46875 0.0664062 8 0.234375 C 7.539062 0.410156 7.0625 0.5 6.5625 0.5 C 5.664062 0.5 4.953125 0.304688 4.421875 -0.078125 C 3.898438 -0.460938 3.507812 -0.957031 3.25 -1.5625 C 2.988281 -2.164062 2.816406 -2.8125 2.734375 -3.5 C 2.648438 -4.1875 2.609375 -4.835938 2.609375 -5.453125 L 2.609375 -12.296875 C 2.609375 -13.285156 2.414062 -13.929688 2.03125 -14.234375 C 1.644531 -14.535156 0.96875 -14.6875 0 -14.6875 L 0 -15.296875 L 5.390625 -15.296875 L 5.390625 -5.078125 C 5.390625 -4.484375 5.445312 -3.921875 5.5625 -3.390625 C 5.675781 -2.859375 5.914062 -2.421875 6.28125 -2.078125 C 6.65625 -1.734375 7.203125 -1.5625 7.921875 -1.5625 C 8.378906 -1.5625 8.921875 -1.710938 9.546875 -2.015625 C 10.171875 -2.316406 10.90625 -2.890625 11.75 -3.734375 L 11.75 -12.4375 C 11.75 -13.351562 11.554688 -13.953125 11.171875 -14.234375 C 10.785156 -14.515625 10.160156 -14.664062 9.296875 -14.6875 L 9.296875 -15.296875 L 14.546875 -15.296875 L 14.546875 -4.046875 C 14.546875 -3.140625 14.625 -2.53125 14.78125 -2.21875 C 14.945312 -1.90625 15.210938 -1.75 15.578125 -1.75 C 15.734375 -1.75 15.929688 -1.769531 16.171875 -1.8125 C 16.410156 -1.851562 16.65625 -1.914062 16.90625 -2 Z M 17.140625 -1.421875 "/></g></g></g><g fill="#000000" fill-opacity="1"><g transform="translate(72.318705, 94.426274)"><g><path d="M 5.71875 0.5 C 5.238281 0.5 4.765625 0.398438 4.296875 0.203125 C 3.835938 0.00390625 3.457031 -0.378906 3.15625 -0.953125 C 2.851562 -1.535156 2.703125 -2.398438 2.703125 -3.546875 L 2.703125 -14.171875 L 0.25 -14.171875 L 0.25 -14.6875 C 1.332031 -15.070312 2.265625 -15.8125 3.046875 -16.90625 C 3.828125 -18 4.472656 -19.144531 4.984375 -20.34375 L 5.484375 -20.34375 L 5.484375 -15.296875 L 9.078125 -15.296875 L 9.078125 -14.171875 L 5.484375 -14.171875 L 5.484375 -3.953125 C 5.484375 -2.960938 5.628906 -2.296875 5.921875 -1.953125 C 6.222656 -1.617188 6.585938 -1.441406 7.015625 -1.421875 C 7.429688 -1.398438 7.796875 -1.515625 8.109375 -1.765625 C 8.421875 -2.015625 8.675781 -2.351562 8.875 -2.78125 L 9.5625 -2.78125 C 9.21875 -1.675781 8.65625 -0.851562 7.875 -0.3125 C 7.09375 0.226562 6.375 0.5 5.71875 0.5 Z M 5.71875 0.5 "/></g></g></g><g fill="#000000" fill-opacity="1"><g transform="translate(81.827217, 94.426274)"><g><path d="M 5.71875 0.5 C 5.238281 0.5 4.765625 0.398438 4.296875 0.203125 C 3.835938 0.00390625 3.457031 -0.378906 3.15625 -0.953125 C 2.851562 -1.535156 2.703125 -2.398438 2.703125 -3.546875 L 2.703125 -14.171875 L 0.25 -14.171875 L 0.25 -14.6875 C 1.332031 -15.070312 2.265625 -15.8125 3.046875 -16.90625 C 3.828125 -18 4.472656 -19.144531 4.984375 -20.34375 L 5.484375 -20.34375 L 5.484375 -15.296875 L 9.078125 -15.296875 L 9.078125 -14.171875 L 5.484375 -14.171875 L 5.484375 -3.953125 C 5.484375 -2.960938 5.628906 -2.296875 5.921875 -1.953125 C 6.222656 -1.617188 6.585938 -1.441406 7.015625 -1.421875 C 7.429688 -1.398438 7.796875 -1.515625 8.109375 -1.765625 C 8.421875 -2.015625 8.675781 -2.351562 8.875 -2.78125 L 9.5625 -2.78125 C 9.21875 -1.675781 8.65625 -0.851562 7.875 -0.3125 C 7.09375 0.226562 6.375 0.5 5.71875 0.5 Z M 5.71875 0.5 "/></g></g></g><g fill="#000000" fill-opacity="1"><g transform="translate(91.335729, 94.426274)"><g><path d="M 0.46875 0 L 0.46875 -0.640625 C 1.488281 -0.640625 2.128906 -0.820312 2.390625 -1.1875 C 2.648438 -1.550781 2.78125 -2.207031 2.78125 -3.15625 L 2.78125 -19.28125 C 2.78125 -20.070312 2.707031 -20.65625 2.5625 -21.03125 C 2.425781 -21.40625 2.128906 -21.59375 1.671875 -21.59375 C 1.523438 -21.59375 1.34375 -21.570312 1.125 -21.53125 C 0.914062 -21.488281 0.695312 -21.421875 0.46875 -21.328125 L 0.1875 -21.90625 L 4.828125 -23.765625 L 5.59375 -23.765625 L 5.59375 -12.5625 C 6.476562 -13.894531 7.347656 -14.753906 8.203125 -15.140625 C 9.054688 -15.535156 9.875 -15.734375 10.65625 -15.734375 C 11.625 -15.734375 12.378906 -15.519531 12.921875 -15.09375 C 13.460938 -14.664062 13.851562 -14.101562 14.09375 -13.40625 C 14.34375 -12.707031 14.492188 -11.957031 14.546875 -11.15625 C 14.609375 -10.363281 14.640625 -9.59375 14.640625 -8.84375 L 14.640625 -3.15625 C 14.640625 -2.164062 14.769531 -1.5 15.03125 -1.15625 C 15.289062 -0.8125 15.925781 -0.640625 16.9375 -0.640625 L 16.9375 0 L 9.375 0 L 9.375 -0.640625 C 10.34375 -0.640625 10.992188 -0.796875 11.328125 -1.109375 C 11.671875 -1.421875 11.84375 -2.101562 11.84375 -3.15625 L 11.84375 -8.84375 C 11.84375 -9.34375 11.835938 -9.875 11.828125 -10.4375 C 11.816406 -11 11.742188 -11.53125 11.609375 -12.03125 C 11.472656 -12.53125 11.234375 -12.9375 10.890625 -13.25 C 10.546875 -13.5625 10.039062 -13.71875 9.375 -13.71875 C 8.863281 -13.71875 8.3125 -13.585938 7.71875 -13.328125 C 7.132812 -13.078125 6.425781 -12.472656 5.59375 -11.515625 L 5.59375 -3.15625 C 5.59375 -2.46875 5.640625 -1.9375 5.734375 -1.5625 C 5.835938 -1.195312 6.0625 -0.953125 6.40625 -0.828125 C 6.757812 -0.703125 7.300781 -0.640625 8.03125 -0.640625 L 8.03125 0 Z M 0.46875 0 "/></g></g></g><g fill="#000000" fill-opacity="1"><g transform="translate(108.451051, 94.426274)"><g><path d="M 8.78125 0 L 1.28125 0 L 1.28125 -0.640625 C 2.25 -0.640625 2.878906 -0.796875 3.171875 -1.109375 C 3.472656 -1.421875 3.625 -2.101562 3.625 -3.15625 L 3.625 -11.3125 C 3.625 -12.039062 3.546875 -12.59375 3.390625 -12.96875 C 3.234375 -13.351562 2.925781 -13.546875 2.46875 -13.546875 C 2.320312 -13.546875 2.148438 -13.523438 1.953125 -13.484375 C 1.765625 -13.441406 1.539062 -13.378906 1.28125 -13.296875 L 1.0625 -13.90625 L 5.703125 -15.734375 L 6.40625 -15.734375 L 6.40625 -3.15625 C 6.40625 -2.101562 6.554688 -1.421875 6.859375 -1.109375 C 7.171875 -0.796875 7.8125 -0.640625 8.78125 -0.640625 Z M 5.015625 -18.78125 C 4.546875 -18.78125 4.144531 -18.9375 3.8125 -19.25 C 3.488281 -19.570312 3.328125 -19.984375 3.328125 -20.484375 C 3.328125 -20.984375 3.492188 -21.382812 3.828125 -21.6875 C 4.171875 -22 4.566406 -22.15625 5.015625 -22.15625 C 5.484375 -22.15625 5.878906 -21.992188 6.203125 -21.671875 C 6.535156 -21.359375 6.703125 -20.960938 6.703125 -20.484375 C 6.703125 -20.015625 6.539062 -19.613281 6.21875 -19.28125 C 5.90625 -18.945312 5.503906 -18.78125 5.015625 -18.78125 Z M 5.015625 -18.78125 "/></g></g></g><g fill="#000000" fill-opacity="1"><g transform="translate(117.959563, 94.426274)"><g><path d="M 13.6875 -5.921875 L 14.21875 -5.59375 C 14.082031 -4.59375 13.738281 -3.625 13.1875 -2.6875 C 12.632812 -1.757812 11.910156 -0.992188 11.015625 -0.390625 C 10.117188 0.203125 9.085938 0.5 7.921875 0.5 C 6.722656 0.5 5.617188 0.175781 4.609375 -0.46875 C 3.597656 -1.125 2.785156 -2.046875 2.171875 -3.234375 C 1.554688 -4.429688 1.25 -5.84375 1.25 -7.46875 C 1.25 -9.207031 1.550781 -10.691406 2.15625 -11.921875 C 2.757812 -13.160156 3.597656 -14.109375 4.671875 -14.765625 C 5.742188 -15.421875 6.96875 -15.75 8.34375 -15.75 C 10.03125 -15.75 11.429688 -15.195312 12.546875 -14.09375 C 13.660156 -13 14.21875 -11.488281 14.21875 -9.5625 L 3.625 -9.5625 C 3.625 -8.039062 3.878906 -6.734375 4.390625 -5.640625 C 4.898438 -4.554688 5.578125 -3.726562 6.421875 -3.15625 C 7.273438 -2.582031 8.195312 -2.285156 9.1875 -2.265625 C 10.175781 -2.242188 11.046875 -2.492188 11.796875 -3.015625 C 12.546875 -3.535156 13.175781 -4.503906 13.6875 -5.921875 Z M 3.625 -10.484375 L 10.734375 -10.484375 C 10.734375 -11.597656 10.53125 -12.453125 10.125 -13.046875 C 9.726562 -13.640625 9.265625 -14.039062 8.734375 -14.25 C 8.210938 -14.46875 7.769531 -14.578125 7.40625 -14.578125 C 6.519531 -14.578125 5.703125 -14.226562 4.953125 -13.53125 C 4.203125 -12.832031 3.757812 -11.816406 3.625 -10.484375 Z M 3.625 -10.484375 "/></g></g></g><g fill="#000000" fill-opacity="1"><g transform="translate(133.156501, 94.426274)"><g><path d="M 9.484375 -15.734375 C 10.097656 -15.734375 10.609375 -15.5625 11.015625 -15.21875 C 11.429688 -14.875 11.640625 -14.4375 11.640625 -13.90625 C 11.640625 -13.5 11.492188 -13.132812 11.203125 -12.8125 C 10.910156 -12.488281 10.550781 -12.328125 10.125 -12.328125 C 9.757812 -12.328125 9.445312 -12.425781 9.1875 -12.625 C 8.925781 -12.832031 8.6875 -13.035156 8.46875 -13.234375 C 8.25 -13.429688 8.019531 -13.53125 7.78125 -13.53125 C 7.488281 -13.53125 7.144531 -13.296875 6.75 -12.828125 C 6.351562 -12.359375 5.941406 -11.71875 5.515625 -10.90625 L 5.515625 -3.546875 C 5.515625 -2.566406 5.691406 -1.835938 6.046875 -1.359375 C 6.410156 -0.878906 7.132812 -0.640625 8.21875 -0.640625 L 8.21875 0 L 0.28125 0 L 0.28125 -0.640625 C 0.914062 -0.640625 1.410156 -0.691406 1.765625 -0.796875 C 2.117188 -0.898438 2.367188 -1.148438 2.515625 -1.546875 C 2.660156 -1.953125 2.734375 -2.585938 2.734375 -3.453125 L 2.734375 -9.375 C 2.734375 -10.457031 2.71875 -11.253906 2.6875 -11.765625 C 2.664062 -12.273438 2.617188 -12.625 2.546875 -12.8125 C 2.472656 -13.007812 2.375 -13.175781 2.25 -13.3125 C 2 -13.457031 1.722656 -13.535156 1.421875 -13.546875 C 1.128906 -13.566406 0.75 -13.484375 0.28125 -13.296875 L 0.140625 -13.90625 L 4.875 -15.734375 L 5.515625 -15.734375 L 5.515625 -12.296875 C 6.785156 -14.585938 8.109375 -15.734375 9.484375 -15.734375 Z M 9.484375 -15.734375 "/></g></g></g><g fill="#000000" fill-opacity="1"><g transform="translate(144.883666, 94.426274)"><g><path d="M 9.484375 -15.734375 C 10.097656 -15.734375 10.609375 -15.5625 11.015625 -15.21875 C 11.429688 -14.875 11.640625 -14.4375 11.640625 -13.90625 C 11.640625 -13.5 11.492188 -13.132812 11.203125 -12.8125 C 10.910156 -12.488281 10.550781 -12.328125 10.125 -12.328125 C 9.757812 -12.328125 9.445312 -12.425781 9.1875 -12.625 C 8.925781 -12.832031 8.6875 -13.035156 8.46875 -13.234375 C 8.25 -13.429688 8.019531 -13.53125 7.78125 -13.53125 C 7.488281 -13.53125 7.144531 -13.296875 6.75 -12.828125 C 6.351562 -12.359375 5.941406 -11.71875 5.515625 -10.90625 L 5.515625 -3.546875 C 5.515625 -2.566406 5.691406 -1.835938 6.046875 -1.359375 C 6.410156 -0.878906 7.132812 -0.640625 8.21875 -0.640625 L 8.21875 0 L 0.28125 0 L 0.28125 -0.640625 C 0.914062 -0.640625 1.410156 -0.691406 1.765625 -0.796875 C 2.117188 -0.898438 2.367188 -1.148438 2.515625 -1.546875 C 2.660156 -1.953125 2.734375 -2.585938 2.734375 -3.453125 L 2.734375 -9.375 C 2.734375 -10.457031 2.71875 -11.253906 2.6875 -11.765625 C 2.664062 -12.273438 2.617188 -12.625 2.546875 -12.8125 C 2.472656 -13.007812 2.375 -13.175781 2.25 -13.3125 C 2 -13.457031 1.722656 -13.535156 1.421875 -13.546875 C 1.128906 -13.566406 0.75 -13.484375 0.28125 -13.296875 L 0.140625 -13.90625 L 4.875 -15.734375 L 5.515625 -15.734375 L 5.515625 -12.296875 C 6.785156 -14.585938 8.109375 -15.734375 9.484375 -15.734375 Z M 9.484375 -15.734375 "/></g></g></g><g fill="#000000" fill-opacity="1"><g transform="translate(156.610831, 94.426274)"><g><path d="M 3.25 7.40625 C 2.59375 7.40625 2.050781 7.222656 1.625 6.859375 C 1.195312 6.492188 0.984375 6.035156 0.984375 5.484375 C 0.984375 5.046875 1.128906 4.6875 1.421875 4.40625 C 1.722656 4.125 2.148438 3.984375 2.703125 3.984375 C 3.054688 3.984375 3.460938 4.082031 3.921875 4.28125 C 4.378906 4.476562 4.742188 4.578125 5.015625 4.578125 C 5.453125 4.578125 5.851562 4.359375 6.21875 3.921875 C 6.59375 3.492188 6.921875 2.972656 7.203125 2.359375 C 7.492188 1.753906 7.738281 1.171875 7.9375 0.609375 C 8.144531 0.046875 8.300781 -0.367188 8.40625 -0.640625 L 2.921875 -12.140625 C 2.785156 -12.421875 2.609375 -12.75 2.390625 -13.125 C 2.179688 -13.5 1.898438 -13.835938 1.546875 -14.140625 C 1.203125 -14.441406 0.75 -14.625 0.1875 -14.6875 L 0.1875 -15.296875 L 7.34375 -15.296875 L 7.34375 -14.6875 C 6.082031 -14.6875 5.453125 -14.304688 5.453125 -13.546875 C 5.453125 -13.109375 5.644531 -12.507812 6.03125 -11.75 L 9.734375 -4.046875 L 13.171875 -12.515625 C 13.335938 -12.816406 13.441406 -13.144531 13.484375 -13.5 C 13.523438 -13.851562 13.476562 -14.125 13.34375 -14.3125 C 13.28125 -14.382812 13.175781 -14.460938 13.03125 -14.546875 C 12.882812 -14.640625 12.519531 -14.6875 11.9375 -14.6875 L 11.9375 -15.296875 L 16.90625 -15.296875 L 16.90625 -14.6875 C 16.425781 -14.664062 16.035156 -14.519531 15.734375 -14.25 C 15.429688 -13.976562 15.066406 -13.351562 14.640625 -12.375 L 8.40625 2.90625 C 7.832031 4.34375 7.070312 5.453125 6.125 6.234375 C 5.175781 7.015625 4.21875 7.40625 3.25 7.40625 Z M 3.25 7.40625 "/></g></g></g><g fill="#000000" fill-opacity="1"><g transform="translate(173.726152, 94.426274)"><g/></g></g><g fill="#000000" fill-opacity="1"><g transform="translate(179.481305, 94.426274)"><g><path d="M 29.703125 0 L 20.078125 0 L 20.078125 -0.640625 C 21.078125 -0.640625 21.800781 -0.757812 22.25 -1 C 22.695312 -1.25 22.984375 -1.617188 23.109375 -2.109375 C 23.234375 -2.609375 23.296875 -3.222656 23.296875 -3.953125 L 23.296875 -19.0625 L 14.546875 0 L 13.96875 0 L 5.234375 -19.0625 L 5.234375 -3.953125 C 5.234375 -3.054688 5.300781 -2.367188 5.4375 -1.890625 C 5.582031 -1.410156 5.882812 -1.082031 6.34375 -0.90625 C 6.800781 -0.726562 7.5 -0.640625 8.4375 -0.640625 L 8.4375 0 L 0.59375 0 L 0.59375 -0.640625 C 1.582031 -0.640625 2.296875 -0.765625 2.734375 -1.015625 C 3.179688 -1.265625 3.457031 -1.632812 3.5625 -2.125 C 3.675781 -2.625 3.734375 -3.234375 3.734375 -3.953125 L 3.734375 -18.703125 C 3.734375 -19.992188 3.523438 -20.867188 3.109375 -21.328125 C 2.691406 -21.796875 1.851562 -22.03125 0.59375 -22.03125 L 0.59375 -22.640625 L 6.984375 -22.640625 L 15.203125 -4.9375 L 23.296875 -22.640625 L 29.703125 -22.640625 L 29.703125 -22.03125 C 28.710938 -22.03125 27.988281 -21.90625 27.53125 -21.65625 C 27.070312 -21.414062 26.785156 -21.046875 26.671875 -20.546875 C 26.554688 -20.054688 26.5 -19.441406 26.5 -18.703125 L 26.5 -3.953125 C 26.5 -3.023438 26.570312 -2.320312 26.71875 -1.84375 C 26.863281 -1.375 27.164062 -1.054688 27.625 -0.890625 C 28.082031 -0.722656 28.773438 -0.640625 29.703125 -0.640625 Z M 29.703125 0 "/></g></g></g><g fill="#000000" fill-opacity="1"><g transform="translate(209.908544, 94.426274)"><g><path d="M 15.1875 -3.171875 L 15.1875 -2.203125 C 13.925781 -0.546875 12.703125 0.28125 11.515625 0.28125 C 11.023438 0.28125 10.601562 0.109375 10.25 -0.234375 C 9.90625 -0.578125 9.734375 -1.234375 9.734375 -2.203125 C 8.835938 -1.503906 8.132812 -0.972656 7.625 -0.609375 C 7.113281 -0.253906 6.660156 -0.0195312 6.265625 0.09375 C 5.878906 0.21875 5.414062 0.28125 4.875 0.28125 C 3.78125 0.28125 2.898438 -0.0703125 2.234375 -0.78125 C 1.566406 -1.5 1.234375 -2.445312 1.234375 -3.625 C 1.234375 -4.1875 1.335938 -4.722656 1.546875 -5.234375 C 1.765625 -5.742188 2.164062 -6.253906 2.75 -6.765625 C 3.34375 -7.285156 4.203125 -7.816406 5.328125 -8.359375 C 6.453125 -8.910156 7.921875 -9.5 9.734375 -10.125 L 9.734375 -10.765625 C 9.734375 -12.242188 9.5 -13.273438 9.03125 -13.859375 C 8.570312 -14.441406 7.851562 -14.734375 6.875 -14.734375 C 6.1875 -14.734375 5.640625 -14.515625 5.234375 -14.078125 C 4.835938 -13.640625 4.628906 -12.90625 4.609375 -11.875 C 4.628906 -11.382812 4.507812 -11 4.25 -10.71875 C 3.988281 -10.445312 3.644531 -10.3125 3.21875 -10.3125 C 2.28125 -10.3125 1.8125 -10.835938 1.8125 -11.890625 C 1.8125 -12.691406 2.078125 -13.378906 2.609375 -13.953125 C 3.140625 -14.523438 3.828125 -14.960938 4.671875 -15.265625 C 5.523438 -15.578125 6.4375 -15.734375 7.40625 -15.734375 C 8.882812 -15.734375 9.988281 -15.519531 10.71875 -15.09375 C 11.445312 -14.675781 11.929688 -14.078125 12.171875 -13.296875 C 12.410156 -12.515625 12.53125 -11.585938 12.53125 -10.515625 L 12.53125 -5.328125 C 12.53125 -4.597656 12.539062 -4.003906 12.5625 -3.546875 C 12.59375 -3.097656 12.613281 -2.796875 12.625 -2.640625 C 12.707031 -2.085938 12.945312 -1.8125 13.34375 -1.8125 C 13.582031 -1.8125 13.789062 -1.882812 13.96875 -2.03125 C 14.144531 -2.175781 14.550781 -2.554688 15.1875 -3.171875 Z M 9.734375 -3.28125 L 9.734375 -9.15625 C 8.015625 -8.488281 6.75 -7.890625 5.9375 -7.359375 C 5.132812 -6.828125 4.617188 -6.320312 4.390625 -5.84375 C 4.160156 -5.375 4.046875 -4.894531 4.046875 -4.40625 C 4.046875 -3.625 4.269531 -2.960938 4.71875 -2.421875 C 5.175781 -1.890625 5.726562 -1.625 6.375 -1.625 C 6.8125 -1.582031 7.300781 -1.707031 7.84375 -2 C 8.394531 -2.289062 9.023438 -2.71875 9.734375 -3.28125 Z M 9.734375 -3.28125 "/></g></g></g><g fill="#000000" fill-opacity="1"><g transform="translate(225.105481, 94.426274)"><g><path d="M 9.484375 -15.734375 C 10.097656 -15.734375 10.609375 -15.5625 11.015625 -15.21875 C 11.429688 -14.875 11.640625 -14.4375 11.640625 -13.90625 C 11.640625 -13.5 11.492188 -13.132812 11.203125 -12.8125 C 10.910156 -12.488281 10.550781 -12.328125 10.125 -12.328125 C 9.757812 -12.328125 9.445312 -12.425781 9.1875 -12.625 C 8.925781 -12.832031 8.6875 -13.035156 8.46875 -13.234375 C 8.25 -13.429688 8.019531 -13.53125 7.78125 -13.53125 C 7.488281 -13.53125 7.144531 -13.296875 6.75 -12.828125 C 6.351562 -12.359375 5.941406 -11.71875 5.515625 -10.90625 L 5.515625 -3.546875 C 5.515625 -2.566406 5.691406 -1.835938 6.046875 -1.359375 C 6.410156 -0.878906 7.132812 -0.640625 8.21875 -0.640625 L 8.21875 0 L 0.28125 0 L 0.28125 -0.640625 C 0.914062 -0.640625 1.410156 -0.691406 1.765625 -0.796875 C 2.117188 -0.898438 2.367188 -1.148438 2.515625 -1.546875 C 2.660156 -1.953125 2.734375 -2.585938 2.734375 -3.453125 L 2.734375 -9.375 C 2.734375 -10.457031 2.71875 -11.253906 2.6875 -11.765625 C 2.664062 -12.273438 2.617188 -12.625 2.546875 -12.8125 C 2.472656 -13.007812 2.375 -13.175781 2.25 -13.3125 C 2 -13.457031 1.722656 -13.535156 1.421875 -13.546875 C 1.128906 -13.566406 0.75 -13.484375 0.28125 -13.296875 L 0.140625 -13.90625 L 4.875 -15.734375 L 5.515625 -15.734375 L 5.515625 -12.296875 C 6.785156 -14.585938 8.109375 -15.734375 9.484375 -15.734375 Z M 9.484375 -15.734375 "/></g></g></g><g fill="#000000" fill-opacity="1"><g transform="translate(236.832658, 94.426274)"><g><path d="M 8.78125 0 L 1.28125 0 L 1.28125 -0.640625 C 2.25 -0.640625 2.878906 -0.796875 3.171875 -1.109375 C 3.472656 -1.421875 3.625 -2.101562 3.625 -3.15625 L 3.625 -11.3125 C 3.625 -12.039062 3.546875 -12.59375 3.390625 -12.96875 C 3.234375 -13.351562 2.925781 -13.546875 2.46875 -13.546875 C 2.320312 -13.546875 2.148438 -13.523438 1.953125 -13.484375 C 1.765625 -13.441406 1.539062 -13.378906 1.28125 -13.296875 L 1.0625 -13.90625 L 5.703125 -15.734375 L 6.40625 -15.734375 L 6.40625 -3.15625 C 6.40625 -2.101562 6.554688 -1.421875 6.859375 -1.109375 C 7.171875 -0.796875 7.8125 -0.640625 8.78125 -0.640625 Z M 5.015625 -18.78125 C 4.546875 -18.78125 4.144531 -18.9375 3.8125 -19.25 C 3.488281 -19.570312 3.328125 -19.984375 3.328125 -20.484375 C 3.328125 -20.984375 3.492188 -21.382812 3.828125 -21.6875 C 4.171875 -22 4.566406 -22.15625 5.015625 -22.15625 C 5.484375 -22.15625 5.878906 -21.992188 6.203125 -21.671875 C 6.535156 -21.359375 6.703125 -20.960938 6.703125 -20.484375 C 6.703125 -20.015625 6.539062 -19.613281 6.21875 -19.28125 C 5.90625 -18.945312 5.503906 -18.78125 5.015625 -18.78125 Z M 5.015625 -18.78125 "/></g></g></g><g fill="#000000" fill-opacity="1"><g transform="translate(246.341147, 94.426274)"><g><path d="M 15.1875 -3.171875 L 15.1875 -2.203125 C 13.925781 -0.546875 12.703125 0.28125 11.515625 0.28125 C 11.023438 0.28125 10.601562 0.109375 10.25 -0.234375 C 9.90625 -0.578125 9.734375 -1.234375 9.734375 -2.203125 C 8.835938 -1.503906 8.132812 -0.972656 7.625 -0.609375 C 7.113281 -0.253906 6.660156 -0.0195312 6.265625 0.09375 C 5.878906 0.21875 5.414062 0.28125 4.875 0.28125 C 3.78125 0.28125 2.898438 -0.0703125 2.234375 -0.78125 C 1.566406 -1.5 1.234375 -2.445312 1.234375 -3.625 C 1.234375 -4.1875 1.335938 -4.722656 1.546875 -5.234375 C 1.765625 -5.742188 2.164062 -6.253906 2.75 -6.765625 C 3.34375 -7.285156 4.203125 -7.816406 5.328125 -8.359375 C 6.453125 -8.910156 7.921875 -9.5 9.734375 -10.125 L 9.734375 -10.765625 C 9.734375 -12.242188 9.5 -13.273438 9.03125 -13.859375 C 8.570312 -14.441406 7.851562 -14.734375 6.875 -14.734375 C 6.1875 -14.734375 5.640625 -14.515625 5.234375 -14.078125 C 4.835938 -13.640625 4.628906 -12.90625 4.609375 -11.875 C 4.628906 -11.382812 4.507812 -11 4.25 -10.71875 C 3.988281 -10.445312 3.644531 -10.3125 3.21875 -10.3125 C 2.28125 -10.3125 1.8125 -10.835938 1.8125 -11.890625 C 1.8125 -12.691406 2.078125 -13.378906 2.609375 -13.953125 C 3.140625 -14.523438 3.828125 -14.960938 4.671875 -15.265625 C 5.523438 -15.578125 6.4375 -15.734375 7.40625 -15.734375 C 8.882812 -15.734375 9.988281 -15.519531 10.71875 -15.09375 C 11.445312 -14.675781 11.929688 -14.078125 12.171875 -13.296875 C 12.410156 -12.515625 12.53125 -11.585938 12.53125 -10.515625 L 12.53125 -5.328125 C 12.53125 -4.597656 12.539062 -4.003906 12.5625 -3.546875 C 12.59375 -3.097656 12.613281 -2.796875 12.625 -2.640625 C 12.707031 -2.085938 12.945312 -1.8125 13.34375 -1.8125 C 13.582031 -1.8125 13.789062 -1.882812 13.96875 -2.03125 C 14.144531 -2.175781 14.550781 -2.554688 15.1875 -3.171875 Z M 9.734375 -3.28125 L 9.734375 -9.15625 C 8.015625 -8.488281 6.75 -7.890625 5.9375 -7.359375 C 5.132812 -6.828125 4.617188 -6.320312 4.390625 -5.84375 C 4.160156 -5.375 4.046875 -4.894531 4.046875 -4.40625 C 4.046875 -3.625 4.269531 -2.960938 4.71875 -2.421875 C 5.175781 -1.890625 5.726562 -1.625 6.375 -1.625 C 6.8125 -1.582031 7.300781 -1.707031 7.84375 -2 C 8.394531 -2.289062 9.023438 -2.71875 9.734375 -3.28125 Z M 9.734375 -3.28125 "/></g></g></g><g fill="#000000" fill-opacity="1"><g transform="translate(261.538097, 94.426274)"><g><path d="M 0.4375 0 L 0.4375 -0.640625 C 1.394531 -0.640625 2.015625 -0.816406 2.296875 -1.171875 C 2.585938 -1.523438 2.734375 -2.285156 2.734375 -3.453125 L 2.734375 -9.15625 C 2.734375 -10.363281 2.71875 -11.242188 2.6875 -11.796875 C 2.65625 -12.347656 2.601562 -12.71875 2.53125 -12.90625 C 2.457031 -13.101562 2.363281 -13.238281 2.25 -13.3125 C 1.863281 -13.632812 1.257812 -13.628906 0.4375 -13.296875 L 0.171875 -13.90625 L 4.84375 -15.734375 L 5.515625 -15.734375 L 5.515625 -12.53125 C 7.347656 -14.664062 9.0625 -15.734375 10.65625 -15.734375 C 12.144531 -15.734375 13.1875 -15.207031 13.78125 -14.15625 C 14.382812 -13.113281 14.6875 -11.734375 14.6875 -10.015625 L 14.6875 -3.453125 C 14.6875 -2.316406 14.820312 -1.5625 15.09375 -1.1875 C 15.375 -0.820312 16.019531 -0.640625 17.03125 -0.640625 L 17.03125 0 L 9.375 0 L 9.375 -0.640625 C 10.144531 -0.640625 10.703125 -0.707031 11.046875 -0.84375 C 11.398438 -0.988281 11.625 -1.265625 11.71875 -1.671875 C 11.820312 -2.078125 11.875 -2.671875 11.875 -3.453125 L 11.875 -9.6875 C 11.875 -11.09375 11.695312 -12.109375 11.34375 -12.734375 C 11 -13.367188 10.378906 -13.6875 9.484375 -13.6875 C 8.847656 -13.6875 8.195312 -13.507812 7.53125 -13.15625 C 6.863281 -12.800781 6.191406 -12.253906 5.515625 -11.515625 L 5.515625 -3.453125 C 5.515625 -2.660156 5.570312 -2.0625 5.6875 -1.65625 C 5.800781 -1.25 6.035156 -0.976562 6.390625 -0.84375 C 6.742188 -0.707031 7.289062 -0.640625 8.03125 -0.640625 L 8.03125 0 Z M 0.4375 0 "/></g></g></g><g fill="#000000" fill-opacity="1"><g transform="translate(278.653419, 94.426274)"><g><path d="M 8.390625 0.5 C 6.953125 0.5 5.6875 0.128906 4.59375 -0.609375 C 3.507812 -1.359375 2.664062 -2.34375 2.0625 -3.5625 C 1.457031 -4.78125 1.15625 -6.097656 1.15625 -7.515625 C 1.15625 -8.890625 1.453125 -10.203125 2.046875 -11.453125 C 2.640625 -12.703125 3.488281 -13.726562 4.59375 -14.53125 C 5.695312 -15.332031 7.015625 -15.734375 8.546875 -15.734375 C 10.023438 -15.734375 11.3125 -15.390625 12.40625 -14.703125 C 13.507812 -14.015625 14.367188 -13.078125 14.984375 -11.890625 C 15.609375 -10.710938 15.921875 -9.390625 15.921875 -7.921875 C 15.921875 -6.941406 15.765625 -5.953125 15.453125 -4.953125 C 15.140625 -3.960938 14.671875 -3.054688 14.046875 -2.234375 C 13.421875 -1.410156 12.632812 -0.75 11.6875 -0.25 C 10.75 0.25 9.648438 0.5 8.390625 0.5 Z M 9.078125 -0.71875 C 10.203125 -0.71875 11.101562 -1.160156 11.78125 -2.046875 C 12.457031 -2.929688 12.796875 -4.460938 12.796875 -6.640625 C 12.796875 -8.148438 12.597656 -9.507812 12.203125 -10.71875 C 11.816406 -11.9375 11.269531 -12.898438 10.5625 -13.609375 C 9.851562 -14.328125 9.007812 -14.6875 8.03125 -14.6875 C 7.445312 -14.6875 6.863281 -14.507812 6.28125 -14.15625 C 5.695312 -13.800781 5.207031 -13.203125 4.8125 -12.359375 C 4.425781 -11.515625 4.234375 -10.351562 4.234375 -8.875 C 4.234375 -7.414062 4.429688 -6.066406 4.828125 -4.828125 C 5.234375 -3.585938 5.800781 -2.59375 6.53125 -1.84375 C 7.257812 -1.09375 8.109375 -0.71875 9.078125 -0.71875 Z M 9.078125 -0.71875 "/></g></g></g></g></g></g></g></g></g></mask><clipPath id="115af4d9c5"><path d="M 0.597656 0 L 326.402344 0 L 326.402344 136 L 0.597656 136 Z M 0.597656 0 " clip-rule="nonzero"/></clipPath><clipPath id="f0b28025f8"><rect x="0" width="327" y="0" height="136"/></clipPath><clipPath id="9fa0eeb1f2"><rect x="0" width="327" y="0" height="136"/></clipPath><clipPath id="a1c024f6b6"><path d="M 0.609375 1.050781 L 244.050781 1.050781 L 244.050781 81 L 0.609375 81 Z M 0.609375 1.050781 " clip-rule="nonzero"/></clipPath><clipPath id="d06e542163"><path d="M 0.609375 0.0507812 L 244.050781 0.0507812 L 244.050781 80 L 0.609375 80 Z M 0.609375 0.0507812 " clip-rule="nonzero"/></clipPath><clipPath id="b95a8f97d0"><path d="M 0.609375 0.0507812 L 244.050781 0.0507812 L 244.050781 80 L 0.609375 80 Z M 0.609375 0.0507812 " clip-rule="nonzero"/></clipPath><linearGradient x1="103.758003" gradientTransform="matrix(0.802068, 0, 0, 0.80079, 39.109984, 38.487657)" y1="-48.000078" x2="103.758003" gradientUnits="userSpaceOnUse" y2="51.841474" id="43ea31e6c3"><stop stop-opacity="1" stop-color="rgb(90.589905%, 66.668701%, 31.759644%)" offset="0"/><stop stop-opacity="1" stop-color="rgb(90.589905%, 66.668701%, 31.759644%)" offset="0.25"/><stop stop-opacity="1" stop-color="rgb(90.589905%, 66.668701%, 31.759644%)" offset="0.3125"/><stop stop-opacity="1" stop-color="rgb(90.589905%, 66.668701%, 31.759644%)" offset="0.34375"/><stop stop-opacity="1" stop-color="rgb(90.589905%, 66.668701%, 31.759644%)" offset="0.359375"/><stop stop-opacity="1" stop-color="rgb(90.80658%, 67.195129%, 32.414246%)" offset="0.363281"/><stop stop-opacity="1" stop-color="rgb(91.02478%, 67.723083%, 33.068848%)" offset="0.367188"/><stop stop-opacity="1" stop-color="rgb(91.282654%, 68.345642%, 33.840942%)" offset="0.371094"/><stop stop-opacity="1" stop-color="rgb(91.540527%, 68.968201%, 34.614563%)" offset="0.375"/><stop stop-opacity="1" stop-color="rgb(91.798401%, 69.590759%, 35.386658%)" offset="0.378906"/><stop stop-opacity="1" stop-color="rgb(92.056274%, 70.213318%, 36.160278%)" offset="0.382812"/><stop stop-opacity="1" stop-color="rgb(92.312622%, 70.834351%, 36.932373%)" offset="0.386719"/><stop stop-opacity="1" stop-color="rgb(92.570496%, 71.456909%, 37.705994%)" offset="0.390625"/><stop stop-opacity="1" stop-color="rgb(92.828369%, 72.079468%, 38.478088%)" offset="0.394531"/><stop stop-opacity="1" stop-color="rgb(93.086243%, 72.702026%, 39.251709%)" offset="0.398437"/><stop stop-opacity="1" stop-color="rgb(93.34259%, 73.324585%, 40.023804%)" offset="0.402344"/><stop stop-opacity="1" stop-color="rgb(93.600464%, 73.947144%, 40.797424%)" offset="0.40625"/><stop stop-opacity="1" stop-color="rgb(93.858337%, 74.569702%, 41.569519%)" offset="0.410156"/><stop stop-opacity="1" stop-color="rgb(94.116211%, 75.192261%, 42.34314%)" offset="0.414062"/><stop stop-opacity="1" stop-color="rgb(94.372559%, 75.813293%, 43.115234%)" offset="0.417969"/><stop stop-opacity="1" stop-color="rgb(94.630432%, 76.435852%, 43.888855%)" offset="0.421875"/><stop stop-opacity="1" stop-color="rgb(94.888306%, 77.058411%, 44.66095%)" offset="0.425781"/><stop stop-opacity="1" stop-color="rgb(95.146179%, 77.680969%, 45.43457%)" offset="0.429687"/><stop stop-opacity="1" stop-color="rgb(95.402527%, 78.303528%, 46.206665%)" offset="0.433594"/><stop stop-opacity="1" stop-color="rgb(95.6604%, 78.926086%, 46.980286%)" offset="0.4375"/><stop stop-opacity="1" stop-color="rgb(95.918274%, 79.548645%, 47.75238%)" offset="0.441406"/><stop stop-opacity="1" stop-color="rgb(96.176147%, 80.171204%, 48.526001%)" offset="0.445312"/><stop stop-opacity="1" stop-color="rgb(96.434021%, 80.792236%, 49.298096%)" offset="0.449219"/><stop stop-opacity="1" stop-color="rgb(96.691895%, 81.414795%, 50.071716%)" offset="0.453125"/><stop stop-opacity="1" stop-color="rgb(96.948242%, 82.037354%, 50.843811%)" offset="0.457031"/><stop stop-opacity="1" stop-color="rgb(97.206116%, 82.659912%, 51.617432%)" offset="0.460937"/><stop stop-opacity="1" stop-color="rgb(97.463989%, 83.282471%, 52.389526%)" offset="0.464844"/><stop stop-opacity="1" stop-color="rgb(97.721863%, 83.905029%, 53.163147%)" offset="0.46875"/><stop stop-opacity="1" stop-color="rgb(97.97821%, 84.527588%, 53.935242%)" offset="0.472656"/><stop stop-opacity="1" stop-color="rgb(98.236084%, 85.150146%, 54.708862%)" offset="0.476562"/><stop stop-opacity="1" stop-color="rgb(98.493958%, 85.771179%, 55.480957%)" offset="0.480469"/><stop stop-opacity="1" stop-color="rgb(98.751831%, 86.393738%, 56.254578%)" offset="0.484375"/><stop stop-opacity="1" stop-color="rgb(99.008179%, 87.016296%, 57.026672%)" offset="0.488281"/><stop stop-opacity="1" stop-color="rgb(99.266052%, 87.638855%, 57.800293%)" offset="0.492187"/><stop stop-opacity="1" stop-color="rgb(99.523926%, 88.261414%, 58.572388%)" offset="0.496094"/><stop stop-opacity="1" stop-color="rgb(99.781799%, 88.883972%, 59.346008%)" offset="0.5"/><stop stop-opacity="1" stop-color="rgb(99.183655%, 88.290405%, 58.891296%)" offset="0.503906"/><stop stop-opacity="1" stop-color="rgb(98.58551%, 87.696838%, 58.436584%)" offset="0.507812"/><stop stop-opacity="1" stop-color="rgb(97.361755%, 86.21521%, 57.08313%)" offset="0.511719"/><stop stop-opacity="1" stop-color="rgb(96.138%, 84.735107%, 55.731201%)" offset="0.515625"/><stop stop-opacity="1" stop-color="rgb(94.914246%, 83.253479%, 54.379272%)" offset="0.519531"/><stop stop-opacity="1" stop-color="rgb(93.690491%, 81.773376%, 53.027344%)" offset="0.523438"/><stop stop-opacity="1" stop-color="rgb(92.466736%, 80.291748%, 51.673889%)" offset="0.527344"/><stop stop-opacity="1" stop-color="rgb(91.242981%, 78.81012%, 50.32196%)" offset="0.53125"/><stop stop-opacity="1" stop-color="rgb(90.019226%, 77.328491%, 48.970032%)" offset="0.535156"/><stop stop-opacity="1" stop-color="rgb(88.795471%, 75.848389%, 47.618103%)" offset="0.539062"/><stop stop-opacity="1" stop-color="rgb(87.571716%, 74.36676%, 46.266174%)" offset="0.542969"/><stop stop-opacity="1" stop-color="rgb(86.347961%, 72.885132%, 44.914246%)" offset="0.546875"/><stop stop-opacity="1" stop-color="rgb(85.124207%, 71.403503%, 43.560791%)" offset="0.550781"/><stop stop-opacity="1" stop-color="rgb(83.900452%, 69.923401%, 42.208862%)" offset="0.554688"/><stop stop-opacity="1" stop-color="rgb(82.676697%, 68.441772%, 40.856934%)" offset="0.558594"/><stop stop-opacity="1" stop-color="rgb(81.454468%, 66.960144%, 39.505005%)" offset="0.5625"/><stop stop-opacity="1" stop-color="rgb(80.230713%, 65.478516%, 38.15155%)" offset="0.566406"/><stop stop-opacity="1" stop-color="rgb(79.006958%, 63.998413%, 36.799622%)" offset="0.570312"/><stop stop-opacity="1" stop-color="rgb(77.783203%, 62.516785%, 35.447693%)" offset="0.574219"/><stop stop-opacity="1" stop-color="rgb(76.559448%, 61.035156%, 34.095764%)" offset="0.578125"/><stop stop-opacity="1" stop-color="rgb(75.335693%, 59.553528%, 32.74231%)" offset="0.582031"/><stop stop-opacity="1" stop-color="rgb(74.111938%, 58.073425%, 31.390381%)" offset="0.585938"/><stop stop-opacity="1" stop-color="rgb(72.888184%, 56.591797%, 30.038452%)" offset="0.589844"/><stop stop-opacity="1" stop-color="rgb(71.664429%, 55.111694%, 28.686523%)" offset="0.59375"/><stop stop-opacity="1" stop-color="rgb(70.440674%, 53.630066%, 27.333069%)" offset="0.597656"/><stop stop-opacity="1" stop-color="rgb(69.216919%, 52.148438%, 25.98114%)" offset="0.601562"/><stop stop-opacity="1" stop-color="rgb(67.993164%, 50.666809%, 24.629211%)" offset="0.605469"/><stop stop-opacity="1" stop-color="rgb(66.769409%, 49.186707%, 23.277283%)" offset="0.609375"/><stop stop-opacity="1" stop-color="rgb(65.545654%, 47.705078%, 21.923828%)" offset="0.613281"/><stop stop-opacity="1" stop-color="rgb(64.321899%, 46.22345%, 20.571899%)" offset="0.617188"/><stop stop-opacity="1" stop-color="rgb(63.098145%, 44.741821%, 19.219971%)" offset="0.621094"/><stop stop-opacity="1" stop-color="rgb(61.875916%, 43.261719%, 17.868042%)" offset="0.625"/><stop stop-opacity="1" stop-color="rgb(60.652161%, 41.78009%, 16.514587%)" offset="0.628906"/><stop stop-opacity="1" stop-color="rgb(59.428406%, 40.298462%, 15.162659%)" offset="0.632812"/><stop stop-opacity="1" stop-color="rgb(58.204651%, 38.816833%, 13.81073%)" offset="0.636719"/><stop stop-opacity="1" stop-color="rgb(56.980896%, 37.336731%, 12.458801%)" offset="0.640625"/><stop stop-opacity="1" stop-color="rgb(56.433105%, 36.578369%, 11.701965%)" offset="0.644531"/><stop stop-opacity="1" stop-color="rgb(55.885315%, 35.820007%, 10.946655%)" offset="0.648437"/><stop stop-opacity="1" stop-color="rgb(56.851196%, 36.679077%, 11.526489%)" offset="0.652344"/><stop stop-opacity="1" stop-color="rgb(57.818604%, 37.538147%, 12.106323%)" offset="0.65625"/><stop stop-opacity="1" stop-color="rgb(58.784485%, 38.395691%, 12.684631%)" offset="0.660156"/><stop stop-opacity="1" stop-color="rgb(59.750366%, 39.254761%, 13.264465%)" offset="0.664062"/><stop stop-opacity="1" stop-color="rgb(60.716248%, 40.113831%, 13.844299%)" offset="0.667969"/><stop stop-opacity="1" stop-color="rgb(61.682129%, 40.9729%, 14.424133%)" offset="0.671875"/><stop stop-opacity="1" stop-color="rgb(62.64801%, 41.83197%, 15.002441%)" offset="0.675781"/><stop stop-opacity="1" stop-color="rgb(63.615417%, 42.69104%, 15.582275%)" offset="0.679688"/><stop stop-opacity="1" stop-color="rgb(64.581299%, 43.548584%, 16.160583%)" offset="0.683594"/><stop stop-opacity="1" stop-color="rgb(65.54718%, 44.407654%, 16.740417%)" offset="0.6875"/><stop stop-opacity="1" stop-color="rgb(66.513062%, 45.266724%, 17.320251%)" offset="0.691406"/><stop stop-opacity="1" stop-color="rgb(67.478943%, 46.125793%, 17.900085%)" offset="0.695313"/><stop stop-opacity="1" stop-color="rgb(68.444824%, 46.984863%, 18.478394%)" offset="0.699219"/><stop stop-opacity="1" stop-color="rgb(69.412231%, 47.843933%, 19.058228%)" offset="0.703125"/><stop stop-opacity="1" stop-color="rgb(70.378113%, 48.701477%, 19.638062%)" offset="0.707031"/><stop stop-opacity="1" stop-color="rgb(71.343994%, 49.560547%, 20.217896%)" offset="0.710937"/><stop stop-opacity="1" stop-color="rgb(72.309875%, 50.419617%, 20.796204%)" offset="0.714844"/><stop stop-opacity="1" stop-color="rgb(73.275757%, 51.278687%, 21.376038%)" offset="0.71875"/><stop stop-opacity="1" stop-color="rgb(74.241638%, 52.137756%, 21.955872%)" offset="0.722656"/><stop stop-opacity="1" stop-color="rgb(75.209045%, 52.996826%, 22.535706%)" offset="0.726562"/><stop stop-opacity="1" stop-color="rgb(76.174927%, 53.85437%, 23.114014%)" offset="0.730469"/><stop stop-opacity="1" stop-color="rgb(77.140808%, 54.71344%, 23.693848%)" offset="0.734375"/><stop stop-opacity="1" stop-color="rgb(78.106689%, 55.57251%, 24.272156%)" offset="0.738281"/><stop stop-opacity="1" stop-color="rgb(79.072571%, 56.43158%, 24.85199%)" offset="0.742188"/><stop stop-opacity="1" stop-color="rgb(80.038452%, 57.290649%, 25.431824%)" offset="0.746094"/><stop stop-opacity="1" stop-color="rgb(81.005859%, 58.149719%, 26.011658%)" offset="0.75"/><stop stop-opacity="1" stop-color="rgb(81.971741%, 59.008789%, 26.589966%)" offset="0.753906"/><stop stop-opacity="1" stop-color="rgb(82.937622%, 59.867859%, 27.1698%)" offset="0.757812"/><stop stop-opacity="1" stop-color="rgb(83.903503%, 60.725403%, 27.749634%)" offset="0.761719"/><stop stop-opacity="1" stop-color="rgb(84.869385%, 61.584473%, 28.329468%)" offset="0.765625"/><stop stop-opacity="1" stop-color="rgb(85.835266%, 62.443542%, 28.907776%)" offset="0.769531"/><stop stop-opacity="1" stop-color="rgb(86.802673%, 63.302612%, 29.48761%)" offset="0.773437"/><stop stop-opacity="1" stop-color="rgb(87.768555%, 64.161682%, 30.067444%)" offset="0.777344"/><stop stop-opacity="1" stop-color="rgb(88.734436%, 65.020752%, 30.647278%)" offset="0.78125"/><stop stop-opacity="1" stop-color="rgb(89.63623%, 65.820312%, 31.188965%)" offset="0.785156"/><stop stop-opacity="1" stop-color="rgb(90.538025%, 66.619873%, 31.732178%)" offset="0.789062"/><stop stop-opacity="1" stop-color="rgb(89.904785%, 65.997314%, 31.388855%)" offset="0.792969"/><stop stop-opacity="1" stop-color="rgb(89.271545%, 65.374756%, 31.045532%)" offset="0.796875"/><stop stop-opacity="1" stop-color="rgb(88.638306%, 64.752197%, 30.702209%)" offset="0.800781"/><stop stop-opacity="1" stop-color="rgb(88.005066%, 64.129639%, 30.358887%)" offset="0.804687"/><stop stop-opacity="1" stop-color="rgb(87.371826%, 63.505554%, 30.015564%)" offset="0.808594"/><stop stop-opacity="1" stop-color="rgb(86.738586%, 62.882996%, 29.672241%)" offset="0.8125"/><stop stop-opacity="1" stop-color="rgb(86.105347%, 62.260437%, 29.328918%)" offset="0.816406"/><stop stop-opacity="1" stop-color="rgb(85.472107%, 61.637878%, 28.985596%)" offset="0.820312"/><stop stop-opacity="1" stop-color="rgb(84.838867%, 61.01532%, 28.642273%)" offset="0.824219"/><stop stop-opacity="1" stop-color="rgb(84.205627%, 60.392761%, 28.300476%)" offset="0.828125"/><stop stop-opacity="1" stop-color="rgb(83.572388%, 59.770203%, 27.957153%)" offset="0.832031"/><stop stop-opacity="1" stop-color="rgb(82.939148%, 59.147644%, 27.613831%)" offset="0.835937"/><stop stop-opacity="1" stop-color="rgb(82.305908%, 58.525085%, 27.270508%)" offset="0.839844"/><stop stop-opacity="1" stop-color="rgb(81.672668%, 57.902527%, 26.927185%)" offset="0.84375"/><stop stop-opacity="1" stop-color="rgb(81.039429%, 57.279968%, 26.583862%)" offset="0.847656"/><stop stop-opacity="1" stop-color="rgb(80.406189%, 56.65741%, 26.24054%)" offset="0.851562"/><stop stop-opacity="1" stop-color="rgb(79.772949%, 56.034851%, 25.897217%)" offset="0.855469"/><stop stop-opacity="1" stop-color="rgb(79.139709%, 55.412292%, 25.553894%)" offset="0.859375"/><stop stop-opacity="1" stop-color="rgb(78.504944%, 54.789734%, 25.210571%)" offset="0.863281"/><stop stop-opacity="1" stop-color="rgb(77.871704%, 54.167175%, 24.867249%)" offset="0.867187"/><stop stop-opacity="1" stop-color="rgb(77.238464%, 53.544617%, 24.523926%)" offset="0.871094"/><stop stop-opacity="1" stop-color="rgb(76.605225%, 52.922058%, 24.180603%)" offset="0.875"/><stop stop-opacity="1" stop-color="rgb(75.971985%, 52.297974%, 23.83728%)" offset="0.878906"/><stop stop-opacity="1" stop-color="rgb(75.338745%, 51.675415%, 23.495483%)" offset="0.882812"/><stop stop-opacity="1" stop-color="rgb(74.705505%, 51.052856%, 23.152161%)" offset="0.886719"/><stop stop-opacity="1" stop-color="rgb(74.072266%, 50.430298%, 22.808838%)" offset="0.890625"/><stop stop-opacity="1" stop-color="rgb(73.439026%, 49.807739%, 22.465515%)" offset="0.894531"/><stop stop-opacity="1" stop-color="rgb(72.805786%, 49.185181%, 22.122192%)" offset="0.898437"/><stop stop-opacity="1" stop-color="rgb(72.172546%, 48.562622%, 21.77887%)" offset="0.902344"/><stop stop-opacity="1" stop-color="rgb(71.539307%, 47.940063%, 21.435547%)" offset="0.90625"/><stop stop-opacity="1" stop-color="rgb(70.906067%, 47.317505%, 21.092224%)" offset="0.910156"/><stop stop-opacity="1" stop-color="rgb(70.272827%, 46.694946%, 20.748901%)" offset="0.914062"/><stop stop-opacity="1" stop-color="rgb(69.639587%, 46.072388%, 20.405579%)" offset="0.917969"/><stop stop-opacity="1" stop-color="rgb(69.006348%, 45.449829%, 20.062256%)" offset="0.921875"/><stop stop-opacity="1" stop-color="rgb(68.373108%, 44.827271%, 19.718933%)" offset="0.925781"/><stop stop-opacity="1" stop-color="rgb(67.739868%, 44.204712%, 19.377136%)" offset="0.929687"/><stop stop-opacity="1" stop-color="rgb(67.59491%, 44.061279%, 19.297791%)" offset="0.9375"/><stop stop-opacity="1" stop-color="rgb(67.449951%, 43.919373%, 19.219971%)" offset="1"/></linearGradient><clipPath id="9a0def47da"><rect x="0" width="245" y="0" height="80"/></clipPath><clipPath id="94684a0002"><path d="M 0.609375 0.0507812 L 244.050781 0.0507812 L 244.050781 80 L 0.609375 80 Z M 0.609375 0.0507812 " clip-rule="nonzero"/></clipPath><clipPath id="c598bd5b79"><rect x="0" width="245" y="0" height="80"/></clipPath><clipPath id="84d2fcb813"><rect x="0" width="245" y="0" height="80"/></clipPath><mask id="b9bc21c44e"><g filter="url(#eb3150e2bc)"><g><g clip-path="url(#84d2fcb813)"><g clip-path="url(#94684a0002)"><g><g clip-path="url(#c598bd5b79)"><g fill="#000000" fill-opacity="1"><g transform="translate(39.048692, 61.710593)"><g><path d="M 0.6875 -6.171875 C 0.6875 -7.097656 0.835938 -7.972656 1.140625 -8.796875 C 1.453125 -9.628906 1.894531 -10.363281 2.46875 -11 C 3.039062 -11.632812 3.722656 -12.128906 4.515625 -12.484375 C 5.316406 -12.847656 6.207031 -13.03125 7.1875 -13.03125 C 7.832031 -13.03125 8.375 -12.957031 8.8125 -12.8125 C 9.25 -12.664062 9.601562 -12.515625 9.875 -12.359375 C 10.144531 -12.210938 10.34375 -12.140625 10.46875 -12.140625 C 10.851562 -12.140625 11.113281 -12.4375 11.25 -13.03125 L 11.59375 -13.03125 L 11.875 -8.703125 L 11.59375 -8.703125 C 11.195312 -10.003906 10.632812 -10.941406 9.90625 -11.515625 C 9.175781 -12.085938 8.316406 -12.375 7.328125 -12.375 C 6.460938 -12.375 5.6875 -12.148438 5 -11.703125 C 4.320312 -11.253906 3.789062 -10.570312 3.40625 -9.65625 C 3.019531 -8.738281 2.828125 -7.578125 2.828125 -6.171875 C 2.828125 -4.335938 3.265625 -2.9375 4.140625 -1.96875 C 5.023438 -1.007812 6.179688 -0.53125 7.609375 -0.53125 C 8.171875 -0.53125 8.675781 -0.601562 9.125 -0.75 C 9.582031 -0.894531 10.03125 -1.160156 10.46875 -1.546875 C 10.90625 -1.929688 11.375 -2.476562 11.875 -3.1875 L 12.15625 -3 C 11.53125 -1.882812 10.796875 -1.054688 9.953125 -0.515625 C 9.109375 0.0234375 8.085938 0.296875 6.890625 0.296875 C 5.910156 0.296875 5.035156 0.125 4.265625 -0.21875 C 3.492188 -0.5625 2.84375 -1.035156 2.3125 -1.640625 C 1.78125 -2.242188 1.375 -2.929688 1.09375 -3.703125 C 0.820312 -4.484375 0.6875 -5.304688 0.6875 -6.171875 Z M 0.6875 -6.171875 "/></g></g><g transform="translate(51.88638, 61.710593)"><g><path d="M 4.71875 0.28125 C 3.914062 0.28125 3.207031 0.0703125 2.59375 -0.34375 C 1.976562 -0.757812 1.5 -1.3125 1.15625 -2 C 0.8125 -2.6875 0.640625 -3.425781 0.640625 -4.21875 C 0.640625 -5 0.804688 -5.738281 1.140625 -6.4375 C 1.484375 -7.144531 1.960938 -7.722656 2.578125 -8.171875 C 3.203125 -8.617188 3.945312 -8.84375 4.8125 -8.84375 C 5.632812 -8.84375 6.351562 -8.648438 6.96875 -8.265625 C 7.59375 -7.878906 8.078125 -7.351562 8.421875 -6.6875 C 8.773438 -6.03125 8.953125 -5.285156 8.953125 -4.453125 C 8.953125 -3.898438 8.863281 -3.34375 8.6875 -2.78125 C 8.507812 -2.226562 8.242188 -1.71875 7.890625 -1.25 C 7.546875 -0.789062 7.109375 -0.421875 6.578125 -0.140625 C 6.046875 0.140625 5.425781 0.28125 4.71875 0.28125 Z M 5.109375 -0.40625 C 5.734375 -0.40625 6.238281 -0.648438 6.625 -1.140625 C 7.007812 -1.640625 7.203125 -2.503906 7.203125 -3.734375 C 7.203125 -4.585938 7.09375 -5.351562 6.875 -6.03125 C 6.65625 -6.71875 6.34375 -7.257812 5.9375 -7.65625 C 5.539062 -8.0625 5.066406 -8.265625 4.515625 -8.265625 C 4.191406 -8.265625 3.863281 -8.164062 3.53125 -7.96875 C 3.207031 -7.769531 2.9375 -7.429688 2.71875 -6.953125 C 2.5 -6.472656 2.390625 -5.820312 2.390625 -5 C 2.390625 -4.175781 2.5 -3.414062 2.71875 -2.71875 C 2.945312 -2.019531 3.265625 -1.457031 3.671875 -1.03125 C 4.078125 -0.613281 4.554688 -0.40625 5.109375 -0.40625 Z M 5.109375 -0.40625 "/></g></g><g transform="translate(61.514645, 61.710593)"><g><path d="M 0.25 0 L 0.25 -0.359375 C 0.78125 -0.359375 1.125 -0.457031 1.28125 -0.65625 C 1.445312 -0.851562 1.53125 -1.28125 1.53125 -1.9375 L 1.53125 -5.15625 C 1.53125 -5.832031 1.519531 -6.328125 1.5 -6.640625 C 1.488281 -6.953125 1.460938 -7.160156 1.421875 -7.265625 C 1.378906 -7.367188 1.328125 -7.441406 1.265625 -7.484375 C 1.046875 -7.671875 0.707031 -7.671875 0.25 -7.484375 L 0.09375 -7.8125 L 2.71875 -8.84375 L 3.109375 -8.84375 L 3.109375 -7.046875 C 4.128906 -8.242188 5.09375 -8.84375 6 -8.84375 C 6.832031 -8.84375 7.414062 -8.546875 7.75 -7.953125 C 8.09375 -7.367188 8.265625 -6.59375 8.265625 -5.625 L 8.265625 -1.9375 C 8.265625 -1.300781 8.34375 -0.878906 8.5 -0.671875 C 8.65625 -0.460938 9.015625 -0.359375 9.578125 -0.359375 L 9.578125 0 L 5.28125 0 L 5.28125 -0.359375 C 5.707031 -0.359375 6.019531 -0.394531 6.21875 -0.46875 C 6.414062 -0.550781 6.539062 -0.707031 6.59375 -0.9375 C 6.65625 -1.164062 6.6875 -1.5 6.6875 -1.9375 L 6.6875 -5.453125 C 6.6875 -6.242188 6.585938 -6.8125 6.390625 -7.15625 C 6.191406 -7.507812 5.835938 -7.6875 5.328125 -7.6875 C 4.972656 -7.6875 4.609375 -7.585938 4.234375 -7.390625 C 3.859375 -7.203125 3.484375 -6.894531 3.109375 -6.46875 L 3.109375 -1.9375 C 3.109375 -1.5 3.140625 -1.164062 3.203125 -0.9375 C 3.265625 -0.707031 3.394531 -0.550781 3.59375 -0.46875 C 3.789062 -0.394531 4.097656 -0.359375 4.515625 -0.359375 L 4.515625 0 Z M 0.25 0 "/></g></g><g transform="translate(71.142911, 61.710593)"><g><path d="M 6.828125 -2.171875 C 6.828125 -1.734375 6.691406 -1.328125 6.421875 -0.953125 C 6.148438 -0.578125 5.796875 -0.273438 5.359375 -0.046875 C 4.921875 0.171875 4.445312 0.28125 3.9375 0.28125 C 3.476562 0.28125 3.050781 0.191406 2.65625 0.015625 C 2.257812 -0.160156 1.921875 -0.265625 1.640625 -0.296875 C 1.554688 -0.296875 1.484375 -0.242188 1.421875 -0.140625 C 1.367188 -0.046875 1.328125 0.0390625 1.296875 0.125 L 0.984375 0.125 L 0.984375 -2.953125 L 1.296875 -2.953125 C 1.453125 -2.078125 1.78125 -1.414062 2.28125 -0.96875 C 2.78125 -0.519531 3.332031 -0.296875 3.9375 -0.296875 C 4.40625 -0.296875 4.769531 -0.421875 5.03125 -0.671875 C 5.289062 -0.929688 5.421875 -1.226562 5.421875 -1.5625 C 5.429688 -1.96875 5.332031 -2.304688 5.125 -2.578125 C 4.914062 -2.847656 4.640625 -3.082031 4.296875 -3.28125 C 3.953125 -3.488281 3.585938 -3.6875 3.203125 -3.875 C 2.816406 -4.070312 2.453125 -4.285156 2.109375 -4.515625 C 1.765625 -4.742188 1.484375 -5.019531 1.265625 -5.34375 C 1.046875 -5.664062 0.9375 -6.066406 0.9375 -6.546875 C 0.9375 -7.179688 1.175781 -7.722656 1.65625 -8.171875 C 2.144531 -8.617188 2.835938 -8.84375 3.734375 -8.84375 C 4.117188 -8.84375 4.488281 -8.785156 4.84375 -8.671875 C 5.207031 -8.566406 5.460938 -8.515625 5.609375 -8.515625 C 5.703125 -8.515625 5.773438 -8.53125 5.828125 -8.5625 C 5.890625 -8.601562 5.957031 -8.695312 6.03125 -8.84375 L 6.34375 -8.84375 L 6.34375 -5.90625 L 6.03125 -5.90625 C 5.820312 -6.84375 5.515625 -7.476562 5.109375 -7.8125 C 4.703125 -8.144531 4.238281 -8.3125 3.71875 -8.3125 C 3.144531 -8.3125 2.722656 -8.207031 2.453125 -8 C 2.179688 -7.789062 2.039062 -7.519531 2.03125 -7.1875 C 2.019531 -6.820312 2.125 -6.5 2.34375 -6.21875 C 2.570312 -5.945312 2.863281 -5.703125 3.21875 -5.484375 C 3.582031 -5.273438 3.972656 -5.066406 4.390625 -4.859375 C 4.804688 -4.648438 5.195312 -4.421875 5.5625 -4.171875 C 5.9375 -3.929688 6.238281 -3.648438 6.46875 -3.328125 C 6.707031 -3.015625 6.828125 -2.628906 6.828125 -2.171875 Z M 6.828125 -2.171875 "/></g></g><g transform="translate(78.631562, 61.710593)"><g><path d="M 9.640625 -0.796875 L 7.03125 0.28125 L 6.609375 0.28125 L 6.609375 -1.5625 C 6.128906 -1.050781 5.722656 -0.664062 5.390625 -0.40625 C 5.066406 -0.144531 4.769531 0.03125 4.5 0.125 C 4.238281 0.226562 3.96875 0.28125 3.6875 0.28125 C 3.1875 0.28125 2.785156 0.175781 2.484375 -0.03125 C 2.191406 -0.25 1.972656 -0.53125 1.828125 -0.875 C 1.679688 -1.21875 1.582031 -1.582031 1.53125 -1.96875 C 1.488281 -2.351562 1.46875 -2.71875 1.46875 -3.0625 L 1.46875 -6.921875 C 1.46875 -7.472656 1.359375 -7.832031 1.140625 -8 C 0.921875 -8.175781 0.539062 -8.265625 0 -8.265625 L 0 -8.609375 L 3.03125 -8.609375 L 3.03125 -2.859375 C 3.03125 -2.523438 3.0625 -2.207031 3.125 -1.90625 C 3.195312 -1.601562 3.332031 -1.351562 3.53125 -1.15625 C 3.738281 -0.96875 4.046875 -0.875 4.453125 -0.875 C 4.710938 -0.875 5.015625 -0.957031 5.359375 -1.125 C 5.710938 -1.300781 6.128906 -1.628906 6.609375 -2.109375 L 6.609375 -6.984375 C 6.609375 -7.503906 6.5 -7.84375 6.28125 -8 C 6.0625 -8.15625 5.710938 -8.242188 5.234375 -8.265625 L 5.234375 -8.609375 L 8.1875 -8.609375 L 8.1875 -2.28125 C 8.1875 -1.769531 8.226562 -1.425781 8.3125 -1.25 C 8.40625 -1.070312 8.554688 -0.984375 8.765625 -0.984375 C 8.847656 -0.984375 8.957031 -0.992188 9.09375 -1.015625 C 9.226562 -1.035156 9.363281 -1.070312 9.5 -1.125 Z M 9.640625 -0.796875 "/></g></g><g transform="translate(88.259828, 61.710593)"><g><path d="M 4.953125 0 L 0.71875 0 L 0.71875 -0.359375 C 1.300781 -0.359375 1.65625 -0.488281 1.78125 -0.75 C 1.914062 -1.007812 1.984375 -1.40625 1.984375 -1.9375 L 1.984375 -9.734375 C 1.984375 -10.390625 1.972656 -10.867188 1.953125 -11.171875 C 1.941406 -11.472656 1.914062 -11.675781 1.875 -11.78125 C 1.832031 -11.882812 1.78125 -11.960938 1.71875 -12.015625 C 1.5625 -12.117188 1.398438 -12.15625 1.234375 -12.125 C 1.066406 -12.101562 0.894531 -12.0625 0.71875 -12 L 0.546875 -12.328125 L 3.140625 -13.359375 L 3.546875 -13.359375 L 3.546875 -1.9375 C 3.546875 -1.539062 3.570312 -1.222656 3.625 -0.984375 C 3.6875 -0.753906 3.816406 -0.59375 4.015625 -0.5 C 4.222656 -0.40625 4.535156 -0.359375 4.953125 -0.359375 Z M 4.953125 0 "/></g></g><g transform="translate(93.608864, 61.710593)"><g><path d="M 3.21875 0.28125 C 2.945312 0.28125 2.679688 0.222656 2.421875 0.109375 C 2.160156 -0.00390625 1.941406 -0.222656 1.765625 -0.546875 C 1.597656 -0.867188 1.515625 -1.351562 1.515625 -2 L 1.515625 -7.96875 L 0.140625 -7.96875 L 0.140625 -8.265625 C 0.742188 -8.484375 1.265625 -8.898438 1.703125 -9.515625 C 2.148438 -10.128906 2.519531 -10.769531 2.8125 -11.4375 L 3.09375 -11.4375 L 3.09375 -8.609375 L 5.109375 -8.609375 L 5.109375 -7.96875 L 3.09375 -7.96875 L 3.09375 -2.21875 C 3.09375 -1.664062 3.171875 -1.289062 3.328125 -1.09375 C 3.492188 -0.90625 3.695312 -0.804688 3.9375 -0.796875 C 4.175781 -0.785156 4.382812 -0.847656 4.5625 -0.984375 C 4.738281 -1.128906 4.882812 -1.320312 5 -1.5625 L 5.375 -1.5625 C 5.1875 -0.9375 4.867188 -0.472656 4.421875 -0.171875 C 3.984375 0.128906 3.582031 0.28125 3.21875 0.28125 Z M 3.21875 0.28125 "/></g></g><g transform="translate(98.957901, 61.710593)"><g><path d="M 4.71875 0.28125 C 3.914062 0.28125 3.207031 0.0703125 2.59375 -0.34375 C 1.976562 -0.757812 1.5 -1.3125 1.15625 -2 C 0.8125 -2.6875 0.640625 -3.425781 0.640625 -4.21875 C 0.640625 -5 0.804688 -5.738281 1.140625 -6.4375 C 1.484375 -7.144531 1.960938 -7.722656 2.578125 -8.171875 C 3.203125 -8.617188 3.945312 -8.84375 4.8125 -8.84375 C 5.632812 -8.84375 6.351562 -8.648438 6.96875 -8.265625 C 7.59375 -7.878906 8.078125 -7.351562 8.421875 -6.6875 C 8.773438 -6.03125 8.953125 -5.285156 8.953125 -4.453125 C 8.953125 -3.898438 8.863281 -3.34375 8.6875 -2.78125 C 8.507812 -2.226562 8.242188 -1.71875 7.890625 -1.25 C 7.546875 -0.789062 7.109375 -0.421875 6.578125 -0.140625 C 6.046875 0.140625 5.425781 0.28125 4.71875 0.28125 Z M 5.109375 -0.40625 C 5.734375 -0.40625 6.238281 -0.648438 6.625 -1.140625 C 7.007812 -1.640625 7.203125 -2.503906 7.203125 -3.734375 C 7.203125 -4.585938 7.09375 -5.351562 6.875 -6.03125 C 6.65625 -6.71875 6.34375 -7.257812 5.9375 -7.65625 C 5.539062 -8.0625 5.066406 -8.265625 4.515625 -8.265625 C 4.191406 -8.265625 3.863281 -8.164062 3.53125 -7.96875 C 3.207031 -7.769531 2.9375 -7.429688 2.71875 -6.953125 C 2.5 -6.472656 2.390625 -5.820312 2.390625 -5 C 2.390625 -4.175781 2.5 -3.414062 2.71875 -2.71875 C 2.945312 -2.019531 3.265625 -1.457031 3.671875 -1.03125 C 4.078125 -0.613281 4.554688 -0.40625 5.109375 -0.40625 Z M 5.109375 -0.40625 "/></g></g><g transform="translate(108.586167, 61.710593)"><g><path d="M 5.328125 -8.84375 C 5.679688 -8.84375 5.972656 -8.742188 6.203125 -8.546875 C 6.429688 -8.359375 6.546875 -8.113281 6.546875 -7.8125 C 6.546875 -7.59375 6.460938 -7.390625 6.296875 -7.203125 C 6.128906 -7.023438 5.929688 -6.9375 5.703125 -6.9375 C 5.492188 -6.9375 5.316406 -6.988281 5.171875 -7.09375 C 5.023438 -7.207031 4.890625 -7.320312 4.765625 -7.4375 C 4.640625 -7.550781 4.507812 -7.609375 4.375 -7.609375 C 4.207031 -7.609375 4.015625 -7.476562 3.796875 -7.21875 C 3.578125 -6.957031 3.347656 -6.597656 3.109375 -6.140625 L 3.109375 -2 C 3.109375 -1.445312 3.207031 -1.035156 3.40625 -0.765625 C 3.601562 -0.492188 4.007812 -0.359375 4.625 -0.359375 L 4.625 0 L 0.15625 0 L 0.15625 -0.359375 C 0.507812 -0.359375 0.785156 -0.382812 0.984375 -0.4375 C 1.191406 -0.5 1.332031 -0.640625 1.40625 -0.859375 C 1.488281 -1.085938 1.53125 -1.445312 1.53125 -1.9375 L 1.53125 -5.28125 C 1.53125 -5.882812 1.519531 -6.328125 1.5 -6.609375 C 1.488281 -6.898438 1.460938 -7.097656 1.421875 -7.203125 C 1.390625 -7.316406 1.335938 -7.410156 1.265625 -7.484375 C 1.117188 -7.566406 0.960938 -7.613281 0.796875 -7.625 C 0.628906 -7.632812 0.414062 -7.585938 0.15625 -7.484375 L 0.078125 -7.8125 L 2.734375 -8.84375 L 3.109375 -8.84375 L 3.109375 -6.921875 C 3.816406 -8.203125 4.554688 -8.84375 5.328125 -8.84375 Z M 5.328125 -8.84375 "/></g></g><g transform="translate(115.183312, 61.710593)"><g/></g><g transform="translate(118.420886, 61.710593)"><g><path d="M 5.9375 0 L 0.484375 0 L 0.484375 -0.359375 C 1.046875 -0.359375 1.453125 -0.429688 1.703125 -0.578125 C 1.960938 -0.722656 2.125 -0.9375 2.1875 -1.21875 C 2.257812 -1.507812 2.296875 -1.859375 2.296875 -2.265625 L 2.296875 -10.484375 C 2.296875 -11.023438 2.253906 -11.425781 2.171875 -11.6875 C 2.085938 -11.957031 1.914062 -12.140625 1.65625 -12.234375 C 1.40625 -12.335938 1.015625 -12.390625 0.484375 -12.390625 L 0.484375 -12.734375 L 5.9375 -12.734375 L 5.9375 -12.390625 C 5.382812 -12.390625 4.976562 -12.316406 4.71875 -12.171875 C 4.457031 -12.023438 4.289062 -11.8125 4.21875 -11.53125 C 4.144531 -11.257812 4.109375 -10.910156 4.109375 -10.484375 L 4.109375 -2.265625 C 4.109375 -1.734375 4.148438 -1.328125 4.234375 -1.046875 C 4.316406 -0.773438 4.488281 -0.59375 4.75 -0.5 C 5.007812 -0.40625 5.40625 -0.359375 5.9375 -0.359375 Z M 5.9375 0 "/></g></g><g transform="translate(124.820962, 61.710593)"><g><path d="M 0.28125 0 L 0.28125 -0.359375 C 0.644531 -0.359375 0.914062 -0.394531 1.09375 -0.46875 C 1.28125 -0.550781 1.40625 -0.707031 1.46875 -0.9375 C 1.53125 -1.164062 1.5625 -1.5 1.5625 -1.9375 L 1.5625 -5.234375 C 1.5625 -6.015625 1.546875 -6.609375 1.515625 -7.015625 C 1.484375 -7.421875 1.285156 -7.617188 0.921875 -7.609375 C 0.734375 -7.609375 0.519531 -7.566406 0.28125 -7.484375 L 0.125 -7.8125 L 2.734375 -8.84375 L 3.140625 -8.84375 L 3.140625 -7.03125 C 3.609375 -7.53125 4.007812 -7.910156 4.34375 -8.171875 C 4.6875 -8.429688 5 -8.609375 5.28125 -8.703125 C 5.5625 -8.796875 5.84375 -8.84375 6.125 -8.84375 C 6.632812 -8.84375 7.085938 -8.695312 7.484375 -8.40625 C 7.890625 -8.113281 8.164062 -7.65625 8.3125 -7.03125 C 8.945312 -7.757812 9.488281 -8.242188 9.9375 -8.484375 C 10.382812 -8.722656 10.84375 -8.84375 11.3125 -8.84375 C 12.007812 -8.84375 12.5625 -8.601562 12.96875 -8.125 C 13.382812 -7.644531 13.59375 -6.828125 13.59375 -5.671875 L 13.59375 -1.9375 C 13.59375 -1.28125 13.675781 -0.851562 13.84375 -0.65625 C 14.019531 -0.457031 14.375 -0.359375 14.90625 -0.359375 L 14.90625 0 L 10.65625 0 L 10.65625 -0.359375 C 11.101562 -0.359375 11.421875 -0.410156 11.609375 -0.515625 C 11.804688 -0.617188 11.921875 -0.785156 11.953125 -1.015625 C 11.992188 -1.253906 12.015625 -1.5625 12.015625 -1.9375 L 12.015625 -5.671875 C 12.015625 -6.441406 11.898438 -6.976562 11.671875 -7.28125 C 11.453125 -7.582031 11.097656 -7.734375 10.609375 -7.734375 C 10.335938 -7.734375 10.007812 -7.65625 9.625 -7.5 C 9.25 -7.34375 8.835938 -7.03125 8.390625 -6.5625 L 8.390625 -1.9375 C 8.390625 -1.53125 8.410156 -1.210938 8.453125 -0.984375 C 8.503906 -0.753906 8.625 -0.59375 8.8125 -0.5 C 9.007812 -0.40625 9.328125 -0.359375 9.765625 -0.359375 L 9.765625 0 L 5.40625 0 L 5.40625 -0.359375 C 5.894531 -0.359375 6.238281 -0.410156 6.4375 -0.515625 C 6.632812 -0.628906 6.75 -0.800781 6.78125 -1.03125 C 6.8125 -1.269531 6.828125 -1.570312 6.828125 -1.9375 L 6.828125 -5.671875 C 6.828125 -6.429688 6.691406 -6.96875 6.421875 -7.28125 C 6.160156 -7.601562 5.800781 -7.765625 5.34375 -7.765625 C 4.90625 -7.765625 4.492188 -7.632812 4.109375 -7.375 C 3.722656 -7.113281 3.398438 -6.84375 3.140625 -6.5625 L 3.140625 -1.9375 C 3.140625 -1.457031 3.175781 -1.101562 3.25 -0.875 C 3.332031 -0.65625 3.472656 -0.515625 3.671875 -0.453125 C 3.878906 -0.390625 4.164062 -0.359375 4.53125 -0.359375 L 4.53125 0 Z M 0.28125 0 "/></g></g><g transform="translate(139.798264, 61.710593)"><g><path d="M 4.71875 0.28125 C 3.914062 0.28125 3.207031 0.0703125 2.59375 -0.34375 C 1.976562 -0.757812 1.5 -1.3125 1.15625 -2 C 0.8125 -2.6875 0.640625 -3.425781 0.640625 -4.21875 C 0.640625 -5 0.804688 -5.738281 1.140625 -6.4375 C 1.484375 -7.144531 1.960938 -7.722656 2.578125 -8.171875 C 3.203125 -8.617188 3.945312 -8.84375 4.8125 -8.84375 C 5.632812 -8.84375 6.351562 -8.648438 6.96875 -8.265625 C 7.59375 -7.878906 8.078125 -7.351562 8.421875 -6.6875 C 8.773438 -6.03125 8.953125 -5.285156 8.953125 -4.453125 C 8.953125 -3.898438 8.863281 -3.34375 8.6875 -2.78125 C 8.507812 -2.226562 8.242188 -1.71875 7.890625 -1.25 C 7.546875 -0.789062 7.109375 -0.421875 6.578125 -0.140625 C 6.046875 0.140625 5.425781 0.28125 4.71875 0.28125 Z M 5.109375 -0.40625 C 5.734375 -0.40625 6.238281 -0.648438 6.625 -1.140625 C 7.007812 -1.640625 7.203125 -2.503906 7.203125 -3.734375 C 7.203125 -4.585938 7.09375 -5.351562 6.875 -6.03125 C 6.65625 -6.71875 6.34375 -7.257812 5.9375 -7.65625 C 5.539062 -8.0625 5.066406 -8.265625 4.515625 -8.265625 C 4.191406 -8.265625 3.863281 -8.164062 3.53125 -7.96875 C 3.207031 -7.769531 2.9375 -7.429688 2.71875 -6.953125 C 2.5 -6.472656 2.390625 -5.820312 2.390625 -5 C 2.390625 -4.175781 2.5 -3.414062 2.71875 -2.71875 C 2.945312 -2.019531 3.265625 -1.457031 3.671875 -1.03125 C 4.078125 -0.613281 4.554688 -0.40625 5.109375 -0.40625 Z M 5.109375 -0.40625 "/></g></g><g transform="translate(149.42653, 61.710593)"><g><path d="M 8.953125 -4.65625 C 8.953125 -3.707031 8.742188 -2.859375 8.328125 -2.109375 C 7.921875 -1.367188 7.378906 -0.785156 6.703125 -0.359375 C 6.035156 0.0664062 5.304688 0.28125 4.515625 0.28125 C 3.523438 0.28125 2.484375 -0.0859375 1.390625 -0.828125 L 1.390625 -9.734375 C 1.390625 -10.378906 1.378906 -10.847656 1.359375 -11.140625 C 1.335938 -11.441406 1.304688 -11.644531 1.265625 -11.75 C 1.222656 -11.863281 1.164062 -11.953125 1.09375 -12.015625 C 0.988281 -12.097656 0.863281 -12.140625 0.71875 -12.140625 C 0.570312 -12.140625 0.351562 -12.09375 0.0625 -12 L -0.078125 -12.328125 L 2.53125 -13.359375 L 2.96875 -13.359375 L 2.96875 -7.109375 C 3.789062 -8.265625 4.691406 -8.84375 5.671875 -8.84375 C 6.253906 -8.84375 6.796875 -8.671875 7.296875 -8.328125 C 7.796875 -7.992188 8.195312 -7.515625 8.5 -6.890625 C 8.800781 -6.265625 8.953125 -5.519531 8.953125 -4.65625 Z M 7.328125 -4.109375 C 7.328125 -5.179688 7.085938 -6.019531 6.609375 -6.625 C 6.128906 -7.238281 5.5625 -7.546875 4.90625 -7.546875 C 4.664062 -7.546875 4.398438 -7.484375 4.109375 -7.359375 C 3.828125 -7.242188 3.445312 -6.972656 2.96875 -6.546875 L 2.96875 -1.375 C 3.59375 -0.738281 4.269531 -0.421875 5 -0.421875 C 5.375 -0.421875 5.738281 -0.554688 6.09375 -0.828125 C 6.457031 -1.109375 6.753906 -1.519531 6.984375 -2.0625 C 7.210938 -2.613281 7.328125 -3.296875 7.328125 -4.109375 Z M 7.328125 -4.109375 "/></g></g><g transform="translate(159.054795, 61.710593)"><g><path d="M 4.9375 0 L 0.71875 0 L 0.71875 -0.359375 C 1.257812 -0.359375 1.613281 -0.445312 1.78125 -0.625 C 1.945312 -0.800781 2.03125 -1.1875 2.03125 -1.78125 L 2.03125 -6.359375 C 2.03125 -6.773438 1.988281 -7.085938 1.90625 -7.296875 C 1.820312 -7.515625 1.648438 -7.625 1.390625 -7.625 C 1.304688 -7.625 1.207031 -7.609375 1.09375 -7.578125 C 0.988281 -7.554688 0.863281 -7.523438 0.71875 -7.484375 L 0.59375 -7.8125 L 3.203125 -8.84375 L 3.609375 -8.84375 L 3.609375 -1.78125 C 3.609375 -1.1875 3.691406 -0.800781 3.859375 -0.625 C 4.035156 -0.445312 4.394531 -0.359375 4.9375 -0.359375 Z M 2.828125 -10.5625 C 2.554688 -10.5625 2.328125 -10.648438 2.140625 -10.828125 C 1.960938 -11.003906 1.875 -11.238281 1.875 -11.53125 C 1.875 -11.8125 1.96875 -12.035156 2.15625 -12.203125 C 2.34375 -12.378906 2.566406 -12.46875 2.828125 -12.46875 C 3.085938 -12.46875 3.304688 -12.375 3.484375 -12.1875 C 3.671875 -12.007812 3.765625 -11.789062 3.765625 -11.53125 C 3.765625 -11.257812 3.675781 -11.03125 3.5 -10.84375 C 3.320312 -10.65625 3.097656 -10.5625 2.828125 -10.5625 Z M 2.828125 -10.5625 "/></g></g><g transform="translate(164.403832, 61.710593)"><g><path d="M 4.953125 0 L 0.71875 0 L 0.71875 -0.359375 C 1.300781 -0.359375 1.65625 -0.488281 1.78125 -0.75 C 1.914062 -1.007812 1.984375 -1.40625 1.984375 -1.9375 L 1.984375 -9.734375 C 1.984375 -10.390625 1.972656 -10.867188 1.953125 -11.171875 C 1.941406 -11.472656 1.914062 -11.675781 1.875 -11.78125 C 1.832031 -11.882812 1.78125 -11.960938 1.71875 -12.015625 C 1.5625 -12.117188 1.398438 -12.15625 1.234375 -12.125 C 1.066406 -12.101562 0.894531 -12.0625 0.71875 -12 L 0.546875 -12.328125 L 3.140625 -13.359375 L 3.546875 -13.359375 L 3.546875 -1.9375 C 3.546875 -1.539062 3.570312 -1.222656 3.625 -0.984375 C 3.6875 -0.753906 3.816406 -0.59375 4.015625 -0.5 C 4.222656 -0.40625 4.535156 -0.359375 4.953125 -0.359375 Z M 4.953125 0 "/></g></g><g transform="translate(169.752868, 61.710593)"><g><path d="M 4.9375 0 L 0.71875 0 L 0.71875 -0.359375 C 1.257812 -0.359375 1.613281 -0.445312 1.78125 -0.625 C 1.945312 -0.800781 2.03125 -1.1875 2.03125 -1.78125 L 2.03125 -6.359375 C 2.03125 -6.773438 1.988281 -7.085938 1.90625 -7.296875 C 1.820312 -7.515625 1.648438 -7.625 1.390625 -7.625 C 1.304688 -7.625 1.207031 -7.609375 1.09375 -7.578125 C 0.988281 -7.554688 0.863281 -7.523438 0.71875 -7.484375 L 0.59375 -7.8125 L 3.203125 -8.84375 L 3.609375 -8.84375 L 3.609375 -1.78125 C 3.609375 -1.1875 3.691406 -0.800781 3.859375 -0.625 C 4.035156 -0.445312 4.394531 -0.359375 4.9375 -0.359375 Z M 2.828125 -10.5625 C 2.554688 -10.5625 2.328125 -10.648438 2.140625 -10.828125 C 1.960938 -11.003906 1.875 -11.238281 1.875 -11.53125 C 1.875 -11.8125 1.96875 -12.035156 2.15625 -12.203125 C 2.34375 -12.378906 2.566406 -12.46875 2.828125 -12.46875 C 3.085938 -12.46875 3.304688 -12.375 3.484375 -12.1875 C 3.671875 -12.007812 3.765625 -11.789062 3.765625 -11.53125 C 3.765625 -11.257812 3.675781 -11.03125 3.5 -10.84375 C 3.320312 -10.65625 3.097656 -10.5625 2.828125 -10.5625 Z M 2.828125 -10.5625 "/></g></g><g transform="translate(175.101905, 61.710593)"><g><path d="M 8.546875 -1.78125 L 8.546875 -1.234375 C 7.835938 -0.304688 7.144531 0.15625 6.46875 0.15625 C 6.195312 0.15625 5.960938 0.0625 5.765625 -0.125 C 5.566406 -0.320312 5.46875 -0.691406 5.46875 -1.234375 C 4.96875 -0.835938 4.570312 -0.539062 4.28125 -0.34375 C 4 -0.144531 3.75 -0.015625 3.53125 0.046875 C 3.3125 0.117188 3.046875 0.15625 2.734375 0.15625 C 2.128906 0.15625 1.632812 -0.0390625 1.25 -0.4375 C 0.875 -0.84375 0.6875 -1.375 0.6875 -2.03125 C 0.6875 -2.351562 0.742188 -2.65625 0.859375 -2.9375 C 0.984375 -3.226562 1.210938 -3.515625 1.546875 -3.796875 C 1.878906 -4.085938 2.359375 -4.390625 2.984375 -4.703125 C 3.617188 -5.015625 4.445312 -5.347656 5.46875 -5.703125 L 5.46875 -6.046875 C 5.46875 -6.878906 5.335938 -7.457031 5.078125 -7.78125 C 4.816406 -8.113281 4.410156 -8.28125 3.859375 -8.28125 C 3.472656 -8.28125 3.164062 -8.15625 2.9375 -7.90625 C 2.71875 -7.664062 2.601562 -7.257812 2.59375 -6.6875 C 2.601562 -6.40625 2.535156 -6.1875 2.390625 -6.03125 C 2.242188 -5.875 2.050781 -5.796875 1.8125 -5.796875 C 1.28125 -5.796875 1.015625 -6.09375 1.015625 -6.6875 C 1.015625 -7.132812 1.164062 -7.519531 1.46875 -7.84375 C 1.769531 -8.164062 2.15625 -8.410156 2.625 -8.578125 C 3.101562 -8.753906 3.617188 -8.84375 4.171875 -8.84375 C 5.003906 -8.84375 5.625 -8.722656 6.03125 -8.484375 C 6.4375 -8.253906 6.707031 -7.921875 6.84375 -7.484375 C 6.976562 -7.046875 7.046875 -6.519531 7.046875 -5.90625 L 7.046875 -3 C 7.046875 -2.59375 7.050781 -2.257812 7.0625 -2 C 7.082031 -1.738281 7.097656 -1.566406 7.109375 -1.484375 C 7.148438 -1.171875 7.28125 -1.015625 7.5 -1.015625 C 7.632812 -1.015625 7.75 -1.054688 7.84375 -1.140625 C 7.945312 -1.222656 8.179688 -1.4375 8.546875 -1.78125 Z M 5.46875 -1.84375 L 5.46875 -5.15625 C 4.507812 -4.78125 3.800781 -4.441406 3.34375 -4.140625 C 2.894531 -3.835938 2.601562 -3.550781 2.46875 -3.28125 C 2.34375 -3.019531 2.28125 -2.753906 2.28125 -2.484375 C 2.28125 -2.046875 2.40625 -1.671875 2.65625 -1.359375 C 2.914062 -1.054688 3.222656 -0.90625 3.578125 -0.90625 C 3.828125 -0.882812 4.101562 -0.957031 4.40625 -1.125 C 4.71875 -1.289062 5.070312 -1.53125 5.46875 -1.84375 Z M 6.90625 -12.484375 C 6.90625 -12.296875 6.820312 -12.125 6.65625 -11.96875 C 6.5 -11.8125 6.320312 -11.671875 6.125 -11.546875 L 3.34375 -9.78125 L 2.5625 -9.78125 L 5.25 -12.46875 C 5.46875 -12.6875 5.65625 -12.84375 5.8125 -12.9375 C 5.96875 -13.039062 6.144531 -13.09375 6.34375 -13.09375 C 6.476562 -13.09375 6.601562 -13.035156 6.71875 -12.921875 C 6.84375 -12.804688 6.90625 -12.660156 6.90625 -12.484375 Z M 6.90625 -12.484375 "/></g></g><g transform="translate(183.650979, 61.710593)"><g><path d="M 5.328125 -8.84375 C 5.679688 -8.84375 5.972656 -8.742188 6.203125 -8.546875 C 6.429688 -8.359375 6.546875 -8.113281 6.546875 -7.8125 C 6.546875 -7.59375 6.460938 -7.390625 6.296875 -7.203125 C 6.128906 -7.023438 5.929688 -6.9375 5.703125 -6.9375 C 5.492188 -6.9375 5.316406 -6.988281 5.171875 -7.09375 C 5.023438 -7.207031 4.890625 -7.320312 4.765625 -7.4375 C 4.640625 -7.550781 4.507812 -7.609375 4.375 -7.609375 C 4.207031 -7.609375 4.015625 -7.476562 3.796875 -7.21875 C 3.578125 -6.957031 3.347656 -6.597656 3.109375 -6.140625 L 3.109375 -2 C 3.109375 -1.445312 3.207031 -1.035156 3.40625 -0.765625 C 3.601562 -0.492188 4.007812 -0.359375 4.625 -0.359375 L 4.625 0 L 0.15625 0 L 0.15625 -0.359375 C 0.507812 -0.359375 0.785156 -0.382812 0.984375 -0.4375 C 1.191406 -0.5 1.332031 -0.640625 1.40625 -0.859375 C 1.488281 -1.085938 1.53125 -1.445312 1.53125 -1.9375 L 1.53125 -5.28125 C 1.53125 -5.882812 1.519531 -6.328125 1.5 -6.609375 C 1.488281 -6.898438 1.460938 -7.097656 1.421875 -7.203125 C 1.390625 -7.316406 1.335938 -7.410156 1.265625 -7.484375 C 1.117188 -7.566406 0.960938 -7.613281 0.796875 -7.625 C 0.628906 -7.632812 0.414062 -7.585938 0.15625 -7.484375 L 0.078125 -7.8125 L 2.734375 -8.84375 L 3.109375 -8.84375 L 3.109375 -6.921875 C 3.816406 -8.203125 4.554688 -8.84375 5.328125 -8.84375 Z M 5.328125 -8.84375 "/></g></g><g transform="translate(190.248124, 61.710593)"><g><path d="M 4.9375 0 L 0.71875 0 L 0.71875 -0.359375 C 1.257812 -0.359375 1.613281 -0.445312 1.78125 -0.625 C 1.945312 -0.800781 2.03125 -1.1875 2.03125 -1.78125 L 2.03125 -6.359375 C 2.03125 -6.773438 1.988281 -7.085938 1.90625 -7.296875 C 1.820312 -7.515625 1.648438 -7.625 1.390625 -7.625 C 1.304688 -7.625 1.207031 -7.609375 1.09375 -7.578125 C 0.988281 -7.554688 0.863281 -7.523438 0.71875 -7.484375 L 0.59375 -7.8125 L 3.203125 -8.84375 L 3.609375 -8.84375 L 3.609375 -1.78125 C 3.609375 -1.1875 3.691406 -0.800781 3.859375 -0.625 C 4.035156 -0.445312 4.394531 -0.359375 4.9375 -0.359375 Z M 2.828125 -10.5625 C 2.554688 -10.5625 2.328125 -10.648438 2.140625 -10.828125 C 1.960938 -11.003906 1.875 -11.238281 1.875 -11.53125 C 1.875 -11.8125 1.96875 -12.035156 2.15625 -12.203125 C 2.34375 -12.378906 2.566406 -12.46875 2.828125 -12.46875 C 3.085938 -12.46875 3.304688 -12.375 3.484375 -12.1875 C 3.671875 -12.007812 3.765625 -11.789062 3.765625 -11.53125 C 3.765625 -11.257812 3.675781 -11.03125 3.5 -10.84375 C 3.320312 -10.65625 3.097656 -10.5625 2.828125 -10.5625 Z M 2.828125 -10.5625 "/></g></g><g transform="translate(195.59716, 61.710593)"><g><path d="M 4.71875 0.28125 C 3.914062 0.28125 3.207031 0.0703125 2.59375 -0.34375 C 1.976562 -0.757812 1.5 -1.3125 1.15625 -2 C 0.8125 -2.6875 0.640625 -3.425781 0.640625 -4.21875 C 0.640625 -5 0.804688 -5.738281 1.140625 -6.4375 C 1.484375 -7.144531 1.960938 -7.722656 2.578125 -8.171875 C 3.203125 -8.617188 3.945312 -8.84375 4.8125 -8.84375 C 5.632812 -8.84375 6.351562 -8.648438 6.96875 -8.265625 C 7.59375 -7.878906 8.078125 -7.351562 8.421875 -6.6875 C 8.773438 -6.03125 8.953125 -5.285156 8.953125 -4.453125 C 8.953125 -3.898438 8.863281 -3.34375 8.6875 -2.78125 C 8.507812 -2.226562 8.242188 -1.71875 7.890625 -1.25 C 7.546875 -0.789062 7.109375 -0.421875 6.578125 -0.140625 C 6.046875 0.140625 5.425781 0.28125 4.71875 0.28125 Z M 5.109375 -0.40625 C 5.734375 -0.40625 6.238281 -0.648438 6.625 -1.140625 C 7.007812 -1.640625 7.203125 -2.503906 7.203125 -3.734375 C 7.203125 -4.585938 7.09375 -5.351562 6.875 -6.03125 C 6.65625 -6.71875 6.34375 -7.257812 5.9375 -7.65625 C 5.539062 -8.0625 5.066406 -8.265625 4.515625 -8.265625 C 4.191406 -8.265625 3.863281 -8.164062 3.53125 -7.96875 C 3.207031 -7.769531 2.9375 -7.429688 2.71875 -6.953125 C 2.5 -6.472656 2.390625 -5.820312 2.390625 -5 C 2.390625 -4.175781 2.5 -3.414062 2.71875 -2.71875 C 2.945312 -2.019531 3.265625 -1.457031 3.671875 -1.03125 C 4.078125 -0.613281 4.554688 -0.40625 5.109375 -0.40625 Z M 5.109375 -0.40625 "/></g></g></g></g></g></g></g></g></g></mask><clipPath id="ea557e779a"><path d="M 0.609375 0.0507812 L 244.050781 0.0507812 L 244.050781 80 L 0.609375 80 Z M 0.609375 0.0507812 " clip-rule="nonzero"/></clipPath><clipPath id="9f56fb0a96"><rect x="0" width="245" y="0" height="80"/></clipPath><clipPath id="605d3da88e"><rect x="0" width="245" y="0" height="80"/></clipPath><clipPath id="b81952e273"><rect x="0" width="245" y="0" height="81"/></clipPath></defs><g clip-path="url(#1c9480f4a4)"><path fill="#7a4900" d="M 125.566406 -0.00390625 L 195.117188 -0.00390625 L 195.117188 3.117188 L 125.566406 3.117188 Z M 125.566406 -0.00390625 " fill-opacity="1" fill-rule="nonzero"/></g><g clip-path="url(#3cf21840f0)"><path fill="#7a4900" d="M 161.976562 66.519531 L 167.105469 62.542969 L 167.105469 10.140625 L 171.714844 10.140625 L 171.714844 58.976562 L 176.832031 55 L 176.832031 10.140625 L 181.523438 10.140625 L 181.523438 51.371094 L 186.640625 47.402344 L 186.640625 10.140625 L 190.324219 10.140625 L 190.324219 5.164062 L 161.976562 5.164062 Z M 161.976562 66.519531 " fill-opacity="1" fill-rule="nonzero"/></g><g clip-path="url(#2f6606709a)"><path fill="#7a4900" d="M 158.703125 5.160156 L 158.703125 15.121094 L 153.574219 15.121094 L 153.574219 10.144531 L 139.164062 10.144531 L 139.164062 43.886719 L 153.574219 55.050781 L 153.574219 40.53125 L 146.871094 35.335938 L 146.871094 27.835938 L 158.703125 37.003906 L 158.703125 66.515625 L 134.03125 47.40625 L 134.03125 10.144531 L 130.355469 10.144531 L 130.355469 5.160156 Z M 158.703125 5.160156 " fill-opacity="1" fill-rule="nonzero"/></g><g clip-path="url(#ba83930b32)"><g><g clip-path="url(#9fa0eeb1f2)"><g clip-path="url(#55d53dbcc2)"><g mask="url(#3a38089fca)"><g><g clip-path="url(#f0b28025f8)"><g clip-path="url(#115af4d9c5)"><path fill="url(#a39d71a085)" d="M 0.597656 0 L 0.597656 136 L 326.402344 136 L 326.402344 0 Z M 0.597656 0 " fill-rule="nonzero"/></g></g></g></g></g></g></g></g><g transform="matrix(1, 0, 0, 1, 41, 55)"><g clip-path="url(#b81952e273)"><g clip-path="url(#a1c024f6b6)"><g transform="matrix(1, 0, 0, 1, 0, 1)"><g clip-path="url(#605d3da88e)"><g clip-path="url(#d06e542163)"><g mask="url(#b9bc21c44e)"><g><g clip-path="url(#9f56fb0a96)"><g clip-path="url(#ea557e779a)"><path fill="url(#43ea31e6c3)" d="M 0.609375 0.0507812 L 0.609375 80 L 244.050781 80 L 244.050781 0.0507812 Z M 0.609375 0.0507812 " fill-rule="nonzero"/></g></g></g></g></g></g></g></g></g></g></svg>