<svg xmlns="http://www.w3.org/2000/svg" xmlns:xlink="http://www.w3.org/1999/xlink" width="433" zoomAndPan="magnify" viewBox="0 0 324.75 135.000003" height="180" preserveAspectRatio="xMidYMid meet" version="1.0"><defs><g/><clipPath id="7f1029cb20"><path d="M 129.613281 0 L 194.382812 0 L 194.382812 3 L 129.613281 3 Z M 129.613281 0 " clip-rule="nonzero"/></clipPath><clipPath id="91d67a201b"><path d="M 163 4 L 190 4 L 190 61.792969 L 163 61.792969 Z M 163 4 " clip-rule="nonzero"/></clipPath><clipPath id="f264011044"><path d="M 134 4 L 161 4 L 161 61.792969 L 134 61.792969 Z M 134 4 " clip-rule="nonzero"/></clipPath><clipPath id="41fd5fbd9f"><rect x="0" width="264" y="0" height="82"/></clipPath><clipPath id="d3fc4004ca"><rect x="0" width="166" y="0" height="46"/></clipPath></defs><g clip-path="url(#7f1029cb20)"><path fill="#ffffff" d="M 129.617188 -0.00390625 L 194.285156 -0.00390625 L 194.285156 2.898438 L 129.617188 2.898438 Z M 129.617188 -0.00390625 " fill-opacity="1" fill-rule="nonzero"/></g><g clip-path="url(#91d67a201b)"><path fill="#ffffff" d="M 163.472656 61.851562 L 168.238281 58.15625 L 168.238281 9.429688 L 172.527344 9.429688 L 172.527344 54.839844 L 177.285156 51.140625 L 177.285156 9.429688 L 181.644531 9.429688 L 181.644531 47.765625 L 186.40625 44.078125 L 186.40625 9.429688 L 189.828125 9.429688 L 189.828125 4.800781 L 163.472656 4.800781 Z M 163.472656 61.851562 " fill-opacity="1" fill-rule="nonzero"/></g><g clip-path="url(#f264011044)"><path fill="#ffffff" d="M 160.425781 4.796875 L 160.425781 14.058594 L 155.660156 14.058594 L 155.660156 9.433594 L 142.261719 9.433594 L 142.261719 40.804688 L 155.660156 51.1875 L 155.660156 37.6875 L 149.425781 32.855469 L 149.425781 25.882812 L 160.425781 34.40625 L 160.425781 61.847656 L 137.484375 44.082031 L 137.484375 9.433594 L 134.070312 9.433594 L 134.070312 4.796875 Z M 160.425781 4.796875 " fill-opacity="1" fill-rule="nonzero"/></g><g transform="matrix(1, 0, 0, 1, 30, 33)"><g clip-path="url(#41fd5fbd9f)"><g fill="#ffffff" fill-opacity="1"><g transform="translate(0.690346, 59.55437)"><g><path d="M 23.9375 -11.625 C 23.164062 -11.625 22.601562 -11.484375 22.25 -11.203125 C 21.90625 -10.921875 21.6875 -10.53125 21.59375 -10.03125 C 21.5 -9.539062 21.453125 -8.972656 21.453125 -8.328125 L 21.453125 -1.484375 C 20.210938 -0.765625 18.941406 -0.25 17.640625 0.0625 C 16.335938 0.375 14.984375 0.53125 13.578125 0.53125 C 10.984375 0.53125 8.757812 0.0234375 6.90625 -0.984375 C 5.0625 -2.003906 3.644531 -3.375 2.65625 -5.09375 C 1.664062 -6.8125 1.171875 -8.734375 1.171875 -10.859375 C 1.171875 -12.316406 1.425781 -13.753906 1.9375 -15.171875 C 2.445312 -16.597656 3.203125 -17.894531 4.203125 -19.0625 C 5.210938 -20.238281 6.453125 -21.175781 7.921875 -21.875 C 9.398438 -22.582031 11.109375 -22.9375 13.046875 -22.9375 C 14.296875 -22.9375 15.335938 -22.8125 16.171875 -22.5625 C 17.015625 -22.320312 17.691406 -22.082031 18.203125 -21.84375 C 18.710938 -21.613281 19.101562 -21.5 19.375 -21.5 C 19.507812 -21.5 19.664062 -21.585938 19.84375 -21.765625 C 20.019531 -21.953125 20.128906 -22.34375 20.171875 -22.9375 L 20.796875 -22.9375 L 21.359375 -15.84375 L 20.796875 -15.84375 C 20.078125 -17.988281 19.082031 -19.515625 17.8125 -20.421875 C 16.539062 -21.328125 15.066406 -21.78125 13.390625 -21.78125 C 11.578125 -21.78125 10.046875 -21.328125 8.796875 -20.421875 C 7.546875 -19.523438 6.597656 -18.3125 5.953125 -16.78125 C 5.316406 -15.25 4.988281 -13.523438 4.96875 -11.609375 C 4.945312 -9.472656 5.316406 -7.578125 6.078125 -5.921875 C 6.835938 -4.265625 7.875 -2.96875 9.1875 -2.03125 C 10.5 -1.09375 11.976562 -0.625 13.625 -0.625 C 14.414062 -0.625 15.195312 -0.71875 15.96875 -0.90625 C 16.738281 -1.09375 17.492188 -1.410156 18.234375 -1.859375 L 18.234375 -8.328125 C 18.234375 -9.253906 18.15625 -9.953125 18 -10.421875 C 17.851562 -10.890625 17.570312 -11.203125 17.15625 -11.359375 C 16.738281 -11.523438 16.125 -11.613281 15.3125 -11.625 L 15.3125 -12.203125 L 23.9375 -12.203125 Z M 23.9375 -11.625 "/></g></g></g><g fill="#ffffff" fill-opacity="1"><g transform="translate(25.139676, 59.55437)"><g><path d="M 16.953125 -1.40625 L 12.375 0.5 L 11.625 0.5 L 11.625 -2.734375 C 10.78125 -1.847656 10.066406 -1.171875 9.484375 -0.703125 C 8.910156 -0.242188 8.390625 0.0664062 7.921875 0.234375 C 7.460938 0.410156 6.984375 0.5 6.484375 0.5 C 5.609375 0.5 4.90625 0.3125 4.375 -0.0625 C 3.851562 -0.445312 3.460938 -0.9375 3.203125 -1.53125 C 2.953125 -2.132812 2.785156 -2.773438 2.703125 -3.453125 C 2.617188 -4.140625 2.578125 -4.789062 2.578125 -5.40625 L 2.578125 -12.171875 C 2.578125 -13.148438 2.382812 -13.785156 2 -14.078125 C 1.625 -14.378906 0.957031 -14.53125 0 -14.53125 L 0 -15.140625 L 5.328125 -15.140625 L 5.328125 -5.015625 C 5.328125 -4.429688 5.382812 -3.875 5.5 -3.34375 C 5.613281 -2.820312 5.851562 -2.390625 6.21875 -2.046875 C 6.582031 -1.710938 7.125 -1.546875 7.84375 -1.546875 C 8.289062 -1.546875 8.820312 -1.691406 9.4375 -1.984375 C 10.0625 -2.285156 10.789062 -2.859375 11.625 -3.703125 L 11.625 -12.296875 C 11.625 -13.210938 11.429688 -13.804688 11.046875 -14.078125 C 10.671875 -14.359375 10.054688 -14.507812 9.203125 -14.53125 L 9.203125 -15.140625 L 14.390625 -15.140625 L 14.390625 -4.015625 C 14.390625 -3.109375 14.46875 -2.5 14.625 -2.1875 C 14.789062 -1.882812 15.054688 -1.734375 15.421875 -1.734375 C 15.578125 -1.734375 15.769531 -1.75 16 -1.78125 C 16.238281 -1.820312 16.476562 -1.890625 16.71875 -1.984375 Z M 16.953125 -1.40625 "/></g></g></g><g fill="#ffffff" fill-opacity="1"><g transform="translate(42.077565, 59.55437)"><g><path d="M 5.65625 0.5 C 5.1875 0.5 4.71875 0.398438 4.25 0.203125 C 3.789062 0.00390625 3.410156 -0.378906 3.109375 -0.953125 C 2.816406 -1.523438 2.671875 -2.378906 2.671875 -3.515625 L 2.671875 -14.015625 L 0.25 -14.015625 L 0.25 -14.53125 C 1.3125 -14.914062 2.226562 -15.648438 3 -16.734375 C 3.78125 -17.816406 4.425781 -18.945312 4.9375 -20.125 L 5.4375 -20.125 L 5.4375 -15.140625 L 8.984375 -15.140625 L 8.984375 -14.015625 L 5.4375 -14.015625 L 5.4375 -3.90625 C 5.4375 -2.925781 5.582031 -2.269531 5.875 -1.9375 C 6.164062 -1.601562 6.519531 -1.425781 6.9375 -1.40625 C 7.351562 -1.382812 7.710938 -1.492188 8.015625 -1.734375 C 8.328125 -1.984375 8.582031 -2.320312 8.78125 -2.75 L 9.453125 -2.75 C 9.117188 -1.65625 8.566406 -0.835938 7.796875 -0.296875 C 7.023438 0.234375 6.3125 0.5 5.65625 0.5 Z M 5.65625 0.5 "/></g></g></g><g fill="#ffffff" fill-opacity="1"><g transform="translate(51.487503, 59.55437)"><g><path d="M 5.65625 0.5 C 5.1875 0.5 4.71875 0.398438 4.25 0.203125 C 3.789062 0.00390625 3.410156 -0.378906 3.109375 -0.953125 C 2.816406 -1.523438 2.671875 -2.378906 2.671875 -3.515625 L 2.671875 -14.015625 L 0.25 -14.015625 L 0.25 -14.53125 C 1.3125 -14.914062 2.226562 -15.648438 3 -16.734375 C 3.78125 -17.816406 4.425781 -18.945312 4.9375 -20.125 L 5.4375 -20.125 L 5.4375 -15.140625 L 8.984375 -15.140625 L 8.984375 -14.015625 L 5.4375 -14.015625 L 5.4375 -3.90625 C 5.4375 -2.925781 5.582031 -2.269531 5.875 -1.9375 C 6.164062 -1.601562 6.519531 -1.425781 6.9375 -1.40625 C 7.351562 -1.382812 7.710938 -1.492188 8.015625 -1.734375 C 8.328125 -1.984375 8.582031 -2.320312 8.78125 -2.75 L 9.453125 -2.75 C 9.117188 -1.65625 8.566406 -0.835938 7.796875 -0.296875 C 7.023438 0.234375 6.3125 0.5 5.65625 0.5 Z M 5.65625 0.5 "/></g></g></g><g fill="#ffffff" fill-opacity="1"><g transform="translate(60.897441, 59.55437)"><g><path d="M 0.46875 0 L 0.46875 -0.625 C 1.476562 -0.625 2.109375 -0.804688 2.359375 -1.171875 C 2.617188 -1.535156 2.75 -2.1875 2.75 -3.125 L 2.75 -19.078125 C 2.75 -19.859375 2.675781 -20.429688 2.53125 -20.796875 C 2.394531 -21.171875 2.101562 -21.359375 1.65625 -21.359375 C 1.507812 -21.359375 1.332031 -21.335938 1.125 -21.296875 C 0.914062 -21.265625 0.695312 -21.195312 0.46875 -21.09375 L 0.1875 -21.671875 L 4.765625 -23.515625 L 5.53125 -23.515625 L 5.53125 -12.4375 C 6.414062 -13.75 7.273438 -14.597656 8.109375 -14.984375 C 8.953125 -15.367188 9.765625 -15.5625 10.546875 -15.5625 C 11.503906 -15.5625 12.25 -15.347656 12.78125 -14.921875 C 13.320312 -14.503906 13.710938 -13.953125 13.953125 -13.265625 C 14.191406 -12.578125 14.335938 -11.835938 14.390625 -11.046875 C 14.453125 -10.253906 14.484375 -9.488281 14.484375 -8.75 L 14.484375 -3.125 C 14.484375 -2.144531 14.609375 -1.484375 14.859375 -1.140625 C 15.117188 -0.796875 15.75 -0.625 16.75 -0.625 L 16.75 0 L 9.28125 0 L 9.28125 -0.625 C 10.238281 -0.625 10.882812 -0.78125 11.21875 -1.09375 C 11.550781 -1.40625 11.71875 -2.082031 11.71875 -3.125 L 11.71875 -8.75 C 11.71875 -9.25 11.710938 -9.773438 11.703125 -10.328125 C 11.691406 -10.878906 11.617188 -11.398438 11.484375 -11.890625 C 11.359375 -12.390625 11.125 -12.796875 10.78125 -13.109375 C 10.4375 -13.421875 9.9375 -13.578125 9.28125 -13.578125 C 8.769531 -13.578125 8.222656 -13.445312 7.640625 -13.1875 C 7.054688 -12.9375 6.351562 -12.335938 5.53125 -11.390625 L 5.53125 -3.125 C 5.53125 -2.4375 5.578125 -1.910156 5.671875 -1.546875 C 5.773438 -1.179688 6 -0.9375 6.34375 -0.8125 C 6.695312 -0.6875 7.226562 -0.625 7.9375 -0.625 L 7.9375 0 Z M 0.46875 0 "/></g></g></g><g fill="#ffffff" fill-opacity="1"><g transform="translate(77.835329, 59.55437)"><g><path d="M 8.6875 0 L 1.265625 0 L 1.265625 -0.625 C 2.222656 -0.625 2.847656 -0.78125 3.140625 -1.09375 C 3.429688 -1.40625 3.578125 -2.082031 3.578125 -3.125 L 3.578125 -11.1875 C 3.578125 -11.914062 3.5 -12.46875 3.34375 -12.84375 C 3.195312 -13.21875 2.894531 -13.40625 2.4375 -13.40625 C 2.300781 -13.40625 2.132812 -13.382812 1.9375 -13.34375 C 1.75 -13.300781 1.523438 -13.238281 1.265625 -13.15625 L 1.0625 -13.75 L 5.640625 -15.5625 L 6.34375 -15.5625 L 6.34375 -3.125 C 6.34375 -2.082031 6.492188 -1.40625 6.796875 -1.09375 C 7.097656 -0.78125 7.726562 -0.625 8.6875 -0.625 Z M 4.96875 -18.59375 C 4.5 -18.59375 4.097656 -18.75 3.765625 -19.0625 C 3.441406 -19.375 3.28125 -19.78125 3.28125 -20.28125 C 3.28125 -20.769531 3.445312 -21.164062 3.78125 -21.46875 C 4.125 -21.769531 4.519531 -21.921875 4.96875 -21.921875 C 5.425781 -21.921875 5.816406 -21.765625 6.140625 -21.453125 C 6.472656 -21.140625 6.640625 -20.75 6.640625 -20.28125 C 6.640625 -19.8125 6.484375 -19.410156 6.171875 -19.078125 C 5.859375 -18.753906 5.457031 -18.59375 4.96875 -18.59375 Z M 4.96875 -18.59375 "/></g></g></g><g fill="#ffffff" fill-opacity="1"><g transform="translate(87.245268, 59.55437)"><g><path d="M 13.53125 -5.859375 L 14.0625 -5.53125 C 13.9375 -4.539062 13.597656 -3.582031 13.046875 -2.65625 C 12.503906 -1.738281 11.789062 -0.984375 10.90625 -0.390625 C 10.019531 0.203125 9 0.5 7.84375 0.5 C 6.65625 0.5 5.554688 0.175781 4.546875 -0.46875 C 3.546875 -1.113281 2.742188 -2.023438 2.140625 -3.203125 C 1.535156 -4.390625 1.234375 -5.785156 1.234375 -7.390625 C 1.234375 -9.109375 1.53125 -10.578125 2.125 -11.796875 C 2.726562 -13.023438 3.554688 -13.960938 4.609375 -14.609375 C 5.671875 -15.253906 6.882812 -15.578125 8.25 -15.578125 C 9.925781 -15.578125 11.3125 -15.03125 12.40625 -13.9375 C 13.507812 -12.851562 14.0625 -11.359375 14.0625 -9.453125 L 3.578125 -9.453125 C 3.578125 -7.953125 3.832031 -6.664062 4.34375 -5.59375 C 4.851562 -4.519531 5.523438 -3.695312 6.359375 -3.125 C 7.203125 -2.5625 8.113281 -2.269531 9.09375 -2.25 C 10.070312 -2.226562 10.929688 -2.472656 11.671875 -2.984375 C 12.410156 -3.503906 13.03125 -4.460938 13.53125 -5.859375 Z M 3.578125 -10.375 L 10.609375 -10.375 C 10.609375 -11.476562 10.410156 -12.320312 10.015625 -12.90625 C 9.617188 -13.488281 9.160156 -13.890625 8.640625 -14.109375 C 8.128906 -14.328125 7.691406 -14.4375 7.328125 -14.4375 C 6.453125 -14.4375 5.640625 -14.085938 4.890625 -13.390625 C 4.148438 -12.691406 3.710938 -11.6875 3.578125 -10.375 Z M 3.578125 -10.375 "/></g></g></g><g fill="#ffffff" fill-opacity="1"><g transform="translate(102.28466, 59.55437)"><g><path d="M 9.375 -15.5625 C 9.988281 -15.5625 10.5 -15.390625 10.90625 -15.046875 C 11.320312 -14.710938 11.53125 -14.28125 11.53125 -13.75 C 11.53125 -13.351562 11.382812 -12.992188 11.09375 -12.671875 C 10.800781 -12.359375 10.441406 -12.203125 10.015625 -12.203125 C 9.660156 -12.203125 9.351562 -12.300781 9.09375 -12.5 C 8.832031 -12.695312 8.59375 -12.894531 8.375 -13.09375 C 8.164062 -13.289062 7.9375 -13.390625 7.6875 -13.390625 C 7.40625 -13.390625 7.066406 -13.15625 6.671875 -12.6875 C 6.285156 -12.226562 5.882812 -11.597656 5.46875 -10.796875 L 5.46875 -3.515625 C 5.46875 -2.546875 5.640625 -1.820312 5.984375 -1.34375 C 6.335938 -0.863281 7.054688 -0.625 8.140625 -0.625 L 8.140625 0 L 0.28125 0 L 0.28125 -0.625 C 0.90625 -0.625 1.394531 -0.675781 1.75 -0.78125 C 2.101562 -0.882812 2.347656 -1.132812 2.484375 -1.53125 C 2.628906 -1.925781 2.703125 -2.554688 2.703125 -3.421875 L 2.703125 -9.28125 C 2.703125 -10.34375 2.6875 -11.128906 2.65625 -11.640625 C 2.632812 -12.148438 2.585938 -12.5 2.515625 -12.6875 C 2.441406 -12.882812 2.347656 -13.046875 2.234375 -13.171875 C 1.972656 -13.316406 1.695312 -13.394531 1.40625 -13.40625 C 1.113281 -13.425781 0.738281 -13.34375 0.28125 -13.15625 L 0.125 -13.75 L 4.828125 -15.5625 L 5.46875 -15.5625 L 5.46875 -12.171875 C 6.71875 -14.429688 8.019531 -15.5625 9.375 -15.5625 Z M 9.375 -15.5625 "/></g></g></g><g fill="#ffffff" fill-opacity="1"><g transform="translate(113.89025, 59.55437)"><g><path d="M 9.375 -15.5625 C 9.988281 -15.5625 10.5 -15.390625 10.90625 -15.046875 C 11.320312 -14.710938 11.53125 -14.28125 11.53125 -13.75 C 11.53125 -13.351562 11.382812 -12.992188 11.09375 -12.671875 C 10.800781 -12.359375 10.441406 -12.203125 10.015625 -12.203125 C 9.660156 -12.203125 9.351562 -12.300781 9.09375 -12.5 C 8.832031 -12.695312 8.59375 -12.894531 8.375 -13.09375 C 8.164062 -13.289062 7.9375 -13.390625 7.6875 -13.390625 C 7.40625 -13.390625 7.066406 -13.15625 6.671875 -12.6875 C 6.285156 -12.226562 5.882812 -11.597656 5.46875 -10.796875 L 5.46875 -3.515625 C 5.46875 -2.546875 5.640625 -1.820312 5.984375 -1.34375 C 6.335938 -0.863281 7.054688 -0.625 8.140625 -0.625 L 8.140625 0 L 0.28125 0 L 0.28125 -0.625 C 0.90625 -0.625 1.394531 -0.675781 1.75 -0.78125 C 2.101562 -0.882812 2.347656 -1.132812 2.484375 -1.53125 C 2.628906 -1.925781 2.703125 -2.554688 2.703125 -3.421875 L 2.703125 -9.28125 C 2.703125 -10.34375 2.6875 -11.128906 2.65625 -11.640625 C 2.632812 -12.148438 2.585938 -12.5 2.515625 -12.6875 C 2.441406 -12.882812 2.347656 -13.046875 2.234375 -13.171875 C 1.972656 -13.316406 1.695312 -13.394531 1.40625 -13.40625 C 1.113281 -13.425781 0.738281 -13.34375 0.28125 -13.15625 L 0.125 -13.75 L 4.828125 -15.5625 L 5.46875 -15.5625 L 5.46875 -12.171875 C 6.71875 -14.429688 8.019531 -15.5625 9.375 -15.5625 Z M 9.375 -15.5625 "/></g></g></g><g fill="#ffffff" fill-opacity="1"><g transform="translate(125.495841, 59.55437)"><g><path d="M 3.21875 7.328125 C 2.570312 7.328125 2.035156 7.144531 1.609375 6.78125 C 1.179688 6.414062 0.96875 5.96875 0.96875 5.4375 C 0.96875 4.988281 1.113281 4.628906 1.40625 4.359375 C 1.695312 4.085938 2.117188 3.953125 2.671875 3.953125 C 3.023438 3.953125 3.425781 4.046875 3.875 4.234375 C 4.332031 4.429688 4.695312 4.53125 4.96875 4.53125 C 5.394531 4.53125 5.789062 4.316406 6.15625 3.890625 C 6.519531 3.460938 6.84375 2.945312 7.125 2.34375 C 7.414062 1.738281 7.660156 1.15625 7.859375 0.59375 C 8.054688 0.0390625 8.210938 -0.363281 8.328125 -0.625 L 2.890625 -12.015625 C 2.753906 -12.296875 2.582031 -12.617188 2.375 -12.984375 C 2.164062 -13.347656 1.890625 -13.679688 1.546875 -13.984375 C 1.203125 -14.296875 0.75 -14.476562 0.1875 -14.53125 L 0.1875 -15.140625 L 7.265625 -15.140625 L 7.265625 -14.53125 C 6.023438 -14.53125 5.40625 -14.15625 5.40625 -13.40625 C 5.40625 -12.976562 5.585938 -12.382812 5.953125 -11.625 L 9.625 -4.015625 L 13.03125 -12.375 C 13.195312 -12.675781 13.300781 -13.003906 13.34375 -13.359375 C 13.382812 -13.710938 13.335938 -13.984375 13.203125 -14.171875 C 13.140625 -14.234375 13.035156 -14.304688 12.890625 -14.390625 C 12.753906 -14.484375 12.390625 -14.53125 11.796875 -14.53125 L 11.796875 -15.140625 L 16.71875 -15.140625 L 16.71875 -14.53125 C 16.25 -14.507812 15.863281 -14.363281 15.5625 -14.09375 C 15.269531 -13.832031 14.910156 -13.21875 14.484375 -12.25 L 8.328125 2.875 C 7.753906 4.289062 7 5.382812 6.0625 6.15625 C 5.125 6.9375 4.175781 7.328125 3.21875 7.328125 Z M 3.21875 7.328125 "/></g></g></g><g fill="#ffffff" fill-opacity="1"><g transform="translate(142.433729, 59.55437)"><g/></g></g><g fill="#ffffff" fill-opacity="1"><g transform="translate(148.129218, 59.55437)"><g><path d="M 29.390625 0 L 19.859375 0 L 19.859375 -0.625 C 20.847656 -0.625 21.566406 -0.742188 22.015625 -0.984375 C 22.460938 -1.234375 22.742188 -1.601562 22.859375 -2.09375 C 22.984375 -2.582031 23.046875 -3.1875 23.046875 -3.90625 L 23.046875 -18.859375 L 14.390625 0 L 13.8125 0 L 5.1875 -18.859375 L 5.1875 -3.90625 C 5.1875 -3.019531 5.253906 -2.335938 5.390625 -1.859375 C 5.523438 -1.390625 5.816406 -1.066406 6.265625 -0.890625 C 6.722656 -0.710938 7.421875 -0.625 8.359375 -0.625 L 8.359375 0 L 0.59375 0 L 0.59375 -0.625 C 1.570312 -0.625 2.28125 -0.75 2.71875 -1 C 3.15625 -1.25 3.425781 -1.617188 3.53125 -2.109375 C 3.644531 -2.597656 3.703125 -3.195312 3.703125 -3.90625 L 3.703125 -18.5 C 3.703125 -19.78125 3.492188 -20.648438 3.078125 -21.109375 C 2.660156 -21.566406 1.832031 -21.796875 0.59375 -21.796875 L 0.59375 -22.40625 L 6.921875 -22.40625 L 15.046875 -4.890625 L 23.046875 -22.40625 L 29.390625 -22.40625 L 29.390625 -21.796875 C 28.410156 -21.796875 27.691406 -21.671875 27.234375 -21.421875 C 26.785156 -21.179688 26.503906 -20.816406 26.390625 -20.328125 C 26.273438 -19.835938 26.21875 -19.226562 26.21875 -18.5 L 26.21875 -3.90625 C 26.21875 -3 26.285156 -2.304688 26.421875 -1.828125 C 26.566406 -1.359375 26.867188 -1.039062 27.328125 -0.875 C 27.785156 -0.707031 28.472656 -0.625 29.390625 -0.625 Z M 29.390625 0 "/></g></g></g><g fill="#ffffff" fill-opacity="1"><g transform="translate(178.241021, 59.55437)"><g><path d="M 15.03125 -3.140625 L 15.03125 -2.171875 C 13.78125 -0.535156 12.566406 0.28125 11.390625 0.28125 C 10.910156 0.28125 10.492188 0.109375 10.140625 -0.234375 C 9.796875 -0.578125 9.625 -1.222656 9.625 -2.171875 C 8.738281 -1.484375 8.039062 -0.960938 7.53125 -0.609375 C 7.03125 -0.253906 6.585938 -0.0195312 6.203125 0.09375 C 5.816406 0.21875 5.359375 0.28125 4.828125 0.28125 C 3.742188 0.28125 2.867188 -0.0664062 2.203125 -0.765625 C 1.546875 -1.472656 1.21875 -2.410156 1.21875 -3.578125 C 1.21875 -4.140625 1.320312 -4.671875 1.53125 -5.171875 C 1.738281 -5.679688 2.132812 -6.191406 2.71875 -6.703125 C 3.300781 -7.210938 4.148438 -7.738281 5.265625 -8.28125 C 6.378906 -8.820312 7.832031 -9.398438 9.625 -10.015625 L 9.625 -10.65625 C 9.625 -12.113281 9.394531 -13.128906 8.9375 -13.703125 C 8.476562 -14.285156 7.765625 -14.578125 6.796875 -14.578125 C 6.117188 -14.578125 5.582031 -14.359375 5.1875 -13.921875 C 4.789062 -13.492188 4.582031 -12.769531 4.5625 -11.75 C 4.582031 -11.269531 4.460938 -10.890625 4.203125 -10.609375 C 3.941406 -10.335938 3.601562 -10.203125 3.1875 -10.203125 C 2.257812 -10.203125 1.796875 -10.722656 1.796875 -11.765625 C 1.796875 -12.554688 2.054688 -13.234375 2.578125 -13.796875 C 3.109375 -14.367188 3.789062 -14.804688 4.625 -15.109375 C 5.46875 -15.410156 6.367188 -15.5625 7.328125 -15.5625 C 8.796875 -15.5625 9.890625 -15.351562 10.609375 -14.9375 C 11.328125 -14.519531 11.804688 -13.925781 12.046875 -13.15625 C 12.285156 -12.382812 12.40625 -11.46875 12.40625 -10.40625 L 12.40625 -5.265625 C 12.40625 -4.546875 12.414062 -3.960938 12.4375 -3.515625 C 12.46875 -3.066406 12.488281 -2.765625 12.5 -2.609375 C 12.570312 -2.066406 12.804688 -1.796875 13.203125 -1.796875 C 13.441406 -1.796875 13.644531 -1.867188 13.8125 -2.015625 C 13.988281 -2.160156 14.394531 -2.535156 15.03125 -3.140625 Z M 9.625 -3.25 L 9.625 -9.0625 C 7.925781 -8.40625 6.675781 -7.8125 5.875 -7.28125 C 5.082031 -6.75 4.570312 -6.25 4.34375 -5.78125 C 4.125 -5.3125 4.015625 -4.835938 4.015625 -4.359375 C 4.015625 -3.585938 4.234375 -2.929688 4.671875 -2.390625 C 5.117188 -1.859375 5.664062 -1.59375 6.3125 -1.59375 C 6.738281 -1.5625 7.222656 -1.6875 7.765625 -1.96875 C 8.304688 -2.257812 8.925781 -2.6875 9.625 -3.25 Z M 9.625 -3.25 "/></g></g></g><g fill="#ffffff" fill-opacity="1"><g transform="translate(193.280413, 59.55437)"><g><path d="M 9.375 -15.5625 C 9.988281 -15.5625 10.5 -15.390625 10.90625 -15.046875 C 11.320312 -14.710938 11.53125 -14.28125 11.53125 -13.75 C 11.53125 -13.351562 11.382812 -12.992188 11.09375 -12.671875 C 10.800781 -12.359375 10.441406 -12.203125 10.015625 -12.203125 C 9.660156 -12.203125 9.351562 -12.300781 9.09375 -12.5 C 8.832031 -12.695312 8.59375 -12.894531 8.375 -13.09375 C 8.164062 -13.289062 7.9375 -13.390625 7.6875 -13.390625 C 7.40625 -13.390625 7.066406 -13.15625 6.671875 -12.6875 C 6.285156 -12.226562 5.882812 -11.597656 5.46875 -10.796875 L 5.46875 -3.515625 C 5.46875 -2.546875 5.640625 -1.820312 5.984375 -1.34375 C 6.335938 -0.863281 7.054688 -0.625 8.140625 -0.625 L 8.140625 0 L 0.28125 0 L 0.28125 -0.625 C 0.90625 -0.625 1.394531 -0.675781 1.75 -0.78125 C 2.101562 -0.882812 2.347656 -1.132812 2.484375 -1.53125 C 2.628906 -1.925781 2.703125 -2.554688 2.703125 -3.421875 L 2.703125 -9.28125 C 2.703125 -10.34375 2.6875 -11.128906 2.65625 -11.640625 C 2.632812 -12.148438 2.585938 -12.5 2.515625 -12.6875 C 2.441406 -12.882812 2.347656 -13.046875 2.234375 -13.171875 C 1.972656 -13.316406 1.695312 -13.394531 1.40625 -13.40625 C 1.113281 -13.425781 0.738281 -13.34375 0.28125 -13.15625 L 0.125 -13.75 L 4.828125 -15.5625 L 5.46875 -15.5625 L 5.46875 -12.171875 C 6.71875 -14.429688 8.019531 -15.5625 9.375 -15.5625 Z M 9.375 -15.5625 "/></g></g></g><g fill="#ffffff" fill-opacity="1"><g transform="translate(204.885991, 59.55437)"><g><path d="M 8.6875 0 L 1.265625 0 L 1.265625 -0.625 C 2.222656 -0.625 2.847656 -0.78125 3.140625 -1.09375 C 3.429688 -1.40625 3.578125 -2.082031 3.578125 -3.125 L 3.578125 -11.1875 C 3.578125 -11.914062 3.5 -12.46875 3.34375 -12.84375 C 3.195312 -13.21875 2.894531 -13.40625 2.4375 -13.40625 C 2.300781 -13.40625 2.132812 -13.382812 1.9375 -13.34375 C 1.75 -13.300781 1.523438 -13.238281 1.265625 -13.15625 L 1.0625 -13.75 L 5.640625 -15.5625 L 6.34375 -15.5625 L 6.34375 -3.125 C 6.34375 -2.082031 6.492188 -1.40625 6.796875 -1.09375 C 7.097656 -0.78125 7.726562 -0.625 8.6875 -0.625 Z M 4.96875 -18.59375 C 4.5 -18.59375 4.097656 -18.75 3.765625 -19.0625 C 3.441406 -19.375 3.28125 -19.78125 3.28125 -20.28125 C 3.28125 -20.769531 3.445312 -21.164062 3.78125 -21.46875 C 4.125 -21.769531 4.519531 -21.921875 4.96875 -21.921875 C 5.425781 -21.921875 5.816406 -21.765625 6.140625 -21.453125 C 6.472656 -21.140625 6.640625 -20.75 6.640625 -20.28125 C 6.640625 -19.8125 6.484375 -19.410156 6.171875 -19.078125 C 5.859375 -18.753906 5.457031 -18.59375 4.96875 -18.59375 Z M 4.96875 -18.59375 "/></g></g></g><g fill="#ffffff" fill-opacity="1"><g transform="translate(214.295954, 59.55437)"><g><path d="M 15.03125 -3.140625 L 15.03125 -2.171875 C 13.78125 -0.535156 12.566406 0.28125 11.390625 0.28125 C 10.910156 0.28125 10.492188 0.109375 10.140625 -0.234375 C 9.796875 -0.578125 9.625 -1.222656 9.625 -2.171875 C 8.738281 -1.484375 8.039062 -0.960938 7.53125 -0.609375 C 7.03125 -0.253906 6.585938 -0.0195312 6.203125 0.09375 C 5.816406 0.21875 5.359375 0.28125 4.828125 0.28125 C 3.742188 0.28125 2.867188 -0.0664062 2.203125 -0.765625 C 1.546875 -1.472656 1.21875 -2.410156 1.21875 -3.578125 C 1.21875 -4.140625 1.320312 -4.671875 1.53125 -5.171875 C 1.738281 -5.679688 2.132812 -6.191406 2.71875 -6.703125 C 3.300781 -7.210938 4.148438 -7.738281 5.265625 -8.28125 C 6.378906 -8.820312 7.832031 -9.398438 9.625 -10.015625 L 9.625 -10.65625 C 9.625 -12.113281 9.394531 -13.128906 8.9375 -13.703125 C 8.476562 -14.285156 7.765625 -14.578125 6.796875 -14.578125 C 6.117188 -14.578125 5.582031 -14.359375 5.1875 -13.921875 C 4.789062 -13.492188 4.582031 -12.769531 4.5625 -11.75 C 4.582031 -11.269531 4.460938 -10.890625 4.203125 -10.609375 C 3.941406 -10.335938 3.601562 -10.203125 3.1875 -10.203125 C 2.257812 -10.203125 1.796875 -10.722656 1.796875 -11.765625 C 1.796875 -12.554688 2.054688 -13.234375 2.578125 -13.796875 C 3.109375 -14.367188 3.789062 -14.804688 4.625 -15.109375 C 5.46875 -15.410156 6.367188 -15.5625 7.328125 -15.5625 C 8.796875 -15.5625 9.890625 -15.351562 10.609375 -14.9375 C 11.328125 -14.519531 11.804688 -13.925781 12.046875 -13.15625 C 12.285156 -12.382812 12.40625 -11.46875 12.40625 -10.40625 L 12.40625 -5.265625 C 12.40625 -4.546875 12.414062 -3.960938 12.4375 -3.515625 C 12.46875 -3.066406 12.488281 -2.765625 12.5 -2.609375 C 12.570312 -2.066406 12.804688 -1.796875 13.203125 -1.796875 C 13.441406 -1.796875 13.644531 -1.867188 13.8125 -2.015625 C 13.988281 -2.160156 14.394531 -2.535156 15.03125 -3.140625 Z M 9.625 -3.25 L 9.625 -9.0625 C 7.925781 -8.40625 6.675781 -7.8125 5.875 -7.28125 C 5.082031 -6.75 4.570312 -6.25 4.34375 -5.78125 C 4.125 -5.3125 4.015625 -4.835938 4.015625 -4.359375 C 4.015625 -3.585938 4.234375 -2.929688 4.671875 -2.390625 C 5.117188 -1.859375 5.664062 -1.59375 6.3125 -1.59375 C 6.738281 -1.5625 7.222656 -1.6875 7.765625 -1.96875 C 8.304688 -2.257812 8.925781 -2.6875 9.625 -3.25 Z M 9.625 -3.25 "/></g></g></g><g fill="#ffffff" fill-opacity="1"><g transform="translate(229.335334, 59.55437)"><g><path d="M 0.421875 0 L 0.421875 -0.625 C 1.367188 -0.625 1.984375 -0.800781 2.265625 -1.15625 C 2.554688 -1.507812 2.703125 -2.265625 2.703125 -3.421875 L 2.703125 -9.0625 C 2.703125 -10.25 2.6875 -11.117188 2.65625 -11.671875 C 2.625 -12.222656 2.570312 -12.59375 2.5 -12.78125 C 2.425781 -12.96875 2.335938 -13.097656 2.234375 -13.171875 C 1.847656 -13.492188 1.242188 -13.488281 0.421875 -13.15625 L 0.171875 -13.75 L 4.78125 -15.5625 L 5.46875 -15.5625 L 5.46875 -12.40625 C 7.269531 -14.507812 8.960938 -15.5625 10.546875 -15.5625 C 12.023438 -15.5625 13.054688 -15.046875 13.640625 -14.015625 C 14.234375 -12.984375 14.53125 -11.613281 14.53125 -9.90625 L 14.53125 -3.421875 C 14.53125 -2.296875 14.664062 -1.546875 14.9375 -1.171875 C 15.21875 -0.804688 15.859375 -0.625 16.859375 -0.625 L 16.859375 0 L 9.28125 0 L 9.28125 -0.625 C 10.039062 -0.625 10.59375 -0.695312 10.9375 -0.84375 C 11.28125 -0.988281 11.5 -1.257812 11.59375 -1.65625 C 11.695312 -2.0625 11.75 -2.648438 11.75 -3.421875 L 11.75 -9.59375 C 11.75 -10.976562 11.578125 -11.976562 11.234375 -12.59375 C 10.890625 -13.21875 10.269531 -13.53125 9.375 -13.53125 C 8.75 -13.53125 8.101562 -13.359375 7.4375 -13.015625 C 6.78125 -12.671875 6.125 -12.128906 5.46875 -11.390625 L 5.46875 -3.421875 C 5.46875 -2.640625 5.519531 -2.046875 5.625 -1.640625 C 5.738281 -1.242188 5.972656 -0.972656 6.328125 -0.828125 C 6.679688 -0.691406 7.21875 -0.625 7.9375 -0.625 L 7.9375 0 Z M 0.421875 0 "/></g></g></g><g fill="#ffffff" fill-opacity="1"><g transform="translate(246.273222, 59.55437)"><g><path d="M 8.296875 0.5 C 6.878906 0.5 5.628906 0.128906 4.546875 -0.609375 C 3.472656 -1.347656 2.632812 -2.316406 2.03125 -3.515625 C 1.4375 -4.722656 1.140625 -6.023438 1.140625 -7.421875 C 1.140625 -8.796875 1.429688 -10.097656 2.015625 -11.328125 C 2.609375 -12.566406 3.453125 -13.582031 4.546875 -14.375 C 5.640625 -15.164062 6.941406 -15.5625 8.453125 -15.5625 C 9.921875 -15.5625 11.195312 -15.21875 12.28125 -14.53125 C 13.375 -13.851562 14.222656 -12.929688 14.828125 -11.765625 C 15.441406 -10.597656 15.75 -9.289062 15.75 -7.84375 C 15.75 -6.875 15.59375 -5.894531 15.28125 -4.90625 C 14.976562 -3.925781 14.519531 -3.023438 13.90625 -2.203125 C 13.289062 -1.390625 12.515625 -0.734375 11.578125 -0.234375 C 10.640625 0.253906 9.546875 0.5 8.296875 0.5 Z M 8.984375 -0.703125 C 10.097656 -0.703125 10.988281 -1.140625 11.65625 -2.015625 C 12.320312 -2.890625 12.65625 -4.410156 12.65625 -6.578125 C 12.65625 -8.066406 12.460938 -9.410156 12.078125 -10.609375 C 11.691406 -11.816406 11.144531 -12.769531 10.4375 -13.46875 C 9.738281 -14.175781 8.90625 -14.53125 7.9375 -14.53125 C 7.363281 -14.53125 6.785156 -14.351562 6.203125 -14 C 5.628906 -13.65625 5.148438 -13.066406 4.765625 -12.234375 C 4.378906 -11.398438 4.1875 -10.25 4.1875 -8.78125 C 4.1875 -7.34375 4.382812 -6.007812 4.78125 -4.78125 C 5.175781 -3.550781 5.734375 -2.5625 6.453125 -1.8125 C 7.179688 -1.070312 8.023438 -0.703125 8.984375 -0.703125 Z M 8.984375 -0.703125 "/></g></g></g></g></g><g transform="matrix(1, 0, 0, 1, 84, 83)"><g clip-path="url(#d3fc4004ca)"><g fill="#ffffff" fill-opacity="1"><g transform="translate(0.567581, 32.80425)"><g><path d="M 0.6875 -6.109375 C 0.6875 -7.023438 0.835938 -7.890625 1.140625 -8.703125 C 1.441406 -9.523438 1.875 -10.25 2.4375 -10.875 C 3 -11.5 3.675781 -11.988281 4.46875 -12.34375 C 5.257812 -12.707031 6.140625 -12.890625 7.109375 -12.890625 C 7.742188 -12.890625 8.28125 -12.816406 8.71875 -12.671875 C 9.15625 -12.523438 9.503906 -12.378906 9.765625 -12.234375 C 10.035156 -12.085938 10.234375 -12.015625 10.359375 -12.015625 C 10.734375 -12.015625 10.988281 -12.304688 11.125 -12.890625 L 11.46875 -12.890625 L 11.75 -8.609375 L 11.46875 -8.609375 C 11.082031 -9.898438 10.523438 -10.828125 9.796875 -11.390625 C 9.078125 -11.953125 8.226562 -12.234375 7.25 -12.234375 C 6.394531 -12.234375 5.628906 -12.007812 4.953125 -11.5625 C 4.285156 -11.125 3.757812 -10.453125 3.375 -9.546875 C 2.988281 -8.640625 2.796875 -7.488281 2.796875 -6.09375 C 2.796875 -4.289062 3.226562 -2.910156 4.09375 -1.953125 C 4.96875 -1.003906 6.113281 -0.53125 7.53125 -0.53125 C 8.082031 -0.53125 8.582031 -0.601562 9.03125 -0.75 C 9.488281 -0.894531 9.929688 -1.15625 10.359375 -1.53125 C 10.796875 -1.90625 11.257812 -2.441406 11.75 -3.140625 L 12.03125 -2.96875 C 11.414062 -1.863281 10.6875 -1.039062 9.84375 -0.5 C 9.007812 0.03125 8 0.296875 6.8125 0.296875 C 5.84375 0.296875 4.976562 0.128906 4.21875 -0.203125 C 3.457031 -0.546875 2.8125 -1.015625 2.28125 -1.609375 C 1.757812 -2.210938 1.363281 -2.898438 1.09375 -3.671875 C 0.820312 -4.441406 0.6875 -5.253906 0.6875 -6.109375 Z M 0.6875 -6.109375 "/></g></g><g transform="translate(13.2741, 32.80425)"><g><path d="M 4.671875 0.28125 C 3.867188 0.28125 3.164062 0.0703125 2.5625 -0.34375 C 1.957031 -0.757812 1.484375 -1.304688 1.140625 -1.984375 C 0.804688 -2.660156 0.640625 -3.390625 0.640625 -4.171875 C 0.640625 -4.941406 0.804688 -5.675781 1.140625 -6.375 C 1.472656 -7.070312 1.945312 -7.640625 2.5625 -8.078125 C 3.175781 -8.523438 3.90625 -8.75 4.75 -8.75 C 5.570312 -8.75 6.289062 -8.554688 6.90625 -8.171875 C 7.519531 -7.796875 8 -7.28125 8.34375 -6.625 C 8.6875 -5.96875 8.859375 -5.226562 8.859375 -4.40625 C 8.859375 -3.863281 8.769531 -3.316406 8.59375 -2.765625 C 8.425781 -2.210938 8.164062 -1.707031 7.8125 -1.25 C 7.46875 -0.789062 7.03125 -0.421875 6.5 -0.140625 C 5.976562 0.140625 5.367188 0.28125 4.671875 0.28125 Z M 5.046875 -0.40625 C 5.671875 -0.40625 6.171875 -0.648438 6.546875 -1.140625 C 6.929688 -1.628906 7.125 -2.484375 7.125 -3.703125 C 7.125 -4.535156 7.015625 -5.289062 6.796875 -5.96875 C 6.578125 -6.644531 6.269531 -7.179688 5.875 -7.578125 C 5.476562 -7.972656 5.007812 -8.171875 4.46875 -8.171875 C 4.144531 -8.171875 3.820312 -8.070312 3.5 -7.875 C 3.175781 -7.675781 2.90625 -7.34375 2.6875 -6.875 C 2.46875 -6.40625 2.359375 -5.757812 2.359375 -4.9375 C 2.359375 -4.125 2.46875 -3.375 2.6875 -2.6875 C 2.914062 -2 3.234375 -1.445312 3.640625 -1.03125 C 4.046875 -0.613281 4.515625 -0.40625 5.046875 -0.40625 Z M 5.046875 -0.40625 "/></g></g><g transform="translate(22.803989, 32.80425)"><g><path d="M 0.234375 0 L 0.234375 -0.359375 C 0.773438 -0.359375 1.125 -0.457031 1.28125 -0.65625 C 1.4375 -0.851562 1.515625 -1.273438 1.515625 -1.921875 L 1.515625 -5.09375 C 1.515625 -5.757812 1.503906 -6.25 1.484375 -6.5625 C 1.472656 -6.875 1.445312 -7.082031 1.40625 -7.1875 C 1.363281 -7.289062 1.3125 -7.363281 1.25 -7.40625 C 1.03125 -7.582031 0.691406 -7.582031 0.234375 -7.40625 L 0.09375 -7.734375 L 2.6875 -8.75 L 3.078125 -8.75 L 3.078125 -6.96875 C 4.085938 -8.15625 5.039062 -8.75 5.9375 -8.75 C 6.757812 -8.75 7.335938 -8.457031 7.671875 -7.875 C 8.003906 -7.300781 8.171875 -6.535156 8.171875 -5.578125 L 8.171875 -1.921875 C 8.171875 -1.285156 8.25 -0.863281 8.40625 -0.65625 C 8.5625 -0.457031 8.921875 -0.359375 9.484375 -0.359375 L 9.484375 0 L 5.21875 0 L 5.21875 -0.359375 C 5.644531 -0.359375 5.953125 -0.394531 6.140625 -0.46875 C 6.335938 -0.550781 6.460938 -0.703125 6.515625 -0.921875 C 6.578125 -1.148438 6.609375 -1.484375 6.609375 -1.921875 L 6.609375 -5.390625 C 6.609375 -6.171875 6.507812 -6.734375 6.3125 -7.078125 C 6.125 -7.429688 5.78125 -7.609375 5.28125 -7.609375 C 4.925781 -7.609375 4.5625 -7.507812 4.1875 -7.3125 C 3.8125 -7.125 3.441406 -6.820312 3.078125 -6.40625 L 3.078125 -1.921875 C 3.078125 -1.484375 3.109375 -1.148438 3.171875 -0.921875 C 3.234375 -0.691406 3.363281 -0.539062 3.5625 -0.46875 C 3.757812 -0.394531 4.0625 -0.359375 4.46875 -0.359375 L 4.46875 0 Z M 0.234375 0 "/></g></g><g transform="translate(32.333878, 32.80425)"><g><path d="M 6.75 -2.140625 C 6.75 -1.710938 6.613281 -1.3125 6.34375 -0.9375 C 6.082031 -0.570312 5.734375 -0.273438 5.296875 -0.046875 C 4.867188 0.171875 4.40625 0.28125 3.90625 0.28125 C 3.445312 0.28125 3.019531 0.191406 2.625 0.015625 C 2.226562 -0.148438 1.890625 -0.253906 1.609375 -0.296875 C 1.535156 -0.296875 1.472656 -0.242188 1.421875 -0.140625 C 1.367188 -0.046875 1.320312 0.0390625 1.28125 0.125 L 0.96875 0.125 L 0.96875 -2.921875 L 1.28125 -2.921875 C 1.4375 -2.054688 1.757812 -1.398438 2.25 -0.953125 C 2.75 -0.515625 3.300781 -0.296875 3.90625 -0.296875 C 4.363281 -0.296875 4.71875 -0.421875 4.96875 -0.671875 C 5.226562 -0.921875 5.359375 -1.210938 5.359375 -1.546875 C 5.367188 -1.941406 5.269531 -2.273438 5.0625 -2.546875 C 4.851562 -2.816406 4.578125 -3.050781 4.234375 -3.25 C 3.898438 -3.457031 3.539062 -3.65625 3.15625 -3.84375 C 2.78125 -4.03125 2.421875 -4.234375 2.078125 -4.453125 C 1.742188 -4.679688 1.46875 -4.957031 1.25 -5.28125 C 1.03125 -5.601562 0.921875 -6.003906 0.921875 -6.484375 C 0.921875 -7.109375 1.160156 -7.640625 1.640625 -8.078125 C 2.128906 -8.523438 2.816406 -8.75 3.703125 -8.75 C 4.078125 -8.75 4.441406 -8.691406 4.796875 -8.578125 C 5.148438 -8.472656 5.398438 -8.421875 5.546875 -8.421875 C 5.640625 -8.421875 5.710938 -8.4375 5.765625 -8.46875 C 5.828125 -8.507812 5.894531 -8.601562 5.96875 -8.75 L 6.28125 -8.75 L 6.28125 -5.84375 L 5.96875 -5.84375 C 5.757812 -6.769531 5.453125 -7.394531 5.046875 -7.71875 C 4.648438 -8.050781 4.191406 -8.21875 3.671875 -8.21875 C 3.109375 -8.21875 2.691406 -8.113281 2.421875 -7.90625 C 2.160156 -7.707031 2.023438 -7.441406 2.015625 -7.109375 C 2.003906 -6.742188 2.109375 -6.425781 2.328125 -6.15625 C 2.546875 -5.882812 2.832031 -5.640625 3.1875 -5.421875 C 3.550781 -5.210938 3.9375 -5.003906 4.34375 -4.796875 C 4.75 -4.597656 5.132812 -4.378906 5.5 -4.140625 C 5.863281 -3.898438 6.160156 -3.617188 6.390625 -3.296875 C 6.628906 -2.984375 6.75 -2.597656 6.75 -2.140625 Z M 6.75 -2.140625 "/></g></g><g transform="translate(39.746014, 32.80425)"><g><path d="M 9.53125 -0.796875 L 6.96875 0.28125 L 6.53125 0.28125 L 6.53125 -1.546875 C 6.0625 -1.046875 5.660156 -0.664062 5.328125 -0.40625 C 5.003906 -0.144531 4.710938 0.03125 4.453125 0.125 C 4.191406 0.226562 3.925781 0.28125 3.65625 0.28125 C 3.15625 0.28125 2.757812 0.175781 2.46875 -0.03125 C 2.175781 -0.25 1.957031 -0.523438 1.8125 -0.859375 C 1.664062 -1.203125 1.566406 -1.566406 1.515625 -1.953125 C 1.472656 -2.335938 1.453125 -2.695312 1.453125 -3.03125 L 1.453125 -6.84375 C 1.453125 -7.394531 1.34375 -7.753906 1.125 -7.921875 C 0.914062 -8.085938 0.539062 -8.171875 0 -8.171875 L 0 -8.515625 L 3 -8.515625 L 3 -2.828125 C 3 -2.492188 3.03125 -2.175781 3.09375 -1.875 C 3.15625 -1.582031 3.289062 -1.34375 3.5 -1.15625 C 3.707031 -0.96875 4.007812 -0.875 4.40625 -0.875 C 4.664062 -0.875 4.96875 -0.957031 5.3125 -1.125 C 5.65625 -1.289062 6.0625 -1.609375 6.53125 -2.078125 L 6.53125 -6.921875 C 6.53125 -7.429688 6.421875 -7.765625 6.203125 -7.921875 C 5.992188 -8.078125 5.648438 -8.160156 5.171875 -8.171875 L 5.171875 -8.515625 L 8.09375 -8.515625 L 8.09375 -2.25 C 8.09375 -1.75 8.132812 -1.410156 8.21875 -1.234375 C 8.3125 -1.054688 8.460938 -0.96875 8.671875 -0.96875 C 8.753906 -0.96875 8.863281 -0.976562 9 -1 C 9.132812 -1.03125 9.269531 -1.066406 9.40625 -1.109375 Z M 9.53125 -0.796875 "/></g></g><g transform="translate(49.275903, 32.80425)"><g><path d="M 4.890625 0 L 0.71875 0 L 0.71875 -0.359375 C 1.289062 -0.359375 1.640625 -0.484375 1.765625 -0.734375 C 1.898438 -0.992188 1.96875 -1.390625 1.96875 -1.921875 L 1.96875 -9.640625 C 1.96875 -10.285156 1.957031 -10.753906 1.9375 -11.046875 C 1.914062 -11.347656 1.882812 -11.550781 1.84375 -11.65625 C 1.8125 -11.757812 1.765625 -11.835938 1.703125 -11.890625 C 1.546875 -11.992188 1.382812 -12.03125 1.21875 -12 C 1.050781 -11.976562 0.882812 -11.929688 0.71875 -11.859375 L 0.546875 -12.1875 L 3.109375 -13.21875 L 3.515625 -13.21875 L 3.515625 -1.921875 C 3.515625 -1.523438 3.539062 -1.210938 3.59375 -0.984375 C 3.65625 -0.753906 3.785156 -0.59375 3.984375 -0.5 C 4.179688 -0.40625 4.484375 -0.359375 4.890625 -0.359375 Z M 4.890625 0 "/></g></g><g transform="translate(54.570286, 32.80425)"><g><path d="M 3.1875 0.28125 C 2.914062 0.28125 2.648438 0.222656 2.390625 0.109375 C 2.128906 -0.00390625 1.914062 -0.21875 1.75 -0.53125 C 1.582031 -0.851562 1.5 -1.335938 1.5 -1.984375 L 1.5 -7.890625 L 0.140625 -7.890625 L 0.140625 -8.171875 C 0.742188 -8.390625 1.257812 -8.800781 1.6875 -9.40625 C 2.125 -10.019531 2.488281 -10.65625 2.78125 -11.3125 L 3.0625 -11.3125 L 3.0625 -8.515625 L 5.046875 -8.515625 L 5.046875 -7.890625 L 3.0625 -7.890625 L 3.0625 -2.203125 C 3.0625 -1.648438 3.140625 -1.28125 3.296875 -1.09375 C 3.460938 -0.90625 3.664062 -0.804688 3.90625 -0.796875 C 4.132812 -0.773438 4.332031 -0.832031 4.5 -0.96875 C 4.675781 -1.113281 4.820312 -1.304688 4.9375 -1.546875 L 5.3125 -1.546875 C 5.125 -0.929688 4.8125 -0.472656 4.375 -0.171875 C 3.945312 0.128906 3.550781 0.28125 3.1875 0.28125 Z M 3.1875 0.28125 "/></g></g><g transform="translate(59.864669, 32.80425)"><g><path d="M 4.671875 0.28125 C 3.867188 0.28125 3.164062 0.0703125 2.5625 -0.34375 C 1.957031 -0.757812 1.484375 -1.304688 1.140625 -1.984375 C 0.804688 -2.660156 0.640625 -3.390625 0.640625 -4.171875 C 0.640625 -4.941406 0.804688 -5.675781 1.140625 -6.375 C 1.472656 -7.070312 1.945312 -7.640625 2.5625 -8.078125 C 3.175781 -8.523438 3.90625 -8.75 4.75 -8.75 C 5.570312 -8.75 6.289062 -8.554688 6.90625 -8.171875 C 7.519531 -7.796875 8 -7.28125 8.34375 -6.625 C 8.6875 -5.96875 8.859375 -5.226562 8.859375 -4.40625 C 8.859375 -3.863281 8.769531 -3.316406 8.59375 -2.765625 C 8.425781 -2.210938 8.164062 -1.707031 7.8125 -1.25 C 7.46875 -0.789062 7.03125 -0.421875 6.5 -0.140625 C 5.976562 0.140625 5.367188 0.28125 4.671875 0.28125 Z M 5.046875 -0.40625 C 5.671875 -0.40625 6.171875 -0.648438 6.546875 -1.140625 C 6.929688 -1.628906 7.125 -2.484375 7.125 -3.703125 C 7.125 -4.535156 7.015625 -5.289062 6.796875 -5.96875 C 6.578125 -6.644531 6.269531 -7.179688 5.875 -7.578125 C 5.476562 -7.972656 5.007812 -8.171875 4.46875 -8.171875 C 4.144531 -8.171875 3.820312 -8.070312 3.5 -7.875 C 3.175781 -7.675781 2.90625 -7.34375 2.6875 -6.875 C 2.46875 -6.40625 2.359375 -5.757812 2.359375 -4.9375 C 2.359375 -4.125 2.46875 -3.375 2.6875 -2.6875 C 2.914062 -2 3.234375 -1.445312 3.640625 -1.03125 C 4.046875 -0.613281 4.515625 -0.40625 5.046875 -0.40625 Z M 5.046875 -0.40625 "/></g></g><g transform="translate(69.394558, 32.80425)"><g><path d="M 5.28125 -8.75 C 5.625 -8.75 5.910156 -8.65625 6.140625 -8.46875 C 6.367188 -8.28125 6.484375 -8.035156 6.484375 -7.734375 C 6.484375 -7.515625 6.398438 -7.3125 6.234375 -7.125 C 6.066406 -6.945312 5.867188 -6.859375 5.640625 -6.859375 C 5.429688 -6.859375 5.253906 -6.914062 5.109375 -7.03125 C 4.960938 -7.144531 4.828125 -7.253906 4.703125 -7.359375 C 4.585938 -7.472656 4.460938 -7.53125 4.328125 -7.53125 C 4.160156 -7.53125 3.96875 -7.398438 3.75 -7.140625 C 3.53125 -6.878906 3.304688 -6.523438 3.078125 -6.078125 L 3.078125 -1.984375 C 3.078125 -1.429688 3.175781 -1.019531 3.375 -0.75 C 3.570312 -0.488281 3.972656 -0.359375 4.578125 -0.359375 L 4.578125 0 L 0.15625 0 L 0.15625 -0.359375 C 0.507812 -0.359375 0.785156 -0.382812 0.984375 -0.4375 C 1.179688 -0.5 1.316406 -0.640625 1.390625 -0.859375 C 1.472656 -1.085938 1.515625 -1.441406 1.515625 -1.921875 L 1.515625 -5.21875 C 1.515625 -5.820312 1.503906 -6.265625 1.484375 -6.546875 C 1.472656 -6.828125 1.445312 -7.019531 1.40625 -7.125 C 1.375 -7.238281 1.320312 -7.332031 1.25 -7.40625 C 1.113281 -7.488281 0.960938 -7.535156 0.796875 -7.546875 C 0.628906 -7.554688 0.414062 -7.507812 0.15625 -7.40625 L 0.078125 -7.734375 L 2.71875 -8.75 L 3.078125 -8.75 L 3.078125 -6.84375 C 3.773438 -8.113281 4.507812 -8.75 5.28125 -8.75 Z M 5.28125 -8.75 "/></g></g><g transform="translate(75.924296, 32.80425)"><g/></g><g transform="translate(79.128791, 32.80425)"><g><path d="M 5.875 0 L 0.46875 0 L 0.46875 -0.359375 C 1.03125 -0.359375 1.4375 -0.429688 1.6875 -0.578125 C 1.945312 -0.722656 2.109375 -0.9375 2.171875 -1.21875 C 2.234375 -1.5 2.265625 -1.835938 2.265625 -2.234375 L 2.265625 -10.375 C 2.265625 -10.90625 2.222656 -11.300781 2.140625 -11.5625 C 2.066406 -11.832031 1.898438 -12.015625 1.640625 -12.109375 C 1.390625 -12.203125 1 -12.25 0.46875 -12.25 L 0.46875 -12.59375 L 5.875 -12.59375 L 5.875 -12.25 C 5.332031 -12.25 4.929688 -12.175781 4.671875 -12.03125 C 4.421875 -11.894531 4.253906 -11.6875 4.171875 -11.40625 C 4.097656 -11.132812 4.0625 -10.789062 4.0625 -10.375 L 4.0625 -2.234375 C 4.0625 -1.710938 4.101562 -1.316406 4.1875 -1.046875 C 4.269531 -0.773438 4.4375 -0.59375 4.6875 -0.5 C 4.945312 -0.40625 5.34375 -0.359375 5.875 -0.359375 Z M 5.875 0 "/></g></g><g transform="translate(85.463474, 32.80425)"><g><path d="M 0.28125 0 L 0.28125 -0.359375 C 0.632812 -0.359375 0.898438 -0.394531 1.078125 -0.46875 C 1.265625 -0.539062 1.390625 -0.691406 1.453125 -0.921875 C 1.515625 -1.148438 1.546875 -1.484375 1.546875 -1.921875 L 1.546875 -5.1875 C 1.546875 -5.957031 1.53125 -6.539062 1.5 -6.9375 C 1.46875 -7.34375 1.269531 -7.539062 0.90625 -7.53125 C 0.726562 -7.53125 0.519531 -7.488281 0.28125 -7.40625 L 0.125 -7.734375 L 2.71875 -8.75 L 3.109375 -8.75 L 3.109375 -6.96875 C 3.566406 -7.457031 3.960938 -7.832031 4.296875 -8.09375 C 4.640625 -8.351562 4.945312 -8.523438 5.21875 -8.609375 C 5.5 -8.703125 5.78125 -8.75 6.0625 -8.75 C 6.570312 -8.75 7.023438 -8.601562 7.421875 -8.3125 C 7.816406 -8.03125 8.082031 -7.582031 8.21875 -6.96875 C 8.851562 -7.6875 9.390625 -8.160156 9.828125 -8.390625 C 10.265625 -8.628906 10.722656 -8.75 11.203125 -8.75 C 11.890625 -8.75 12.4375 -8.507812 12.84375 -8.03125 C 13.25 -7.5625 13.453125 -6.753906 13.453125 -5.609375 L 13.453125 -1.921875 C 13.453125 -1.273438 13.535156 -0.851562 13.703125 -0.65625 C 13.878906 -0.457031 14.226562 -0.359375 14.75 -0.359375 L 14.75 0 L 10.53125 0 L 10.53125 -0.359375 C 10.976562 -0.359375 11.296875 -0.40625 11.484375 -0.5 C 11.671875 -0.601562 11.785156 -0.769531 11.828125 -1 C 11.867188 -1.238281 11.890625 -1.546875 11.890625 -1.921875 L 11.890625 -5.609375 C 11.890625 -6.367188 11.773438 -6.898438 11.546875 -7.203125 C 11.328125 -7.503906 10.972656 -7.65625 10.484375 -7.65625 C 10.222656 -7.65625 9.898438 -7.578125 9.515625 -7.421875 C 9.140625 -7.265625 8.734375 -6.957031 8.296875 -6.5 L 8.296875 -1.921875 C 8.296875 -1.515625 8.316406 -1.195312 8.359375 -0.96875 C 8.410156 -0.738281 8.53125 -0.578125 8.71875 -0.484375 C 8.914062 -0.398438 9.234375 -0.359375 9.671875 -0.359375 L 9.671875 0 L 5.34375 0 L 5.34375 -0.359375 C 5.832031 -0.359375 6.171875 -0.410156 6.359375 -0.515625 C 6.554688 -0.628906 6.671875 -0.800781 6.703125 -1.03125 C 6.734375 -1.269531 6.75 -1.566406 6.75 -1.921875 L 6.75 -5.609375 C 6.75 -6.359375 6.617188 -6.890625 6.359375 -7.203125 C 6.097656 -7.515625 5.742188 -7.671875 5.296875 -7.671875 C 4.859375 -7.671875 4.445312 -7.539062 4.0625 -7.28125 C 3.6875 -7.03125 3.367188 -6.769531 3.109375 -6.5 L 3.109375 -1.921875 C 3.109375 -1.441406 3.144531 -1.085938 3.21875 -0.859375 C 3.300781 -0.640625 3.441406 -0.5 3.640625 -0.4375 C 3.835938 -0.382812 4.117188 -0.359375 4.484375 -0.359375 L 4.484375 0 Z M 0.28125 0 "/></g></g><g transform="translate(100.287746, 32.80425)"><g><path d="M 4.671875 0.28125 C 3.867188 0.28125 3.164062 0.0703125 2.5625 -0.34375 C 1.957031 -0.757812 1.484375 -1.304688 1.140625 -1.984375 C 0.804688 -2.660156 0.640625 -3.390625 0.640625 -4.171875 C 0.640625 -4.941406 0.804688 -5.675781 1.140625 -6.375 C 1.472656 -7.070312 1.945312 -7.640625 2.5625 -8.078125 C 3.175781 -8.523438 3.90625 -8.75 4.75 -8.75 C 5.570312 -8.75 6.289062 -8.554688 6.90625 -8.171875 C 7.519531 -7.796875 8 -7.28125 8.34375 -6.625 C 8.6875 -5.96875 8.859375 -5.226562 8.859375 -4.40625 C 8.859375 -3.863281 8.769531 -3.316406 8.59375 -2.765625 C 8.425781 -2.210938 8.164062 -1.707031 7.8125 -1.25 C 7.46875 -0.789062 7.03125 -0.421875 6.5 -0.140625 C 5.976562 0.140625 5.367188 0.28125 4.671875 0.28125 Z M 5.046875 -0.40625 C 5.671875 -0.40625 6.171875 -0.648438 6.546875 -1.140625 C 6.929688 -1.628906 7.125 -2.484375 7.125 -3.703125 C 7.125 -4.535156 7.015625 -5.289062 6.796875 -5.96875 C 6.578125 -6.644531 6.269531 -7.179688 5.875 -7.578125 C 5.476562 -7.972656 5.007812 -8.171875 4.46875 -8.171875 C 4.144531 -8.171875 3.820312 -8.070312 3.5 -7.875 C 3.175781 -7.675781 2.90625 -7.34375 2.6875 -6.875 C 2.46875 -6.40625 2.359375 -5.757812 2.359375 -4.9375 C 2.359375 -4.125 2.46875 -3.375 2.6875 -2.6875 C 2.914062 -2 3.234375 -1.445312 3.640625 -1.03125 C 4.046875 -0.613281 4.515625 -0.40625 5.046875 -0.40625 Z M 5.046875 -0.40625 "/></g></g><g transform="translate(109.817635, 32.80425)"><g><path d="M 8.859375 -4.609375 C 8.859375 -3.660156 8.65625 -2.816406 8.25 -2.078125 C 7.84375 -1.347656 7.304688 -0.769531 6.640625 -0.34375 C 5.972656 0.0703125 5.25 0.28125 4.46875 0.28125 C 3.488281 0.28125 2.457031 -0.0859375 1.375 -0.828125 L 1.375 -9.625 C 1.375 -10.257812 1.363281 -10.722656 1.34375 -11.015625 C 1.320312 -11.316406 1.289062 -11.519531 1.25 -11.625 C 1.207031 -11.738281 1.148438 -11.828125 1.078125 -11.890625 C 0.972656 -11.972656 0.847656 -12.007812 0.703125 -12 C 0.554688 -12 0.34375 -11.953125 0.0625 -11.859375 L -0.078125 -12.1875 L 2.5 -13.21875 L 2.9375 -13.21875 L 2.9375 -7.03125 C 3.75 -8.175781 4.640625 -8.75 5.609375 -8.75 C 6.179688 -8.75 6.710938 -8.582031 7.203125 -8.25 C 7.703125 -7.914062 8.101562 -7.4375 8.40625 -6.8125 C 8.707031 -6.195312 8.859375 -5.460938 8.859375 -4.609375 Z M 7.25 -4.0625 C 7.25 -5.125 7.007812 -5.957031 6.53125 -6.5625 C 6.0625 -7.164062 5.503906 -7.46875 4.859375 -7.46875 C 4.617188 -7.46875 4.359375 -7.40625 4.078125 -7.28125 C 3.796875 -7.164062 3.414062 -6.894531 2.9375 -6.46875 L 2.9375 -1.359375 C 3.5625 -0.734375 4.226562 -0.421875 4.9375 -0.421875 C 5.3125 -0.421875 5.675781 -0.554688 6.03125 -0.828125 C 6.382812 -1.097656 6.675781 -1.503906 6.90625 -2.046875 C 7.132812 -2.585938 7.25 -3.257812 7.25 -4.0625 Z M 7.25 -4.0625 "/></g></g><g transform="translate(119.347524, 32.80425)"><g><path d="M 4.890625 0 L 0.71875 0 L 0.71875 -0.359375 C 1.25 -0.359375 1.597656 -0.441406 1.765625 -0.609375 C 1.929688 -0.785156 2.015625 -1.164062 2.015625 -1.75 L 2.015625 -6.296875 C 2.015625 -6.703125 1.96875 -7.007812 1.875 -7.21875 C 1.789062 -7.4375 1.625 -7.546875 1.375 -7.546875 C 1.289062 -7.546875 1.191406 -7.53125 1.078125 -7.5 C 0.972656 -7.476562 0.851562 -7.445312 0.71875 -7.40625 L 0.59375 -7.734375 L 3.171875 -8.75 L 3.5625 -8.75 L 3.5625 -1.75 C 3.5625 -1.164062 3.644531 -0.785156 3.8125 -0.609375 C 3.988281 -0.441406 4.347656 -0.359375 4.890625 -0.359375 Z M 2.796875 -10.453125 C 2.523438 -10.453125 2.296875 -10.539062 2.109375 -10.71875 C 1.929688 -10.894531 1.84375 -11.125 1.84375 -11.40625 C 1.84375 -11.675781 1.9375 -11.894531 2.125 -12.0625 C 2.320312 -12.238281 2.546875 -12.328125 2.796875 -12.328125 C 3.054688 -12.328125 3.273438 -12.238281 3.453125 -12.0625 C 3.640625 -11.882812 3.734375 -11.664062 3.734375 -11.40625 C 3.734375 -11.144531 3.644531 -10.921875 3.46875 -10.734375 C 3.289062 -10.546875 3.066406 -10.453125 2.796875 -10.453125 Z M 2.796875 -10.453125 "/></g></g><g transform="translate(124.641907, 32.80425)"><g><path d="M 4.890625 0 L 0.71875 0 L 0.71875 -0.359375 C 1.289062 -0.359375 1.640625 -0.484375 1.765625 -0.734375 C 1.898438 -0.992188 1.96875 -1.390625 1.96875 -1.921875 L 1.96875 -9.640625 C 1.96875 -10.285156 1.957031 -10.753906 1.9375 -11.046875 C 1.914062 -11.347656 1.882812 -11.550781 1.84375 -11.65625 C 1.8125 -11.757812 1.765625 -11.835938 1.703125 -11.890625 C 1.546875 -11.992188 1.382812 -12.03125 1.21875 -12 C 1.050781 -11.976562 0.882812 -11.929688 0.71875 -11.859375 L 0.546875 -12.1875 L 3.109375 -13.21875 L 3.515625 -13.21875 L 3.515625 -1.921875 C 3.515625 -1.523438 3.539062 -1.210938 3.59375 -0.984375 C 3.65625 -0.753906 3.785156 -0.59375 3.984375 -0.5 C 4.179688 -0.40625 4.484375 -0.359375 4.890625 -0.359375 Z M 4.890625 0 "/></g></g><g transform="translate(129.936289, 32.80425)"><g><path d="M 4.890625 0 L 0.71875 0 L 0.71875 -0.359375 C 1.25 -0.359375 1.597656 -0.441406 1.765625 -0.609375 C 1.929688 -0.785156 2.015625 -1.164062 2.015625 -1.75 L 2.015625 -6.296875 C 2.015625 -6.703125 1.96875 -7.007812 1.875 -7.21875 C 1.789062 -7.4375 1.625 -7.546875 1.375 -7.546875 C 1.289062 -7.546875 1.191406 -7.53125 1.078125 -7.5 C 0.972656 -7.476562 0.851562 -7.445312 0.71875 -7.40625 L 0.59375 -7.734375 L 3.171875 -8.75 L 3.5625 -8.75 L 3.5625 -1.75 C 3.5625 -1.164062 3.644531 -0.785156 3.8125 -0.609375 C 3.988281 -0.441406 4.347656 -0.359375 4.890625 -0.359375 Z M 2.796875 -10.453125 C 2.523438 -10.453125 2.296875 -10.539062 2.109375 -10.71875 C 1.929688 -10.894531 1.84375 -11.125 1.84375 -11.40625 C 1.84375 -11.675781 1.9375 -11.894531 2.125 -12.0625 C 2.320312 -12.238281 2.546875 -12.328125 2.796875 -12.328125 C 3.054688 -12.328125 3.273438 -12.238281 3.453125 -12.0625 C 3.640625 -11.882812 3.734375 -11.664062 3.734375 -11.40625 C 3.734375 -11.144531 3.644531 -10.921875 3.46875 -10.734375 C 3.289062 -10.546875 3.066406 -10.453125 2.796875 -10.453125 Z M 2.796875 -10.453125 "/></g></g><g transform="translate(135.230672, 32.80425)"><g><path d="M 8.453125 -1.765625 L 8.453125 -1.21875 C 7.753906 -0.300781 7.070312 0.15625 6.40625 0.15625 C 6.132812 0.15625 5.898438 0.0625 5.703125 -0.125 C 5.503906 -0.320312 5.40625 -0.6875 5.40625 -1.21875 C 4.914062 -0.832031 4.523438 -0.539062 4.234375 -0.34375 C 3.953125 -0.144531 3.703125 -0.015625 3.484375 0.046875 C 3.273438 0.117188 3.019531 0.15625 2.71875 0.15625 C 2.101562 0.15625 1.609375 -0.0390625 1.234375 -0.4375 C 0.867188 -0.832031 0.6875 -1.359375 0.6875 -2.015625 C 0.6875 -2.328125 0.742188 -2.625 0.859375 -2.90625 C 0.984375 -3.195312 1.207031 -3.484375 1.53125 -3.765625 C 1.863281 -4.054688 2.34375 -4.351562 2.96875 -4.65625 C 3.59375 -4.957031 4.40625 -5.285156 5.40625 -5.640625 L 5.40625 -5.984375 C 5.40625 -6.804688 5.273438 -7.378906 5.015625 -7.703125 C 4.765625 -8.035156 4.367188 -8.203125 3.828125 -8.203125 C 3.441406 -8.203125 3.132812 -8.078125 2.90625 -7.828125 C 2.6875 -7.585938 2.570312 -7.179688 2.5625 -6.609375 C 2.570312 -6.335938 2.503906 -6.125 2.359375 -5.96875 C 2.210938 -5.8125 2.023438 -5.734375 1.796875 -5.734375 C 1.273438 -5.734375 1.015625 -6.03125 1.015625 -6.625 C 1.015625 -7.0625 1.160156 -7.441406 1.453125 -7.765625 C 1.742188 -8.085938 2.125 -8.332031 2.59375 -8.5 C 3.070312 -8.664062 3.582031 -8.75 4.125 -8.75 C 4.945312 -8.75 5.5625 -8.628906 5.96875 -8.390625 C 6.375 -8.160156 6.640625 -7.828125 6.765625 -7.390625 C 6.898438 -6.960938 6.96875 -6.445312 6.96875 -5.84375 L 6.96875 -2.96875 C 6.96875 -2.5625 6.972656 -2.226562 6.984375 -1.96875 C 7.003906 -1.71875 7.019531 -1.550781 7.03125 -1.46875 C 7.070312 -1.164062 7.203125 -1.015625 7.421875 -1.015625 C 7.554688 -1.015625 7.671875 -1.050781 7.765625 -1.125 C 7.867188 -1.207031 8.097656 -1.421875 8.453125 -1.765625 Z M 5.40625 -1.828125 L 5.40625 -5.09375 C 4.457031 -4.726562 3.757812 -4.394531 3.3125 -4.09375 C 2.863281 -3.800781 2.570312 -3.519531 2.4375 -3.25 C 2.3125 -2.988281 2.25 -2.722656 2.25 -2.453125 C 2.25 -2.015625 2.375 -1.644531 2.625 -1.34375 C 2.882812 -1.050781 3.191406 -0.90625 3.546875 -0.90625 C 3.785156 -0.882812 4.054688 -0.953125 4.359375 -1.109375 C 4.671875 -1.273438 5.019531 -1.515625 5.40625 -1.828125 Z M 6.8125 -12.359375 C 6.8125 -12.171875 6.734375 -12 6.578125 -11.84375 C 6.421875 -11.6875 6.242188 -11.546875 6.046875 -11.421875 L 3.296875 -9.6875 L 2.53125 -9.6875 L 5.171875 -12.328125 C 5.398438 -12.554688 5.585938 -12.71875 5.734375 -12.8125 C 5.890625 -12.914062 6.066406 -12.96875 6.265625 -12.96875 C 6.398438 -12.96875 6.523438 -12.90625 6.640625 -12.78125 C 6.753906 -12.664062 6.8125 -12.523438 6.8125 -12.359375 Z M 6.8125 -12.359375 "/></g></g><g transform="translate(143.692396, 32.80425)"><g><path d="M 5.28125 -8.75 C 5.625 -8.75 5.910156 -8.65625 6.140625 -8.46875 C 6.367188 -8.28125 6.484375 -8.035156 6.484375 -7.734375 C 6.484375 -7.515625 6.398438 -7.3125 6.234375 -7.125 C 6.066406 -6.945312 5.867188 -6.859375 5.640625 -6.859375 C 5.429688 -6.859375 5.253906 -6.914062 5.109375 -7.03125 C 4.960938 -7.144531 4.828125 -7.253906 4.703125 -7.359375 C 4.585938 -7.472656 4.460938 -7.53125 4.328125 -7.53125 C 4.160156 -7.53125 3.96875 -7.398438 3.75 -7.140625 C 3.53125 -6.878906 3.304688 -6.523438 3.078125 -6.078125 L 3.078125 -1.984375 C 3.078125 -1.429688 3.175781 -1.019531 3.375 -0.75 C 3.570312 -0.488281 3.972656 -0.359375 4.578125 -0.359375 L 4.578125 0 L 0.15625 0 L 0.15625 -0.359375 C 0.507812 -0.359375 0.785156 -0.382812 0.984375 -0.4375 C 1.179688 -0.5 1.316406 -0.640625 1.390625 -0.859375 C 1.472656 -1.085938 1.515625 -1.441406 1.515625 -1.921875 L 1.515625 -5.21875 C 1.515625 -5.820312 1.503906 -6.265625 1.484375 -6.546875 C 1.472656 -6.828125 1.445312 -7.019531 1.40625 -7.125 C 1.375 -7.238281 1.320312 -7.332031 1.25 -7.40625 C 1.113281 -7.488281 0.960938 -7.535156 0.796875 -7.546875 C 0.628906 -7.554688 0.414062 -7.507812 0.15625 -7.40625 L 0.078125 -7.734375 L 2.71875 -8.75 L 3.078125 -8.75 L 3.078125 -6.84375 C 3.773438 -8.113281 4.507812 -8.75 5.28125 -8.75 Z M 5.28125 -8.75 "/></g></g><g transform="translate(150.222135, 32.80425)"><g><path d="M 4.890625 0 L 0.71875 0 L 0.71875 -0.359375 C 1.25 -0.359375 1.597656 -0.441406 1.765625 -0.609375 C 1.929688 -0.785156 2.015625 -1.164062 2.015625 -1.75 L 2.015625 -6.296875 C 2.015625 -6.703125 1.96875 -7.007812 1.875 -7.21875 C 1.789062 -7.4375 1.625 -7.546875 1.375 -7.546875 C 1.289062 -7.546875 1.191406 -7.53125 1.078125 -7.5 C 0.972656 -7.476562 0.851562 -7.445312 0.71875 -7.40625 L 0.59375 -7.734375 L 3.171875 -8.75 L 3.5625 -8.75 L 3.5625 -1.75 C 3.5625 -1.164062 3.644531 -0.785156 3.8125 -0.609375 C 3.988281 -0.441406 4.347656 -0.359375 4.890625 -0.359375 Z M 2.796875 -10.453125 C 2.523438 -10.453125 2.296875 -10.539062 2.109375 -10.71875 C 1.929688 -10.894531 1.84375 -11.125 1.84375 -11.40625 C 1.84375 -11.675781 1.9375 -11.894531 2.125 -12.0625 C 2.320312 -12.238281 2.546875 -12.328125 2.796875 -12.328125 C 3.054688 -12.328125 3.273438 -12.238281 3.453125 -12.0625 C 3.640625 -11.882812 3.734375 -11.664062 3.734375 -11.40625 C 3.734375 -11.144531 3.644531 -10.921875 3.46875 -10.734375 C 3.289062 -10.546875 3.066406 -10.453125 2.796875 -10.453125 Z M 2.796875 -10.453125 "/></g></g><g transform="translate(155.516518, 32.80425)"><g><path d="M 4.671875 0.28125 C 3.867188 0.28125 3.164062 0.0703125 2.5625 -0.34375 C 1.957031 -0.757812 1.484375 -1.304688 1.140625 -1.984375 C 0.804688 -2.660156 0.640625 -3.390625 0.640625 -4.171875 C 0.640625 -4.941406 0.804688 -5.675781 1.140625 -6.375 C 1.472656 -7.070312 1.945312 -7.640625 2.5625 -8.078125 C 3.175781 -8.523438 3.90625 -8.75 4.75 -8.75 C 5.570312 -8.75 6.289062 -8.554688 6.90625 -8.171875 C 7.519531 -7.796875 8 -7.28125 8.34375 -6.625 C 8.6875 -5.96875 8.859375 -5.226562 8.859375 -4.40625 C 8.859375 -3.863281 8.769531 -3.316406 8.59375 -2.765625 C 8.425781 -2.210938 8.164062 -1.707031 7.8125 -1.25 C 7.46875 -0.789062 7.03125 -0.421875 6.5 -0.140625 C 5.976562 0.140625 5.367188 0.28125 4.671875 0.28125 Z M 5.046875 -0.40625 C 5.671875 -0.40625 6.171875 -0.648438 6.546875 -1.140625 C 6.929688 -1.628906 7.125 -2.484375 7.125 -3.703125 C 7.125 -4.535156 7.015625 -5.289062 6.796875 -5.96875 C 6.578125 -6.644531 6.269531 -7.179688 5.875 -7.578125 C 5.476562 -7.972656 5.007812 -8.171875 4.46875 -8.171875 C 4.144531 -8.171875 3.820312 -8.070312 3.5 -7.875 C 3.175781 -7.675781 2.90625 -7.34375 2.6875 -6.875 C 2.46875 -6.40625 2.359375 -5.757812 2.359375 -4.9375 C 2.359375 -4.125 2.46875 -3.375 2.6875 -2.6875 C 2.914062 -2 3.234375 -1.445312 3.640625 -1.03125 C 4.046875 -0.613281 4.515625 -0.40625 5.046875 -0.40625 Z M 5.046875 -0.40625 "/></g></g></g></g></g></svg>