<svg xmlns="http://www.w3.org/2000/svg" xmlns:xlink="http://www.w3.org/1999/xlink" width="433" zoomAndPan="magnify" viewBox="0 0 324.75 143.999998" height="192" preserveAspectRatio="xMidYMid meet" version="1.0"><defs><g/><clipPath id="ac6fdd63c7"><path d="M 129.394531 0.0546875 L 194.59375 0.0546875 L 194.59375 3 L 129.394531 3 Z M 129.394531 0.0546875 " clip-rule="nonzero"/></clipPath><clipPath id="fed49dfefc"><path d="M 163 4 L 191 4 L 191 62.257812 L 163 62.257812 Z M 163 4 " clip-rule="nonzero"/></clipPath><clipPath id="be40337bb5"><path d="M 133 4 L 161 4 L 161 62.257812 L 133 62.257812 Z M 133 4 " clip-rule="nonzero"/></clipPath><clipPath id="7bd2d5514b"><rect x="0" width="266" y="0" height="82"/></clipPath><clipPath id="34ee204ad1"><rect x="0" width="168" y="0" height="46"/></clipPath></defs><g clip-path="url(#ac6fdd63c7)"><path fill="#000000" d="M 129.398438 0.0546875 L 194.589844 0.0546875 L 194.589844 2.972656 L 129.398438 2.972656 Z M 129.398438 0.0546875 " fill-opacity="1" fill-rule="nonzero"/></g><g clip-path="url(#fed49dfefc)"><path fill="#000000" d="M 163.527344 62.261719 L 168.335938 58.539062 L 168.335938 9.539062 L 172.65625 9.539062 L 172.65625 55.207031 L 177.453125 51.488281 L 177.453125 9.539062 L 181.847656 9.539062 L 181.847656 48.09375 L 186.648438 44.382812 L 186.648438 9.539062 L 190.097656 9.539062 L 190.097656 4.886719 L 163.527344 4.886719 Z M 163.527344 62.261719 " fill-opacity="1" fill-rule="nonzero"/></g><g clip-path="url(#be40337bb5)"><path fill="#000000" d="M 160.457031 4.878906 L 160.457031 14.195312 L 155.652344 14.195312 L 155.652344 9.542969 L 142.144531 9.542969 L 142.144531 41.09375 L 155.652344 51.53125 L 155.652344 37.957031 L 149.367188 33.097656 L 149.367188 26.085938 L 160.457031 34.65625 L 160.457031 62.253906 L 137.332031 44.386719 L 137.332031 9.542969 L 133.886719 9.542969 L 133.886719 4.878906 Z M 160.457031 4.878906 " fill-opacity="1" fill-rule="nonzero"/></g><g transform="matrix(1, 0, 0, 1, 29, 34)"><g clip-path="url(#7bd2d5514b)"><g fill="#000000" fill-opacity="1"><g transform="translate(0.816953, 59.223611)"><g><path d="M 24.09375 -11.703125 C 23.320312 -11.703125 22.757812 -11.554688 22.40625 -11.265625 C 22.050781 -10.984375 21.820312 -10.59375 21.71875 -10.09375 C 21.625 -9.601562 21.578125 -9.03125 21.578125 -8.375 L 21.578125 -1.5 C 20.335938 -0.78125 19.0625 -0.265625 17.75 0.046875 C 16.4375 0.367188 15.070312 0.53125 13.65625 0.53125 C 11.050781 0.53125 8.816406 0.0195312 6.953125 -1 C 5.097656 -2.019531 3.671875 -3.394531 2.671875 -5.125 C 1.679688 -6.863281 1.1875 -8.800781 1.1875 -10.9375 C 1.1875 -12.394531 1.441406 -13.84375 1.953125 -15.28125 C 2.460938 -16.71875 3.222656 -18.023438 4.234375 -19.203125 C 5.242188 -20.378906 6.488281 -21.316406 7.96875 -22.015625 C 9.457031 -22.722656 11.175781 -23.078125 13.125 -23.078125 C 14.382812 -23.078125 15.4375 -22.953125 16.28125 -22.703125 C 17.125 -22.460938 17.800781 -22.222656 18.3125 -21.984375 C 18.832031 -21.753906 19.234375 -21.640625 19.515625 -21.640625 C 19.640625 -21.640625 19.789062 -21.726562 19.96875 -21.90625 C 20.144531 -22.09375 20.257812 -22.484375 20.3125 -23.078125 L 20.9375 -23.078125 L 21.5 -15.953125 L 20.9375 -15.953125 C 20.207031 -18.109375 19.203125 -19.640625 17.921875 -20.546875 C 16.640625 -21.460938 15.15625 -21.921875 13.46875 -21.921875 C 11.644531 -21.921875 10.101562 -21.46875 8.84375 -20.5625 C 7.59375 -19.65625 6.644531 -18.429688 6 -16.890625 C 5.351562 -15.347656 5.019531 -13.613281 5 -11.6875 C 4.976562 -9.53125 5.347656 -7.617188 6.109375 -5.953125 C 6.878906 -4.285156 7.925781 -2.976562 9.25 -2.03125 C 10.570312 -1.09375 12.054688 -0.625 13.703125 -0.625 C 14.503906 -0.625 15.289062 -0.71875 16.0625 -0.90625 C 16.84375 -1.101562 17.601562 -1.425781 18.34375 -1.875 L 18.34375 -8.375 C 18.34375 -9.3125 18.265625 -10.015625 18.109375 -10.484375 C 17.960938 -10.960938 17.679688 -11.28125 17.265625 -11.4375 C 16.847656 -11.601562 16.226562 -11.691406 15.40625 -11.703125 L 15.40625 -12.28125 L 24.09375 -12.28125 Z M 24.09375 -11.703125 "/></g></g></g><g fill="#000000" fill-opacity="1"><g transform="translate(25.428443, 59.223611)"><g><path d="M 17.0625 -1.40625 L 12.46875 0.5 L 11.703125 0.5 L 11.703125 -2.765625 C 10.847656 -1.859375 10.128906 -1.171875 9.546875 -0.703125 C 8.960938 -0.242188 8.4375 0.0664062 7.96875 0.234375 C 7.507812 0.410156 7.03125 0.5 6.53125 0.5 C 5.644531 0.5 4.9375 0.3125 4.40625 -0.0625 C 3.882812 -0.445312 3.492188 -0.941406 3.234375 -1.546875 C 2.972656 -2.148438 2.800781 -2.796875 2.71875 -3.484375 C 2.632812 -4.171875 2.59375 -4.820312 2.59375 -5.4375 L 2.59375 -12.25 C 2.59375 -13.226562 2.398438 -13.867188 2.015625 -14.171875 C 1.640625 -14.472656 0.96875 -14.625 0 -14.625 L 0 -15.234375 L 5.375 -15.234375 L 5.375 -5.046875 C 5.375 -4.460938 5.429688 -3.90625 5.546875 -3.375 C 5.660156 -2.84375 5.898438 -2.40625 6.265625 -2.0625 C 6.628906 -1.726562 7.171875 -1.5625 7.890625 -1.5625 C 8.347656 -1.5625 8.882812 -1.707031 9.5 -2 C 10.125 -2.300781 10.859375 -2.875 11.703125 -3.71875 L 11.703125 -12.375 C 11.703125 -13.300781 11.507812 -13.898438 11.125 -14.171875 C 10.738281 -14.453125 10.113281 -14.601562 9.25 -14.625 L 9.25 -15.234375 L 14.484375 -15.234375 L 14.484375 -4.03125 C 14.484375 -3.125 14.5625 -2.515625 14.71875 -2.203125 C 14.882812 -1.898438 15.148438 -1.75 15.515625 -1.75 C 15.671875 -1.75 15.867188 -1.765625 16.109375 -1.796875 C 16.347656 -1.835938 16.585938 -1.90625 16.828125 -2 Z M 17.0625 -1.40625 "/></g></g></g><g fill="#000000" fill-opacity="1"><g transform="translate(42.478671, 59.223611)"><g><path d="M 5.703125 0.5 C 5.222656 0.5 4.75 0.398438 4.28125 0.203125 C 3.820312 0.00390625 3.441406 -0.378906 3.140625 -0.953125 C 2.835938 -1.535156 2.6875 -2.398438 2.6875 -3.546875 L 2.6875 -14.109375 L 0.25 -14.109375 L 0.25 -14.625 C 1.320312 -15.007812 2.25 -15.75 3.03125 -16.84375 C 3.8125 -17.9375 4.457031 -19.070312 4.96875 -20.25 L 5.46875 -20.25 L 5.46875 -15.234375 L 9.046875 -15.234375 L 9.046875 -14.109375 L 5.46875 -14.109375 L 5.46875 -3.9375 C 5.46875 -2.945312 5.613281 -2.285156 5.90625 -1.953125 C 6.195312 -1.617188 6.554688 -1.4375 6.984375 -1.40625 C 7.398438 -1.382812 7.765625 -1.5 8.078125 -1.75 C 8.390625 -2 8.644531 -2.34375 8.84375 -2.78125 L 9.515625 -2.78125 C 9.171875 -1.664062 8.613281 -0.835938 7.84375 -0.296875 C 7.070312 0.234375 6.359375 0.5 5.703125 0.5 Z M 5.703125 0.5 "/></g></g></g><g fill="#000000" fill-opacity="1"><g transform="translate(51.95102, 59.223611)"><g><path d="M 5.703125 0.5 C 5.222656 0.5 4.75 0.398438 4.28125 0.203125 C 3.820312 0.00390625 3.441406 -0.378906 3.140625 -0.953125 C 2.835938 -1.535156 2.6875 -2.398438 2.6875 -3.546875 L 2.6875 -14.109375 L 0.25 -14.109375 L 0.25 -14.625 C 1.320312 -15.007812 2.25 -15.75 3.03125 -16.84375 C 3.8125 -17.9375 4.457031 -19.070312 4.96875 -20.25 L 5.46875 -20.25 L 5.46875 -15.234375 L 9.046875 -15.234375 L 9.046875 -14.109375 L 5.46875 -14.109375 L 5.46875 -3.9375 C 5.46875 -2.945312 5.613281 -2.285156 5.90625 -1.953125 C 6.195312 -1.617188 6.554688 -1.4375 6.984375 -1.40625 C 7.398438 -1.382812 7.765625 -1.5 8.078125 -1.75 C 8.390625 -2 8.644531 -2.34375 8.84375 -2.78125 L 9.515625 -2.78125 C 9.171875 -1.664062 8.613281 -0.835938 7.84375 -0.296875 C 7.070312 0.234375 6.359375 0.5 5.703125 0.5 Z M 5.703125 0.5 "/></g></g></g><g fill="#000000" fill-opacity="1"><g transform="translate(61.423369, 59.223611)"><g><path d="M 0.46875 0 L 0.46875 -0.625 C 1.488281 -0.625 2.128906 -0.804688 2.390625 -1.171875 C 2.648438 -1.546875 2.78125 -2.203125 2.78125 -3.140625 L 2.78125 -19.203125 C 2.78125 -19.992188 2.707031 -20.570312 2.5625 -20.9375 C 2.414062 -21.3125 2.113281 -21.5 1.65625 -21.5 C 1.519531 -21.5 1.34375 -21.476562 1.125 -21.4375 C 0.914062 -21.40625 0.695312 -21.335938 0.46875 -21.234375 L 0.1875 -21.8125 L 4.796875 -23.65625 L 5.5625 -23.65625 L 5.5625 -12.515625 C 6.445312 -13.835938 7.3125 -14.691406 8.15625 -15.078125 C 9.007812 -15.472656 9.832031 -15.671875 10.625 -15.671875 C 11.582031 -15.671875 12.328125 -15.457031 12.859375 -15.03125 C 13.398438 -14.601562 13.789062 -14.039062 14.03125 -13.34375 C 14.28125 -12.65625 14.429688 -11.910156 14.484375 -11.109375 C 14.546875 -10.316406 14.578125 -9.550781 14.578125 -8.8125 L 14.578125 -3.140625 C 14.578125 -2.148438 14.707031 -1.484375 14.96875 -1.140625 C 15.226562 -0.796875 15.859375 -0.625 16.859375 -0.625 L 16.859375 0 L 9.34375 0 L 9.34375 -0.625 C 10.300781 -0.625 10.945312 -0.78125 11.28125 -1.09375 C 11.625 -1.414062 11.796875 -2.097656 11.796875 -3.140625 L 11.796875 -8.8125 C 11.796875 -9.300781 11.789062 -9.828125 11.78125 -10.390625 C 11.769531 -10.953125 11.695312 -11.484375 11.5625 -11.984375 C 11.425781 -12.484375 11.1875 -12.882812 10.84375 -13.1875 C 10.5 -13.5 10 -13.65625 9.34375 -13.65625 C 8.832031 -13.65625 8.28125 -13.523438 7.6875 -13.265625 C 7.101562 -13.015625 6.394531 -12.414062 5.5625 -11.46875 L 5.5625 -3.140625 C 5.5625 -2.453125 5.609375 -1.925781 5.703125 -1.5625 C 5.804688 -1.195312 6.03125 -0.945312 6.375 -0.8125 C 6.726562 -0.6875 7.269531 -0.625 8 -0.625 L 8 0 Z M 0.46875 0 "/></g></g></g><g fill="#000000" fill-opacity="1"><g transform="translate(78.473597, 59.223611)"><g><path d="M 8.734375 0 L 1.28125 0 L 1.28125 -0.625 C 2.238281 -0.625 2.863281 -0.78125 3.15625 -1.09375 C 3.457031 -1.414062 3.609375 -2.097656 3.609375 -3.140625 L 3.609375 -11.265625 C 3.609375 -11.992188 3.53125 -12.546875 3.375 -12.921875 C 3.21875 -13.304688 2.910156 -13.5 2.453125 -13.5 C 2.316406 -13.5 2.148438 -13.472656 1.953125 -13.421875 C 1.753906 -13.378906 1.53125 -13.320312 1.28125 -13.25 L 1.0625 -13.84375 L 5.6875 -15.671875 L 6.375 -15.671875 L 6.375 -3.140625 C 6.375 -2.097656 6.523438 -1.414062 6.828125 -1.09375 C 7.140625 -0.78125 7.773438 -0.625 8.734375 -0.625 Z M 5 -18.703125 C 4.519531 -18.703125 4.117188 -18.859375 3.796875 -19.171875 C 3.472656 -19.492188 3.3125 -19.90625 3.3125 -20.40625 C 3.3125 -20.90625 3.476562 -21.304688 3.8125 -21.609375 C 4.15625 -21.910156 4.550781 -22.0625 5 -22.0625 C 5.46875 -22.0625 5.863281 -21.90625 6.1875 -21.59375 C 6.519531 -21.28125 6.6875 -20.882812 6.6875 -20.40625 C 6.6875 -19.9375 6.523438 -19.535156 6.203125 -19.203125 C 5.890625 -18.867188 5.488281 -18.703125 5 -18.703125 Z M 5 -18.703125 "/></g></g></g><g fill="#000000" fill-opacity="1"><g transform="translate(87.945947, 59.223611)"><g><path d="M 13.625 -5.90625 L 14.15625 -5.5625 C 14.019531 -4.570312 13.675781 -3.613281 13.125 -2.6875 C 12.582031 -1.757812 11.863281 -0.992188 10.96875 -0.390625 C 10.082031 0.203125 9.054688 0.5 7.890625 0.5 C 6.691406 0.5 5.585938 0.175781 4.578125 -0.46875 C 3.578125 -1.125 2.769531 -2.046875 2.15625 -3.234375 C 1.550781 -4.421875 1.25 -5.820312 1.25 -7.4375 C 1.25 -9.164062 1.550781 -10.644531 2.15625 -11.875 C 2.757812 -13.101562 3.59375 -14.046875 4.65625 -14.703125 C 5.71875 -15.359375 6.9375 -15.6875 8.3125 -15.6875 C 9.988281 -15.6875 11.378906 -15.132812 12.484375 -14.03125 C 13.597656 -12.9375 14.15625 -11.429688 14.15625 -9.515625 L 3.609375 -9.515625 C 3.609375 -8.003906 3.863281 -6.707031 4.375 -5.625 C 4.882812 -4.539062 5.5625 -3.710938 6.40625 -3.140625 C 7.25 -2.578125 8.164062 -2.285156 9.15625 -2.265625 C 10.144531 -2.242188 11.007812 -2.488281 11.75 -3 C 12.488281 -3.519531 13.113281 -4.488281 13.625 -5.90625 Z M 3.609375 -10.4375 L 10.6875 -10.4375 C 10.6875 -11.550781 10.484375 -12.398438 10.078125 -12.984375 C 9.679688 -13.578125 9.222656 -13.976562 8.703125 -14.1875 C 8.179688 -14.40625 7.738281 -14.515625 7.375 -14.515625 C 6.488281 -14.515625 5.671875 -14.164062 4.921875 -13.46875 C 4.179688 -12.769531 3.742188 -11.757812 3.609375 -10.4375 Z M 3.609375 -10.4375 "/></g></g></g><g fill="#000000" fill-opacity="1"><g transform="translate(103.085087, 59.223611)"><g><path d="M 9.4375 -15.671875 C 10.0625 -15.671875 10.578125 -15.5 10.984375 -15.15625 C 11.390625 -14.8125 11.59375 -14.375 11.59375 -13.84375 C 11.59375 -13.445312 11.445312 -13.085938 11.15625 -12.765625 C 10.863281 -12.441406 10.507812 -12.28125 10.09375 -12.28125 C 9.71875 -12.28125 9.398438 -12.378906 9.140625 -12.578125 C 8.878906 -12.773438 8.640625 -12.972656 8.421875 -13.171875 C 8.210938 -13.367188 7.988281 -13.46875 7.75 -13.46875 C 7.457031 -13.46875 7.113281 -13.234375 6.71875 -12.765625 C 6.320312 -12.304688 5.914062 -11.675781 5.5 -10.875 L 5.5 -3.546875 C 5.5 -2.566406 5.675781 -1.832031 6.03125 -1.34375 C 6.382812 -0.863281 7.101562 -0.625 8.1875 -0.625 L 8.1875 0 L 0.28125 0 L 0.28125 -0.625 C 0.914062 -0.625 1.410156 -0.675781 1.765625 -0.78125 C 2.117188 -0.894531 2.363281 -1.148438 2.5 -1.546875 C 2.644531 -1.941406 2.71875 -2.570312 2.71875 -3.4375 L 2.71875 -9.34375 C 2.71875 -10.414062 2.703125 -11.207031 2.671875 -11.71875 C 2.648438 -12.226562 2.601562 -12.578125 2.53125 -12.765625 C 2.457031 -12.960938 2.363281 -13.128906 2.25 -13.265625 C 1.988281 -13.398438 1.710938 -13.476562 1.421875 -13.5 C 1.128906 -13.519531 0.75 -13.4375 0.28125 -13.25 L 0.140625 -13.84375 L 4.859375 -15.671875 L 5.5 -15.671875 L 5.5 -12.25 C 6.757812 -14.53125 8.070312 -15.671875 9.4375 -15.671875 Z M 9.4375 -15.671875 "/></g></g></g><g fill="#000000" fill-opacity="1"><g transform="translate(114.767651, 59.223611)"><g><path d="M 9.4375 -15.671875 C 10.0625 -15.671875 10.578125 -15.5 10.984375 -15.15625 C 11.390625 -14.8125 11.59375 -14.375 11.59375 -13.84375 C 11.59375 -13.445312 11.445312 -13.085938 11.15625 -12.765625 C 10.863281 -12.441406 10.507812 -12.28125 10.09375 -12.28125 C 9.71875 -12.28125 9.398438 -12.378906 9.140625 -12.578125 C 8.878906 -12.773438 8.640625 -12.972656 8.421875 -13.171875 C 8.210938 -13.367188 7.988281 -13.46875 7.75 -13.46875 C 7.457031 -13.46875 7.113281 -13.234375 6.71875 -12.765625 C 6.320312 -12.304688 5.914062 -11.675781 5.5 -10.875 L 5.5 -3.546875 C 5.5 -2.566406 5.675781 -1.832031 6.03125 -1.34375 C 6.382812 -0.863281 7.101562 -0.625 8.1875 -0.625 L 8.1875 0 L 0.28125 0 L 0.28125 -0.625 C 0.914062 -0.625 1.410156 -0.675781 1.765625 -0.78125 C 2.117188 -0.894531 2.363281 -1.148438 2.5 -1.546875 C 2.644531 -1.941406 2.71875 -2.570312 2.71875 -3.4375 L 2.71875 -9.34375 C 2.71875 -10.414062 2.703125 -11.207031 2.671875 -11.71875 C 2.648438 -12.226562 2.601562 -12.578125 2.53125 -12.765625 C 2.457031 -12.960938 2.363281 -13.128906 2.25 -13.265625 C 1.988281 -13.398438 1.710938 -13.476562 1.421875 -13.5 C 1.128906 -13.519531 0.75 -13.4375 0.28125 -13.25 L 0.140625 -13.84375 L 4.859375 -15.671875 L 5.5 -15.671875 L 5.5 -12.25 C 6.757812 -14.53125 8.070312 -15.671875 9.4375 -15.671875 Z M 9.4375 -15.671875 "/></g></g></g><g fill="#000000" fill-opacity="1"><g transform="translate(126.450215, 59.223611)"><g><path d="M 3.234375 7.375 C 2.585938 7.375 2.050781 7.191406 1.625 6.828125 C 1.195312 6.460938 0.984375 6.007812 0.984375 5.46875 C 0.984375 5.019531 1.128906 4.65625 1.421875 4.375 C 1.710938 4.101562 2.132812 3.96875 2.6875 3.96875 C 3.039062 3.96875 3.445312 4.0625 3.90625 4.25 C 4.363281 4.445312 4.726562 4.546875 5 4.546875 C 5.4375 4.546875 5.835938 4.332031 6.203125 3.90625 C 6.566406 3.488281 6.890625 2.972656 7.171875 2.359375 C 7.460938 1.753906 7.707031 1.171875 7.90625 0.609375 C 8.101562 0.046875 8.257812 -0.363281 8.375 -0.625 L 2.90625 -12.09375 C 2.769531 -12.375 2.597656 -12.695312 2.390625 -13.0625 C 2.179688 -13.4375 1.898438 -13.773438 1.546875 -14.078125 C 1.203125 -14.390625 0.75 -14.570312 0.1875 -14.625 L 0.1875 -15.234375 L 7.3125 -15.234375 L 7.3125 -14.625 C 6.0625 -14.625 5.4375 -14.25 5.4375 -13.5 C 5.4375 -13.0625 5.625 -12.460938 6 -11.703125 L 9.6875 -4.03125 L 13.109375 -12.46875 C 13.273438 -12.757812 13.378906 -13.082031 13.421875 -13.4375 C 13.472656 -13.789062 13.429688 -14.0625 13.296875 -14.25 C 13.222656 -14.320312 13.113281 -14.398438 12.96875 -14.484375 C 12.832031 -14.578125 12.46875 -14.625 11.875 -14.625 L 11.875 -15.234375 L 16.828125 -15.234375 L 16.828125 -14.625 C 16.359375 -14.601562 15.972656 -14.457031 15.671875 -14.1875 C 15.367188 -13.925781 15.003906 -13.304688 14.578125 -12.328125 L 8.375 2.890625 C 7.800781 4.316406 7.039062 5.421875 6.09375 6.203125 C 5.15625 6.984375 4.203125 7.375 3.234375 7.375 Z M 3.234375 7.375 "/></g></g></g><g fill="#000000" fill-opacity="1"><g transform="translate(143.500443, 59.223611)"><g/></g></g><g fill="#000000" fill-opacity="1"><g transform="translate(149.233707, 59.223611)"><g><path d="M 29.578125 0 L 19.984375 0 L 19.984375 -0.625 C 20.984375 -0.625 21.707031 -0.742188 22.15625 -0.984375 C 22.601562 -1.234375 22.890625 -1.601562 23.015625 -2.09375 C 23.140625 -2.59375 23.203125 -3.207031 23.203125 -3.9375 L 23.203125 -18.96875 L 14.484375 0 L 13.90625 0 L 5.21875 -18.96875 L 5.21875 -3.9375 C 5.21875 -3.039062 5.285156 -2.351562 5.421875 -1.875 C 5.566406 -1.394531 5.863281 -1.066406 6.3125 -0.890625 C 6.769531 -0.710938 7.46875 -0.625 8.40625 -0.625 L 8.40625 0 L 0.59375 0 L 0.59375 -0.625 C 1.582031 -0.625 2.296875 -0.75 2.734375 -1 C 3.171875 -1.25 3.441406 -1.617188 3.546875 -2.109375 C 3.660156 -2.609375 3.71875 -3.21875 3.71875 -3.9375 L 3.71875 -18.625 C 3.71875 -19.914062 3.507812 -20.789062 3.09375 -21.25 C 2.675781 -21.707031 1.84375 -21.9375 0.59375 -21.9375 L 0.59375 -22.546875 L 6.96875 -22.546875 L 15.140625 -4.921875 L 23.203125 -22.546875 L 29.578125 -22.546875 L 29.578125 -21.9375 C 28.585938 -21.9375 27.863281 -21.8125 27.40625 -21.5625 C 26.957031 -21.320312 26.675781 -20.953125 26.5625 -20.453125 C 26.445312 -19.960938 26.390625 -19.351562 26.390625 -18.625 L 26.390625 -3.9375 C 26.390625 -3.019531 26.457031 -2.320312 26.59375 -1.84375 C 26.738281 -1.363281 27.039062 -1.039062 27.5 -0.875 C 27.96875 -0.707031 28.660156 -0.625 29.578125 -0.625 Z M 29.578125 0 "/></g></g></g><g fill="#000000" fill-opacity="1"><g transform="translate(179.545225, 59.223611)"><g><path d="M 15.125 -3.15625 L 15.125 -2.1875 C 13.875 -0.539062 12.65625 0.28125 11.46875 0.28125 C 10.976562 0.28125 10.554688 0.109375 10.203125 -0.234375 C 9.859375 -0.578125 9.6875 -1.226562 9.6875 -2.1875 C 8.800781 -1.488281 8.101562 -0.960938 7.59375 -0.609375 C 7.082031 -0.253906 6.632812 -0.0195312 6.25 0.09375 C 5.863281 0.21875 5.398438 0.28125 4.859375 0.28125 C 3.765625 0.28125 2.882812 -0.0703125 2.21875 -0.78125 C 1.5625 -1.488281 1.234375 -2.429688 1.234375 -3.609375 C 1.234375 -4.171875 1.335938 -4.707031 1.546875 -5.21875 C 1.753906 -5.726562 2.148438 -6.238281 2.734375 -6.75 C 3.328125 -7.257812 4.179688 -7.785156 5.296875 -8.328125 C 6.421875 -8.878906 7.882812 -9.46875 9.6875 -10.09375 L 9.6875 -10.71875 C 9.6875 -12.1875 9.457031 -13.210938 9 -13.796875 C 8.539062 -14.378906 7.820312 -14.671875 6.84375 -14.671875 C 6.15625 -14.671875 5.613281 -14.453125 5.21875 -14.015625 C 4.820312 -13.578125 4.613281 -12.847656 4.59375 -11.828125 C 4.613281 -11.335938 4.492188 -10.953125 4.234375 -10.671875 C 3.972656 -10.398438 3.628906 -10.265625 3.203125 -10.265625 C 2.273438 -10.265625 1.8125 -10.789062 1.8125 -11.84375 C 1.8125 -12.644531 2.070312 -13.328125 2.59375 -13.890625 C 3.125 -14.460938 3.8125 -14.898438 4.65625 -15.203125 C 5.507812 -15.515625 6.414062 -15.671875 7.375 -15.671875 C 8.851562 -15.671875 9.953125 -15.457031 10.671875 -15.03125 C 11.398438 -14.613281 11.882812 -14.015625 12.125 -13.234375 C 12.363281 -12.460938 12.484375 -11.539062 12.484375 -10.46875 L 12.484375 -5.296875 C 12.484375 -4.578125 12.492188 -3.988281 12.515625 -3.53125 C 12.546875 -3.082031 12.566406 -2.78125 12.578125 -2.625 C 12.648438 -2.082031 12.890625 -1.8125 13.296875 -1.8125 C 13.523438 -1.8125 13.726562 -1.882812 13.90625 -2.03125 C 14.082031 -2.175781 14.488281 -2.550781 15.125 -3.15625 Z M 9.6875 -3.28125 L 9.6875 -9.125 C 7.976562 -8.457031 6.722656 -7.859375 5.921875 -7.328125 C 5.117188 -6.796875 4.601562 -6.296875 4.375 -5.828125 C 4.144531 -5.359375 4.03125 -4.878906 4.03125 -4.390625 C 4.03125 -3.609375 4.253906 -2.945312 4.703125 -2.40625 C 5.160156 -1.875 5.707031 -1.609375 6.34375 -1.609375 C 6.78125 -1.578125 7.269531 -1.703125 7.8125 -1.984375 C 8.363281 -2.273438 8.988281 -2.707031 9.6875 -3.28125 Z M 9.6875 -3.28125 "/></g></g></g><g fill="#000000" fill-opacity="1"><g transform="translate(194.684365, 59.223611)"><g><path d="M 9.4375 -15.671875 C 10.0625 -15.671875 10.578125 -15.5 10.984375 -15.15625 C 11.390625 -14.8125 11.59375 -14.375 11.59375 -13.84375 C 11.59375 -13.445312 11.445312 -13.085938 11.15625 -12.765625 C 10.863281 -12.441406 10.507812 -12.28125 10.09375 -12.28125 C 9.71875 -12.28125 9.398438 -12.378906 9.140625 -12.578125 C 8.878906 -12.773438 8.640625 -12.972656 8.421875 -13.171875 C 8.210938 -13.367188 7.988281 -13.46875 7.75 -13.46875 C 7.457031 -13.46875 7.113281 -13.234375 6.71875 -12.765625 C 6.320312 -12.304688 5.914062 -11.675781 5.5 -10.875 L 5.5 -3.546875 C 5.5 -2.566406 5.675781 -1.832031 6.03125 -1.34375 C 6.382812 -0.863281 7.101562 -0.625 8.1875 -0.625 L 8.1875 0 L 0.28125 0 L 0.28125 -0.625 C 0.914062 -0.625 1.410156 -0.675781 1.765625 -0.78125 C 2.117188 -0.894531 2.363281 -1.148438 2.5 -1.546875 C 2.644531 -1.941406 2.71875 -2.570312 2.71875 -3.4375 L 2.71875 -9.34375 C 2.71875 -10.414062 2.703125 -11.207031 2.671875 -11.71875 C 2.648438 -12.226562 2.601562 -12.578125 2.53125 -12.765625 C 2.457031 -12.960938 2.363281 -13.128906 2.25 -13.265625 C 1.988281 -13.398438 1.710938 -13.476562 1.421875 -13.5 C 1.128906 -13.519531 0.75 -13.4375 0.28125 -13.25 L 0.140625 -13.84375 L 4.859375 -15.671875 L 5.5 -15.671875 L 5.5 -12.25 C 6.757812 -14.53125 8.070312 -15.671875 9.4375 -15.671875 Z M 9.4375 -15.671875 "/></g></g></g><g fill="#000000" fill-opacity="1"><g transform="translate(206.366917, 59.223611)"><g><path d="M 8.734375 0 L 1.28125 0 L 1.28125 -0.625 C 2.238281 -0.625 2.863281 -0.78125 3.15625 -1.09375 C 3.457031 -1.414062 3.609375 -2.097656 3.609375 -3.140625 L 3.609375 -11.265625 C 3.609375 -11.992188 3.53125 -12.546875 3.375 -12.921875 C 3.21875 -13.304688 2.910156 -13.5 2.453125 -13.5 C 2.316406 -13.5 2.148438 -13.472656 1.953125 -13.421875 C 1.753906 -13.378906 1.53125 -13.320312 1.28125 -13.25 L 1.0625 -13.84375 L 5.6875 -15.671875 L 6.375 -15.671875 L 6.375 -3.140625 C 6.375 -2.097656 6.523438 -1.414062 6.828125 -1.09375 C 7.140625 -0.78125 7.773438 -0.625 8.734375 -0.625 Z M 5 -18.703125 C 4.519531 -18.703125 4.117188 -18.859375 3.796875 -19.171875 C 3.472656 -19.492188 3.3125 -19.90625 3.3125 -20.40625 C 3.3125 -20.90625 3.476562 -21.304688 3.8125 -21.609375 C 4.15625 -21.910156 4.550781 -22.0625 5 -22.0625 C 5.46875 -22.0625 5.863281 -21.90625 6.1875 -21.59375 C 6.519531 -21.28125 6.6875 -20.882812 6.6875 -20.40625 C 6.6875 -19.9375 6.523438 -19.535156 6.203125 -19.203125 C 5.890625 -18.867188 5.488281 -18.703125 5 -18.703125 Z M 5 -18.703125 "/></g></g></g><g fill="#000000" fill-opacity="1"><g transform="translate(215.839291, 59.223611)"><g><path d="M 15.125 -3.15625 L 15.125 -2.1875 C 13.875 -0.539062 12.65625 0.28125 11.46875 0.28125 C 10.976562 0.28125 10.554688 0.109375 10.203125 -0.234375 C 9.859375 -0.578125 9.6875 -1.226562 9.6875 -2.1875 C 8.800781 -1.488281 8.101562 -0.960938 7.59375 -0.609375 C 7.082031 -0.253906 6.632812 -0.0195312 6.25 0.09375 C 5.863281 0.21875 5.398438 0.28125 4.859375 0.28125 C 3.765625 0.28125 2.882812 -0.0703125 2.21875 -0.78125 C 1.5625 -1.488281 1.234375 -2.429688 1.234375 -3.609375 C 1.234375 -4.171875 1.335938 -4.707031 1.546875 -5.21875 C 1.753906 -5.726562 2.148438 -6.238281 2.734375 -6.75 C 3.328125 -7.257812 4.179688 -7.785156 5.296875 -8.328125 C 6.421875 -8.878906 7.882812 -9.46875 9.6875 -10.09375 L 9.6875 -10.71875 C 9.6875 -12.1875 9.457031 -13.210938 9 -13.796875 C 8.539062 -14.378906 7.820312 -14.671875 6.84375 -14.671875 C 6.15625 -14.671875 5.613281 -14.453125 5.21875 -14.015625 C 4.820312 -13.578125 4.613281 -12.847656 4.59375 -11.828125 C 4.613281 -11.335938 4.492188 -10.953125 4.234375 -10.671875 C 3.972656 -10.398438 3.628906 -10.265625 3.203125 -10.265625 C 2.273438 -10.265625 1.8125 -10.789062 1.8125 -11.84375 C 1.8125 -12.644531 2.070312 -13.328125 2.59375 -13.890625 C 3.125 -14.460938 3.8125 -14.898438 4.65625 -15.203125 C 5.507812 -15.515625 6.414062 -15.671875 7.375 -15.671875 C 8.851562 -15.671875 9.953125 -15.457031 10.671875 -15.03125 C 11.398438 -14.613281 11.882812 -14.015625 12.125 -13.234375 C 12.363281 -12.460938 12.484375 -11.539062 12.484375 -10.46875 L 12.484375 -5.296875 C 12.484375 -4.578125 12.492188 -3.988281 12.515625 -3.53125 C 12.546875 -3.082031 12.566406 -2.78125 12.578125 -2.625 C 12.648438 -2.082031 12.890625 -1.8125 13.296875 -1.8125 C 13.523438 -1.8125 13.726562 -1.882812 13.90625 -2.03125 C 14.082031 -2.175781 14.488281 -2.550781 15.125 -3.15625 Z M 9.6875 -3.28125 L 9.6875 -9.125 C 7.976562 -8.457031 6.722656 -7.859375 5.921875 -7.328125 C 5.117188 -6.796875 4.601562 -6.296875 4.375 -5.828125 C 4.144531 -5.359375 4.03125 -4.878906 4.03125 -4.390625 C 4.03125 -3.609375 4.253906 -2.945312 4.703125 -2.40625 C 5.160156 -1.875 5.707031 -1.609375 6.34375 -1.609375 C 6.78125 -1.578125 7.269531 -1.703125 7.8125 -1.984375 C 8.363281 -2.273438 8.988281 -2.707031 9.6875 -3.28125 Z M 9.6875 -3.28125 "/></g></g></g><g fill="#000000" fill-opacity="1"><g transform="translate(230.978419, 59.223611)"><g><path d="M 0.4375 0 L 0.4375 -0.625 C 1.382812 -0.625 2 -0.800781 2.28125 -1.15625 C 2.570312 -1.507812 2.71875 -2.269531 2.71875 -3.4375 L 2.71875 -9.125 C 2.71875 -10.320312 2.703125 -11.195312 2.671875 -11.75 C 2.640625 -12.300781 2.585938 -12.671875 2.515625 -12.859375 C 2.441406 -13.046875 2.351562 -13.179688 2.25 -13.265625 C 1.851562 -13.578125 1.25 -13.570312 0.4375 -13.25 L 0.171875 -13.84375 L 4.8125 -15.671875 L 5.5 -15.671875 L 5.5 -12.484375 C 7.3125 -14.609375 9.019531 -15.671875 10.625 -15.671875 C 12.101562 -15.671875 13.140625 -15.148438 13.734375 -14.109375 C 14.328125 -13.066406 14.625 -11.6875 14.625 -9.96875 L 14.625 -3.4375 C 14.625 -2.3125 14.757812 -1.5625 15.03125 -1.1875 C 15.3125 -0.8125 15.957031 -0.625 16.96875 -0.625 L 16.96875 0 L 9.34375 0 L 9.34375 -0.625 C 10.101562 -0.625 10.65625 -0.695312 11 -0.84375 C 11.351562 -0.988281 11.578125 -1.265625 11.671875 -1.671875 C 11.773438 -2.078125 11.828125 -2.664062 11.828125 -3.4375 L 11.828125 -9.65625 C 11.828125 -11.050781 11.648438 -12.0625 11.296875 -12.6875 C 10.953125 -13.3125 10.332031 -13.625 9.4375 -13.625 C 8.800781 -13.625 8.148438 -13.445312 7.484375 -13.09375 C 6.828125 -12.75 6.164062 -12.207031 5.5 -11.46875 L 5.5 -3.4375 C 5.5 -2.65625 5.550781 -2.0625 5.65625 -1.65625 C 5.769531 -1.25 6.003906 -0.972656 6.359375 -0.828125 C 6.710938 -0.691406 7.257812 -0.625 8 -0.625 L 8 0 Z M 0.4375 0 "/></g></g></g><g fill="#000000" fill-opacity="1"><g transform="translate(248.028647, 59.223611)"><g><path d="M 8.359375 0.5 C 6.929688 0.5 5.671875 0.128906 4.578125 -0.609375 C 3.492188 -1.359375 2.648438 -2.335938 2.046875 -3.546875 C 1.441406 -4.765625 1.140625 -6.078125 1.140625 -7.484375 C 1.140625 -8.847656 1.4375 -10.15625 2.03125 -11.40625 C 2.625 -12.65625 3.472656 -13.675781 4.578125 -14.46875 C 5.679688 -15.269531 6.992188 -15.671875 8.515625 -15.671875 C 9.984375 -15.671875 11.265625 -15.328125 12.359375 -14.640625 C 13.460938 -13.953125 14.320312 -13.019531 14.9375 -11.84375 C 15.550781 -10.675781 15.859375 -9.359375 15.859375 -7.890625 C 15.859375 -6.921875 15.703125 -5.9375 15.390625 -4.9375 C 15.078125 -3.945312 14.609375 -3.039062 13.984375 -2.21875 C 13.367188 -1.40625 12.585938 -0.75 11.640625 -0.25 C 10.703125 0.25 9.609375 0.5 8.359375 0.5 Z M 9.046875 -0.71875 C 10.160156 -0.71875 11.054688 -1.15625 11.734375 -2.03125 C 12.410156 -2.914062 12.75 -4.441406 12.75 -6.609375 C 12.75 -8.117188 12.550781 -9.476562 12.15625 -10.6875 C 11.769531 -11.894531 11.222656 -12.851562 10.515625 -13.5625 C 9.804688 -14.269531 8.96875 -14.625 8 -14.625 C 7.414062 -14.625 6.832031 -14.445312 6.25 -14.09375 C 5.675781 -13.75 5.191406 -13.15625 4.796875 -12.3125 C 4.410156 -11.46875 4.21875 -10.3125 4.21875 -8.84375 C 4.21875 -7.382812 4.414062 -6.035156 4.8125 -4.796875 C 5.21875 -3.566406 5.78125 -2.578125 6.5 -1.828125 C 7.226562 -1.085938 8.078125 -0.71875 9.046875 -0.71875 Z M 9.046875 -0.71875 "/></g></g></g></g></g><g transform="matrix(1, 0, 0, 1, 83, 93)"><g clip-path="url(#34ee204ad1)"><g fill="#000000" fill-opacity="1"><g transform="translate(1.051527, 32.844954)"><g><path d="M 0.6875 -6.15625 C 0.6875 -7.070312 0.835938 -7.941406 1.140625 -8.765625 C 1.453125 -9.597656 1.890625 -10.328125 2.453125 -10.953125 C 3.023438 -11.585938 3.707031 -12.085938 4.5 -12.453125 C 5.300781 -12.816406 6.191406 -13 7.171875 -13 C 7.804688 -13 8.34375 -12.921875 8.78125 -12.765625 C 9.21875 -12.617188 9.570312 -12.472656 9.84375 -12.328125 C 10.113281 -12.179688 10.304688 -12.109375 10.421875 -12.109375 C 10.816406 -12.109375 11.078125 -12.40625 11.203125 -13 L 11.546875 -13 L 11.84375 -8.671875 L 11.546875 -8.671875 C 11.160156 -9.972656 10.601562 -10.90625 9.875 -11.46875 C 9.144531 -12.039062 8.289062 -12.328125 7.3125 -12.328125 C 6.4375 -12.328125 5.660156 -12.101562 4.984375 -11.65625 C 4.304688 -11.207031 3.773438 -10.523438 3.390625 -9.609375 C 3.003906 -8.703125 2.8125 -7.546875 2.8125 -6.140625 C 2.8125 -4.328125 3.25 -2.9375 4.125 -1.96875 C 5 -1.007812 6.148438 -0.53125 7.578125 -0.53125 C 8.140625 -0.53125 8.644531 -0.601562 9.09375 -0.75 C 9.550781 -0.894531 10 -1.15625 10.4375 -1.53125 C 10.875 -1.914062 11.34375 -2.460938 11.84375 -3.171875 L 12.125 -2.984375 C 11.5 -1.867188 10.765625 -1.039062 9.921875 -0.5 C 9.078125 0.03125 8.054688 0.296875 6.859375 0.296875 C 5.878906 0.296875 5.007812 0.125 4.25 -0.21875 C 3.488281 -0.5625 2.84375 -1.03125 2.3125 -1.625 C 1.78125 -2.226562 1.375 -2.914062 1.09375 -3.6875 C 0.820312 -4.46875 0.6875 -5.289062 0.6875 -6.15625 Z M 0.6875 -6.15625 "/></g></g><g transform="translate(13.842321, 32.844954)"><g><path d="M 4.703125 0.28125 C 3.898438 0.28125 3.191406 0.0703125 2.578125 -0.34375 C 1.972656 -0.757812 1.5 -1.304688 1.15625 -1.984375 C 0.8125 -2.671875 0.640625 -3.410156 0.640625 -4.203125 C 0.640625 -4.984375 0.804688 -5.722656 1.140625 -6.421875 C 1.472656 -7.117188 1.945312 -7.691406 2.5625 -8.140625 C 3.1875 -8.597656 3.929688 -8.828125 4.796875 -8.828125 C 5.617188 -8.828125 6.335938 -8.628906 6.953125 -8.234375 C 7.578125 -7.847656 8.0625 -7.320312 8.40625 -6.65625 C 8.75 -6 8.921875 -5.257812 8.921875 -4.4375 C 8.921875 -3.894531 8.832031 -3.34375 8.65625 -2.78125 C 8.488281 -2.226562 8.226562 -1.71875 7.875 -1.25 C 7.53125 -0.789062 7.09375 -0.421875 6.5625 -0.140625 C 6.03125 0.140625 5.410156 0.28125 4.703125 0.28125 Z M 5.09375 -0.40625 C 5.71875 -0.40625 6.21875 -0.648438 6.59375 -1.140625 C 6.976562 -1.640625 7.171875 -2.5 7.171875 -3.71875 C 7.171875 -4.570312 7.0625 -5.335938 6.84375 -6.015625 C 6.625 -6.691406 6.316406 -7.226562 5.921875 -7.625 C 5.523438 -8.03125 5.050781 -8.234375 4.5 -8.234375 C 4.175781 -8.234375 3.847656 -8.132812 3.515625 -7.9375 C 3.191406 -7.738281 2.921875 -7.398438 2.703125 -6.921875 C 2.484375 -6.453125 2.375 -5.800781 2.375 -4.96875 C 2.375 -4.15625 2.484375 -3.398438 2.703125 -2.703125 C 2.929688 -2.015625 3.25 -1.457031 3.65625 -1.03125 C 4.070312 -0.613281 4.550781 -0.40625 5.09375 -0.40625 Z M 5.09375 -0.40625 "/></g></g><g transform="translate(23.435417, 32.844954)"><g><path d="M 0.25 0 L 0.25 -0.359375 C 0.78125 -0.359375 1.125 -0.457031 1.28125 -0.65625 C 1.445312 -0.851562 1.53125 -1.28125 1.53125 -1.9375 L 1.53125 -5.140625 C 1.53125 -5.804688 1.519531 -6.296875 1.5 -6.609375 C 1.488281 -6.921875 1.460938 -7.128906 1.421875 -7.234375 C 1.378906 -7.347656 1.328125 -7.425781 1.265625 -7.46875 C 1.046875 -7.644531 0.707031 -7.640625 0.25 -7.453125 L 0.09375 -7.796875 L 2.71875 -8.828125 L 3.09375 -8.828125 L 3.09375 -7.03125 C 4.113281 -8.226562 5.078125 -8.828125 5.984375 -8.828125 C 6.816406 -8.828125 7.398438 -8.53125 7.734375 -7.9375 C 8.066406 -7.351562 8.234375 -6.578125 8.234375 -5.609375 L 8.234375 -1.9375 C 8.234375 -1.300781 8.3125 -0.878906 8.46875 -0.671875 C 8.625 -0.460938 8.984375 -0.359375 9.546875 -0.359375 L 9.546875 0 L 5.25 0 L 5.25 -0.359375 C 5.6875 -0.359375 6 -0.394531 6.1875 -0.46875 C 6.382812 -0.550781 6.507812 -0.707031 6.5625 -0.9375 C 6.625 -1.164062 6.65625 -1.5 6.65625 -1.9375 L 6.65625 -5.4375 C 6.65625 -6.21875 6.554688 -6.785156 6.359375 -7.140625 C 6.171875 -7.492188 5.820312 -7.671875 5.3125 -7.671875 C 4.957031 -7.671875 4.59375 -7.570312 4.21875 -7.375 C 3.84375 -7.175781 3.46875 -6.867188 3.09375 -6.453125 L 3.09375 -1.9375 C 3.09375 -1.488281 3.125 -1.148438 3.1875 -0.921875 C 3.25 -0.703125 3.378906 -0.550781 3.578125 -0.46875 C 3.773438 -0.394531 4.082031 -0.359375 4.5 -0.359375 L 4.5 0 Z M 0.25 0 "/></g></g><g transform="translate(33.028512, 32.844954)"><g><path d="M 6.796875 -2.15625 C 6.796875 -1.71875 6.660156 -1.3125 6.390625 -0.9375 C 6.128906 -0.570312 5.78125 -0.273438 5.34375 -0.046875 C 4.90625 0.171875 4.429688 0.28125 3.921875 0.28125 C 3.460938 0.28125 3.035156 0.191406 2.640625 0.015625 C 2.242188 -0.160156 1.90625 -0.265625 1.625 -0.296875 C 1.550781 -0.296875 1.484375 -0.242188 1.421875 -0.140625 C 1.367188 -0.046875 1.328125 0.0390625 1.296875 0.125 L 0.984375 0.125 L 0.984375 -2.9375 L 1.296875 -2.9375 C 1.453125 -2.070312 1.773438 -1.414062 2.265625 -0.96875 C 2.765625 -0.519531 3.316406 -0.296875 3.921875 -0.296875 C 4.390625 -0.296875 4.75 -0.421875 5 -0.671875 C 5.257812 -0.929688 5.390625 -1.226562 5.390625 -1.5625 C 5.410156 -1.957031 5.316406 -2.289062 5.109375 -2.5625 C 4.898438 -2.832031 4.625 -3.066406 4.28125 -3.265625 C 3.9375 -3.472656 3.570312 -3.671875 3.1875 -3.859375 C 2.8125 -4.054688 2.453125 -4.265625 2.109375 -4.484375 C 1.765625 -4.710938 1.484375 -4.988281 1.265625 -5.3125 C 1.046875 -5.644531 0.9375 -6.050781 0.9375 -6.53125 C 0.9375 -7.164062 1.175781 -7.707031 1.65625 -8.15625 C 2.144531 -8.601562 2.832031 -8.828125 3.71875 -8.828125 C 4.101562 -8.828125 4.472656 -8.769531 4.828125 -8.65625 C 5.191406 -8.539062 5.445312 -8.484375 5.59375 -8.484375 C 5.675781 -8.484375 5.75 -8.5 5.8125 -8.53125 C 5.875 -8.570312 5.941406 -8.671875 6.015625 -8.828125 L 6.328125 -8.828125 L 6.328125 -5.890625 L 6.015625 -5.890625 C 5.804688 -6.816406 5.5 -7.445312 5.09375 -7.78125 C 4.6875 -8.113281 4.222656 -8.28125 3.703125 -8.28125 C 3.128906 -8.28125 2.707031 -8.175781 2.4375 -7.96875 C 2.175781 -7.757812 2.039062 -7.492188 2.03125 -7.171875 C 2.019531 -6.796875 2.125 -6.472656 2.34375 -6.203125 C 2.5625 -5.929688 2.851562 -5.6875 3.21875 -5.46875 C 3.582031 -5.257812 3.96875 -5.050781 4.375 -4.84375 C 4.789062 -4.632812 5.179688 -4.410156 5.546875 -4.171875 C 5.910156 -3.929688 6.207031 -3.648438 6.4375 -3.328125 C 6.675781 -3.003906 6.796875 -2.613281 6.796875 -2.15625 Z M 6.796875 -2.15625 "/></g></g><g transform="translate(40.489809, 32.844954)"><g><path d="M 9.609375 -0.796875 L 7.015625 0.28125 L 6.578125 0.28125 L 6.578125 -1.546875 C 6.097656 -1.046875 5.691406 -0.664062 5.359375 -0.40625 C 5.035156 -0.144531 4.742188 0.03125 4.484375 0.125 C 4.222656 0.226562 3.953125 0.28125 3.671875 0.28125 C 3.171875 0.28125 2.773438 0.175781 2.484375 -0.03125 C 2.191406 -0.25 1.96875 -0.53125 1.8125 -0.875 C 1.664062 -1.21875 1.566406 -1.582031 1.515625 -1.96875 C 1.472656 -2.351562 1.453125 -2.71875 1.453125 -3.0625 L 1.453125 -6.890625 C 1.453125 -7.441406 1.34375 -7.800781 1.125 -7.96875 C 0.914062 -8.144531 0.539062 -8.234375 0 -8.234375 L 0 -8.578125 L 3.015625 -8.578125 L 3.015625 -2.84375 C 3.015625 -2.507812 3.046875 -2.191406 3.109375 -1.890625 C 3.179688 -1.597656 3.316406 -1.351562 3.515625 -1.15625 C 3.722656 -0.96875 4.03125 -0.875 4.4375 -0.875 C 4.695312 -0.875 5 -0.957031 5.34375 -1.125 C 5.695312 -1.300781 6.109375 -1.625 6.578125 -2.09375 L 6.578125 -6.96875 C 6.578125 -7.488281 6.46875 -7.828125 6.25 -7.984375 C 6.039062 -8.140625 5.691406 -8.222656 5.203125 -8.234375 L 5.203125 -8.578125 L 8.15625 -8.578125 L 8.15625 -2.265625 C 8.15625 -1.753906 8.195312 -1.410156 8.28125 -1.234375 C 8.375 -1.066406 8.523438 -0.984375 8.734375 -0.984375 C 8.828125 -0.984375 8.9375 -0.992188 9.0625 -1.015625 C 9.195312 -1.035156 9.332031 -1.070312 9.46875 -1.125 Z M 9.609375 -0.796875 "/></g></g><g transform="translate(50.082905, 32.844954)"><g><path d="M 4.921875 0 L 0.71875 0 L 0.71875 -0.359375 C 1.300781 -0.359375 1.65625 -0.488281 1.78125 -0.75 C 1.914062 -1.007812 1.984375 -1.40625 1.984375 -1.9375 L 1.984375 -9.703125 C 1.984375 -10.359375 1.972656 -10.835938 1.953125 -11.140625 C 1.929688 -11.441406 1.898438 -11.640625 1.859375 -11.734375 C 1.828125 -11.835938 1.78125 -11.914062 1.71875 -11.96875 C 1.5625 -12.070312 1.398438 -12.113281 1.234375 -12.09375 C 1.066406 -12.070312 0.894531 -12.023438 0.71875 -11.953125 L 0.546875 -12.28125 L 3.140625 -13.3125 L 3.53125 -13.3125 L 3.53125 -1.9375 C 3.53125 -1.539062 3.5625 -1.222656 3.625 -0.984375 C 3.6875 -0.753906 3.816406 -0.59375 4.015625 -0.5 C 4.210938 -0.40625 4.515625 -0.359375 4.921875 -0.359375 Z M 4.921875 0 "/></g></g><g transform="translate(55.412402, 32.844954)"><g><path d="M 3.203125 0.28125 C 2.941406 0.28125 2.675781 0.222656 2.40625 0.109375 C 2.144531 -0.00390625 1.929688 -0.222656 1.765625 -0.546875 C 1.597656 -0.867188 1.515625 -1.351562 1.515625 -2 L 1.515625 -7.9375 L 0.140625 -7.9375 L 0.140625 -8.234375 C 0.742188 -8.453125 1.265625 -8.867188 1.703125 -9.484375 C 2.140625 -10.097656 2.503906 -10.738281 2.796875 -11.40625 L 3.078125 -11.40625 L 3.078125 -8.578125 L 5.09375 -8.578125 L 5.09375 -7.9375 L 3.078125 -7.9375 L 3.078125 -2.21875 C 3.078125 -1.664062 3.160156 -1.289062 3.328125 -1.09375 C 3.492188 -0.90625 3.691406 -0.804688 3.921875 -0.796875 C 4.160156 -0.785156 4.367188 -0.847656 4.546875 -0.984375 C 4.722656 -1.128906 4.863281 -1.320312 4.96875 -1.5625 L 5.359375 -1.5625 C 5.160156 -0.9375 4.84375 -0.472656 4.40625 -0.171875 C 3.976562 0.128906 3.578125 0.28125 3.203125 0.28125 Z M 3.203125 0.28125 "/></g></g><g transform="translate(60.7419, 32.844954)"><g><path d="M 4.703125 0.28125 C 3.898438 0.28125 3.191406 0.0703125 2.578125 -0.34375 C 1.972656 -0.757812 1.5 -1.304688 1.15625 -1.984375 C 0.8125 -2.671875 0.640625 -3.410156 0.640625 -4.203125 C 0.640625 -4.984375 0.804688 -5.722656 1.140625 -6.421875 C 1.472656 -7.117188 1.945312 -7.691406 2.5625 -8.140625 C 3.1875 -8.597656 3.929688 -8.828125 4.796875 -8.828125 C 5.617188 -8.828125 6.335938 -8.628906 6.953125 -8.234375 C 7.578125 -7.847656 8.0625 -7.320312 8.40625 -6.65625 C 8.75 -6 8.921875 -5.257812 8.921875 -4.4375 C 8.921875 -3.894531 8.832031 -3.34375 8.65625 -2.78125 C 8.488281 -2.226562 8.226562 -1.71875 7.875 -1.25 C 7.53125 -0.789062 7.09375 -0.421875 6.5625 -0.140625 C 6.03125 0.140625 5.410156 0.28125 4.703125 0.28125 Z M 5.09375 -0.40625 C 5.71875 -0.40625 6.21875 -0.648438 6.59375 -1.140625 C 6.976562 -1.640625 7.171875 -2.5 7.171875 -3.71875 C 7.171875 -4.570312 7.0625 -5.335938 6.84375 -6.015625 C 6.625 -6.691406 6.316406 -7.226562 5.921875 -7.625 C 5.523438 -8.03125 5.050781 -8.234375 4.5 -8.234375 C 4.175781 -8.234375 3.847656 -8.132812 3.515625 -7.9375 C 3.191406 -7.738281 2.921875 -7.398438 2.703125 -6.921875 C 2.484375 -6.453125 2.375 -5.800781 2.375 -4.96875 C 2.375 -4.15625 2.484375 -3.398438 2.703125 -2.703125 C 2.929688 -2.015625 3.25 -1.457031 3.65625 -1.03125 C 4.070312 -0.613281 4.550781 -0.40625 5.09375 -0.40625 Z M 5.09375 -0.40625 "/></g></g><g transform="translate(70.334995, 32.844954)"><g><path d="M 5.3125 -8.828125 C 5.664062 -8.828125 5.957031 -8.726562 6.1875 -8.53125 C 6.414062 -8.332031 6.53125 -8.085938 6.53125 -7.796875 C 6.53125 -7.566406 6.445312 -7.359375 6.28125 -7.171875 C 6.113281 -6.992188 5.910156 -6.90625 5.671875 -6.90625 C 5.472656 -6.90625 5.296875 -6.960938 5.140625 -7.078125 C 4.992188 -7.191406 4.859375 -7.300781 4.734375 -7.40625 C 4.617188 -7.519531 4.492188 -7.578125 4.359375 -7.578125 C 4.191406 -7.578125 4 -7.445312 3.78125 -7.1875 C 3.5625 -6.925781 3.332031 -6.570312 3.09375 -6.125 L 3.09375 -2 C 3.09375 -1.445312 3.191406 -1.035156 3.390625 -0.765625 C 3.585938 -0.492188 3.992188 -0.359375 4.609375 -0.359375 L 4.609375 0 L 0.15625 0 L 0.15625 -0.359375 C 0.507812 -0.359375 0.785156 -0.382812 0.984375 -0.4375 C 1.191406 -0.5 1.332031 -0.640625 1.40625 -0.859375 C 1.488281 -1.085938 1.53125 -1.445312 1.53125 -1.9375 L 1.53125 -5.25 C 1.53125 -5.851562 1.519531 -6.300781 1.5 -6.59375 C 1.488281 -6.882812 1.460938 -7.082031 1.421875 -7.1875 C 1.378906 -7.300781 1.328125 -7.394531 1.265625 -7.46875 C 1.117188 -7.539062 0.960938 -7.582031 0.796875 -7.59375 C 0.628906 -7.601562 0.414062 -7.554688 0.15625 -7.453125 L 0.078125 -7.796875 L 2.734375 -8.828125 L 3.09375 -8.828125 L 3.09375 -6.890625 C 3.800781 -8.179688 4.539062 -8.828125 5.3125 -8.828125 Z M 5.3125 -8.828125 "/></g></g><g transform="translate(76.908042, 32.844954)"><g/></g><g transform="translate(80.133791, 32.844954)"><g><path d="M 5.90625 0 L 0.484375 0 L 0.484375 -0.359375 C 1.035156 -0.359375 1.4375 -0.429688 1.6875 -0.578125 C 1.945312 -0.722656 2.109375 -0.9375 2.171875 -1.21875 C 2.242188 -1.5 2.28125 -1.84375 2.28125 -2.25 L 2.28125 -10.453125 C 2.28125 -10.984375 2.238281 -11.382812 2.15625 -11.65625 C 2.082031 -11.925781 1.914062 -12.109375 1.65625 -12.203125 C 1.394531 -12.296875 1.003906 -12.34375 0.484375 -12.34375 L 0.484375 -12.6875 L 5.90625 -12.6875 L 5.90625 -12.34375 C 5.363281 -12.34375 4.960938 -12.269531 4.703125 -12.125 C 4.453125 -11.988281 4.285156 -11.78125 4.203125 -11.5 C 4.128906 -11.21875 4.09375 -10.867188 4.09375 -10.453125 L 4.09375 -2.25 C 4.09375 -1.71875 4.132812 -1.316406 4.21875 -1.046875 C 4.300781 -0.773438 4.46875 -0.59375 4.71875 -0.5 C 4.976562 -0.40625 5.375 -0.359375 5.90625 -0.359375 Z M 5.90625 0 "/></g></g><g transform="translate(86.510488, 32.844954)"><g><path d="M 0.28125 0 L 0.28125 -0.359375 C 0.644531 -0.359375 0.914062 -0.394531 1.09375 -0.46875 C 1.28125 -0.550781 1.40625 -0.703125 1.46875 -0.921875 C 1.53125 -1.148438 1.5625 -1.488281 1.5625 -1.9375 L 1.5625 -5.21875 C 1.5625 -6 1.539062 -6.585938 1.5 -6.984375 C 1.46875 -7.390625 1.273438 -7.585938 0.921875 -7.578125 C 0.734375 -7.578125 0.519531 -7.535156 0.28125 -7.453125 L 0.125 -7.796875 L 2.734375 -8.828125 L 3.140625 -8.828125 L 3.140625 -7.015625 C 3.597656 -7.515625 3.992188 -7.894531 4.328125 -8.15625 C 4.671875 -8.414062 4.984375 -8.59375 5.265625 -8.6875 C 5.546875 -8.78125 5.828125 -8.828125 6.109375 -8.828125 C 6.617188 -8.828125 7.070312 -8.679688 7.46875 -8.390625 C 7.875 -8.097656 8.144531 -7.640625 8.28125 -7.015625 C 8.914062 -7.734375 9.453125 -8.210938 9.890625 -8.453125 C 10.335938 -8.703125 10.800781 -8.828125 11.28125 -8.828125 C 11.96875 -8.828125 12.515625 -8.582031 12.921875 -8.09375 C 13.335938 -7.613281 13.546875 -6.800781 13.546875 -5.65625 L 13.546875 -1.9375 C 13.546875 -1.28125 13.628906 -0.851562 13.796875 -0.65625 C 13.972656 -0.457031 14.328125 -0.359375 14.859375 -0.359375 L 14.859375 0 L 10.609375 0 L 10.609375 -0.359375 C 11.066406 -0.359375 11.390625 -0.410156 11.578125 -0.515625 C 11.765625 -0.617188 11.878906 -0.785156 11.921875 -1.015625 C 11.960938 -1.242188 11.984375 -1.550781 11.984375 -1.9375 L 11.984375 -5.65625 C 11.984375 -6.414062 11.867188 -6.945312 11.640625 -7.25 C 11.410156 -7.5625 11.050781 -7.71875 10.5625 -7.71875 C 10.300781 -7.71875 9.976562 -7.632812 9.59375 -7.46875 C 9.21875 -7.3125 8.804688 -7.003906 8.359375 -6.546875 L 8.359375 -1.9375 C 8.359375 -1.53125 8.378906 -1.210938 8.421875 -0.984375 C 8.472656 -0.753906 8.59375 -0.59375 8.78125 -0.5 C 8.976562 -0.40625 9.296875 -0.359375 9.734375 -0.359375 L 9.734375 0 L 5.390625 0 L 5.390625 -0.359375 C 5.878906 -0.359375 6.21875 -0.410156 6.40625 -0.515625 C 6.601562 -0.628906 6.71875 -0.800781 6.75 -1.03125 C 6.78125 -1.269531 6.796875 -1.570312 6.796875 -1.9375 L 6.796875 -5.65625 C 6.796875 -6.414062 6.660156 -6.953125 6.390625 -7.265625 C 6.128906 -7.578125 5.773438 -7.734375 5.328125 -7.734375 C 4.890625 -7.734375 4.476562 -7.601562 4.09375 -7.34375 C 3.71875 -7.082031 3.398438 -6.816406 3.140625 -6.546875 L 3.140625 -1.9375 C 3.140625 -1.457031 3.175781 -1.101562 3.25 -0.875 C 3.332031 -0.65625 3.472656 -0.515625 3.671875 -0.453125 C 3.867188 -0.390625 4.148438 -0.359375 4.515625 -0.359375 L 4.515625 0 Z M 0.28125 0 "/></g></g><g transform="translate(101.433081, 32.844954)"><g><path d="M 4.703125 0.28125 C 3.898438 0.28125 3.191406 0.0703125 2.578125 -0.34375 C 1.972656 -0.757812 1.5 -1.304688 1.15625 -1.984375 C 0.8125 -2.671875 0.640625 -3.410156 0.640625 -4.203125 C 0.640625 -4.984375 0.804688 -5.722656 1.140625 -6.421875 C 1.472656 -7.117188 1.945312 -7.691406 2.5625 -8.140625 C 3.1875 -8.597656 3.929688 -8.828125 4.796875 -8.828125 C 5.617188 -8.828125 6.335938 -8.628906 6.953125 -8.234375 C 7.578125 -7.847656 8.0625 -7.320312 8.40625 -6.65625 C 8.75 -6 8.921875 -5.257812 8.921875 -4.4375 C 8.921875 -3.894531 8.832031 -3.34375 8.65625 -2.78125 C 8.488281 -2.226562 8.226562 -1.71875 7.875 -1.25 C 7.53125 -0.789062 7.09375 -0.421875 6.5625 -0.140625 C 6.03125 0.140625 5.410156 0.28125 4.703125 0.28125 Z M 5.09375 -0.40625 C 5.71875 -0.40625 6.21875 -0.648438 6.59375 -1.140625 C 6.976562 -1.640625 7.171875 -2.5 7.171875 -3.71875 C 7.171875 -4.570312 7.0625 -5.335938 6.84375 -6.015625 C 6.625 -6.691406 6.316406 -7.226562 5.921875 -7.625 C 5.523438 -8.03125 5.050781 -8.234375 4.5 -8.234375 C 4.175781 -8.234375 3.847656 -8.132812 3.515625 -7.9375 C 3.191406 -7.738281 2.921875 -7.398438 2.703125 -6.921875 C 2.484375 -6.453125 2.375 -5.800781 2.375 -4.96875 C 2.375 -4.15625 2.484375 -3.398438 2.703125 -2.703125 C 2.929688 -2.015625 3.25 -1.457031 3.65625 -1.03125 C 4.070312 -0.613281 4.550781 -0.40625 5.09375 -0.40625 Z M 5.09375 -0.40625 "/></g></g><g transform="translate(111.026177, 32.844954)"><g><path d="M 8.921875 -4.640625 C 8.921875 -3.691406 8.71875 -2.84375 8.3125 -2.09375 C 7.90625 -1.351562 7.363281 -0.769531 6.6875 -0.34375 C 6.007812 0.0703125 5.28125 0.28125 4.5 0.28125 C 3.507812 0.28125 2.472656 -0.0859375 1.390625 -0.828125 L 1.390625 -9.703125 C 1.390625 -10.335938 1.378906 -10.804688 1.359375 -11.109375 C 1.335938 -11.410156 1.304688 -11.613281 1.265625 -11.71875 C 1.222656 -11.832031 1.160156 -11.914062 1.078125 -11.96875 C 0.984375 -12.0625 0.863281 -12.101562 0.71875 -12.09375 C 0.570312 -12.09375 0.351562 -12.046875 0.0625 -11.953125 L -0.078125 -12.28125 L 2.515625 -13.3125 L 2.953125 -13.3125 L 2.953125 -7.09375 C 3.773438 -8.25 4.675781 -8.828125 5.65625 -8.828125 C 6.226562 -8.828125 6.765625 -8.65625 7.265625 -8.3125 C 7.765625 -7.976562 8.164062 -7.5 8.46875 -6.875 C 8.769531 -6.25 8.921875 -5.503906 8.921875 -4.640625 Z M 7.3125 -4.09375 C 7.3125 -5.164062 7.066406 -6.003906 6.578125 -6.609375 C 6.097656 -7.210938 5.535156 -7.515625 4.890625 -7.515625 C 4.648438 -7.515625 4.382812 -7.457031 4.09375 -7.34375 C 3.8125 -7.226562 3.429688 -6.953125 2.953125 -6.515625 L 2.953125 -1.359375 C 3.585938 -0.734375 4.257812 -0.421875 4.96875 -0.421875 C 5.34375 -0.421875 5.707031 -0.554688 6.0625 -0.828125 C 6.425781 -1.109375 6.722656 -1.519531 6.953125 -2.0625 C 7.191406 -2.601562 7.3125 -3.28125 7.3125 -4.09375 Z M 7.3125 -4.09375 "/></g></g><g transform="translate(120.619272, 32.844954)"><g><path d="M 4.921875 0 L 0.71875 0 L 0.71875 -0.359375 C 1.257812 -0.359375 1.613281 -0.445312 1.78125 -0.625 C 1.945312 -0.800781 2.03125 -1.179688 2.03125 -1.765625 L 2.03125 -6.34375 C 2.03125 -6.75 1.984375 -7.054688 1.890625 -7.265625 C 1.804688 -7.484375 1.640625 -7.59375 1.390625 -7.59375 C 1.304688 -7.59375 1.207031 -7.578125 1.09375 -7.546875 C 0.988281 -7.523438 0.863281 -7.492188 0.71875 -7.453125 L 0.59375 -7.796875 L 3.203125 -8.828125 L 3.59375 -8.828125 L 3.59375 -1.765625 C 3.59375 -1.179688 3.675781 -0.800781 3.84375 -0.625 C 4.019531 -0.445312 4.378906 -0.359375 4.921875 -0.359375 Z M 2.8125 -10.53125 C 2.539062 -10.53125 2.3125 -10.617188 2.125 -10.796875 C 1.945312 -10.972656 1.859375 -11.203125 1.859375 -11.484375 C 1.859375 -11.765625 1.953125 -11.988281 2.140625 -12.15625 C 2.335938 -12.332031 2.5625 -12.421875 2.8125 -12.421875 C 3.070312 -12.421875 3.296875 -12.332031 3.484375 -12.15625 C 3.671875 -11.976562 3.765625 -11.753906 3.765625 -11.484375 C 3.765625 -11.222656 3.675781 -11 3.5 -10.8125 C 3.320312 -10.625 3.09375 -10.53125 2.8125 -10.53125 Z M 2.8125 -10.53125 "/></g></g><g transform="translate(125.94877, 32.844954)"><g><path d="M 4.921875 0 L 0.71875 0 L 0.71875 -0.359375 C 1.300781 -0.359375 1.65625 -0.488281 1.78125 -0.75 C 1.914062 -1.007812 1.984375 -1.40625 1.984375 -1.9375 L 1.984375 -9.703125 C 1.984375 -10.359375 1.972656 -10.835938 1.953125 -11.140625 C 1.929688 -11.441406 1.898438 -11.640625 1.859375 -11.734375 C 1.828125 -11.835938 1.78125 -11.914062 1.71875 -11.96875 C 1.5625 -12.070312 1.398438 -12.113281 1.234375 -12.09375 C 1.066406 -12.070312 0.894531 -12.023438 0.71875 -11.953125 L 0.546875 -12.28125 L 3.140625 -13.3125 L 3.53125 -13.3125 L 3.53125 -1.9375 C 3.53125 -1.539062 3.5625 -1.222656 3.625 -0.984375 C 3.6875 -0.753906 3.816406 -0.59375 4.015625 -0.5 C 4.210938 -0.40625 4.515625 -0.359375 4.921875 -0.359375 Z M 4.921875 0 "/></g></g><g transform="translate(131.278267, 32.844954)"><g><path d="M 4.921875 0 L 0.71875 0 L 0.71875 -0.359375 C 1.257812 -0.359375 1.613281 -0.445312 1.78125 -0.625 C 1.945312 -0.800781 2.03125 -1.179688 2.03125 -1.765625 L 2.03125 -6.34375 C 2.03125 -6.75 1.984375 -7.054688 1.890625 -7.265625 C 1.804688 -7.484375 1.640625 -7.59375 1.390625 -7.59375 C 1.304688 -7.59375 1.207031 -7.578125 1.09375 -7.546875 C 0.988281 -7.523438 0.863281 -7.492188 0.71875 -7.453125 L 0.59375 -7.796875 L 3.203125 -8.828125 L 3.59375 -8.828125 L 3.59375 -1.765625 C 3.59375 -1.179688 3.675781 -0.800781 3.84375 -0.625 C 4.019531 -0.445312 4.378906 -0.359375 4.921875 -0.359375 Z M 2.8125 -10.53125 C 2.539062 -10.53125 2.3125 -10.617188 2.125 -10.796875 C 1.945312 -10.972656 1.859375 -11.203125 1.859375 -11.484375 C 1.859375 -11.765625 1.953125 -11.988281 2.140625 -12.15625 C 2.335938 -12.332031 2.5625 -12.421875 2.8125 -12.421875 C 3.070312 -12.421875 3.296875 -12.332031 3.484375 -12.15625 C 3.671875 -11.976562 3.765625 -11.753906 3.765625 -11.484375 C 3.765625 -11.222656 3.675781 -11 3.5 -10.8125 C 3.320312 -10.625 3.09375 -10.53125 2.8125 -10.53125 Z M 2.8125 -10.53125 "/></g></g><g transform="translate(136.607765, 32.844954)"><g><path d="M 8.515625 -1.78125 L 8.515625 -1.234375 C 7.804688 -0.304688 7.117188 0.15625 6.453125 0.15625 C 6.179688 0.15625 5.945312 0.0625 5.75 -0.125 C 5.550781 -0.320312 5.453125 -0.691406 5.453125 -1.234375 C 4.953125 -0.835938 4.554688 -0.539062 4.265625 -0.34375 C 3.984375 -0.144531 3.734375 -0.015625 3.515625 0.046875 C 3.296875 0.117188 3.035156 0.15625 2.734375 0.15625 C 2.117188 0.15625 1.625 -0.0390625 1.25 -0.4375 C 0.875 -0.832031 0.6875 -1.363281 0.6875 -2.03125 C 0.6875 -2.34375 0.742188 -2.644531 0.859375 -2.9375 C 0.984375 -3.226562 1.210938 -3.515625 1.546875 -3.796875 C 1.878906 -4.085938 2.359375 -4.382812 2.984375 -4.6875 C 3.609375 -5 4.429688 -5.328125 5.453125 -5.671875 L 5.453125 -6.03125 C 5.453125 -6.863281 5.320312 -7.441406 5.0625 -7.765625 C 4.800781 -8.097656 4.398438 -8.265625 3.859375 -8.265625 C 3.472656 -8.265625 3.164062 -8.140625 2.9375 -7.890625 C 2.707031 -7.640625 2.585938 -7.226562 2.578125 -6.65625 C 2.585938 -6.382812 2.519531 -6.171875 2.375 -6.015625 C 2.226562 -5.859375 2.039062 -5.78125 1.8125 -5.78125 C 1.28125 -5.78125 1.015625 -6.078125 1.015625 -6.671875 C 1.015625 -7.117188 1.160156 -7.503906 1.453125 -7.828125 C 1.753906 -8.148438 2.144531 -8.394531 2.625 -8.5625 C 3.101562 -8.738281 3.613281 -8.828125 4.15625 -8.828125 C 4.976562 -8.828125 5.59375 -8.707031 6 -8.46875 C 6.414062 -8.226562 6.691406 -7.890625 6.828125 -7.453125 C 6.960938 -7.015625 7.03125 -6.492188 7.03125 -5.890625 L 7.03125 -2.984375 C 7.03125 -2.578125 7.035156 -2.242188 7.046875 -1.984375 C 7.066406 -1.734375 7.078125 -1.566406 7.078125 -1.484375 C 7.117188 -1.171875 7.253906 -1.015625 7.484375 -1.015625 C 7.609375 -1.015625 7.722656 -1.054688 7.828125 -1.140625 C 7.929688 -1.222656 8.160156 -1.4375 8.515625 -1.78125 Z M 5.453125 -1.84375 L 5.453125 -5.140625 C 4.492188 -4.765625 3.785156 -4.425781 3.328125 -4.125 C 2.878906 -3.820312 2.585938 -3.535156 2.453125 -3.265625 C 2.328125 -3.003906 2.265625 -2.738281 2.265625 -2.46875 C 2.265625 -2.03125 2.390625 -1.660156 2.640625 -1.359375 C 2.898438 -1.054688 3.210938 -0.90625 3.578125 -0.90625 C 3.816406 -0.882812 4.085938 -0.953125 4.390625 -1.109375 C 4.703125 -1.273438 5.054688 -1.519531 5.453125 -1.84375 Z M 6.875 -12.453125 C 6.875 -12.265625 6.796875 -12.085938 6.640625 -11.921875 C 6.484375 -11.765625 6.304688 -11.625 6.109375 -11.5 L 3.328125 -9.75 L 2.5625 -9.75 L 5.21875 -12.421875 C 5.445312 -12.648438 5.632812 -12.8125 5.78125 -12.90625 C 5.9375 -13.007812 6.117188 -13.0625 6.328125 -13.0625 C 6.460938 -13.0625 6.585938 -13 6.703125 -12.875 C 6.816406 -12.757812 6.875 -12.617188 6.875 -12.453125 Z M 6.875 -12.453125 "/></g></g><g transform="translate(145.125611, 32.844954)"><g><path d="M 5.3125 -8.828125 C 5.664062 -8.828125 5.957031 -8.726562 6.1875 -8.53125 C 6.414062 -8.332031 6.53125 -8.085938 6.53125 -7.796875 C 6.53125 -7.566406 6.445312 -7.359375 6.28125 -7.171875 C 6.113281 -6.992188 5.910156 -6.90625 5.671875 -6.90625 C 5.472656 -6.90625 5.296875 -6.960938 5.140625 -7.078125 C 4.992188 -7.191406 4.859375 -7.300781 4.734375 -7.40625 C 4.617188 -7.519531 4.492188 -7.578125 4.359375 -7.578125 C 4.191406 -7.578125 4 -7.445312 3.78125 -7.1875 C 3.5625 -6.925781 3.332031 -6.570312 3.09375 -6.125 L 3.09375 -2 C 3.09375 -1.445312 3.191406 -1.035156 3.390625 -0.765625 C 3.585938 -0.492188 3.992188 -0.359375 4.609375 -0.359375 L 4.609375 0 L 0.15625 0 L 0.15625 -0.359375 C 0.507812 -0.359375 0.785156 -0.382812 0.984375 -0.4375 C 1.191406 -0.5 1.332031 -0.640625 1.40625 -0.859375 C 1.488281 -1.085938 1.53125 -1.445312 1.53125 -1.9375 L 1.53125 -5.25 C 1.53125 -5.851562 1.519531 -6.300781 1.5 -6.59375 C 1.488281 -6.882812 1.460938 -7.082031 1.421875 -7.1875 C 1.378906 -7.300781 1.328125 -7.394531 1.265625 -7.46875 C 1.117188 -7.539062 0.960938 -7.582031 0.796875 -7.59375 C 0.628906 -7.601562 0.414062 -7.554688 0.15625 -7.453125 L 0.078125 -7.796875 L 2.734375 -8.828125 L 3.09375 -8.828125 L 3.09375 -6.890625 C 3.800781 -8.179688 4.539062 -8.828125 5.3125 -8.828125 Z M 5.3125 -8.828125 "/></g></g><g transform="translate(151.698658, 32.844954)"><g><path d="M 4.921875 0 L 0.71875 0 L 0.71875 -0.359375 C 1.257812 -0.359375 1.613281 -0.445312 1.78125 -0.625 C 1.945312 -0.800781 2.03125 -1.179688 2.03125 -1.765625 L 2.03125 -6.34375 C 2.03125 -6.75 1.984375 -7.054688 1.890625 -7.265625 C 1.804688 -7.484375 1.640625 -7.59375 1.390625 -7.59375 C 1.304688 -7.59375 1.207031 -7.578125 1.09375 -7.546875 C 0.988281 -7.523438 0.863281 -7.492188 0.71875 -7.453125 L 0.59375 -7.796875 L 3.203125 -8.828125 L 3.59375 -8.828125 L 3.59375 -1.765625 C 3.59375 -1.179688 3.675781 -0.800781 3.84375 -0.625 C 4.019531 -0.445312 4.378906 -0.359375 4.921875 -0.359375 Z M 2.8125 -10.53125 C 2.539062 -10.53125 2.3125 -10.617188 2.125 -10.796875 C 1.945312 -10.972656 1.859375 -11.203125 1.859375 -11.484375 C 1.859375 -11.765625 1.953125 -11.988281 2.140625 -12.15625 C 2.335938 -12.332031 2.5625 -12.421875 2.8125 -12.421875 C 3.070312 -12.421875 3.296875 -12.332031 3.484375 -12.15625 C 3.671875 -11.976562 3.765625 -11.753906 3.765625 -11.484375 C 3.765625 -11.222656 3.675781 -11 3.5 -10.8125 C 3.320312 -10.625 3.09375 -10.53125 2.8125 -10.53125 Z M 2.8125 -10.53125 "/></g></g><g transform="translate(157.028156, 32.844954)"><g><path d="M 4.703125 0.28125 C 3.898438 0.28125 3.191406 0.0703125 2.578125 -0.34375 C 1.972656 -0.757812 1.5 -1.304688 1.15625 -1.984375 C 0.8125 -2.671875 0.640625 -3.410156 0.640625 -4.203125 C 0.640625 -4.984375 0.804688 -5.722656 1.140625 -6.421875 C 1.472656 -7.117188 1.945312 -7.691406 2.5625 -8.140625 C 3.1875 -8.597656 3.929688 -8.828125 4.796875 -8.828125 C 5.617188 -8.828125 6.335938 -8.628906 6.953125 -8.234375 C 7.578125 -7.847656 8.0625 -7.320312 8.40625 -6.65625 C 8.75 -6 8.921875 -5.257812 8.921875 -4.4375 C 8.921875 -3.894531 8.832031 -3.34375 8.65625 -2.78125 C 8.488281 -2.226562 8.226562 -1.71875 7.875 -1.25 C 7.53125 -0.789062 7.09375 -0.421875 6.5625 -0.140625 C 6.03125 0.140625 5.410156 0.28125 4.703125 0.28125 Z M 5.09375 -0.40625 C 5.71875 -0.40625 6.21875 -0.648438 6.59375 -1.140625 C 6.976562 -1.640625 7.171875 -2.5 7.171875 -3.71875 C 7.171875 -4.570312 7.0625 -5.335938 6.84375 -6.015625 C 6.625 -6.691406 6.316406 -7.226562 5.921875 -7.625 C 5.523438 -8.03125 5.050781 -8.234375 4.5 -8.234375 C 4.175781 -8.234375 3.847656 -8.132812 3.515625 -7.9375 C 3.191406 -7.738281 2.921875 -7.398438 2.703125 -6.921875 C 2.484375 -6.453125 2.375 -5.800781 2.375 -4.96875 C 2.375 -4.15625 2.484375 -3.398438 2.703125 -2.703125 C 2.929688 -2.015625 3.25 -1.457031 3.65625 -1.03125 C 4.070312 -0.613281 4.550781 -0.40625 5.09375 -0.40625 Z M 5.09375 -0.40625 "/></g></g></g></g></g></svg>