<svg xmlns="http://www.w3.org/2000/svg" xmlns:xlink="http://www.w3.org/1999/xlink" width="436" zoomAndPan="magnify" viewBox="0 0 327 136.499996" height="182" preserveAspectRatio="xMidYMid meet" version="1.0"><defs><filter x="0%" y="0%" width="100%" height="100%" id="44e17ee0c6"><feColorMatrix values="0 0 0 0 1 0 0 0 0 1 0 0 0 0 1 0 0 0 1 0" color-interpolation-filters="sRGB"/></filter><g/><clipPath id="d705a1f630"><path d="M 125.5625 0 L 195.058594 0 L 195.058594 4 L 125.5625 4 Z M 125.5625 0 " clip-rule="nonzero"/></clipPath><clipPath id="b8b75f4aee"><path d="M 161 5 L 191 5 L 191 66.507812 L 161 66.507812 Z M 161 5 " clip-rule="nonzero"/></clipPath><clipPath id="71c44a4053"><path d="M 130 5 L 159 5 L 159 66.507812 L 130 66.507812 Z M 130 5 " clip-rule="nonzero"/></clipPath><clipPath id="b1a11c44a5"><path d="M 0.597656 0 L 326.402344 0 L 326.402344 136 L 0.597656 136 Z M 0.597656 0 " clip-rule="nonzero"/></clipPath><clipPath id="7c5c71f96b"><path d="M 0.597656 0 L 326.402344 0 L 326.402344 136 L 0.597656 136 Z M 0.597656 0 " clip-rule="nonzero"/></clipPath><clipPath id="542e7ca441"><path d="M 0.597656 0 L 326.402344 0 L 326.402344 136 L 0.597656 136 Z M 0.597656 0 " clip-rule="nonzero"/></clipPath><clipPath id="d7299116b4"><path d="M 0.597656 0 L 326.402344 0 L 326.402344 136 L 0.597656 136 Z M 0.597656 0 " clip-rule="nonzero"/></clipPath><linearGradient x1="165.641006" gradientTransform="matrix(0.800959, 0, 0, 0.798472, 30.757659, 52.6697)" y1="-65.96314" x2="165.641006" gradientUnits="userSpaceOnUse" y2="104.364521" id="93975d8d46"><stop stop-opacity="1" stop-color="rgb(52.159119%, 51.759338%, 53.729248%)" offset="0"/><stop stop-opacity="1" stop-color="rgb(52.159119%, 51.759338%, 53.729248%)" offset="0.25"/><stop stop-opacity="1" stop-color="rgb(52.159119%, 51.759338%, 53.729248%)" offset="0.257812"/><stop stop-opacity="1" stop-color="rgb(53.123474%, 52.703857%, 54.733276%)" offset="0.261719"/><stop stop-opacity="1" stop-color="rgb(54.08783%, 53.649902%, 55.737305%)" offset="0.265625"/><stop stop-opacity="1" stop-color="rgb(55.090332%, 54.631042%, 56.781006%)" offset="0.269531"/><stop stop-opacity="1" stop-color="rgb(56.09436%, 55.613708%, 57.824707%)" offset="0.273438"/><stop stop-opacity="1" stop-color="rgb(57.096863%, 56.596375%, 58.868408%)" offset="0.277344"/><stop stop-opacity="1" stop-color="rgb(58.099365%, 57.579041%, 59.912109%)" offset="0.28125"/><stop stop-opacity="1" stop-color="rgb(59.101868%, 58.560181%, 60.955811%)" offset="0.285156"/><stop stop-opacity="1" stop-color="rgb(60.10437%, 59.542847%, 61.999512%)" offset="0.289062"/><stop stop-opacity="1" stop-color="rgb(61.106873%, 60.525513%, 63.043213%)" offset="0.292969"/><stop stop-opacity="1" stop-color="rgb(62.110901%, 61.508179%, 64.086914%)" offset="0.296875"/><stop stop-opacity="1" stop-color="rgb(63.113403%, 62.490845%, 65.130615%)" offset="0.300781"/><stop stop-opacity="1" stop-color="rgb(64.115906%, 63.473511%, 66.174316%)" offset="0.304688"/><stop stop-opacity="1" stop-color="rgb(65.118408%, 64.454651%, 67.218018%)" offset="0.308594"/><stop stop-opacity="1" stop-color="rgb(66.120911%, 65.437317%, 68.261719%)" offset="0.3125"/><stop stop-opacity="1" stop-color="rgb(67.123413%, 66.419983%, 69.30542%)" offset="0.316406"/><stop stop-opacity="1" stop-color="rgb(68.125916%, 67.402649%, 70.349121%)" offset="0.320312"/><stop stop-opacity="1" stop-color="rgb(69.128418%, 68.383789%, 71.392822%)" offset="0.324219"/><stop stop-opacity="1" stop-color="rgb(70.132446%, 69.366455%, 72.436523%)" offset="0.328125"/><stop stop-opacity="1" stop-color="rgb(71.134949%, 70.349121%, 73.480225%)" offset="0.332031"/><stop stop-opacity="1" stop-color="rgb(72.137451%, 71.331787%, 74.523926%)" offset="0.335938"/><stop stop-opacity="1" stop-color="rgb(73.139954%, 72.314453%, 75.567627%)" offset="0.339844"/><stop stop-opacity="1" stop-color="rgb(74.142456%, 73.297119%, 76.611328%)" offset="0.34375"/><stop stop-opacity="1" stop-color="rgb(75.144958%, 74.278259%, 77.655029%)" offset="0.347656"/><stop stop-opacity="1" stop-color="rgb(76.147461%, 75.260925%, 78.69873%)" offset="0.351562"/><stop stop-opacity="1" stop-color="rgb(77.149963%, 76.243591%, 79.742432%)" offset="0.355469"/><stop stop-opacity="1" stop-color="rgb(78.153992%, 77.226257%, 80.786133%)" offset="0.359375"/><stop stop-opacity="1" stop-color="rgb(79.156494%, 78.207397%, 81.829834%)" offset="0.363281"/><stop stop-opacity="1" stop-color="rgb(80.158997%, 79.190063%, 82.873535%)" offset="0.367188"/><stop stop-opacity="1" stop-color="rgb(81.161499%, 80.172729%, 83.917236%)" offset="0.371094"/><stop stop-opacity="1" stop-color="rgb(82.164001%, 81.155396%, 84.960938%)" offset="0.375"/><stop stop-opacity="1" stop-color="rgb(83.166504%, 82.138062%, 86.003113%)" offset="0.378906"/><stop stop-opacity="1" stop-color="rgb(84.170532%, 83.120728%, 87.046814%)" offset="0.382812"/><stop stop-opacity="1" stop-color="rgb(85.173035%, 84.101868%, 88.090515%)" offset="0.386719"/><stop stop-opacity="1" stop-color="rgb(86.175537%, 85.084534%, 89.134216%)" offset="0.390625"/><stop stop-opacity="1" stop-color="rgb(87.17804%, 86.0672%, 90.177917%)" offset="0.394531"/><stop stop-opacity="1" stop-color="rgb(88.180542%, 87.049866%, 91.221619%)" offset="0.398438"/><stop stop-opacity="1" stop-color="rgb(89.183044%, 88.031006%, 92.26532%)" offset="0.402344"/><stop stop-opacity="1" stop-color="rgb(90.185547%, 89.013672%, 93.309021%)" offset="0.40625"/><stop stop-opacity="1" stop-color="rgb(89.585876%, 88.426208%, 92.684937%)" offset="0.410156"/><stop stop-opacity="1" stop-color="rgb(88.987732%, 87.840271%, 92.060852%)" offset="0.414062"/><stop stop-opacity="1" stop-color="rgb(87.983704%, 86.857605%, 91.017151%)" offset="0.417969"/><stop stop-opacity="1" stop-color="rgb(86.981201%, 85.874939%, 89.97345%)" offset="0.421875"/><stop stop-opacity="1" stop-color="rgb(85.978699%, 84.892273%, 88.929749%)" offset="0.425781"/><stop stop-opacity="1" stop-color="rgb(84.976196%, 83.909607%, 87.887573%)" offset="0.429688"/><stop stop-opacity="1" stop-color="rgb(83.973694%, 82.926941%, 86.843872%)" offset="0.433594"/><stop stop-opacity="1" stop-color="rgb(82.971191%, 81.945801%, 85.800171%)" offset="0.4375"/><stop stop-opacity="1" stop-color="rgb(81.967163%, 80.963135%, 84.75647%)" offset="0.441406"/><stop stop-opacity="1" stop-color="rgb(80.964661%, 79.980469%, 83.712769%)" offset="0.445312"/><stop stop-opacity="1" stop-color="rgb(79.962158%, 78.997803%, 82.669067%)" offset="0.449219"/><stop stop-opacity="1" stop-color="rgb(78.959656%, 78.016663%, 81.625366%)" offset="0.453125"/><stop stop-opacity="1" stop-color="rgb(77.957153%, 77.033997%, 80.581665%)" offset="0.457031"/><stop stop-opacity="1" stop-color="rgb(76.954651%, 76.051331%, 79.537964%)" offset="0.460938"/><stop stop-opacity="1" stop-color="rgb(75.952148%, 75.068665%, 78.494263%)" offset="0.464844"/><stop stop-opacity="1" stop-color="rgb(74.949646%, 74.085999%, 77.450562%)" offset="0.46875"/><stop stop-opacity="1" stop-color="rgb(73.945618%, 73.103333%, 76.40686%)" offset="0.472656"/><stop stop-opacity="1" stop-color="rgb(72.943115%, 72.122192%, 75.363159%)" offset="0.476562"/><stop stop-opacity="1" stop-color="rgb(71.940613%, 71.139526%, 74.319458%)" offset="0.480469"/><stop stop-opacity="1" stop-color="rgb(70.93811%, 70.15686%, 73.275757%)" offset="0.484375"/><stop stop-opacity="1" stop-color="rgb(69.935608%, 69.174194%, 72.232056%)" offset="0.488281"/><stop stop-opacity="1" stop-color="rgb(68.933105%, 68.193054%, 71.188354%)" offset="0.492188"/><stop stop-opacity="1" stop-color="rgb(67.930603%, 67.210388%, 70.144653%)" offset="0.496094"/><stop stop-opacity="1" stop-color="rgb(66.928101%, 66.227722%, 69.100952%)" offset="0.5"/><stop stop-opacity="1" stop-color="rgb(65.924072%, 65.245056%, 68.057251%)" offset="0.503906"/><stop stop-opacity="1" stop-color="rgb(64.92157%, 64.26239%, 67.01355%)" offset="0.507812"/><stop stop-opacity="1" stop-color="rgb(63.919067%, 63.279724%, 65.969849%)" offset="0.511719"/><stop stop-opacity="1" stop-color="rgb(62.916565%, 62.298584%, 64.926147%)" offset="0.515625"/><stop stop-opacity="1" stop-color="rgb(61.914062%, 61.315918%, 63.882446%)" offset="0.519531"/><stop stop-opacity="1" stop-color="rgb(60.91156%, 60.333252%, 62.838745%)" offset="0.523438"/><stop stop-opacity="1" stop-color="rgb(59.907532%, 59.350586%, 61.795044%)" offset="0.527344"/><stop stop-opacity="1" stop-color="rgb(58.905029%, 58.369446%, 60.751343%)" offset="0.53125"/><stop stop-opacity="1" stop-color="rgb(57.902527%, 57.38678%, 59.707642%)" offset="0.535156"/><stop stop-opacity="1" stop-color="rgb(56.900024%, 56.404114%, 58.66394%)" offset="0.539062"/><stop stop-opacity="1" stop-color="rgb(55.897522%, 55.421448%, 57.620239%)" offset="0.542969"/><stop stop-opacity="1" stop-color="rgb(54.89502%, 54.438782%, 56.576538%)" offset="0.546875"/><stop stop-opacity="1" stop-color="rgb(53.892517%, 53.456116%, 55.532837%)" offset="0.550781"/><stop stop-opacity="1" stop-color="rgb(52.890015%, 52.474976%, 54.489136%)" offset="0.554688"/><stop stop-opacity="1" stop-color="rgb(52.862549%, 52.461243%, 54.420471%)" offset="0.558594"/><stop stop-opacity="1" stop-color="rgb(52.835083%, 52.449036%, 54.353333%)" offset="0.5625"/><stop stop-opacity="1" stop-color="rgb(53.367615%, 52.990723%, 54.844666%)" offset="0.566406"/><stop stop-opacity="1" stop-color="rgb(53.900146%, 53.533936%, 55.335999%)" offset="0.570312"/><stop stop-opacity="1" stop-color="rgb(54.431152%, 54.075623%, 55.827332%)" offset="0.574219"/><stop stop-opacity="1" stop-color="rgb(54.963684%, 54.618835%, 56.318665%)" offset="0.578125"/><stop stop-opacity="1" stop-color="rgb(55.49469%, 55.160522%, 56.808472%)" offset="0.582031"/><stop stop-opacity="1" stop-color="rgb(56.027222%, 55.703735%, 57.299805%)" offset="0.585938"/><stop stop-opacity="1" stop-color="rgb(56.559753%, 56.245422%, 57.791138%)" offset="0.589844"/><stop stop-opacity="1" stop-color="rgb(57.092285%, 56.788635%, 58.282471%)" offset="0.59375"/><stop stop-opacity="1" stop-color="rgb(57.623291%, 57.330322%, 58.772278%)" offset="0.597656"/><stop stop-opacity="1" stop-color="rgb(58.155823%, 57.873535%, 59.263611%)" offset="0.601562"/><stop stop-opacity="1" stop-color="rgb(58.686829%, 58.415222%, 59.754944%)" offset="0.605469"/><stop stop-opacity="1" stop-color="rgb(59.21936%, 58.958435%, 60.246277%)" offset="0.609375"/><stop stop-opacity="1" stop-color="rgb(59.751892%, 59.500122%, 60.73761%)" offset="0.613281"/><stop stop-opacity="1" stop-color="rgb(60.284424%, 60.043335%, 61.228943%)" offset="0.617188"/><stop stop-opacity="1" stop-color="rgb(60.81543%, 60.585022%, 61.71875%)" offset="0.621094"/><stop stop-opacity="1" stop-color="rgb(61.347961%, 61.128235%, 62.210083%)" offset="0.625"/><stop stop-opacity="1" stop-color="rgb(61.878967%, 61.669922%, 62.701416%)" offset="0.628906"/><stop stop-opacity="1" stop-color="rgb(62.411499%, 62.213135%, 63.192749%)" offset="0.632812"/><stop stop-opacity="1" stop-color="rgb(62.944031%, 62.754822%, 63.684082%)" offset="0.636719"/><stop stop-opacity="1" stop-color="rgb(63.476562%, 63.298035%, 64.175415%)" offset="0.640625"/><stop stop-opacity="1" stop-color="rgb(64.007568%, 63.839722%, 64.665222%)" offset="0.644531"/><stop stop-opacity="1" stop-color="rgb(64.5401%, 64.382935%, 65.156555%)" offset="0.648438"/><stop stop-opacity="1" stop-color="rgb(65.071106%, 64.924622%, 65.647888%)" offset="0.652344"/><stop stop-opacity="1" stop-color="rgb(65.603638%, 65.467834%, 66.139221%)" offset="0.65625"/><stop stop-opacity="1" stop-color="rgb(66.136169%, 66.009521%, 66.629028%)" offset="0.660156"/><stop stop-opacity="1" stop-color="rgb(66.668701%, 66.552734%, 67.120361%)" offset="0.664062"/><stop stop-opacity="1" stop-color="rgb(67.199707%, 67.094421%, 67.611694%)" offset="0.667969"/><stop stop-opacity="1" stop-color="rgb(67.732239%, 67.637634%, 68.103027%)" offset="0.671875"/><stop stop-opacity="1" stop-color="rgb(68.263245%, 68.179321%, 68.59436%)" offset="0.675781"/><stop stop-opacity="1" stop-color="rgb(68.795776%, 68.722534%, 69.085693%)" offset="0.679688"/><stop stop-opacity="1" stop-color="rgb(69.328308%, 69.264221%, 69.5755%)" offset="0.683594"/><stop stop-opacity="1" stop-color="rgb(69.86084%, 69.807434%, 70.066833%)" offset="0.6875"/><stop stop-opacity="1" stop-color="rgb(70.391846%, 70.349121%, 70.558167%)" offset="0.691406"/><stop stop-opacity="1" stop-color="rgb(70.924377%, 70.892334%, 71.0495%)" offset="0.695312"/><stop stop-opacity="1" stop-color="rgb(71.455383%, 71.434021%, 71.540833%)" offset="0.699219"/><stop stop-opacity="1" stop-color="rgb(71.987915%, 71.977234%, 72.032166%)" offset="0.703125"/><stop stop-opacity="1" stop-color="rgb(72.016907%, 72.006226%, 72.058105%)" offset="0.707031"/><stop stop-opacity="1" stop-color="rgb(72.045898%, 72.036743%, 72.085571%)" offset="0.710938"/><stop stop-opacity="1" stop-color="rgb(71.513367%, 71.49353%, 71.594238%)" offset="0.714844"/><stop stop-opacity="1" stop-color="rgb(70.982361%, 70.951843%, 71.102905%)" offset="0.71875"/><stop stop-opacity="1" stop-color="rgb(70.449829%, 70.40863%, 70.611572%)" offset="0.722656"/><stop stop-opacity="1" stop-color="rgb(69.918823%, 69.866943%, 70.120239%)" offset="0.726562"/><stop stop-opacity="1" stop-color="rgb(69.386292%, 69.32373%, 69.628906%)" offset="0.730469"/><stop stop-opacity="1" stop-color="rgb(68.85376%, 68.782043%, 69.139099%)" offset="0.734375"/><stop stop-opacity="1" stop-color="rgb(68.321228%, 68.238831%, 68.647766%)" offset="0.738281"/><stop stop-opacity="1" stop-color="rgb(67.790222%, 67.697144%, 68.156433%)" offset="0.742188"/><stop stop-opacity="1" stop-color="rgb(67.25769%, 67.153931%, 67.6651%)" offset="0.746094"/><stop stop-opacity="1" stop-color="rgb(66.726685%, 66.612244%, 67.173767%)" offset="0.75"/><stop stop-opacity="1" stop-color="rgb(66.194153%, 66.069031%, 66.682434%)" offset="0.753906"/><stop stop-opacity="1" stop-color="rgb(65.661621%, 65.527344%, 66.192627%)" offset="0.757812"/><stop stop-opacity="1" stop-color="rgb(65.129089%, 64.984131%, 65.701294%)" offset="0.761719"/><stop stop-opacity="1" stop-color="rgb(64.598083%, 64.442444%, 65.209961%)" offset="0.765625"/><stop stop-opacity="1" stop-color="rgb(64.065552%, 63.899231%, 64.718628%)" offset="0.769531"/><stop stop-opacity="1" stop-color="rgb(63.534546%, 63.357544%, 64.228821%)" offset="0.773438"/><stop stop-opacity="1" stop-color="rgb(63.002014%, 62.814331%, 63.737488%)" offset="0.777344"/><stop stop-opacity="1" stop-color="rgb(62.469482%, 62.272644%, 63.246155%)" offset="0.78125"/><stop stop-opacity="1" stop-color="rgb(61.936951%, 61.729431%, 62.754822%)" offset="0.785156"/><stop stop-opacity="1" stop-color="rgb(61.405945%, 61.187744%, 62.263489%)" offset="0.789062"/><stop stop-opacity="1" stop-color="rgb(60.873413%, 60.644531%, 61.772156%)" offset="0.792969"/><stop stop-opacity="1" stop-color="rgb(60.342407%, 60.102844%, 61.282349%)" offset="0.796875"/><stop stop-opacity="1" stop-color="rgb(59.809875%, 59.559631%, 60.791016%)" offset="0.800781"/><stop stop-opacity="1" stop-color="rgb(59.277344%, 59.017944%, 60.299683%)" offset="0.804688"/><stop stop-opacity="1" stop-color="rgb(58.744812%, 58.474731%, 59.80835%)" offset="0.808594"/><stop stop-opacity="1" stop-color="rgb(58.213806%, 57.933044%, 59.317017%)" offset="0.8125"/><stop stop-opacity="1" stop-color="rgb(57.681274%, 57.389832%, 58.825684%)" offset="0.816406"/><stop stop-opacity="1" stop-color="rgb(57.150269%, 56.848145%, 58.335876%)" offset="0.820312"/><stop stop-opacity="1" stop-color="rgb(56.617737%, 56.304932%, 57.844543%)" offset="0.824219"/><stop stop-opacity="1" stop-color="rgb(56.085205%, 55.763245%, 57.35321%)" offset="0.828125"/><stop stop-opacity="1" stop-color="rgb(55.552673%, 55.220032%, 56.861877%)" offset="0.832031"/><stop stop-opacity="1" stop-color="rgb(55.021667%, 54.678345%, 56.37207%)" offset="0.835938"/><stop stop-opacity="1" stop-color="rgb(54.489136%, 54.135132%, 55.880737%)" offset="0.839844"/><stop stop-opacity="1" stop-color="rgb(53.95813%, 53.593445%, 55.389404%)" offset="0.84375"/><stop stop-opacity="1" stop-color="rgb(53.425598%, 53.050232%, 54.898071%)" offset="0.847656"/><stop stop-opacity="1" stop-color="rgb(52.893066%, 52.508545%, 54.406738%)" offset="0.851562"/><stop stop-opacity="1" stop-color="rgb(52.52533%, 52.133179%, 54.067993%)" offset="0.855469"/><stop stop-opacity="1" stop-color="rgb(52.159119%, 51.759338%, 53.729248%)" offset="0.859375"/><stop stop-opacity="1" stop-color="rgb(52.159119%, 51.759338%, 53.729248%)" offset="0.875"/><stop stop-opacity="1" stop-color="rgb(52.159119%, 51.759338%, 53.729248%)" offset="1"/></linearGradient><clipPath id="4f34265405"><rect x="0" width="327" y="0" height="136"/></clipPath><clipPath id="ac3f8d3c4f"><path d="M 0.597656 0 L 326.402344 0 L 326.402344 136 L 0.597656 136 Z M 0.597656 0 " clip-rule="nonzero"/></clipPath><clipPath id="44bbf81baf"><rect x="0" width="327" y="0" height="136"/></clipPath><clipPath id="1a2d5ad64b"><rect x="0" width="327" y="0" height="136"/></clipPath><mask id="e67e3f145a"><g filter="url(#44e17ee0c6)"><g><g clip-path="url(#1a2d5ad64b)"><g clip-path="url(#ac3f8d3c4f)"><g><g clip-path="url(#44bbf81baf)"><g fill="#000000" fill-opacity="1"><g transform="translate(30.522988, 94.220716)"><g><path d="M 24.1875 -11.734375 C 23.40625 -11.734375 22.835938 -11.59375 22.484375 -11.3125 C 22.128906 -11.03125 21.90625 -10.640625 21.8125 -10.140625 C 21.71875 -9.640625 21.671875 -9.0625 21.671875 -8.40625 L 21.671875 -1.5 C 20.421875 -0.78125 19.132812 -0.265625 17.8125 0.046875 C 16.5 0.367188 15.128906 0.53125 13.703125 0.53125 C 11.097656 0.53125 8.859375 0.0195312 6.984375 -1 C 5.117188 -2.019531 3.6875 -3.398438 2.6875 -5.140625 C 1.6875 -6.878906 1.1875 -8.820312 1.1875 -10.96875 C 1.1875 -12.4375 1.441406 -13.890625 1.953125 -15.328125 C 2.472656 -16.773438 3.238281 -18.085938 4.25 -19.265625 C 5.257812 -20.453125 6.507812 -21.398438 8 -22.109375 C 9.488281 -22.816406 11.210938 -23.171875 13.171875 -23.171875 C 14.441406 -23.171875 15.5 -23.046875 16.34375 -22.796875 C 17.1875 -22.554688 17.863281 -22.316406 18.375 -22.078125 C 18.894531 -21.835938 19.296875 -21.71875 19.578125 -21.71875 C 19.710938 -21.71875 19.867188 -21.804688 20.046875 -21.984375 C 20.222656 -22.171875 20.332031 -22.566406 20.375 -23.171875 L 21.015625 -23.171875 L 21.578125 -16.015625 L 21.015625 -16.015625 C 20.273438 -18.179688 19.265625 -19.71875 17.984375 -20.625 C 16.703125 -21.539062 15.21875 -22 13.53125 -22 C 11.695312 -22 10.144531 -21.546875 8.875 -20.640625 C 7.613281 -19.734375 6.660156 -18.503906 6.015625 -16.953125 C 5.367188 -15.398438 5.035156 -13.65625 5.015625 -11.71875 C 4.992188 -9.5625 5.363281 -7.644531 6.125 -5.96875 C 6.894531 -4.300781 7.945312 -2.992188 9.28125 -2.046875 C 10.613281 -1.109375 12.109375 -0.640625 13.765625 -0.640625 C 14.554688 -0.640625 15.34375 -0.734375 16.125 -0.921875 C 16.90625 -1.109375 17.664062 -1.429688 18.40625 -1.890625 L 18.40625 -8.40625 C 18.40625 -9.351562 18.332031 -10.0625 18.1875 -10.53125 C 18.039062 -11 17.753906 -11.3125 17.328125 -11.46875 C 16.898438 -11.632812 16.273438 -11.722656 15.453125 -11.734375 L 15.453125 -12.328125 L 24.1875 -12.328125 Z M 24.1875 -11.734375 "/></g></g></g><g fill="#000000" fill-opacity="1"><g transform="translate(55.224709, 94.220716)"><g><path d="M 17.125 -1.421875 L 12.515625 0.5 L 11.734375 0.5 L 11.734375 -2.765625 C 10.878906 -1.867188 10.160156 -1.1875 9.578125 -0.71875 C 8.992188 -0.25 8.46875 0.0664062 8 0.234375 C 7.539062 0.410156 7.054688 0.5 6.546875 0.5 C 5.660156 0.5 4.953125 0.304688 4.421875 -0.078125 C 3.898438 -0.460938 3.507812 -0.957031 3.25 -1.5625 C 2.988281 -2.164062 2.816406 -2.8125 2.734375 -3.5 C 2.648438 -4.1875 2.609375 -4.835938 2.609375 -5.453125 L 2.609375 -12.296875 C 2.609375 -13.285156 2.414062 -13.925781 2.03125 -14.21875 C 1.644531 -14.519531 0.96875 -14.671875 0 -14.671875 L 0 -15.296875 L 5.390625 -15.296875 L 5.390625 -5.0625 C 5.390625 -4.476562 5.445312 -3.914062 5.5625 -3.375 C 5.675781 -2.84375 5.914062 -2.40625 6.28125 -2.0625 C 6.65625 -1.726562 7.203125 -1.5625 7.921875 -1.5625 C 8.378906 -1.5625 8.914062 -1.710938 9.53125 -2.015625 C 10.15625 -2.316406 10.890625 -2.890625 11.734375 -3.734375 L 11.734375 -12.421875 C 11.734375 -13.347656 11.539062 -13.945312 11.15625 -14.21875 C 10.78125 -14.5 10.160156 -14.648438 9.296875 -14.671875 L 9.296875 -15.296875 L 14.546875 -15.296875 L 14.546875 -4.046875 C 14.546875 -3.140625 14.625 -2.53125 14.78125 -2.21875 C 14.945312 -1.90625 15.210938 -1.75 15.578125 -1.75 C 15.734375 -1.75 15.929688 -1.769531 16.171875 -1.8125 C 16.410156 -1.851562 16.648438 -1.914062 16.890625 -2 Z M 17.125 -1.421875 "/></g></g></g><g fill="#000000" fill-opacity="1"><g transform="translate(72.337446, 94.220716)"><g><path d="M 5.71875 0.5 C 5.238281 0.5 4.765625 0.398438 4.296875 0.203125 C 3.835938 0.00390625 3.457031 -0.378906 3.15625 -0.953125 C 2.851562 -1.535156 2.703125 -2.398438 2.703125 -3.546875 L 2.703125 -14.15625 L 0.25 -14.15625 L 0.25 -14.671875 C 1.332031 -15.066406 2.265625 -15.8125 3.046875 -16.90625 C 3.828125 -18 4.472656 -19.140625 4.984375 -20.328125 L 5.484375 -20.328125 L 5.484375 -15.296875 L 9.078125 -15.296875 L 9.078125 -14.15625 L 5.484375 -14.15625 L 5.484375 -3.953125 C 5.484375 -2.960938 5.628906 -2.296875 5.921875 -1.953125 C 6.222656 -1.617188 6.582031 -1.441406 7 -1.421875 C 7.425781 -1.398438 7.796875 -1.515625 8.109375 -1.765625 C 8.421875 -2.015625 8.675781 -2.351562 8.875 -2.78125 L 9.5625 -2.78125 C 9.21875 -1.675781 8.65625 -0.851562 7.875 -0.3125 C 7.09375 0.226562 6.375 0.5 5.71875 0.5 Z M 5.71875 0.5 "/></g></g></g><g fill="#000000" fill-opacity="1"><g transform="translate(81.844523, 94.220716)"><g><path d="M 5.71875 0.5 C 5.238281 0.5 4.765625 0.398438 4.296875 0.203125 C 3.835938 0.00390625 3.457031 -0.378906 3.15625 -0.953125 C 2.851562 -1.535156 2.703125 -2.398438 2.703125 -3.546875 L 2.703125 -14.15625 L 0.25 -14.15625 L 0.25 -14.671875 C 1.332031 -15.066406 2.265625 -15.8125 3.046875 -16.90625 C 3.828125 -18 4.472656 -19.140625 4.984375 -20.328125 L 5.484375 -20.328125 L 5.484375 -15.296875 L 9.078125 -15.296875 L 9.078125 -14.15625 L 5.484375 -14.15625 L 5.484375 -3.953125 C 5.484375 -2.960938 5.628906 -2.296875 5.921875 -1.953125 C 6.222656 -1.617188 6.582031 -1.441406 7 -1.421875 C 7.425781 -1.398438 7.796875 -1.515625 8.109375 -1.765625 C 8.421875 -2.015625 8.675781 -2.351562 8.875 -2.78125 L 9.5625 -2.78125 C 9.21875 -1.675781 8.65625 -0.851562 7.875 -0.3125 C 7.09375 0.226562 6.375 0.5 5.71875 0.5 Z M 5.71875 0.5 "/></g></g></g><g fill="#000000" fill-opacity="1"><g transform="translate(91.351599, 94.220716)"><g><path d="M 0.46875 0 L 0.46875 -0.640625 C 1.488281 -0.640625 2.128906 -0.820312 2.390625 -1.1875 C 2.648438 -1.550781 2.78125 -2.207031 2.78125 -3.15625 L 2.78125 -19.28125 C 2.78125 -20.070312 2.707031 -20.648438 2.5625 -21.015625 C 2.425781 -21.390625 2.128906 -21.578125 1.671875 -21.578125 C 1.523438 -21.578125 1.34375 -21.554688 1.125 -21.515625 C 0.914062 -21.484375 0.695312 -21.414062 0.46875 -21.3125 L 0.1875 -21.890625 L 4.8125 -23.75 L 5.59375 -23.75 L 5.59375 -12.5625 C 6.476562 -13.894531 7.34375 -14.753906 8.1875 -15.140625 C 9.039062 -15.535156 9.863281 -15.734375 10.65625 -15.734375 C 11.625 -15.734375 12.375 -15.515625 12.90625 -15.078125 C 13.445312 -14.648438 13.835938 -14.085938 14.078125 -13.390625 C 14.328125 -12.703125 14.476562 -11.957031 14.53125 -11.15625 C 14.59375 -10.351562 14.625 -9.582031 14.625 -8.84375 L 14.625 -3.15625 C 14.625 -2.164062 14.753906 -1.5 15.015625 -1.15625 C 15.273438 -0.8125 15.910156 -0.640625 16.921875 -0.640625 L 16.921875 0 L 9.375 0 L 9.375 -0.640625 C 10.34375 -0.640625 10.992188 -0.796875 11.328125 -1.109375 C 11.671875 -1.421875 11.84375 -2.101562 11.84375 -3.15625 L 11.84375 -8.84375 C 11.84375 -9.34375 11.835938 -9.875 11.828125 -10.4375 C 11.816406 -11 11.742188 -11.53125 11.609375 -12.03125 C 11.472656 -12.53125 11.234375 -12.929688 10.890625 -13.234375 C 10.546875 -13.546875 10.039062 -13.703125 9.375 -13.703125 C 8.863281 -13.703125 8.3125 -13.570312 7.71875 -13.3125 C 7.132812 -13.0625 6.425781 -12.457031 5.59375 -11.5 L 5.59375 -3.15625 C 5.59375 -2.46875 5.640625 -1.9375 5.734375 -1.5625 C 5.835938 -1.195312 6.0625 -0.953125 6.40625 -0.828125 C 6.757812 -0.703125 7.296875 -0.640625 8.015625 -0.640625 L 8.015625 0 Z M 0.46875 0 "/></g></g></g><g fill="#000000" fill-opacity="1"><g transform="translate(108.464337, 94.220716)"><g><path d="M 8.765625 0 L 1.28125 0 L 1.28125 -0.640625 C 2.25 -0.640625 2.878906 -0.796875 3.171875 -1.109375 C 3.472656 -1.421875 3.625 -2.101562 3.625 -3.15625 L 3.625 -11.3125 C 3.625 -12.039062 3.546875 -12.59375 3.390625 -12.96875 C 3.234375 -13.351562 2.925781 -13.546875 2.46875 -13.546875 C 2.320312 -13.546875 2.148438 -13.519531 1.953125 -13.46875 C 1.765625 -13.425781 1.539062 -13.367188 1.28125 -13.296875 L 1.0625 -13.890625 L 5.703125 -15.734375 L 6.40625 -15.734375 L 6.40625 -3.15625 C 6.40625 -2.101562 6.554688 -1.421875 6.859375 -1.109375 C 7.171875 -0.796875 7.804688 -0.640625 8.765625 -0.640625 Z M 5.015625 -18.78125 C 4.535156 -18.78125 4.128906 -18.9375 3.796875 -19.25 C 3.472656 -19.570312 3.3125 -19.984375 3.3125 -20.484375 C 3.3125 -20.984375 3.484375 -21.382812 3.828125 -21.6875 C 4.171875 -21.988281 4.566406 -22.140625 5.015625 -22.140625 C 5.484375 -22.140625 5.878906 -21.984375 6.203125 -21.671875 C 6.535156 -21.359375 6.703125 -20.960938 6.703125 -20.484375 C 6.703125 -20.015625 6.539062 -19.613281 6.21875 -19.28125 C 5.90625 -18.945312 5.503906 -18.78125 5.015625 -18.78125 Z M 5.015625 -18.78125 "/></g></g></g><g fill="#000000" fill-opacity="1"><g transform="translate(117.971413, 94.220716)"><g><path d="M 13.671875 -5.921875 L 14.203125 -5.59375 C 14.078125 -4.59375 13.738281 -3.625 13.1875 -2.6875 C 12.632812 -1.757812 11.910156 -0.992188 11.015625 -0.390625 C 10.117188 0.203125 9.085938 0.5 7.921875 0.5 C 6.722656 0.5 5.613281 0.175781 4.59375 -0.46875 C 3.582031 -1.125 2.769531 -2.046875 2.15625 -3.234375 C 1.550781 -4.429688 1.25 -5.84375 1.25 -7.46875 C 1.25 -9.207031 1.550781 -10.691406 2.15625 -11.921875 C 2.757812 -13.160156 3.59375 -14.109375 4.65625 -14.765625 C 5.726562 -15.421875 6.957031 -15.75 8.34375 -15.75 C 10.03125 -15.75 11.425781 -15.195312 12.53125 -14.09375 C 13.644531 -12.988281 14.203125 -11.476562 14.203125 -9.5625 L 3.625 -9.5625 C 3.625 -8.03125 3.878906 -6.722656 4.390625 -5.640625 C 4.898438 -4.554688 5.578125 -3.726562 6.421875 -3.15625 C 7.273438 -2.582031 8.195312 -2.285156 9.1875 -2.265625 C 10.175781 -2.242188 11.039062 -2.492188 11.78125 -3.015625 C 12.53125 -3.535156 13.160156 -4.503906 13.671875 -5.921875 Z M 3.625 -10.46875 L 10.71875 -10.46875 C 10.71875 -11.59375 10.515625 -12.445312 10.109375 -13.03125 C 9.710938 -13.625 9.253906 -14.03125 8.734375 -14.25 C 8.210938 -14.46875 7.769531 -14.578125 7.40625 -14.578125 C 6.519531 -14.578125 5.695312 -14.222656 4.9375 -13.515625 C 4.1875 -12.816406 3.75 -11.800781 3.625 -10.46875 Z M 3.625 -10.46875 "/></g></g></g><g fill="#000000" fill-opacity="1"><g transform="translate(133.166057, 94.220716)"><g><path d="M 9.46875 -15.734375 C 10.09375 -15.734375 10.609375 -15.554688 11.015625 -15.203125 C 11.429688 -14.859375 11.640625 -14.421875 11.640625 -13.890625 C 11.640625 -13.492188 11.488281 -13.132812 11.1875 -12.8125 C 10.894531 -12.488281 10.539062 -12.328125 10.125 -12.328125 C 9.757812 -12.328125 9.445312 -12.425781 9.1875 -12.625 C 8.925781 -12.820312 8.6875 -13.019531 8.46875 -13.21875 C 8.25 -13.425781 8.015625 -13.53125 7.765625 -13.53125 C 7.484375 -13.53125 7.144531 -13.296875 6.75 -12.828125 C 6.351562 -12.359375 5.941406 -11.71875 5.515625 -10.90625 L 5.515625 -3.546875 C 5.515625 -2.566406 5.691406 -1.835938 6.046875 -1.359375 C 6.410156 -0.878906 7.132812 -0.640625 8.21875 -0.640625 L 8.21875 0 L 0.28125 0 L 0.28125 -0.640625 C 0.914062 -0.640625 1.410156 -0.691406 1.765625 -0.796875 C 2.117188 -0.898438 2.367188 -1.148438 2.515625 -1.546875 C 2.660156 -1.953125 2.734375 -2.585938 2.734375 -3.453125 L 2.734375 -9.375 C 2.734375 -10.445312 2.71875 -11.238281 2.6875 -11.75 C 2.664062 -12.269531 2.617188 -12.625 2.546875 -12.8125 C 2.472656 -13.007812 2.375 -13.175781 2.25 -13.3125 C 2 -13.457031 1.722656 -13.535156 1.421875 -13.546875 C 1.128906 -13.566406 0.75 -13.484375 0.28125 -13.296875 L 0.140625 -13.890625 L 4.875 -15.734375 L 5.515625 -15.734375 L 5.515625 -12.296875 C 6.785156 -14.585938 8.101562 -15.734375 9.46875 -15.734375 Z M 9.46875 -15.734375 "/></g></g></g><g fill="#000000" fill-opacity="1"><g transform="translate(144.891451, 94.220716)"><g><path d="M 9.46875 -15.734375 C 10.09375 -15.734375 10.609375 -15.554688 11.015625 -15.203125 C 11.429688 -14.859375 11.640625 -14.421875 11.640625 -13.890625 C 11.640625 -13.492188 11.488281 -13.132812 11.1875 -12.8125 C 10.894531 -12.488281 10.539062 -12.328125 10.125 -12.328125 C 9.757812 -12.328125 9.445312 -12.425781 9.1875 -12.625 C 8.925781 -12.820312 8.6875 -13.019531 8.46875 -13.21875 C 8.25 -13.425781 8.015625 -13.53125 7.765625 -13.53125 C 7.484375 -13.53125 7.144531 -13.296875 6.75 -12.828125 C 6.351562 -12.359375 5.941406 -11.71875 5.515625 -10.90625 L 5.515625 -3.546875 C 5.515625 -2.566406 5.691406 -1.835938 6.046875 -1.359375 C 6.410156 -0.878906 7.132812 -0.640625 8.21875 -0.640625 L 8.21875 0 L 0.28125 0 L 0.28125 -0.640625 C 0.914062 -0.640625 1.410156 -0.691406 1.765625 -0.796875 C 2.117188 -0.898438 2.367188 -1.148438 2.515625 -1.546875 C 2.660156 -1.953125 2.734375 -2.585938 2.734375 -3.453125 L 2.734375 -9.375 C 2.734375 -10.445312 2.71875 -11.238281 2.6875 -11.75 C 2.664062 -12.269531 2.617188 -12.625 2.546875 -12.8125 C 2.472656 -13.007812 2.375 -13.175781 2.25 -13.3125 C 2 -13.457031 1.722656 -13.535156 1.421875 -13.546875 C 1.128906 -13.566406 0.75 -13.484375 0.28125 -13.296875 L 0.140625 -13.890625 L 4.875 -15.734375 L 5.515625 -15.734375 L 5.515625 -12.296875 C 6.785156 -14.585938 8.101562 -15.734375 9.46875 -15.734375 Z M 9.46875 -15.734375 "/></g></g></g><g fill="#000000" fill-opacity="1"><g transform="translate(156.616846, 94.220716)"><g><path d="M 3.25 7.40625 C 2.59375 7.40625 2.050781 7.21875 1.625 6.84375 C 1.195312 6.476562 0.984375 6.023438 0.984375 5.484375 C 0.984375 5.035156 1.128906 4.671875 1.421875 4.390625 C 1.722656 4.117188 2.148438 3.984375 2.703125 3.984375 C 3.054688 3.984375 3.460938 4.078125 3.921875 4.265625 C 4.378906 4.460938 4.742188 4.5625 5.015625 4.5625 C 5.453125 4.5625 5.851562 4.347656 6.21875 3.921875 C 6.582031 3.492188 6.910156 2.972656 7.203125 2.359375 C 7.492188 1.753906 7.738281 1.171875 7.9375 0.609375 C 8.132812 0.046875 8.289062 -0.367188 8.40625 -0.640625 L 2.921875 -12.140625 C 2.785156 -12.421875 2.609375 -12.742188 2.390625 -13.109375 C 2.179688 -13.484375 1.898438 -13.820312 1.546875 -14.125 C 1.203125 -14.4375 0.75 -14.617188 0.1875 -14.671875 L 0.1875 -15.296875 L 7.34375 -15.296875 L 7.34375 -14.671875 C 6.082031 -14.671875 5.453125 -14.296875 5.453125 -13.546875 C 5.453125 -13.109375 5.640625 -12.503906 6.015625 -11.734375 L 9.71875 -4.046875 L 13.15625 -12.515625 C 13.320312 -12.804688 13.425781 -13.128906 13.46875 -13.484375 C 13.519531 -13.847656 13.476562 -14.125 13.34375 -14.3125 C 13.28125 -14.375 13.175781 -14.445312 13.03125 -14.53125 C 12.882812 -14.625 12.515625 -14.671875 11.921875 -14.671875 L 11.921875 -15.296875 L 16.890625 -15.296875 L 16.890625 -14.671875 C 16.410156 -14.648438 16.019531 -14.503906 15.71875 -14.234375 C 15.425781 -13.972656 15.0625 -13.351562 14.625 -12.375 L 8.40625 2.90625 C 7.820312 4.332031 7.054688 5.4375 6.109375 6.21875 C 5.171875 7.007812 4.21875 7.40625 3.25 7.40625 Z M 3.25 7.40625 "/></g></g></g><g fill="#000000" fill-opacity="1"><g transform="translate(173.729583, 94.220716)"><g/></g></g><g fill="#000000" fill-opacity="1"><g transform="translate(179.483867, 94.220716)"><g><path d="M 29.6875 0 L 20.0625 0 L 20.0625 -0.640625 C 21.0625 -0.640625 21.785156 -0.757812 22.234375 -1 C 22.691406 -1.25 22.976562 -1.617188 23.09375 -2.109375 C 23.21875 -2.609375 23.28125 -3.222656 23.28125 -3.953125 L 23.28125 -19.046875 L 14.546875 0 L 13.953125 0 L 5.234375 -19.046875 L 5.234375 -3.953125 C 5.234375 -3.054688 5.300781 -2.367188 5.4375 -1.890625 C 5.582031 -1.410156 5.878906 -1.082031 6.328125 -0.90625 C 6.785156 -0.726562 7.488281 -0.640625 8.4375 -0.640625 L 8.4375 0 L 0.59375 0 L 0.59375 -0.640625 C 1.582031 -0.640625 2.296875 -0.765625 2.734375 -1.015625 C 3.179688 -1.265625 3.457031 -1.632812 3.5625 -2.125 C 3.675781 -2.625 3.734375 -3.234375 3.734375 -3.953125 L 3.734375 -18.703125 C 3.734375 -19.984375 3.523438 -20.851562 3.109375 -21.3125 C 2.691406 -21.78125 1.851562 -22.015625 0.59375 -22.015625 L 0.59375 -22.625 L 6.984375 -22.625 L 15.1875 -4.9375 L 23.28125 -22.625 L 29.6875 -22.625 L 29.6875 -22.015625 C 28.695312 -22.015625 27.972656 -21.890625 27.515625 -21.640625 C 27.054688 -21.398438 26.769531 -21.03125 26.65625 -20.53125 C 26.539062 -20.039062 26.484375 -19.429688 26.484375 -18.703125 L 26.484375 -3.953125 C 26.484375 -3.023438 26.554688 -2.320312 26.703125 -1.84375 C 26.847656 -1.375 27.148438 -1.054688 27.609375 -0.890625 C 28.066406 -0.722656 28.757812 -0.640625 29.6875 -0.640625 Z M 29.6875 0 "/></g></g></g><g fill="#000000" fill-opacity="1"><g transform="translate(209.906512, 94.220716)"><g><path d="M 15.171875 -3.171875 L 15.171875 -2.203125 C 13.921875 -0.546875 12.695312 0.28125 11.5 0.28125 C 11.019531 0.28125 10.601562 0.109375 10.25 -0.234375 C 9.894531 -0.578125 9.71875 -1.234375 9.71875 -2.203125 C 8.832031 -1.503906 8.132812 -0.972656 7.625 -0.609375 C 7.113281 -0.253906 6.660156 -0.0195312 6.265625 0.09375 C 5.878906 0.21875 5.414062 0.28125 4.875 0.28125 C 3.78125 0.28125 2.898438 -0.0703125 2.234375 -0.78125 C 1.566406 -1.488281 1.234375 -2.4375 1.234375 -3.625 C 1.234375 -4.1875 1.335938 -4.722656 1.546875 -5.234375 C 1.765625 -5.742188 2.164062 -6.253906 2.75 -6.765625 C 3.34375 -7.273438 4.195312 -7.804688 5.3125 -8.359375 C 6.4375 -8.910156 7.90625 -9.5 9.71875 -10.125 L 9.71875 -10.75 C 9.71875 -12.226562 9.488281 -13.257812 9.03125 -13.84375 C 8.570312 -14.425781 7.851562 -14.71875 6.875 -14.71875 C 6.1875 -14.71875 5.640625 -14.5 5.234375 -14.0625 C 4.835938 -13.625 4.628906 -12.894531 4.609375 -11.875 C 4.628906 -11.382812 4.507812 -11 4.25 -10.71875 C 3.988281 -10.445312 3.644531 -10.3125 3.21875 -10.3125 C 2.28125 -10.3125 1.8125 -10.835938 1.8125 -11.890625 C 1.8125 -12.691406 2.078125 -13.378906 2.609375 -13.953125 C 3.140625 -14.523438 3.828125 -14.960938 4.671875 -15.265625 C 5.523438 -15.578125 6.4375 -15.734375 7.40625 -15.734375 C 8.882812 -15.734375 9.988281 -15.519531 10.71875 -15.09375 C 11.445312 -14.664062 11.929688 -14.0625 12.171875 -13.28125 C 12.410156 -12.507812 12.53125 -11.582031 12.53125 -10.5 L 12.53125 -5.3125 C 12.53125 -4.59375 12.539062 -4.003906 12.5625 -3.546875 C 12.59375 -3.097656 12.613281 -2.796875 12.625 -2.640625 C 12.695312 -2.085938 12.9375 -1.8125 13.34375 -1.8125 C 13.570312 -1.8125 13.773438 -1.882812 13.953125 -2.03125 C 14.128906 -2.175781 14.535156 -2.554688 15.171875 -3.171875 Z M 9.71875 -3.28125 L 9.71875 -9.15625 C 8.007812 -8.488281 6.75 -7.882812 5.9375 -7.34375 C 5.132812 -6.8125 4.617188 -6.3125 4.390625 -5.84375 C 4.160156 -5.375 4.046875 -4.894531 4.046875 -4.40625 C 4.046875 -3.625 4.269531 -2.960938 4.71875 -2.421875 C 5.175781 -1.890625 5.726562 -1.625 6.375 -1.625 C 6.800781 -1.582031 7.289062 -1.707031 7.84375 -2 C 8.394531 -2.289062 9.019531 -2.71875 9.71875 -3.28125 Z M 9.71875 -3.28125 "/></g></g></g><g fill="#000000" fill-opacity="1"><g transform="translate(225.101155, 94.220716)"><g><path d="M 9.46875 -15.734375 C 10.09375 -15.734375 10.609375 -15.554688 11.015625 -15.203125 C 11.429688 -14.859375 11.640625 -14.421875 11.640625 -13.890625 C 11.640625 -13.492188 11.488281 -13.132812 11.1875 -12.8125 C 10.894531 -12.488281 10.539062 -12.328125 10.125 -12.328125 C 9.757812 -12.328125 9.445312 -12.425781 9.1875 -12.625 C 8.925781 -12.820312 8.6875 -13.019531 8.46875 -13.21875 C 8.25 -13.425781 8.015625 -13.53125 7.765625 -13.53125 C 7.484375 -13.53125 7.144531 -13.296875 6.75 -12.828125 C 6.351562 -12.359375 5.941406 -11.71875 5.515625 -10.90625 L 5.515625 -3.546875 C 5.515625 -2.566406 5.691406 -1.835938 6.046875 -1.359375 C 6.410156 -0.878906 7.132812 -0.640625 8.21875 -0.640625 L 8.21875 0 L 0.28125 0 L 0.28125 -0.640625 C 0.914062 -0.640625 1.410156 -0.691406 1.765625 -0.796875 C 2.117188 -0.898438 2.367188 -1.148438 2.515625 -1.546875 C 2.660156 -1.953125 2.734375 -2.585938 2.734375 -3.453125 L 2.734375 -9.375 C 2.734375 -10.445312 2.71875 -11.238281 2.6875 -11.75 C 2.664062 -12.269531 2.617188 -12.625 2.546875 -12.8125 C 2.472656 -13.007812 2.375 -13.175781 2.25 -13.3125 C 2 -13.457031 1.722656 -13.535156 1.421875 -13.546875 C 1.128906 -13.566406 0.75 -13.484375 0.28125 -13.296875 L 0.140625 -13.890625 L 4.875 -15.734375 L 5.515625 -15.734375 L 5.515625 -12.296875 C 6.785156 -14.585938 8.101562 -15.734375 9.46875 -15.734375 Z M 9.46875 -15.734375 "/></g></g></g><g fill="#000000" fill-opacity="1"><g transform="translate(236.826538, 94.220716)"><g><path d="M 8.765625 0 L 1.28125 0 L 1.28125 -0.640625 C 2.25 -0.640625 2.878906 -0.796875 3.171875 -1.109375 C 3.472656 -1.421875 3.625 -2.101562 3.625 -3.15625 L 3.625 -11.3125 C 3.625 -12.039062 3.546875 -12.59375 3.390625 -12.96875 C 3.234375 -13.351562 2.925781 -13.546875 2.46875 -13.546875 C 2.320312 -13.546875 2.148438 -13.519531 1.953125 -13.46875 C 1.765625 -13.425781 1.539062 -13.367188 1.28125 -13.296875 L 1.0625 -13.890625 L 5.703125 -15.734375 L 6.40625 -15.734375 L 6.40625 -3.15625 C 6.40625 -2.101562 6.554688 -1.421875 6.859375 -1.109375 C 7.171875 -0.796875 7.804688 -0.640625 8.765625 -0.640625 Z M 5.015625 -18.78125 C 4.535156 -18.78125 4.128906 -18.9375 3.796875 -19.25 C 3.472656 -19.570312 3.3125 -19.984375 3.3125 -20.484375 C 3.3125 -20.984375 3.484375 -21.382812 3.828125 -21.6875 C 4.171875 -21.988281 4.566406 -22.140625 5.015625 -22.140625 C 5.484375 -22.140625 5.878906 -21.984375 6.203125 -21.671875 C 6.535156 -21.359375 6.703125 -20.960938 6.703125 -20.484375 C 6.703125 -20.015625 6.539062 -19.613281 6.21875 -19.28125 C 5.90625 -18.945312 5.503906 -18.78125 5.015625 -18.78125 Z M 5.015625 -18.78125 "/></g></g></g><g fill="#000000" fill-opacity="1"><g transform="translate(246.333639, 94.220716)"><g><path d="M 15.171875 -3.171875 L 15.171875 -2.203125 C 13.921875 -0.546875 12.695312 0.28125 11.5 0.28125 C 11.019531 0.28125 10.601562 0.109375 10.25 -0.234375 C 9.894531 -0.578125 9.71875 -1.234375 9.71875 -2.203125 C 8.832031 -1.503906 8.132812 -0.972656 7.625 -0.609375 C 7.113281 -0.253906 6.660156 -0.0195312 6.265625 0.09375 C 5.878906 0.21875 5.414062 0.28125 4.875 0.28125 C 3.78125 0.28125 2.898438 -0.0703125 2.234375 -0.78125 C 1.566406 -1.488281 1.234375 -2.4375 1.234375 -3.625 C 1.234375 -4.1875 1.335938 -4.722656 1.546875 -5.234375 C 1.765625 -5.742188 2.164062 -6.253906 2.75 -6.765625 C 3.34375 -7.273438 4.195312 -7.804688 5.3125 -8.359375 C 6.4375 -8.910156 7.90625 -9.5 9.71875 -10.125 L 9.71875 -10.75 C 9.71875 -12.226562 9.488281 -13.257812 9.03125 -13.84375 C 8.570312 -14.425781 7.851562 -14.71875 6.875 -14.71875 C 6.1875 -14.71875 5.640625 -14.5 5.234375 -14.0625 C 4.835938 -13.625 4.628906 -12.894531 4.609375 -11.875 C 4.628906 -11.382812 4.507812 -11 4.25 -10.71875 C 3.988281 -10.445312 3.644531 -10.3125 3.21875 -10.3125 C 2.28125 -10.3125 1.8125 -10.835938 1.8125 -11.890625 C 1.8125 -12.691406 2.078125 -13.378906 2.609375 -13.953125 C 3.140625 -14.523438 3.828125 -14.960938 4.671875 -15.265625 C 5.523438 -15.578125 6.4375 -15.734375 7.40625 -15.734375 C 8.882812 -15.734375 9.988281 -15.519531 10.71875 -15.09375 C 11.445312 -14.664062 11.929688 -14.0625 12.171875 -13.28125 C 12.410156 -12.507812 12.53125 -11.582031 12.53125 -10.5 L 12.53125 -5.3125 C 12.53125 -4.59375 12.539062 -4.003906 12.5625 -3.546875 C 12.59375 -3.097656 12.613281 -2.796875 12.625 -2.640625 C 12.695312 -2.085938 12.9375 -1.8125 13.34375 -1.8125 C 13.570312 -1.8125 13.773438 -1.882812 13.953125 -2.03125 C 14.128906 -2.175781 14.535156 -2.554688 15.171875 -3.171875 Z M 9.71875 -3.28125 L 9.71875 -9.15625 C 8.007812 -8.488281 6.75 -7.882812 5.9375 -7.34375 C 5.132812 -6.8125 4.617188 -6.3125 4.390625 -5.84375 C 4.160156 -5.375 4.046875 -4.894531 4.046875 -4.40625 C 4.046875 -3.625 4.269531 -2.960938 4.71875 -2.421875 C 5.175781 -1.890625 5.726562 -1.625 6.375 -1.625 C 6.800781 -1.582031 7.289062 -1.707031 7.84375 -2 C 8.394531 -2.289062 9.019531 -2.71875 9.71875 -3.28125 Z M 9.71875 -3.28125 "/></g></g></g><g fill="#000000" fill-opacity="1"><g transform="translate(261.52827, 94.220716)"><g><path d="M 0.4375 0 L 0.4375 -0.640625 C 1.394531 -0.640625 2.015625 -0.816406 2.296875 -1.171875 C 2.585938 -1.523438 2.734375 -2.285156 2.734375 -3.453125 L 2.734375 -9.15625 C 2.734375 -10.351562 2.71875 -11.226562 2.6875 -11.78125 C 2.65625 -12.34375 2.601562 -12.71875 2.53125 -12.90625 C 2.457031 -13.09375 2.363281 -13.226562 2.25 -13.3125 C 1.863281 -13.632812 1.257812 -13.628906 0.4375 -13.296875 L 0.171875 -13.890625 L 4.84375 -15.734375 L 5.515625 -15.734375 L 5.515625 -12.53125 C 7.335938 -14.664062 9.050781 -15.734375 10.65625 -15.734375 C 12.144531 -15.734375 13.1875 -15.207031 13.78125 -14.15625 C 14.375 -13.113281 14.671875 -11.726562 14.671875 -10 L 14.671875 -3.453125 C 14.671875 -2.316406 14.8125 -1.5625 15.09375 -1.1875 C 15.375 -0.820312 16.019531 -0.640625 17.03125 -0.640625 L 17.03125 0 L 9.375 0 L 9.375 -0.640625 C 10.144531 -0.640625 10.703125 -0.707031 11.046875 -0.84375 C 11.398438 -0.988281 11.625 -1.265625 11.71875 -1.671875 C 11.820312 -2.078125 11.875 -2.671875 11.875 -3.453125 L 11.875 -9.6875 C 11.875 -11.09375 11.695312 -12.109375 11.34375 -12.734375 C 11 -13.359375 10.375 -13.671875 9.46875 -13.671875 C 8.832031 -13.671875 8.179688 -13.492188 7.515625 -13.140625 C 6.847656 -12.796875 6.179688 -12.25 5.515625 -11.5 L 5.515625 -3.453125 C 5.515625 -2.660156 5.570312 -2.0625 5.6875 -1.65625 C 5.800781 -1.25 6.035156 -0.976562 6.390625 -0.84375 C 6.742188 -0.707031 7.285156 -0.640625 8.015625 -0.640625 L 8.015625 0 Z M 0.4375 0 "/></g></g></g><g fill="#000000" fill-opacity="1"><g transform="translate(278.641008, 94.220716)"><g><path d="M 8.390625 0.5 C 6.953125 0.5 5.6875 0.128906 4.59375 -0.609375 C 3.507812 -1.359375 2.664062 -2.34375 2.0625 -3.5625 C 1.457031 -4.78125 1.15625 -6.09375 1.15625 -7.5 C 1.15625 -8.882812 1.453125 -10.203125 2.046875 -11.453125 C 2.640625 -12.703125 3.488281 -13.726562 4.59375 -14.53125 C 5.695312 -15.332031 7.015625 -15.734375 8.546875 -15.734375 C 10.015625 -15.734375 11.300781 -15.382812 12.40625 -14.6875 C 13.507812 -14 14.367188 -13.066406 14.984375 -11.890625 C 15.597656 -10.710938 15.90625 -9.390625 15.90625 -7.921875 C 15.90625 -6.941406 15.75 -5.953125 15.4375 -4.953125 C 15.132812 -3.960938 14.671875 -3.054688 14.046875 -2.234375 C 13.421875 -1.410156 12.632812 -0.75 11.6875 -0.25 C 10.75 0.25 9.648438 0.5 8.390625 0.5 Z M 9.078125 -0.71875 C 10.191406 -0.71875 11.085938 -1.160156 11.765625 -2.046875 C 12.453125 -2.929688 12.796875 -4.460938 12.796875 -6.640625 C 12.796875 -8.148438 12.597656 -9.507812 12.203125 -10.71875 C 11.816406 -11.9375 11.265625 -12.898438 10.546875 -13.609375 C 9.835938 -14.316406 8.992188 -14.671875 8.015625 -14.671875 C 7.441406 -14.671875 6.863281 -14.492188 6.28125 -14.140625 C 5.695312 -13.796875 5.207031 -13.203125 4.8125 -12.359375 C 4.425781 -11.515625 4.234375 -10.351562 4.234375 -8.875 C 4.234375 -7.414062 4.429688 -6.066406 4.828125 -4.828125 C 5.234375 -3.585938 5.800781 -2.59375 6.53125 -1.84375 C 7.257812 -1.09375 8.109375 -0.71875 9.078125 -0.71875 Z M 9.078125 -0.71875 "/></g></g></g></g></g></g></g></g></g></mask><clipPath id="9abe766b67"><path d="M 0.597656 0 L 326.402344 0 L 326.402344 136 L 0.597656 136 Z M 0.597656 0 " clip-rule="nonzero"/></clipPath><clipPath id="9f0fcf796c"><rect x="0" width="327" y="0" height="136"/></clipPath><clipPath id="63a5bb965e"><rect x="0" width="327" y="0" height="136"/></clipPath><clipPath id="79cda1a8cd"><rect x="0" width="327" y="0" height="136"/></clipPath><clipPath id="58a1afc3a5"><path d="M 0.613281 1.050781 L 244.054688 1.050781 L 244.054688 81 L 0.613281 81 Z M 0.613281 1.050781 " clip-rule="nonzero"/></clipPath><clipPath id="90c6c81a12"><path d="M 0.613281 0.0507812 L 244.054688 0.0507812 L 244.054688 80 L 0.613281 80 Z M 0.613281 0.0507812 " clip-rule="nonzero"/></clipPath><clipPath id="33516076bc"><path d="M 0.613281 0.0507812 L 244.054688 0.0507812 L 244.054688 80 L 0.613281 80 Z M 0.613281 0.0507812 " clip-rule="nonzero"/></clipPath><linearGradient x1="103.758003" gradientTransform="matrix(0.802068, 0, 0, 0.80079, 39.114486, 38.487657)" y1="-48.000078" x2="103.758003" gradientUnits="userSpaceOnUse" y2="51.841474" id="82925728c0"><stop stop-opacity="1" stop-color="rgb(52.159119%, 51.759338%, 53.729248%)" offset="0"/><stop stop-opacity="1" stop-color="rgb(52.159119%, 51.759338%, 53.729248%)" offset="0.25"/><stop stop-opacity="1" stop-color="rgb(52.159119%, 51.759338%, 53.729248%)" offset="0.3125"/><stop stop-opacity="1" stop-color="rgb(52.159119%, 51.759338%, 53.729248%)" offset="0.34375"/><stop stop-opacity="1" stop-color="rgb(52.159119%, 51.759338%, 53.729248%)" offset="0.359375"/><stop stop-opacity="1" stop-color="rgb(53.048706%, 52.632141%, 54.655457%)" offset="0.363281"/><stop stop-opacity="1" stop-color="rgb(53.939819%, 53.504944%, 55.583191%)" offset="0.367188"/><stop stop-opacity="1" stop-color="rgb(54.99115%, 54.534912%, 56.677246%)" offset="0.371094"/><stop stop-opacity="1" stop-color="rgb(56.044006%, 55.56488%, 57.772827%)" offset="0.375"/><stop stop-opacity="1" stop-color="rgb(57.095337%, 56.594849%, 58.866882%)" offset="0.378906"/><stop stop-opacity="1" stop-color="rgb(58.148193%, 57.626343%, 59.962463%)" offset="0.382812"/><stop stop-opacity="1" stop-color="rgb(59.199524%, 58.656311%, 61.056519%)" offset="0.386719"/><stop stop-opacity="1" stop-color="rgb(60.250854%, 59.686279%, 62.1521%)" offset="0.390625"/><stop stop-opacity="1" stop-color="rgb(61.302185%, 60.716248%, 63.246155%)" offset="0.394531"/><stop stop-opacity="1" stop-color="rgb(62.355042%, 61.747742%, 64.341736%)" offset="0.398437"/><stop stop-opacity="1" stop-color="rgb(63.406372%, 62.77771%, 65.435791%)" offset="0.402344"/><stop stop-opacity="1" stop-color="rgb(64.457703%, 63.809204%, 66.531372%)" offset="0.40625"/><stop stop-opacity="1" stop-color="rgb(65.509033%, 64.839172%, 67.625427%)" offset="0.410156"/><stop stop-opacity="1" stop-color="rgb(66.56189%, 65.869141%, 68.721008%)" offset="0.414062"/><stop stop-opacity="1" stop-color="rgb(67.61322%, 66.899109%, 69.815063%)" offset="0.417969"/><stop stop-opacity="1" stop-color="rgb(68.666077%, 67.930603%, 70.909119%)" offset="0.421875"/><stop stop-opacity="1" stop-color="rgb(69.717407%, 68.960571%, 72.003174%)" offset="0.425781"/><stop stop-opacity="1" stop-color="rgb(70.768738%, 69.992065%, 73.098755%)" offset="0.429687"/><stop stop-opacity="1" stop-color="rgb(71.820068%, 71.022034%, 74.19281%)" offset="0.433594"/><stop stop-opacity="1" stop-color="rgb(72.872925%, 72.052002%, 75.288391%)" offset="0.4375"/><stop stop-opacity="1" stop-color="rgb(73.924255%, 73.08197%, 76.382446%)" offset="0.441406"/><stop stop-opacity="1" stop-color="rgb(74.975586%, 74.113464%, 77.478027%)" offset="0.445312"/><stop stop-opacity="1" stop-color="rgb(76.026917%, 75.143433%, 78.572083%)" offset="0.449219"/><stop stop-opacity="1" stop-color="rgb(77.079773%, 76.173401%, 79.667664%)" offset="0.453125"/><stop stop-opacity="1" stop-color="rgb(78.131104%, 77.203369%, 80.761719%)" offset="0.457031"/><stop stop-opacity="1" stop-color="rgb(79.18396%, 78.234863%, 81.8573%)" offset="0.460937"/><stop stop-opacity="1" stop-color="rgb(80.235291%, 79.264832%, 82.951355%)" offset="0.464844"/><stop stop-opacity="1" stop-color="rgb(81.286621%, 80.296326%, 84.046936%)" offset="0.46875"/><stop stop-opacity="1" stop-color="rgb(82.337952%, 81.326294%, 85.140991%)" offset="0.472656"/><stop stop-opacity="1" stop-color="rgb(83.390808%, 82.356262%, 86.236572%)" offset="0.476562"/><stop stop-opacity="1" stop-color="rgb(84.442139%, 83.38623%, 87.330627%)" offset="0.480469"/><stop stop-opacity="1" stop-color="rgb(85.493469%, 84.417725%, 88.426208%)" offset="0.484375"/><stop stop-opacity="1" stop-color="rgb(86.5448%, 85.447693%, 89.520264%)" offset="0.488281"/><stop stop-opacity="1" stop-color="rgb(87.597656%, 86.477661%, 90.615845%)" offset="0.492187"/><stop stop-opacity="1" stop-color="rgb(88.648987%, 87.507629%, 91.7099%)" offset="0.496094"/><stop stop-opacity="1" stop-color="rgb(89.701843%, 88.539124%, 92.805481%)" offset="0.5"/><stop stop-opacity="1" stop-color="rgb(89.537048%, 88.378906%, 92.634583%)" offset="0.503906"/><stop stop-opacity="1" stop-color="rgb(89.373779%, 88.218689%, 92.463684%)" offset="0.507812"/><stop stop-opacity="1" stop-color="rgb(88.320923%, 87.187195%, 91.368103%)" offset="0.511719"/><stop stop-opacity="1" stop-color="rgb(87.269592%, 86.157227%, 90.274048%)" offset="0.515625"/><stop stop-opacity="1" stop-color="rgb(86.218262%, 85.127258%, 89.178467%)" offset="0.519531"/><stop stop-opacity="1" stop-color="rgb(85.166931%, 84.09729%, 88.084412%)" offset="0.523438"/><stop stop-opacity="1" stop-color="rgb(84.114075%, 83.065796%, 86.990356%)" offset="0.527344"/><stop stop-opacity="1" stop-color="rgb(83.062744%, 82.035828%, 85.896301%)" offset="0.53125"/><stop stop-opacity="1" stop-color="rgb(82.011414%, 81.004333%, 84.80072%)" offset="0.535156"/><stop stop-opacity="1" stop-color="rgb(80.960083%, 79.974365%, 83.706665%)" offset="0.539062"/><stop stop-opacity="1" stop-color="rgb(79.907227%, 78.944397%, 82.611084%)" offset="0.542969"/><stop stop-opacity="1" stop-color="rgb(78.855896%, 77.914429%, 81.517029%)" offset="0.546875"/><stop stop-opacity="1" stop-color="rgb(77.80304%, 76.882935%, 80.421448%)" offset="0.550781"/><stop stop-opacity="1" stop-color="rgb(76.751709%, 75.852966%, 79.327393%)" offset="0.554688"/><stop stop-opacity="1" stop-color="rgb(75.700378%, 74.822998%, 78.231812%)" offset="0.558594"/><stop stop-opacity="1" stop-color="rgb(74.649048%, 73.79303%, 77.137756%)" offset="0.5625"/><stop stop-opacity="1" stop-color="rgb(73.596191%, 72.761536%, 76.042175%)" offset="0.566406"/><stop stop-opacity="1" stop-color="rgb(72.544861%, 71.731567%, 74.94812%)" offset="0.570312"/><stop stop-opacity="1" stop-color="rgb(71.49353%, 70.700073%, 73.852539%)" offset="0.574219"/><stop stop-opacity="1" stop-color="rgb(70.4422%, 69.670105%, 72.758484%)" offset="0.578125"/><stop stop-opacity="1" stop-color="rgb(69.389343%, 68.640137%, 71.662903%)" offset="0.582031"/><stop stop-opacity="1" stop-color="rgb(68.338013%, 67.610168%, 70.568848%)" offset="0.585938"/><stop stop-opacity="1" stop-color="rgb(67.285156%, 66.578674%, 69.473267%)" offset="0.589844"/><stop stop-opacity="1" stop-color="rgb(66.233826%, 65.548706%, 68.379211%)" offset="0.59375"/><stop stop-opacity="1" stop-color="rgb(65.182495%, 64.517212%, 67.28363%)" offset="0.597656"/><stop stop-opacity="1" stop-color="rgb(64.131165%, 63.487244%, 66.189575%)" offset="0.601562"/><stop stop-opacity="1" stop-color="rgb(63.078308%, 62.457275%, 65.093994%)" offset="0.605469"/><stop stop-opacity="1" stop-color="rgb(62.026978%, 61.427307%, 63.999939%)" offset="0.609375"/><stop stop-opacity="1" stop-color="rgb(60.975647%, 60.395813%, 62.904358%)" offset="0.613281"/><stop stop-opacity="1" stop-color="rgb(59.924316%, 59.365845%, 61.810303%)" offset="0.617188"/><stop stop-opacity="1" stop-color="rgb(58.87146%, 58.335876%, 60.716248%)" offset="0.621094"/><stop stop-opacity="1" stop-color="rgb(57.820129%, 57.305908%, 59.622192%)" offset="0.625"/><stop stop-opacity="1" stop-color="rgb(56.767273%, 56.274414%, 58.526611%)" offset="0.628906"/><stop stop-opacity="1" stop-color="rgb(55.715942%, 55.244446%, 57.432556%)" offset="0.632812"/><stop stop-opacity="1" stop-color="rgb(54.664612%, 54.212952%, 56.336975%)" offset="0.636719"/><stop stop-opacity="1" stop-color="rgb(53.613281%, 53.182983%, 55.24292%)" offset="0.640625"/><stop stop-opacity="1" stop-color="rgb(53.057861%, 52.645874%, 54.644775%)" offset="0.644531"/><stop stop-opacity="1" stop-color="rgb(52.503967%, 52.110291%, 54.048157%)" offset="0.648437"/><stop stop-opacity="1" stop-color="rgb(53.060913%, 52.679443%, 54.562378%)" offset="0.652344"/><stop stop-opacity="1" stop-color="rgb(53.619385%, 53.248596%, 55.078125%)" offset="0.65625"/><stop stop-opacity="1" stop-color="rgb(54.177856%, 53.817749%, 55.592346%)" offset="0.660156"/><stop stop-opacity="1" stop-color="rgb(54.736328%, 54.386902%, 56.108093%)" offset="0.664062"/><stop stop-opacity="1" stop-color="rgb(55.293274%, 54.956055%, 56.622314%)" offset="0.667969"/><stop stop-opacity="1" stop-color="rgb(55.851746%, 55.525208%, 57.138062%)" offset="0.671875"/><stop stop-opacity="1" stop-color="rgb(56.410217%, 56.092834%, 57.652283%)" offset="0.675781"/><stop stop-opacity="1" stop-color="rgb(56.968689%, 56.661987%, 58.16803%)" offset="0.679688"/><stop stop-opacity="1" stop-color="rgb(57.525635%, 57.23114%, 58.682251%)" offset="0.683594"/><stop stop-opacity="1" stop-color="rgb(58.084106%, 57.800293%, 59.197998%)" offset="0.6875"/><stop stop-opacity="1" stop-color="rgb(58.642578%, 58.369446%, 59.712219%)" offset="0.691406"/><stop stop-opacity="1" stop-color="rgb(59.20105%, 58.938599%, 60.227966%)" offset="0.695313"/><stop stop-opacity="1" stop-color="rgb(59.757996%, 59.507751%, 60.742188%)" offset="0.699219"/><stop stop-opacity="1" stop-color="rgb(60.316467%, 60.076904%, 61.257935%)" offset="0.703125"/><stop stop-opacity="1" stop-color="rgb(60.874939%, 60.646057%, 61.773682%)" offset="0.707031"/><stop stop-opacity="1" stop-color="rgb(61.433411%, 61.21521%, 62.289429%)" offset="0.710937"/><stop stop-opacity="1" stop-color="rgb(61.990356%, 61.782837%, 62.80365%)" offset="0.714844"/><stop stop-opacity="1" stop-color="rgb(62.548828%, 62.35199%, 63.319397%)" offset="0.71875"/><stop stop-opacity="1" stop-color="rgb(63.105774%, 62.921143%, 63.833618%)" offset="0.722656"/><stop stop-opacity="1" stop-color="rgb(63.664246%, 63.490295%, 64.349365%)" offset="0.726562"/><stop stop-opacity="1" stop-color="rgb(64.222717%, 64.059448%, 64.863586%)" offset="0.730469"/><stop stop-opacity="1" stop-color="rgb(64.781189%, 64.628601%, 65.379333%)" offset="0.734375"/><stop stop-opacity="1" stop-color="rgb(65.338135%, 65.197754%, 65.893555%)" offset="0.738281"/><stop stop-opacity="1" stop-color="rgb(65.896606%, 65.766907%, 66.409302%)" offset="0.742188"/><stop stop-opacity="1" stop-color="rgb(66.455078%, 66.33606%, 66.923523%)" offset="0.746094"/><stop stop-opacity="1" stop-color="rgb(67.01355%, 66.905212%, 67.43927%)" offset="0.75"/><stop stop-opacity="1" stop-color="rgb(67.570496%, 67.472839%, 67.953491%)" offset="0.753906"/><stop stop-opacity="1" stop-color="rgb(68.128967%, 68.041992%, 68.469238%)" offset="0.757812"/><stop stop-opacity="1" stop-color="rgb(68.687439%, 68.611145%, 68.983459%)" offset="0.761719"/><stop stop-opacity="1" stop-color="rgb(69.245911%, 69.180298%, 69.499207%)" offset="0.765625"/><stop stop-opacity="1" stop-color="rgb(69.802856%, 69.749451%, 70.014954%)" offset="0.769531"/><stop stop-opacity="1" stop-color="rgb(70.361328%, 70.318604%, 70.530701%)" offset="0.773437"/><stop stop-opacity="1" stop-color="rgb(70.9198%, 70.887756%, 71.044922%)" offset="0.777344"/><stop stop-opacity="1" stop-color="rgb(71.478271%, 71.456909%, 71.560669%)" offset="0.78125"/><stop stop-opacity="1" stop-color="rgb(71.990967%, 71.980286%, 72.033691%)" offset="0.785156"/><stop stop-opacity="1" stop-color="rgb(72.505188%, 72.503662%, 72.50824%)" offset="0.789062"/><stop stop-opacity="1" stop-color="rgb(71.946716%, 71.934509%, 71.992493%)" offset="0.792969"/><stop stop-opacity="1" stop-color="rgb(71.388245%, 71.365356%, 71.478271%)" offset="0.796875"/><stop stop-opacity="1" stop-color="rgb(70.829773%, 70.796204%, 70.962524%)" offset="0.800781"/><stop stop-opacity="1" stop-color="rgb(70.272827%, 70.227051%, 70.448303%)" offset="0.804687"/><stop stop-opacity="1" stop-color="rgb(69.714355%, 69.657898%, 69.932556%)" offset="0.808594"/><stop stop-opacity="1" stop-color="rgb(69.155884%, 69.090271%, 69.418335%)" offset="0.8125"/><stop stop-opacity="1" stop-color="rgb(68.597412%, 68.521118%, 68.902588%)" offset="0.816406"/><stop stop-opacity="1" stop-color="rgb(68.040466%, 67.951965%, 68.386841%)" offset="0.820312"/><stop stop-opacity="1" stop-color="rgb(67.481995%, 67.382812%, 67.871094%)" offset="0.824219"/><stop stop-opacity="1" stop-color="rgb(66.923523%, 66.81366%, 67.356873%)" offset="0.828125"/><stop stop-opacity="1" stop-color="rgb(66.365051%, 66.244507%, 66.841125%)" offset="0.832031"/><stop stop-opacity="1" stop-color="rgb(65.808105%, 65.675354%, 66.326904%)" offset="0.835937"/><stop stop-opacity="1" stop-color="rgb(65.249634%, 65.106201%, 65.811157%)" offset="0.839844"/><stop stop-opacity="1" stop-color="rgb(64.692688%, 64.538574%, 65.296936%)" offset="0.84375"/><stop stop-opacity="1" stop-color="rgb(64.134216%, 63.969421%, 64.781189%)" offset="0.847656"/><stop stop-opacity="1" stop-color="rgb(63.575745%, 63.400269%, 64.266968%)" offset="0.851562"/><stop stop-opacity="1" stop-color="rgb(63.017273%, 62.831116%, 63.751221%)" offset="0.855469"/><stop stop-opacity="1" stop-color="rgb(62.460327%, 62.261963%, 63.237%)" offset="0.859375"/><stop stop-opacity="1" stop-color="rgb(61.901855%, 61.69281%, 62.721252%)" offset="0.863281"/><stop stop-opacity="1" stop-color="rgb(61.343384%, 61.123657%, 62.207031%)" offset="0.867187"/><stop stop-opacity="1" stop-color="rgb(60.784912%, 60.554504%, 61.691284%)" offset="0.871094"/><stop stop-opacity="1" stop-color="rgb(60.227966%, 59.985352%, 61.177063%)" offset="0.875"/><stop stop-opacity="1" stop-color="rgb(59.669495%, 59.416199%, 60.661316%)" offset="0.878906"/><stop stop-opacity="1" stop-color="rgb(59.111023%, 58.848572%, 60.145569%)" offset="0.882812"/><stop stop-opacity="1" stop-color="rgb(58.552551%, 58.279419%, 59.629822%)" offset="0.886719"/><stop stop-opacity="1" stop-color="rgb(57.995605%, 57.710266%, 59.115601%)" offset="0.890625"/><stop stop-opacity="1" stop-color="rgb(57.437134%, 57.141113%, 58.599854%)" offset="0.894531"/><stop stop-opacity="1" stop-color="rgb(56.878662%, 56.57196%, 58.085632%)" offset="0.898437"/><stop stop-opacity="1" stop-color="rgb(56.32019%, 56.002808%, 57.569885%)" offset="0.902344"/><stop stop-opacity="1" stop-color="rgb(55.763245%, 55.433655%, 57.055664%)" offset="0.90625"/><stop stop-opacity="1" stop-color="rgb(55.204773%, 54.864502%, 56.539917%)" offset="0.910156"/><stop stop-opacity="1" stop-color="rgb(54.646301%, 54.295349%, 56.025696%)" offset="0.914062"/><stop stop-opacity="1" stop-color="rgb(54.08783%, 53.726196%, 55.509949%)" offset="0.917969"/><stop stop-opacity="1" stop-color="rgb(53.530884%, 53.158569%, 54.995728%)" offset="0.921875"/><stop stop-opacity="1" stop-color="rgb(52.972412%, 52.589417%, 54.47998%)" offset="0.925781"/><stop stop-opacity="1" stop-color="rgb(52.415466%, 52.020264%, 53.965759%)" offset="0.929687"/><stop stop-opacity="1" stop-color="rgb(52.287292%, 51.889038%, 53.846741%)" offset="0.9375"/><stop stop-opacity="1" stop-color="rgb(52.159119%, 51.759338%, 53.729248%)" offset="1"/></linearGradient><clipPath id="f414e22a58"><rect x="0" width="245" y="0" height="80"/></clipPath><clipPath id="9aa7c85e3b"><path d="M 0.613281 0.0507812 L 244.054688 0.0507812 L 244.054688 80 L 0.613281 80 Z M 0.613281 0.0507812 " clip-rule="nonzero"/></clipPath><clipPath id="f60e68d070"><rect x="0" width="245" y="0" height="80"/></clipPath><clipPath id="3008deba06"><rect x="0" width="245" y="0" height="80"/></clipPath><mask id="b5369288b6"><g filter="url(#44e17ee0c6)"><g><g clip-path="url(#3008deba06)"><g clip-path="url(#9aa7c85e3b)"><g><g clip-path="url(#f60e68d070)"><g fill="#000000" fill-opacity="1"><g transform="translate(39.053195, 61.710593)"><g><path d="M 0.6875 -6.171875 C 0.6875 -7.097656 0.835938 -7.972656 1.140625 -8.796875 C 1.453125 -9.628906 1.894531 -10.363281 2.46875 -11 C 3.039062 -11.632812 3.722656 -12.128906 4.515625 -12.484375 C 5.316406 -12.847656 6.207031 -13.03125 7.1875 -13.03125 C 7.832031 -13.03125 8.375 -12.957031 8.8125 -12.8125 C 9.25 -12.664062 9.601562 -12.515625 9.875 -12.359375 C 10.144531 -12.210938 10.34375 -12.140625 10.46875 -12.140625 C 10.851562 -12.140625 11.113281 -12.4375 11.25 -13.03125 L 11.59375 -13.03125 L 11.875 -8.703125 L 11.59375 -8.703125 C 11.195312 -10.003906 10.632812 -10.941406 9.90625 -11.515625 C 9.175781 -12.085938 8.316406 -12.375 7.328125 -12.375 C 6.460938 -12.375 5.6875 -12.148438 5 -11.703125 C 4.320312 -11.253906 3.789062 -10.570312 3.40625 -9.65625 C 3.019531 -8.738281 2.828125 -7.578125 2.828125 -6.171875 C 2.828125 -4.335938 3.265625 -2.9375 4.140625 -1.96875 C 5.023438 -1.007812 6.179688 -0.53125 7.609375 -0.53125 C 8.171875 -0.53125 8.675781 -0.601562 9.125 -0.75 C 9.582031 -0.894531 10.03125 -1.160156 10.46875 -1.546875 C 10.90625 -1.929688 11.375 -2.476562 11.875 -3.1875 L 12.15625 -3 C 11.53125 -1.882812 10.796875 -1.054688 9.953125 -0.515625 C 9.109375 0.0234375 8.085938 0.296875 6.890625 0.296875 C 5.910156 0.296875 5.035156 0.125 4.265625 -0.21875 C 3.492188 -0.5625 2.84375 -1.035156 2.3125 -1.640625 C 1.78125 -2.242188 1.375 -2.929688 1.09375 -3.703125 C 0.820312 -4.484375 0.6875 -5.304688 0.6875 -6.171875 Z M 0.6875 -6.171875 "/></g></g><g transform="translate(51.890882, 61.710593)"><g><path d="M 4.71875 0.28125 C 3.914062 0.28125 3.207031 0.0703125 2.59375 -0.34375 C 1.976562 -0.757812 1.5 -1.3125 1.15625 -2 C 0.8125 -2.6875 0.640625 -3.425781 0.640625 -4.21875 C 0.640625 -5 0.804688 -5.738281 1.140625 -6.4375 C 1.484375 -7.144531 1.960938 -7.722656 2.578125 -8.171875 C 3.203125 -8.617188 3.945312 -8.84375 4.8125 -8.84375 C 5.632812 -8.84375 6.351562 -8.648438 6.96875 -8.265625 C 7.59375 -7.878906 8.078125 -7.351562 8.421875 -6.6875 C 8.773438 -6.03125 8.953125 -5.285156 8.953125 -4.453125 C 8.953125 -3.898438 8.863281 -3.34375 8.6875 -2.78125 C 8.507812 -2.226562 8.242188 -1.71875 7.890625 -1.25 C 7.546875 -0.789062 7.109375 -0.421875 6.578125 -0.140625 C 6.046875 0.140625 5.425781 0.28125 4.71875 0.28125 Z M 5.109375 -0.40625 C 5.734375 -0.40625 6.238281 -0.648438 6.625 -1.140625 C 7.007812 -1.640625 7.203125 -2.503906 7.203125 -3.734375 C 7.203125 -4.585938 7.09375 -5.351562 6.875 -6.03125 C 6.65625 -6.71875 6.34375 -7.257812 5.9375 -7.65625 C 5.539062 -8.0625 5.066406 -8.265625 4.515625 -8.265625 C 4.191406 -8.265625 3.863281 -8.164062 3.53125 -7.96875 C 3.207031 -7.769531 2.9375 -7.429688 2.71875 -6.953125 C 2.5 -6.472656 2.390625 -5.820312 2.390625 -5 C 2.390625 -4.175781 2.5 -3.414062 2.71875 -2.71875 C 2.945312 -2.019531 3.265625 -1.457031 3.671875 -1.03125 C 4.078125 -0.613281 4.554688 -0.40625 5.109375 -0.40625 Z M 5.109375 -0.40625 "/></g></g><g transform="translate(61.519148, 61.710593)"><g><path d="M 0.25 0 L 0.25 -0.359375 C 0.78125 -0.359375 1.125 -0.457031 1.28125 -0.65625 C 1.445312 -0.851562 1.53125 -1.28125 1.53125 -1.9375 L 1.53125 -5.15625 C 1.53125 -5.832031 1.519531 -6.328125 1.5 -6.640625 C 1.488281 -6.953125 1.460938 -7.160156 1.421875 -7.265625 C 1.378906 -7.367188 1.328125 -7.441406 1.265625 -7.484375 C 1.046875 -7.671875 0.707031 -7.671875 0.25 -7.484375 L 0.09375 -7.8125 L 2.71875 -8.84375 L 3.109375 -8.84375 L 3.109375 -7.046875 C 4.128906 -8.242188 5.09375 -8.84375 6 -8.84375 C 6.832031 -8.84375 7.414062 -8.546875 7.75 -7.953125 C 8.09375 -7.367188 8.265625 -6.59375 8.265625 -5.625 L 8.265625 -1.9375 C 8.265625 -1.300781 8.34375 -0.878906 8.5 -0.671875 C 8.65625 -0.460938 9.015625 -0.359375 9.578125 -0.359375 L 9.578125 0 L 5.28125 0 L 5.28125 -0.359375 C 5.707031 -0.359375 6.019531 -0.394531 6.21875 -0.46875 C 6.414062 -0.550781 6.539062 -0.707031 6.59375 -0.9375 C 6.65625 -1.164062 6.6875 -1.5 6.6875 -1.9375 L 6.6875 -5.453125 C 6.6875 -6.242188 6.585938 -6.8125 6.390625 -7.15625 C 6.191406 -7.507812 5.835938 -7.6875 5.328125 -7.6875 C 4.972656 -7.6875 4.609375 -7.585938 4.234375 -7.390625 C 3.859375 -7.203125 3.484375 -6.894531 3.109375 -6.46875 L 3.109375 -1.9375 C 3.109375 -1.5 3.140625 -1.164062 3.203125 -0.9375 C 3.265625 -0.707031 3.394531 -0.550781 3.59375 -0.46875 C 3.789062 -0.394531 4.097656 -0.359375 4.515625 -0.359375 L 4.515625 0 Z M 0.25 0 "/></g></g><g transform="translate(71.147414, 61.710593)"><g><path d="M 6.828125 -2.171875 C 6.828125 -1.734375 6.691406 -1.328125 6.421875 -0.953125 C 6.148438 -0.578125 5.796875 -0.273438 5.359375 -0.046875 C 4.921875 0.171875 4.445312 0.28125 3.9375 0.28125 C 3.476562 0.28125 3.050781 0.191406 2.65625 0.015625 C 2.257812 -0.160156 1.921875 -0.265625 1.640625 -0.296875 C 1.554688 -0.296875 1.484375 -0.242188 1.421875 -0.140625 C 1.367188 -0.046875 1.328125 0.0390625 1.296875 0.125 L 0.984375 0.125 L 0.984375 -2.953125 L 1.296875 -2.953125 C 1.453125 -2.078125 1.78125 -1.414062 2.28125 -0.96875 C 2.78125 -0.519531 3.332031 -0.296875 3.9375 -0.296875 C 4.40625 -0.296875 4.769531 -0.421875 5.03125 -0.671875 C 5.289062 -0.929688 5.421875 -1.226562 5.421875 -1.5625 C 5.429688 -1.96875 5.332031 -2.304688 5.125 -2.578125 C 4.914062 -2.847656 4.640625 -3.082031 4.296875 -3.28125 C 3.953125 -3.488281 3.585938 -3.6875 3.203125 -3.875 C 2.816406 -4.070312 2.453125 -4.285156 2.109375 -4.515625 C 1.765625 -4.742188 1.484375 -5.019531 1.265625 -5.34375 C 1.046875 -5.664062 0.9375 -6.066406 0.9375 -6.546875 C 0.9375 -7.179688 1.175781 -7.722656 1.65625 -8.171875 C 2.144531 -8.617188 2.835938 -8.84375 3.734375 -8.84375 C 4.117188 -8.84375 4.488281 -8.785156 4.84375 -8.671875 C 5.207031 -8.566406 5.460938 -8.515625 5.609375 -8.515625 C 5.703125 -8.515625 5.773438 -8.53125 5.828125 -8.5625 C 5.890625 -8.601562 5.957031 -8.695312 6.03125 -8.84375 L 6.34375 -8.84375 L 6.34375 -5.90625 L 6.03125 -5.90625 C 5.820312 -6.84375 5.515625 -7.476562 5.109375 -7.8125 C 4.703125 -8.144531 4.238281 -8.3125 3.71875 -8.3125 C 3.144531 -8.3125 2.722656 -8.207031 2.453125 -8 C 2.179688 -7.789062 2.039062 -7.519531 2.03125 -7.1875 C 2.019531 -6.820312 2.125 -6.5 2.34375 -6.21875 C 2.570312 -5.945312 2.863281 -5.703125 3.21875 -5.484375 C 3.582031 -5.273438 3.972656 -5.066406 4.390625 -4.859375 C 4.804688 -4.648438 5.195312 -4.421875 5.5625 -4.171875 C 5.9375 -3.929688 6.238281 -3.648438 6.46875 -3.328125 C 6.707031 -3.015625 6.828125 -2.628906 6.828125 -2.171875 Z M 6.828125 -2.171875 "/></g></g><g transform="translate(78.636065, 61.710593)"><g><path d="M 9.640625 -0.796875 L 7.03125 0.28125 L 6.609375 0.28125 L 6.609375 -1.5625 C 6.128906 -1.050781 5.722656 -0.664062 5.390625 -0.40625 C 5.066406 -0.144531 4.769531 0.03125 4.5 0.125 C 4.238281 0.226562 3.96875 0.28125 3.6875 0.28125 C 3.1875 0.28125 2.785156 0.175781 2.484375 -0.03125 C 2.191406 -0.25 1.972656 -0.53125 1.828125 -0.875 C 1.679688 -1.21875 1.582031 -1.582031 1.53125 -1.96875 C 1.488281 -2.351562 1.46875 -2.71875 1.46875 -3.0625 L 1.46875 -6.921875 C 1.46875 -7.472656 1.359375 -7.832031 1.140625 -8 C 0.921875 -8.175781 0.539062 -8.265625 0 -8.265625 L 0 -8.609375 L 3.03125 -8.609375 L 3.03125 -2.859375 C 3.03125 -2.523438 3.0625 -2.207031 3.125 -1.90625 C 3.195312 -1.601562 3.332031 -1.351562 3.53125 -1.15625 C 3.738281 -0.96875 4.046875 -0.875 4.453125 -0.875 C 4.710938 -0.875 5.015625 -0.957031 5.359375 -1.125 C 5.710938 -1.300781 6.128906 -1.628906 6.609375 -2.109375 L 6.609375 -6.984375 C 6.609375 -7.503906 6.5 -7.84375 6.28125 -8 C 6.0625 -8.15625 5.710938 -8.242188 5.234375 -8.265625 L 5.234375 -8.609375 L 8.1875 -8.609375 L 8.1875 -2.28125 C 8.1875 -1.769531 8.226562 -1.425781 8.3125 -1.25 C 8.40625 -1.070312 8.554688 -0.984375 8.765625 -0.984375 C 8.847656 -0.984375 8.957031 -0.992188 9.09375 -1.015625 C 9.226562 -1.035156 9.363281 -1.070312 9.5 -1.125 Z M 9.640625 -0.796875 "/></g></g><g transform="translate(88.26433, 61.710593)"><g><path d="M 4.953125 0 L 0.71875 0 L 0.71875 -0.359375 C 1.300781 -0.359375 1.65625 -0.488281 1.78125 -0.75 C 1.914062 -1.007812 1.984375 -1.40625 1.984375 -1.9375 L 1.984375 -9.734375 C 1.984375 -10.390625 1.972656 -10.867188 1.953125 -11.171875 C 1.941406 -11.472656 1.914062 -11.675781 1.875 -11.78125 C 1.832031 -11.882812 1.78125 -11.960938 1.71875 -12.015625 C 1.5625 -12.117188 1.398438 -12.15625 1.234375 -12.125 C 1.066406 -12.101562 0.894531 -12.0625 0.71875 -12 L 0.546875 -12.328125 L 3.140625 -13.359375 L 3.546875 -13.359375 L 3.546875 -1.9375 C 3.546875 -1.539062 3.570312 -1.222656 3.625 -0.984375 C 3.6875 -0.753906 3.816406 -0.59375 4.015625 -0.5 C 4.222656 -0.40625 4.535156 -0.359375 4.953125 -0.359375 Z M 4.953125 0 "/></g></g><g transform="translate(93.613367, 61.710593)"><g><path d="M 3.21875 0.28125 C 2.945312 0.28125 2.679688 0.222656 2.421875 0.109375 C 2.160156 -0.00390625 1.941406 -0.222656 1.765625 -0.546875 C 1.597656 -0.867188 1.515625 -1.351562 1.515625 -2 L 1.515625 -7.96875 L 0.140625 -7.96875 L 0.140625 -8.265625 C 0.742188 -8.484375 1.265625 -8.898438 1.703125 -9.515625 C 2.148438 -10.128906 2.519531 -10.769531 2.8125 -11.4375 L 3.09375 -11.4375 L 3.09375 -8.609375 L 5.109375 -8.609375 L 5.109375 -7.96875 L 3.09375 -7.96875 L 3.09375 -2.21875 C 3.09375 -1.664062 3.171875 -1.289062 3.328125 -1.09375 C 3.492188 -0.90625 3.695312 -0.804688 3.9375 -0.796875 C 4.175781 -0.785156 4.382812 -0.847656 4.5625 -0.984375 C 4.738281 -1.128906 4.882812 -1.320312 5 -1.5625 L 5.375 -1.5625 C 5.1875 -0.9375 4.867188 -0.472656 4.421875 -0.171875 C 3.984375 0.128906 3.582031 0.28125 3.21875 0.28125 Z M 3.21875 0.28125 "/></g></g><g transform="translate(98.962403, 61.710593)"><g><path d="M 4.71875 0.28125 C 3.914062 0.28125 3.207031 0.0703125 2.59375 -0.34375 C 1.976562 -0.757812 1.5 -1.3125 1.15625 -2 C 0.8125 -2.6875 0.640625 -3.425781 0.640625 -4.21875 C 0.640625 -5 0.804688 -5.738281 1.140625 -6.4375 C 1.484375 -7.144531 1.960938 -7.722656 2.578125 -8.171875 C 3.203125 -8.617188 3.945312 -8.84375 4.8125 -8.84375 C 5.632812 -8.84375 6.351562 -8.648438 6.96875 -8.265625 C 7.59375 -7.878906 8.078125 -7.351562 8.421875 -6.6875 C 8.773438 -6.03125 8.953125 -5.285156 8.953125 -4.453125 C 8.953125 -3.898438 8.863281 -3.34375 8.6875 -2.78125 C 8.507812 -2.226562 8.242188 -1.71875 7.890625 -1.25 C 7.546875 -0.789062 7.109375 -0.421875 6.578125 -0.140625 C 6.046875 0.140625 5.425781 0.28125 4.71875 0.28125 Z M 5.109375 -0.40625 C 5.734375 -0.40625 6.238281 -0.648438 6.625 -1.140625 C 7.007812 -1.640625 7.203125 -2.503906 7.203125 -3.734375 C 7.203125 -4.585938 7.09375 -5.351562 6.875 -6.03125 C 6.65625 -6.71875 6.34375 -7.257812 5.9375 -7.65625 C 5.539062 -8.0625 5.066406 -8.265625 4.515625 -8.265625 C 4.191406 -8.265625 3.863281 -8.164062 3.53125 -7.96875 C 3.207031 -7.769531 2.9375 -7.429688 2.71875 -6.953125 C 2.5 -6.472656 2.390625 -5.820312 2.390625 -5 C 2.390625 -4.175781 2.5 -3.414062 2.71875 -2.71875 C 2.945312 -2.019531 3.265625 -1.457031 3.671875 -1.03125 C 4.078125 -0.613281 4.554688 -0.40625 5.109375 -0.40625 Z M 5.109375 -0.40625 "/></g></g><g transform="translate(108.590669, 61.710593)"><g><path d="M 5.328125 -8.84375 C 5.679688 -8.84375 5.972656 -8.742188 6.203125 -8.546875 C 6.429688 -8.359375 6.546875 -8.113281 6.546875 -7.8125 C 6.546875 -7.59375 6.460938 -7.390625 6.296875 -7.203125 C 6.128906 -7.023438 5.929688 -6.9375 5.703125 -6.9375 C 5.492188 -6.9375 5.316406 -6.988281 5.171875 -7.09375 C 5.023438 -7.207031 4.890625 -7.320312 4.765625 -7.4375 C 4.640625 -7.550781 4.507812 -7.609375 4.375 -7.609375 C 4.207031 -7.609375 4.015625 -7.476562 3.796875 -7.21875 C 3.578125 -6.957031 3.347656 -6.597656 3.109375 -6.140625 L 3.109375 -2 C 3.109375 -1.445312 3.207031 -1.035156 3.40625 -0.765625 C 3.601562 -0.492188 4.007812 -0.359375 4.625 -0.359375 L 4.625 0 L 0.15625 0 L 0.15625 -0.359375 C 0.507812 -0.359375 0.785156 -0.382812 0.984375 -0.4375 C 1.191406 -0.5 1.332031 -0.640625 1.40625 -0.859375 C 1.488281 -1.085938 1.53125 -1.445312 1.53125 -1.9375 L 1.53125 -5.28125 C 1.53125 -5.882812 1.519531 -6.328125 1.5 -6.609375 C 1.488281 -6.898438 1.460938 -7.097656 1.421875 -7.203125 C 1.390625 -7.316406 1.335938 -7.410156 1.265625 -7.484375 C 1.117188 -7.566406 0.960938 -7.613281 0.796875 -7.625 C 0.628906 -7.632812 0.414062 -7.585938 0.15625 -7.484375 L 0.078125 -7.8125 L 2.734375 -8.84375 L 3.109375 -8.84375 L 3.109375 -6.921875 C 3.816406 -8.203125 4.554688 -8.84375 5.328125 -8.84375 Z M 5.328125 -8.84375 "/></g></g><g transform="translate(115.187814, 61.710593)"><g/></g><g transform="translate(118.425389, 61.710593)"><g><path d="M 5.9375 0 L 0.484375 0 L 0.484375 -0.359375 C 1.046875 -0.359375 1.453125 -0.429688 1.703125 -0.578125 C 1.960938 -0.722656 2.125 -0.9375 2.1875 -1.21875 C 2.257812 -1.507812 2.296875 -1.859375 2.296875 -2.265625 L 2.296875 -10.484375 C 2.296875 -11.023438 2.253906 -11.425781 2.171875 -11.6875 C 2.085938 -11.957031 1.914062 -12.140625 1.65625 -12.234375 C 1.40625 -12.335938 1.015625 -12.390625 0.484375 -12.390625 L 0.484375 -12.734375 L 5.9375 -12.734375 L 5.9375 -12.390625 C 5.382812 -12.390625 4.976562 -12.316406 4.71875 -12.171875 C 4.457031 -12.023438 4.289062 -11.8125 4.21875 -11.53125 C 4.144531 -11.257812 4.109375 -10.910156 4.109375 -10.484375 L 4.109375 -2.265625 C 4.109375 -1.734375 4.148438 -1.328125 4.234375 -1.046875 C 4.316406 -0.773438 4.488281 -0.59375 4.75 -0.5 C 5.007812 -0.40625 5.40625 -0.359375 5.9375 -0.359375 Z M 5.9375 0 "/></g></g><g transform="translate(124.825464, 61.710593)"><g><path d="M 0.28125 0 L 0.28125 -0.359375 C 0.644531 -0.359375 0.914062 -0.394531 1.09375 -0.46875 C 1.28125 -0.550781 1.40625 -0.707031 1.46875 -0.9375 C 1.53125 -1.164062 1.5625 -1.5 1.5625 -1.9375 L 1.5625 -5.234375 C 1.5625 -6.015625 1.546875 -6.609375 1.515625 -7.015625 C 1.484375 -7.421875 1.285156 -7.617188 0.921875 -7.609375 C 0.734375 -7.609375 0.519531 -7.566406 0.28125 -7.484375 L 0.125 -7.8125 L 2.734375 -8.84375 L 3.140625 -8.84375 L 3.140625 -7.03125 C 3.609375 -7.53125 4.007812 -7.910156 4.34375 -8.171875 C 4.6875 -8.429688 5 -8.609375 5.28125 -8.703125 C 5.5625 -8.796875 5.84375 -8.84375 6.125 -8.84375 C 6.632812 -8.84375 7.085938 -8.695312 7.484375 -8.40625 C 7.890625 -8.113281 8.164062 -7.65625 8.3125 -7.03125 C 8.945312 -7.757812 9.488281 -8.242188 9.9375 -8.484375 C 10.382812 -8.722656 10.84375 -8.84375 11.3125 -8.84375 C 12.007812 -8.84375 12.5625 -8.601562 12.96875 -8.125 C 13.382812 -7.644531 13.59375 -6.828125 13.59375 -5.671875 L 13.59375 -1.9375 C 13.59375 -1.28125 13.675781 -0.851562 13.84375 -0.65625 C 14.019531 -0.457031 14.375 -0.359375 14.90625 -0.359375 L 14.90625 0 L 10.65625 0 L 10.65625 -0.359375 C 11.101562 -0.359375 11.421875 -0.410156 11.609375 -0.515625 C 11.804688 -0.617188 11.921875 -0.785156 11.953125 -1.015625 C 11.992188 -1.253906 12.015625 -1.5625 12.015625 -1.9375 L 12.015625 -5.671875 C 12.015625 -6.441406 11.898438 -6.976562 11.671875 -7.28125 C 11.453125 -7.582031 11.097656 -7.734375 10.609375 -7.734375 C 10.335938 -7.734375 10.007812 -7.65625 9.625 -7.5 C 9.25 -7.34375 8.835938 -7.03125 8.390625 -6.5625 L 8.390625 -1.9375 C 8.390625 -1.53125 8.410156 -1.210938 8.453125 -0.984375 C 8.503906 -0.753906 8.625 -0.59375 8.8125 -0.5 C 9.007812 -0.40625 9.328125 -0.359375 9.765625 -0.359375 L 9.765625 0 L 5.40625 0 L 5.40625 -0.359375 C 5.894531 -0.359375 6.238281 -0.410156 6.4375 -0.515625 C 6.632812 -0.628906 6.75 -0.800781 6.78125 -1.03125 C 6.8125 -1.269531 6.828125 -1.570312 6.828125 -1.9375 L 6.828125 -5.671875 C 6.828125 -6.429688 6.691406 -6.96875 6.421875 -7.28125 C 6.160156 -7.601562 5.800781 -7.765625 5.34375 -7.765625 C 4.90625 -7.765625 4.492188 -7.632812 4.109375 -7.375 C 3.722656 -7.113281 3.398438 -6.84375 3.140625 -6.5625 L 3.140625 -1.9375 C 3.140625 -1.457031 3.175781 -1.101562 3.25 -0.875 C 3.332031 -0.65625 3.472656 -0.515625 3.671875 -0.453125 C 3.878906 -0.390625 4.164062 -0.359375 4.53125 -0.359375 L 4.53125 0 Z M 0.28125 0 "/></g></g><g transform="translate(139.802766, 61.710593)"><g><path d="M 4.71875 0.28125 C 3.914062 0.28125 3.207031 0.0703125 2.59375 -0.34375 C 1.976562 -0.757812 1.5 -1.3125 1.15625 -2 C 0.8125 -2.6875 0.640625 -3.425781 0.640625 -4.21875 C 0.640625 -5 0.804688 -5.738281 1.140625 -6.4375 C 1.484375 -7.144531 1.960938 -7.722656 2.578125 -8.171875 C 3.203125 -8.617188 3.945312 -8.84375 4.8125 -8.84375 C 5.632812 -8.84375 6.351562 -8.648438 6.96875 -8.265625 C 7.59375 -7.878906 8.078125 -7.351562 8.421875 -6.6875 C 8.773438 -6.03125 8.953125 -5.285156 8.953125 -4.453125 C 8.953125 -3.898438 8.863281 -3.34375 8.6875 -2.78125 C 8.507812 -2.226562 8.242188 -1.71875 7.890625 -1.25 C 7.546875 -0.789062 7.109375 -0.421875 6.578125 -0.140625 C 6.046875 0.140625 5.425781 0.28125 4.71875 0.28125 Z M 5.109375 -0.40625 C 5.734375 -0.40625 6.238281 -0.648438 6.625 -1.140625 C 7.007812 -1.640625 7.203125 -2.503906 7.203125 -3.734375 C 7.203125 -4.585938 7.09375 -5.351562 6.875 -6.03125 C 6.65625 -6.71875 6.34375 -7.257812 5.9375 -7.65625 C 5.539062 -8.0625 5.066406 -8.265625 4.515625 -8.265625 C 4.191406 -8.265625 3.863281 -8.164062 3.53125 -7.96875 C 3.207031 -7.769531 2.9375 -7.429688 2.71875 -6.953125 C 2.5 -6.472656 2.390625 -5.820312 2.390625 -5 C 2.390625 -4.175781 2.5 -3.414062 2.71875 -2.71875 C 2.945312 -2.019531 3.265625 -1.457031 3.671875 -1.03125 C 4.078125 -0.613281 4.554688 -0.40625 5.109375 -0.40625 Z M 5.109375 -0.40625 "/></g></g><g transform="translate(149.431032, 61.710593)"><g><path d="M 8.953125 -4.65625 C 8.953125 -3.707031 8.742188 -2.859375 8.328125 -2.109375 C 7.921875 -1.367188 7.378906 -0.785156 6.703125 -0.359375 C 6.035156 0.0664062 5.304688 0.28125 4.515625 0.28125 C 3.523438 0.28125 2.484375 -0.0859375 1.390625 -0.828125 L 1.390625 -9.734375 C 1.390625 -10.378906 1.378906 -10.847656 1.359375 -11.140625 C 1.335938 -11.441406 1.304688 -11.644531 1.265625 -11.75 C 1.222656 -11.863281 1.164062 -11.953125 1.09375 -12.015625 C 0.988281 -12.097656 0.863281 -12.140625 0.71875 -12.140625 C 0.570312 -12.140625 0.351562 -12.09375 0.0625 -12 L -0.078125 -12.328125 L 2.53125 -13.359375 L 2.96875 -13.359375 L 2.96875 -7.109375 C 3.789062 -8.265625 4.691406 -8.84375 5.671875 -8.84375 C 6.253906 -8.84375 6.796875 -8.671875 7.296875 -8.328125 C 7.796875 -7.992188 8.195312 -7.515625 8.5 -6.890625 C 8.800781 -6.265625 8.953125 -5.519531 8.953125 -4.65625 Z M 7.328125 -4.109375 C 7.328125 -5.179688 7.085938 -6.019531 6.609375 -6.625 C 6.128906 -7.238281 5.5625 -7.546875 4.90625 -7.546875 C 4.664062 -7.546875 4.398438 -7.484375 4.109375 -7.359375 C 3.828125 -7.242188 3.445312 -6.972656 2.96875 -6.546875 L 2.96875 -1.375 C 3.59375 -0.738281 4.269531 -0.421875 5 -0.421875 C 5.375 -0.421875 5.738281 -0.554688 6.09375 -0.828125 C 6.457031 -1.109375 6.753906 -1.519531 6.984375 -2.0625 C 7.210938 -2.613281 7.328125 -3.296875 7.328125 -4.109375 Z M 7.328125 -4.109375 "/></g></g><g transform="translate(159.059298, 61.710593)"><g><path d="M 4.9375 0 L 0.71875 0 L 0.71875 -0.359375 C 1.257812 -0.359375 1.613281 -0.445312 1.78125 -0.625 C 1.945312 -0.800781 2.03125 -1.1875 2.03125 -1.78125 L 2.03125 -6.359375 C 2.03125 -6.773438 1.988281 -7.085938 1.90625 -7.296875 C 1.820312 -7.515625 1.648438 -7.625 1.390625 -7.625 C 1.304688 -7.625 1.207031 -7.609375 1.09375 -7.578125 C 0.988281 -7.554688 0.863281 -7.523438 0.71875 -7.484375 L 0.59375 -7.8125 L 3.203125 -8.84375 L 3.609375 -8.84375 L 3.609375 -1.78125 C 3.609375 -1.1875 3.691406 -0.800781 3.859375 -0.625 C 4.035156 -0.445312 4.394531 -0.359375 4.9375 -0.359375 Z M 2.828125 -10.5625 C 2.554688 -10.5625 2.328125 -10.648438 2.140625 -10.828125 C 1.960938 -11.003906 1.875 -11.238281 1.875 -11.53125 C 1.875 -11.8125 1.96875 -12.035156 2.15625 -12.203125 C 2.34375 -12.378906 2.566406 -12.46875 2.828125 -12.46875 C 3.085938 -12.46875 3.304688 -12.375 3.484375 -12.1875 C 3.671875 -12.007812 3.765625 -11.789062 3.765625 -11.53125 C 3.765625 -11.257812 3.675781 -11.03125 3.5 -10.84375 C 3.320312 -10.65625 3.097656 -10.5625 2.828125 -10.5625 Z M 2.828125 -10.5625 "/></g></g><g transform="translate(164.408334, 61.710593)"><g><path d="M 4.953125 0 L 0.71875 0 L 0.71875 -0.359375 C 1.300781 -0.359375 1.65625 -0.488281 1.78125 -0.75 C 1.914062 -1.007812 1.984375 -1.40625 1.984375 -1.9375 L 1.984375 -9.734375 C 1.984375 -10.390625 1.972656 -10.867188 1.953125 -11.171875 C 1.941406 -11.472656 1.914062 -11.675781 1.875 -11.78125 C 1.832031 -11.882812 1.78125 -11.960938 1.71875 -12.015625 C 1.5625 -12.117188 1.398438 -12.15625 1.234375 -12.125 C 1.066406 -12.101562 0.894531 -12.0625 0.71875 -12 L 0.546875 -12.328125 L 3.140625 -13.359375 L 3.546875 -13.359375 L 3.546875 -1.9375 C 3.546875 -1.539062 3.570312 -1.222656 3.625 -0.984375 C 3.6875 -0.753906 3.816406 -0.59375 4.015625 -0.5 C 4.222656 -0.40625 4.535156 -0.359375 4.953125 -0.359375 Z M 4.953125 0 "/></g></g><g transform="translate(169.757371, 61.710593)"><g><path d="M 4.9375 0 L 0.71875 0 L 0.71875 -0.359375 C 1.257812 -0.359375 1.613281 -0.445312 1.78125 -0.625 C 1.945312 -0.800781 2.03125 -1.1875 2.03125 -1.78125 L 2.03125 -6.359375 C 2.03125 -6.773438 1.988281 -7.085938 1.90625 -7.296875 C 1.820312 -7.515625 1.648438 -7.625 1.390625 -7.625 C 1.304688 -7.625 1.207031 -7.609375 1.09375 -7.578125 C 0.988281 -7.554688 0.863281 -7.523438 0.71875 -7.484375 L 0.59375 -7.8125 L 3.203125 -8.84375 L 3.609375 -8.84375 L 3.609375 -1.78125 C 3.609375 -1.1875 3.691406 -0.800781 3.859375 -0.625 C 4.035156 -0.445312 4.394531 -0.359375 4.9375 -0.359375 Z M 2.828125 -10.5625 C 2.554688 -10.5625 2.328125 -10.648438 2.140625 -10.828125 C 1.960938 -11.003906 1.875 -11.238281 1.875 -11.53125 C 1.875 -11.8125 1.96875 -12.035156 2.15625 -12.203125 C 2.34375 -12.378906 2.566406 -12.46875 2.828125 -12.46875 C 3.085938 -12.46875 3.304688 -12.375 3.484375 -12.1875 C 3.671875 -12.007812 3.765625 -11.789062 3.765625 -11.53125 C 3.765625 -11.257812 3.675781 -11.03125 3.5 -10.84375 C 3.320312 -10.65625 3.097656 -10.5625 2.828125 -10.5625 Z M 2.828125 -10.5625 "/></g></g><g transform="translate(175.106407, 61.710593)"><g><path d="M 8.546875 -1.78125 L 8.546875 -1.234375 C 7.835938 -0.304688 7.144531 0.15625 6.46875 0.15625 C 6.195312 0.15625 5.960938 0.0625 5.765625 -0.125 C 5.566406 -0.320312 5.46875 -0.691406 5.46875 -1.234375 C 4.96875 -0.835938 4.570312 -0.539062 4.28125 -0.34375 C 4 -0.144531 3.75 -0.015625 3.53125 0.046875 C 3.3125 0.117188 3.046875 0.15625 2.734375 0.15625 C 2.128906 0.15625 1.632812 -0.0390625 1.25 -0.4375 C 0.875 -0.84375 0.6875 -1.375 0.6875 -2.03125 C 0.6875 -2.351562 0.742188 -2.65625 0.859375 -2.9375 C 0.984375 -3.226562 1.210938 -3.515625 1.546875 -3.796875 C 1.878906 -4.085938 2.359375 -4.390625 2.984375 -4.703125 C 3.617188 -5.015625 4.445312 -5.347656 5.46875 -5.703125 L 5.46875 -6.046875 C 5.46875 -6.878906 5.335938 -7.457031 5.078125 -7.78125 C 4.816406 -8.113281 4.410156 -8.28125 3.859375 -8.28125 C 3.472656 -8.28125 3.164062 -8.15625 2.9375 -7.90625 C 2.71875 -7.664062 2.601562 -7.257812 2.59375 -6.6875 C 2.601562 -6.40625 2.535156 -6.1875 2.390625 -6.03125 C 2.242188 -5.875 2.050781 -5.796875 1.8125 -5.796875 C 1.28125 -5.796875 1.015625 -6.09375 1.015625 -6.6875 C 1.015625 -7.132812 1.164062 -7.519531 1.46875 -7.84375 C 1.769531 -8.164062 2.15625 -8.410156 2.625 -8.578125 C 3.101562 -8.753906 3.617188 -8.84375 4.171875 -8.84375 C 5.003906 -8.84375 5.625 -8.722656 6.03125 -8.484375 C 6.4375 -8.253906 6.707031 -7.921875 6.84375 -7.484375 C 6.976562 -7.046875 7.046875 -6.519531 7.046875 -5.90625 L 7.046875 -3 C 7.046875 -2.59375 7.050781 -2.257812 7.0625 -2 C 7.082031 -1.738281 7.097656 -1.566406 7.109375 -1.484375 C 7.148438 -1.171875 7.28125 -1.015625 7.5 -1.015625 C 7.632812 -1.015625 7.75 -1.054688 7.84375 -1.140625 C 7.945312 -1.222656 8.179688 -1.4375 8.546875 -1.78125 Z M 5.46875 -1.84375 L 5.46875 -5.15625 C 4.507812 -4.78125 3.800781 -4.441406 3.34375 -4.140625 C 2.894531 -3.835938 2.601562 -3.550781 2.46875 -3.28125 C 2.34375 -3.019531 2.28125 -2.753906 2.28125 -2.484375 C 2.28125 -2.046875 2.40625 -1.671875 2.65625 -1.359375 C 2.914062 -1.054688 3.222656 -0.90625 3.578125 -0.90625 C 3.828125 -0.882812 4.101562 -0.957031 4.40625 -1.125 C 4.71875 -1.289062 5.070312 -1.53125 5.46875 -1.84375 Z M 6.90625 -12.484375 C 6.90625 -12.296875 6.820312 -12.125 6.65625 -11.96875 C 6.5 -11.8125 6.320312 -11.671875 6.125 -11.546875 L 3.34375 -9.78125 L 2.5625 -9.78125 L 5.25 -12.46875 C 5.46875 -12.6875 5.65625 -12.84375 5.8125 -12.9375 C 5.96875 -13.039062 6.144531 -13.09375 6.34375 -13.09375 C 6.476562 -13.09375 6.601562 -13.035156 6.71875 -12.921875 C 6.84375 -12.804688 6.90625 -12.660156 6.90625 -12.484375 Z M 6.90625 -12.484375 "/></g></g><g transform="translate(183.655481, 61.710593)"><g><path d="M 5.328125 -8.84375 C 5.679688 -8.84375 5.972656 -8.742188 6.203125 -8.546875 C 6.429688 -8.359375 6.546875 -8.113281 6.546875 -7.8125 C 6.546875 -7.59375 6.460938 -7.390625 6.296875 -7.203125 C 6.128906 -7.023438 5.929688 -6.9375 5.703125 -6.9375 C 5.492188 -6.9375 5.316406 -6.988281 5.171875 -7.09375 C 5.023438 -7.207031 4.890625 -7.320312 4.765625 -7.4375 C 4.640625 -7.550781 4.507812 -7.609375 4.375 -7.609375 C 4.207031 -7.609375 4.015625 -7.476562 3.796875 -7.21875 C 3.578125 -6.957031 3.347656 -6.597656 3.109375 -6.140625 L 3.109375 -2 C 3.109375 -1.445312 3.207031 -1.035156 3.40625 -0.765625 C 3.601562 -0.492188 4.007812 -0.359375 4.625 -0.359375 L 4.625 0 L 0.15625 0 L 0.15625 -0.359375 C 0.507812 -0.359375 0.785156 -0.382812 0.984375 -0.4375 C 1.191406 -0.5 1.332031 -0.640625 1.40625 -0.859375 C 1.488281 -1.085938 1.53125 -1.445312 1.53125 -1.9375 L 1.53125 -5.28125 C 1.53125 -5.882812 1.519531 -6.328125 1.5 -6.609375 C 1.488281 -6.898438 1.460938 -7.097656 1.421875 -7.203125 C 1.390625 -7.316406 1.335938 -7.410156 1.265625 -7.484375 C 1.117188 -7.566406 0.960938 -7.613281 0.796875 -7.625 C 0.628906 -7.632812 0.414062 -7.585938 0.15625 -7.484375 L 0.078125 -7.8125 L 2.734375 -8.84375 L 3.109375 -8.84375 L 3.109375 -6.921875 C 3.816406 -8.203125 4.554688 -8.84375 5.328125 -8.84375 Z M 5.328125 -8.84375 "/></g></g><g transform="translate(190.252626, 61.710593)"><g><path d="M 4.9375 0 L 0.71875 0 L 0.71875 -0.359375 C 1.257812 -0.359375 1.613281 -0.445312 1.78125 -0.625 C 1.945312 -0.800781 2.03125 -1.1875 2.03125 -1.78125 L 2.03125 -6.359375 C 2.03125 -6.773438 1.988281 -7.085938 1.90625 -7.296875 C 1.820312 -7.515625 1.648438 -7.625 1.390625 -7.625 C 1.304688 -7.625 1.207031 -7.609375 1.09375 -7.578125 C 0.988281 -7.554688 0.863281 -7.523438 0.71875 -7.484375 L 0.59375 -7.8125 L 3.203125 -8.84375 L 3.609375 -8.84375 L 3.609375 -1.78125 C 3.609375 -1.1875 3.691406 -0.800781 3.859375 -0.625 C 4.035156 -0.445312 4.394531 -0.359375 4.9375 -0.359375 Z M 2.828125 -10.5625 C 2.554688 -10.5625 2.328125 -10.648438 2.140625 -10.828125 C 1.960938 -11.003906 1.875 -11.238281 1.875 -11.53125 C 1.875 -11.8125 1.96875 -12.035156 2.15625 -12.203125 C 2.34375 -12.378906 2.566406 -12.46875 2.828125 -12.46875 C 3.085938 -12.46875 3.304688 -12.375 3.484375 -12.1875 C 3.671875 -12.007812 3.765625 -11.789062 3.765625 -11.53125 C 3.765625 -11.257812 3.675781 -11.03125 3.5 -10.84375 C 3.320312 -10.65625 3.097656 -10.5625 2.828125 -10.5625 Z M 2.828125 -10.5625 "/></g></g><g transform="translate(195.601663, 61.710593)"><g><path d="M 4.71875 0.28125 C 3.914062 0.28125 3.207031 0.0703125 2.59375 -0.34375 C 1.976562 -0.757812 1.5 -1.3125 1.15625 -2 C 0.8125 -2.6875 0.640625 -3.425781 0.640625 -4.21875 C 0.640625 -5 0.804688 -5.738281 1.140625 -6.4375 C 1.484375 -7.144531 1.960938 -7.722656 2.578125 -8.171875 C 3.203125 -8.617188 3.945312 -8.84375 4.8125 -8.84375 C 5.632812 -8.84375 6.351562 -8.648438 6.96875 -8.265625 C 7.59375 -7.878906 8.078125 -7.351562 8.421875 -6.6875 C 8.773438 -6.03125 8.953125 -5.285156 8.953125 -4.453125 C 8.953125 -3.898438 8.863281 -3.34375 8.6875 -2.78125 C 8.507812 -2.226562 8.242188 -1.71875 7.890625 -1.25 C 7.546875 -0.789062 7.109375 -0.421875 6.578125 -0.140625 C 6.046875 0.140625 5.425781 0.28125 4.71875 0.28125 Z M 5.109375 -0.40625 C 5.734375 -0.40625 6.238281 -0.648438 6.625 -1.140625 C 7.007812 -1.640625 7.203125 -2.503906 7.203125 -3.734375 C 7.203125 -4.585938 7.09375 -5.351562 6.875 -6.03125 C 6.65625 -6.71875 6.34375 -7.257812 5.9375 -7.65625 C 5.539062 -8.0625 5.066406 -8.265625 4.515625 -8.265625 C 4.191406 -8.265625 3.863281 -8.164062 3.53125 -7.96875 C 3.207031 -7.769531 2.9375 -7.429688 2.71875 -6.953125 C 2.5 -6.472656 2.390625 -5.820312 2.390625 -5 C 2.390625 -4.175781 2.5 -3.414062 2.71875 -2.71875 C 2.945312 -2.019531 3.265625 -1.457031 3.671875 -1.03125 C 4.078125 -0.613281 4.554688 -0.40625 5.109375 -0.40625 Z M 5.109375 -0.40625 "/></g></g></g></g></g></g></g></g></g></mask><clipPath id="9bd7be8844"><path d="M 0.613281 0.0507812 L 244.054688 0.0507812 L 244.054688 80 L 0.613281 80 Z M 0.613281 0.0507812 " clip-rule="nonzero"/></clipPath><clipPath id="cff19422cb"><rect x="0" width="245" y="0" height="80"/></clipPath><clipPath id="41e02758dc"><rect x="0" width="245" y="0" height="80"/></clipPath><clipPath id="c9c48dfa68"><rect x="0" width="245" y="0" height="81"/></clipPath></defs><g clip-path="url(#d705a1f630)"><path fill="#b4b4b4" d="M 125.570312 -0.00390625 L 195.121094 -0.00390625 L 195.121094 3.117188 L 125.570312 3.117188 Z M 125.570312 -0.00390625 " fill-opacity="1" fill-rule="nonzero"/></g><g clip-path="url(#b8b75f4aee)"><path fill="#b4b4b4" d="M 161.980469 66.519531 L 167.109375 62.542969 L 167.109375 10.140625 L 171.71875 10.140625 L 171.71875 58.976562 L 176.835938 55 L 176.835938 10.140625 L 181.527344 10.140625 L 181.527344 51.371094 L 186.644531 47.402344 L 186.644531 10.140625 L 190.328125 10.140625 L 190.328125 5.164062 L 161.980469 5.164062 Z M 161.980469 66.519531 " fill-opacity="1" fill-rule="nonzero"/></g><g clip-path="url(#71c44a4053)"><path fill="#b4b4b4" d="M 158.707031 5.160156 L 158.707031 15.121094 L 153.578125 15.121094 L 153.578125 10.144531 L 139.171875 10.144531 L 139.171875 43.886719 L 153.578125 55.050781 L 153.578125 40.53125 L 146.875 35.335938 L 146.875 27.835938 L 158.707031 37.003906 L 158.707031 66.515625 L 134.035156 47.40625 L 134.035156 10.144531 L 130.359375 10.144531 L 130.359375 5.160156 Z M 158.707031 5.160156 " fill-opacity="1" fill-rule="nonzero"/></g><g clip-path="url(#b1a11c44a5)"><g><g clip-path="url(#79cda1a8cd)"><g clip-path="url(#7c5c71f96b)"><g><g clip-path="url(#63a5bb965e)"><g clip-path="url(#542e7ca441)"><g mask="url(#e67e3f145a)"><g><g clip-path="url(#9f0fcf796c)"><g clip-path="url(#9abe766b67)"><path fill="url(#93975d8d46)" d="M 0.597656 0 L 0.597656 136 L 326.402344 136 L 326.402344 0 Z M 0.597656 0 " fill-rule="nonzero"/></g></g></g></g></g></g></g></g></g></g></g><g transform="matrix(1, 0, 0, 1, 41, 55)"><g clip-path="url(#c9c48dfa68)"><g clip-path="url(#58a1afc3a5)"><g transform="matrix(1, 0, 0, 1, 0, 1)"><g clip-path="url(#41e02758dc)"><g clip-path="url(#90c6c81a12)"><g mask="url(#b5369288b6)"><g><g clip-path="url(#cff19422cb)"><g clip-path="url(#9bd7be8844)"><path fill="url(#82925728c0)" d="M 0.613281 0.0507812 L 0.613281 80 L 244.054688 80 L 244.054688 0.0507812 Z M 0.613281 0.0507812 " fill-rule="nonzero"/></g></g></g></g></g></g></g></g></g></g></svg>