<svg xmlns="http://www.w3.org/2000/svg" xmlns:xlink="http://www.w3.org/1999/xlink" width="93" zoomAndPan="magnify" viewBox="0 0 69.75 66.75" height="89" preserveAspectRatio="xMidYMid meet" version="1.0"><defs><g/><clipPath id="cc71307696"><path d="M 0.00390625 0 L 68.75 0 L 68.75 4 L 0.00390625 4 Z M 0.00390625 0 " clip-rule="nonzero"/></clipPath><clipPath id="116f01228e"><path d="M 36 5 L 65 5 L 65 65.753906 L 36 65.753906 Z M 36 5 " clip-rule="nonzero"/></clipPath><clipPath id="da91aaf31a"><path d="M 4 5 L 33 5 L 33 65.753906 L 4 65.753906 Z M 4 5 " clip-rule="nonzero"/></clipPath></defs><g clip-path="url(#cc71307696)"><path fill="#ffffff" d="M 0.0117188 -0.00390625 L 69.105469 -0.00390625 L 69.105469 3.097656 L 0.0117188 3.097656 Z M 0.0117188 -0.00390625 " fill-opacity="1" fill-rule="nonzero"/></g><g clip-path="url(#116f01228e)"><path fill="#ffffff" d="M 36.183594 66.082031 L 41.277344 62.132812 L 41.277344 10.074219 L 45.855469 10.074219 L 45.855469 58.589844 L 50.941406 54.640625 L 50.941406 10.074219 L 55.601562 10.074219 L 55.601562 51.035156 L 60.683594 47.089844 L 60.683594 10.074219 L 64.34375 10.074219 L 64.34375 5.128906 L 36.183594 5.128906 Z M 36.183594 66.082031 " fill-opacity="1" fill-rule="nonzero"/></g><g clip-path="url(#da91aaf31a)"><path fill="#ffffff" d="M 32.929688 5.125 L 32.929688 15.019531 L 27.835938 15.019531 L 27.835938 10.078125 L 13.523438 10.078125 L 13.523438 43.597656 L 27.835938 54.6875 L 27.835938 40.265625 L 21.175781 35.101562 L 21.175781 27.652344 L 32.929688 36.757812 L 32.929688 66.078125 L 8.417969 47.097656 L 8.417969 10.078125 L 4.769531 10.078125 L 4.769531 5.125 Z M 32.929688 5.125 " fill-opacity="1" fill-rule="nonzero"/></g><g fill="#ffffff" fill-opacity="1"><g transform="translate(29.061188, 59.199789)"><g><path d="M 0.890625 -0.625 C 0.890625 -0.882812 0.945312 -1.078125 1.0625 -1.203125 C 1.1875 -1.335938 1.359375 -1.40625 1.578125 -1.40625 C 1.804688 -1.40625 1.984375 -1.335938 2.109375 -1.203125 C 2.234375 -1.078125 2.296875 -0.882812 2.296875 -0.625 C 2.296875 -0.363281 2.226562 -0.164062 2.09375 -0.03125 C 1.96875 0.101562 1.796875 0.171875 1.578125 0.171875 C 1.378906 0.171875 1.210938 0.109375 1.078125 -0.015625 C 0.953125 -0.140625 0.890625 -0.34375 0.890625 -0.625 Z M 0.890625 -0.625 "/></g></g></g></svg>