<svg xmlns="http://www.w3.org/2000/svg" xmlns:xlink="http://www.w3.org/1999/xlink" width="93" zoomAndPan="magnify" viewBox="0 0 69.75 66.75" height="89" preserveAspectRatio="xMidYMid meet" version="1.0"><defs><g/><clipPath id="94bd6c0d2f"><path d="M 0.00390625 0 L 68.75 0 L 68.75 4 L 0.00390625 4 Z M 0.00390625 0 " clip-rule="nonzero"/></clipPath><clipPath id="0fce2ab37c"><path d="M 35 5 L 65 5 L 65 65.753906 L 35 65.753906 Z M 35 5 " clip-rule="nonzero"/></clipPath><clipPath id="0a099ac362"><path d="M 4 5 L 33 5 L 33 65.753906 L 4 65.753906 Z M 4 5 " clip-rule="nonzero"/></clipPath></defs><g clip-path="url(#94bd6c0d2f)"><path fill="#000000" d="M 0.0117188 -0.00390625 L 68.742188 -0.00390625 L 68.742188 3.082031 L 0.0117188 3.082031 Z M 0.0117188 -0.00390625 " fill-opacity="1" fill-rule="nonzero"/></g><g clip-path="url(#0fce2ab37c)"><path fill="#000000" d="M 35.992188 65.757812 L 41.0625 61.824219 L 41.0625 10.023438 L 45.617188 10.023438 L 45.617188 58.300781 L 50.675781 54.367188 L 50.675781 10.023438 L 55.308594 10.023438 L 55.308594 50.78125 L 60.367188 46.859375 L 60.367188 10.023438 L 64.007812 10.023438 L 64.007812 5.105469 L 35.992188 5.105469 Z M 35.992188 65.757812 " fill-opacity="1" fill-rule="nonzero"/></g><g clip-path="url(#0a099ac362)"><path fill="#000000" d="M 32.757812 5.101562 L 32.757812 14.945312 L 27.691406 14.945312 L 27.691406 10.027344 L 13.453125 10.027344 L 13.453125 43.382812 L 27.691406 54.417969 L 27.691406 40.066406 L 21.0625 34.929688 L 21.0625 27.515625 L 32.757812 36.578125 L 32.757812 65.75 L 8.375 46.863281 L 8.375 10.027344 L 4.746094 10.027344 L 4.746094 5.101562 Z M 32.757812 5.101562 " fill-opacity="1" fill-rule="nonzero"/></g><g fill="#000000" fill-opacity="1"><g transform="translate(29.061188, 59.199789)"><g><path d="M 0.890625 -0.625 C 0.890625 -0.882812 0.945312 -1.078125 1.0625 -1.203125 C 1.1875 -1.335938 1.359375 -1.40625 1.578125 -1.40625 C 1.804688 -1.40625 1.984375 -1.335938 2.109375 -1.203125 C 2.234375 -1.078125 2.296875 -0.882812 2.296875 -0.625 C 2.296875 -0.363281 2.226562 -0.164062 2.09375 -0.03125 C 1.96875 0.101562 1.796875 0.171875 1.578125 0.171875 C 1.378906 0.171875 1.210938 0.109375 1.078125 -0.015625 C 0.953125 -0.140625 0.890625 -0.34375 0.890625 -0.625 Z M 0.890625 -0.625 "/></g></g></g></svg>