<svg xmlns="http://www.w3.org/2000/svg" xmlns:xlink="http://www.w3.org/1999/xlink" width="436" zoomAndPan="magnify" viewBox="0 0 327 137.249994" height="183" preserveAspectRatio="xMidYMid meet" version="1.0"><defs><filter x="0%" y="0%" width="100%" height="100%" id="6e9a4b3f87"><feColorMatrix values="0 0 0 0 1 0 0 0 0 1 0 0 0 0 1 0 0 0 1 0" color-interpolation-filters="sRGB"/></filter><g/><clipPath id="83beec7236"><path d="M 125.625 0 L 194.996094 0 L 194.996094 4 L 125.625 4 Z M 125.625 0 " clip-rule="nonzero"/></clipPath><clipPath id="557d33c0aa"><path d="M 161 5 L 191 5 L 191 66.386719 L 161 66.386719 Z M 161 5 " clip-rule="nonzero"/></clipPath><clipPath id="a049380a4a"><path d="M 130 5 L 159 5 L 159 66.386719 L 130 66.386719 Z M 130 5 " clip-rule="nonzero"/></clipPath><clipPath id="4ccf5e75bc"><path d="M 0.886719 0 L 326.109375 0 L 326.109375 136.503906 L 0.886719 136.503906 Z M 0.886719 0 " clip-rule="nonzero"/></clipPath><clipPath id="c72c53cf4e"><path d="M 0.886719 0 L 326.109375 0 L 326.109375 136.503906 L 0.886719 136.503906 Z M 0.886719 0 " clip-rule="nonzero"/></clipPath><clipPath id="9fe3839532"><path d="M 0.886719 0 L 326.109375 0 L 326.109375 136.503906 L 0.886719 136.503906 Z M 0.886719 0 " clip-rule="nonzero"/></clipPath><linearGradient x1="177.5" gradientTransform="matrix(0.744707, 0, 0, 0.743277, 30.958052, 52.582279)" y1="-70.743892" x2="177.5" gradientUnits="userSpaceOnUse" y2="112.90788" id="8504622cbd"><stop stop-opacity="1" stop-color="rgb(100%, 85.488892%, 41.569519%)" offset="0"/><stop stop-opacity="1" stop-color="rgb(100%, 85.488892%, 41.569519%)" offset="0.25"/><stop stop-opacity="1" stop-color="rgb(100%, 85.488892%, 41.569519%)" offset="0.257812"/><stop stop-opacity="1" stop-color="rgb(100%, 85.542297%, 41.786194%)" offset="0.261719"/><stop stop-opacity="1" stop-color="rgb(100%, 85.597229%, 42.002869%)" offset="0.265625"/><stop stop-opacity="1" stop-color="rgb(100%, 85.671997%, 42.301941%)" offset="0.269531"/><stop stop-opacity="1" stop-color="rgb(100%, 85.746765%, 42.601013%)" offset="0.273438"/><stop stop-opacity="1" stop-color="rgb(100%, 85.821533%, 42.900085%)" offset="0.277344"/><stop stop-opacity="1" stop-color="rgb(100%, 85.896301%, 43.200684%)" offset="0.28125"/><stop stop-opacity="1" stop-color="rgb(100%, 85.971069%, 43.499756%)" offset="0.285156"/><stop stop-opacity="1" stop-color="rgb(100%, 86.045837%, 43.798828%)" offset="0.289062"/><stop stop-opacity="1" stop-color="rgb(100%, 86.120605%, 44.0979%)" offset="0.292969"/><stop stop-opacity="1" stop-color="rgb(100%, 86.196899%, 44.398499%)" offset="0.296875"/><stop stop-opacity="1" stop-color="rgb(100%, 86.271667%, 44.697571%)" offset="0.300781"/><stop stop-opacity="1" stop-color="rgb(100%, 86.346436%, 44.996643%)" offset="0.304687"/><stop stop-opacity="1" stop-color="rgb(100%, 86.421204%, 45.295715%)" offset="0.308594"/><stop stop-opacity="1" stop-color="rgb(100%, 86.495972%, 45.594788%)" offset="0.3125"/><stop stop-opacity="1" stop-color="rgb(100%, 86.57074%, 45.89386%)" offset="0.316406"/><stop stop-opacity="1" stop-color="rgb(100%, 86.645508%, 46.194458%)" offset="0.320312"/><stop stop-opacity="1" stop-color="rgb(100%, 86.720276%, 46.49353%)" offset="0.324219"/><stop stop-opacity="1" stop-color="rgb(100%, 86.795044%, 46.792603%)" offset="0.328125"/><stop stop-opacity="1" stop-color="rgb(100%, 86.869812%, 47.091675%)" offset="0.332031"/><stop stop-opacity="1" stop-color="rgb(100%, 86.94458%, 47.392273%)" offset="0.335937"/><stop stop-opacity="1" stop-color="rgb(100%, 87.019348%, 47.691345%)" offset="0.339844"/><stop stop-opacity="1" stop-color="rgb(100%, 87.094116%, 47.990417%)" offset="0.34375"/><stop stop-opacity="1" stop-color="rgb(100%, 87.168884%, 48.28949%)" offset="0.347656"/><stop stop-opacity="1" stop-color="rgb(100%, 87.243652%, 48.590088%)" offset="0.351562"/><stop stop-opacity="1" stop-color="rgb(100%, 87.31842%, 48.88916%)" offset="0.355469"/><stop stop-opacity="1" stop-color="rgb(100%, 87.393188%, 49.188232%)" offset="0.359375"/><stop stop-opacity="1" stop-color="rgb(100%, 87.467957%, 49.487305%)" offset="0.363281"/><stop stop-opacity="1" stop-color="rgb(100%, 87.542725%, 49.786377%)" offset="0.367187"/><stop stop-opacity="1" stop-color="rgb(100%, 87.617493%, 50.085449%)" offset="0.371094"/><stop stop-opacity="1" stop-color="rgb(100%, 87.692261%, 50.386047%)" offset="0.375"/><stop stop-opacity="1" stop-color="rgb(100%, 87.767029%, 50.68512%)" offset="0.378906"/><stop stop-opacity="1" stop-color="rgb(100%, 87.841797%, 50.984192%)" offset="0.382812"/><stop stop-opacity="1" stop-color="rgb(100%, 87.916565%, 51.283264%)" offset="0.386719"/><stop stop-opacity="1" stop-color="rgb(100%, 87.992859%, 51.583862%)" offset="0.390625"/><stop stop-opacity="1" stop-color="rgb(100%, 88.067627%, 51.882935%)" offset="0.394531"/><stop stop-opacity="1" stop-color="rgb(100%, 88.142395%, 52.182007%)" offset="0.398437"/><stop stop-opacity="1" stop-color="rgb(100%, 88.217163%, 52.481079%)" offset="0.402344"/><stop stop-opacity="1" stop-color="rgb(100%, 88.291931%, 52.780151%)" offset="0.40625"/><stop stop-opacity="1" stop-color="rgb(100%, 88.366699%, 53.079224%)" offset="0.410156"/><stop stop-opacity="1" stop-color="rgb(100%, 88.441467%, 53.379822%)" offset="0.414062"/><stop stop-opacity="1" stop-color="rgb(100%, 88.516235%, 53.678894%)" offset="0.417969"/><stop stop-opacity="1" stop-color="rgb(100%, 88.591003%, 53.977966%)" offset="0.421875"/><stop stop-opacity="1" stop-color="rgb(100%, 88.665771%, 54.277039%)" offset="0.425781"/><stop stop-opacity="1" stop-color="rgb(100%, 88.74054%, 54.577637%)" offset="0.429687"/><stop stop-opacity="1" stop-color="rgb(100%, 88.815308%, 54.876709%)" offset="0.433594"/><stop stop-opacity="1" stop-color="rgb(100%, 88.890076%, 55.175781%)" offset="0.4375"/><stop stop-opacity="1" stop-color="rgb(100%, 88.964844%, 55.474854%)" offset="0.441406"/><stop stop-opacity="1" stop-color="rgb(100%, 89.039612%, 55.775452%)" offset="0.445313"/><stop stop-opacity="1" stop-color="rgb(100%, 89.11438%, 56.074524%)" offset="0.449219"/><stop stop-opacity="1" stop-color="rgb(100%, 89.189148%, 56.373596%)" offset="0.453125"/><stop stop-opacity="1" stop-color="rgb(100%, 89.263916%, 56.672668%)" offset="0.457031"/><stop stop-opacity="1" stop-color="rgb(100%, 89.338684%, 56.971741%)" offset="0.460938"/><stop stop-opacity="1" stop-color="rgb(100%, 89.413452%, 57.270813%)" offset="0.464844"/><stop stop-opacity="1" stop-color="rgb(100%, 89.48822%, 57.571411%)" offset="0.46875"/><stop stop-opacity="1" stop-color="rgb(100%, 89.562988%, 57.870483%)" offset="0.472656"/><stop stop-opacity="1" stop-color="rgb(100%, 89.639282%, 58.169556%)" offset="0.476562"/><stop stop-opacity="1" stop-color="rgb(100%, 89.71405%, 58.468628%)" offset="0.480469"/><stop stop-opacity="1" stop-color="rgb(100%, 89.788818%, 58.769226%)" offset="0.484375"/><stop stop-opacity="1" stop-color="rgb(100%, 89.863586%, 59.068298%)" offset="0.488281"/><stop stop-opacity="1" stop-color="rgb(100%, 89.938354%, 59.367371%)" offset="0.492188"/><stop stop-opacity="1" stop-color="rgb(100%, 90.013123%, 59.666443%)" offset="0.496094"/><stop stop-opacity="1" stop-color="rgb(100%, 90.087891%, 59.967041%)" offset="0.5"/><stop stop-opacity="1" stop-color="rgb(100%, 90.162659%, 60.266113%)" offset="0.503906"/><stop stop-opacity="1" stop-color="rgb(100%, 90.237427%, 60.565186%)" offset="0.507812"/><stop stop-opacity="1" stop-color="rgb(100%, 90.312195%, 60.864258%)" offset="0.511719"/><stop stop-opacity="1" stop-color="rgb(100%, 90.386963%, 61.16333%)" offset="0.515625"/><stop stop-opacity="1" stop-color="rgb(100%, 90.461731%, 61.462402%)" offset="0.519531"/><stop stop-opacity="1" stop-color="rgb(100%, 90.536499%, 61.763%)" offset="0.523438"/><stop stop-opacity="1" stop-color="rgb(100%, 90.611267%, 62.062073%)" offset="0.527344"/><stop stop-opacity="1" stop-color="rgb(100%, 90.686035%, 62.361145%)" offset="0.53125"/><stop stop-opacity="1" stop-color="rgb(100%, 90.760803%, 62.660217%)" offset="0.535156"/><stop stop-opacity="1" stop-color="rgb(100%, 90.835571%, 62.960815%)" offset="0.539062"/><stop stop-opacity="1" stop-color="rgb(100%, 90.910339%, 63.259888%)" offset="0.542969"/><stop stop-opacity="1" stop-color="rgb(100%, 90.985107%, 63.55896%)" offset="0.546875"/><stop stop-opacity="1" stop-color="rgb(100%, 91.059875%, 63.858032%)" offset="0.550781"/><stop stop-opacity="1" stop-color="rgb(100%, 91.134644%, 64.15863%)" offset="0.554688"/><stop stop-opacity="1" stop-color="rgb(100%, 91.209412%, 64.457703%)" offset="0.558594"/><stop stop-opacity="1" stop-color="rgb(100%, 91.28418%, 64.756775%)" offset="0.5625"/><stop stop-opacity="1" stop-color="rgb(100%, 91.358948%, 65.055847%)" offset="0.566406"/><stop stop-opacity="1" stop-color="rgb(100%, 91.435242%, 65.354919%)" offset="0.570312"/><stop stop-opacity="1" stop-color="rgb(100%, 91.51001%, 65.653992%)" offset="0.574219"/><stop stop-opacity="1" stop-color="rgb(100%, 91.584778%, 65.95459%)" offset="0.578125"/><stop stop-opacity="1" stop-color="rgb(100%, 91.659546%, 66.253662%)" offset="0.582031"/><stop stop-opacity="1" stop-color="rgb(100%, 91.734314%, 66.552734%)" offset="0.585938"/><stop stop-opacity="1" stop-color="rgb(100%, 91.809082%, 66.851807%)" offset="0.589844"/><stop stop-opacity="1" stop-color="rgb(100%, 91.88385%, 67.152405%)" offset="0.59375"/><stop stop-opacity="1" stop-color="rgb(100%, 91.958618%, 67.451477%)" offset="0.597656"/><stop stop-opacity="1" stop-color="rgb(100%, 92.033386%, 67.750549%)" offset="0.601562"/><stop stop-opacity="1" stop-color="rgb(100%, 92.108154%, 68.049622%)" offset="0.605469"/><stop stop-opacity="1" stop-color="rgb(100%, 92.182922%, 68.348694%)" offset="0.609375"/><stop stop-opacity="1" stop-color="rgb(100%, 92.25769%, 68.647766%)" offset="0.613281"/><stop stop-opacity="1" stop-color="rgb(100%, 92.332458%, 68.948364%)" offset="0.617187"/><stop stop-opacity="1" stop-color="rgb(100%, 92.407227%, 69.247437%)" offset="0.621094"/><stop stop-opacity="1" stop-color="rgb(100%, 92.481995%, 69.546509%)" offset="0.625"/><stop stop-opacity="1" stop-color="rgb(100%, 92.556763%, 69.845581%)" offset="0.628906"/><stop stop-opacity="1" stop-color="rgb(100%, 92.631531%, 70.146179%)" offset="0.632813"/><stop stop-opacity="1" stop-color="rgb(100%, 92.706299%, 70.445251%)" offset="0.636719"/><stop stop-opacity="1" stop-color="rgb(100%, 92.781067%, 70.744324%)" offset="0.640625"/><stop stop-opacity="1" stop-color="rgb(100%, 92.855835%, 71.043396%)" offset="0.644531"/><stop stop-opacity="1" stop-color="rgb(100%, 92.930603%, 71.343994%)" offset="0.648438"/><stop stop-opacity="1" stop-color="rgb(100%, 93.005371%, 71.643066%)" offset="0.652344"/><stop stop-opacity="1" stop-color="rgb(100%, 93.080139%, 71.942139%)" offset="0.65625"/><stop stop-opacity="1" stop-color="rgb(100%, 93.154907%, 72.241211%)" offset="0.660156"/><stop stop-opacity="1" stop-color="rgb(100%, 93.231201%, 72.540283%)" offset="0.664062"/><stop stop-opacity="1" stop-color="rgb(100%, 93.305969%, 72.839355%)" offset="0.667969"/><stop stop-opacity="1" stop-color="rgb(100%, 93.380737%, 73.139954%)" offset="0.671875"/><stop stop-opacity="1" stop-color="rgb(100%, 93.455505%, 73.439026%)" offset="0.675781"/><stop stop-opacity="1" stop-color="rgb(100%, 93.530273%, 73.738098%)" offset="0.679688"/><stop stop-opacity="1" stop-color="rgb(100%, 93.605042%, 74.03717%)" offset="0.683594"/><stop stop-opacity="1" stop-color="rgb(100%, 93.67981%, 74.337769%)" offset="0.6875"/><stop stop-opacity="1" stop-color="rgb(100%, 93.754578%, 74.636841%)" offset="0.691406"/><stop stop-opacity="1" stop-color="rgb(100%, 93.829346%, 74.935913%)" offset="0.695312"/><stop stop-opacity="1" stop-color="rgb(100%, 93.904114%, 75.234985%)" offset="0.699219"/><stop stop-opacity="1" stop-color="rgb(100%, 93.978882%, 75.535583%)" offset="0.703125"/><stop stop-opacity="1" stop-color="rgb(100%, 94.05365%, 75.834656%)" offset="0.707031"/><stop stop-opacity="1" stop-color="rgb(100%, 94.128418%, 76.133728%)" offset="0.710938"/><stop stop-opacity="1" stop-color="rgb(100%, 94.203186%, 76.4328%)" offset="0.714844"/><stop stop-opacity="1" stop-color="rgb(100%, 94.277954%, 76.731873%)" offset="0.71875"/><stop stop-opacity="1" stop-color="rgb(100%, 94.352722%, 77.030945%)" offset="0.722656"/><stop stop-opacity="1" stop-color="rgb(100%, 94.42749%, 77.331543%)" offset="0.726562"/><stop stop-opacity="1" stop-color="rgb(100%, 94.502258%, 77.630615%)" offset="0.730469"/><stop stop-opacity="1" stop-color="rgb(100%, 94.577026%, 77.929688%)" offset="0.734375"/><stop stop-opacity="1" stop-color="rgb(100%, 94.651794%, 78.22876%)" offset="0.738281"/><stop stop-opacity="1" stop-color="rgb(100%, 94.726562%, 78.529358%)" offset="0.742188"/><stop stop-opacity="1" stop-color="rgb(100%, 94.801331%, 78.82843%)" offset="0.746094"/><stop stop-opacity="1" stop-color="rgb(100%, 94.876099%, 79.127502%)" offset="0.75"/><stop stop-opacity="1" stop-color="rgb(100%, 94.950867%, 79.426575%)" offset="0.753906"/><stop stop-opacity="1" stop-color="rgb(100%, 95.027161%, 79.727173%)" offset="0.757812"/><stop stop-opacity="1" stop-color="rgb(100%, 95.101929%, 80.026245%)" offset="0.761719"/><stop stop-opacity="1" stop-color="rgb(100%, 95.176697%, 80.325317%)" offset="0.765625"/><stop stop-opacity="1" stop-color="rgb(100%, 95.251465%, 80.62439%)" offset="0.769531"/><stop stop-opacity="1" stop-color="rgb(100%, 95.326233%, 80.923462%)" offset="0.773438"/><stop stop-opacity="1" stop-color="rgb(100%, 95.401001%, 81.222534%)" offset="0.777344"/><stop stop-opacity="1" stop-color="rgb(100%, 95.475769%, 81.523132%)" offset="0.78125"/><stop stop-opacity="1" stop-color="rgb(100%, 95.550537%, 81.822205%)" offset="0.785156"/><stop stop-opacity="1" stop-color="rgb(100%, 95.625305%, 82.121277%)" offset="0.789062"/><stop stop-opacity="1" stop-color="rgb(100%, 95.700073%, 82.420349%)" offset="0.792969"/><stop stop-opacity="1" stop-color="rgb(100%, 95.774841%, 82.720947%)" offset="0.796875"/><stop stop-opacity="1" stop-color="rgb(100%, 95.849609%, 83.02002%)" offset="0.800781"/><stop stop-opacity="1" stop-color="rgb(100%, 95.924377%, 83.319092%)" offset="0.804688"/><stop stop-opacity="1" stop-color="rgb(100%, 95.999146%, 83.618164%)" offset="0.808594"/><stop stop-opacity="1" stop-color="rgb(100%, 96.073914%, 83.917236%)" offset="0.8125"/><stop stop-opacity="1" stop-color="rgb(100%, 96.148682%, 84.216309%)" offset="0.816406"/><stop stop-opacity="1" stop-color="rgb(100%, 96.22345%, 84.516907%)" offset="0.820312"/><stop stop-opacity="1" stop-color="rgb(100%, 96.298218%, 84.815979%)" offset="0.824219"/><stop stop-opacity="1" stop-color="rgb(100%, 96.372986%, 85.115051%)" offset="0.828125"/><stop stop-opacity="1" stop-color="rgb(100%, 96.447754%, 85.414124%)" offset="0.832031"/><stop stop-opacity="1" stop-color="rgb(100%, 96.522522%, 85.714722%)" offset="0.835938"/><stop stop-opacity="1" stop-color="rgb(100%, 96.59729%, 86.013794%)" offset="0.839844"/><stop stop-opacity="1" stop-color="rgb(100%, 96.672058%, 86.312866%)" offset="0.84375"/><stop stop-opacity="1" stop-color="rgb(100%, 96.746826%, 86.611938%)" offset="0.847656"/><stop stop-opacity="1" stop-color="rgb(100%, 96.82312%, 86.912537%)" offset="0.851562"/><stop stop-opacity="1" stop-color="rgb(100%, 96.841431%, 86.985779%)" offset="0.859375"/><stop stop-opacity="1" stop-color="rgb(100%, 96.859741%, 87.059021%)" offset="0.875"/><stop stop-opacity="1" stop-color="rgb(100%, 96.859741%, 87.059021%)" offset="1"/></linearGradient><clipPath id="047e74cae6"><rect x="0" width="327" y="0" height="137"/></clipPath><clipPath id="9e3f86c302"><path d="M 0.886719 0 L 326.109375 0 L 326.109375 136.503906 L 0.886719 136.503906 Z M 0.886719 0 " clip-rule="nonzero"/></clipPath><clipPath id="e343089d39"><rect x="0" width="327" y="0" height="137"/></clipPath><clipPath id="3bed01d171"><rect x="0" width="327" y="0" height="137"/></clipPath><mask id="f5a9dbc30d"><g filter="url(#6e9a4b3f87)"><g transform="matrix(1, 0, 0, 1, 0, -0.000000000000003064)"><g clip-path="url(#3bed01d171)"><g clip-path="url(#9e3f86c302)"><g transform="matrix(1, 0, 0, 1, 0, -0.000000000000003064)"><g clip-path="url(#e343089d39)"><g fill="#000000" fill-opacity="1"><g transform="translate(30.736232, 94.25709)"><g><path d="M 24.15625 -11.71875 C 23.375 -11.71875 22.804688 -11.578125 22.453125 -11.296875 C 22.097656 -11.015625 21.875 -10.625 21.78125 -10.125 C 21.6875 -9.625 21.640625 -9.046875 21.640625 -8.390625 L 21.640625 -1.5 C 20.390625 -0.78125 19.109375 -0.265625 17.796875 0.046875 C 16.484375 0.367188 15.113281 0.53125 13.6875 0.53125 C 11.082031 0.53125 8.847656 0.0195312 6.984375 -1 C 5.117188 -2.019531 3.6875 -3.398438 2.6875 -5.140625 C 1.6875 -6.878906 1.1875 -8.816406 1.1875 -10.953125 C 1.1875 -12.421875 1.441406 -13.875 1.953125 -15.3125 C 2.472656 -16.75 3.238281 -18.054688 4.25 -19.234375 C 5.257812 -20.421875 6.503906 -21.367188 7.984375 -22.078125 C 9.472656 -22.785156 11.195312 -23.140625 13.15625 -23.140625 C 14.425781 -23.140625 15.484375 -23.015625 16.328125 -22.765625 C 17.171875 -22.523438 17.847656 -22.285156 18.359375 -22.046875 C 18.878906 -21.804688 19.273438 -21.6875 19.546875 -21.6875 C 19.679688 -21.6875 19.835938 -21.773438 20.015625 -21.953125 C 20.191406 -22.140625 20.304688 -22.535156 20.359375 -23.140625 L 20.984375 -23.140625 L 21.546875 -15.984375 L 20.984375 -15.984375 C 20.253906 -18.148438 19.242188 -19.6875 17.953125 -20.59375 C 16.671875 -21.507812 15.1875 -21.96875 13.5 -21.96875 C 11.675781 -21.96875 10.132812 -21.515625 8.875 -20.609375 C 7.613281 -19.703125 6.660156 -18.472656 6.015625 -16.921875 C 5.367188 -15.378906 5.035156 -13.640625 5.015625 -11.703125 C 4.992188 -9.554688 5.363281 -7.644531 6.125 -5.96875 C 6.894531 -4.300781 7.941406 -2.992188 9.265625 -2.046875 C 10.597656 -1.109375 12.085938 -0.640625 13.734375 -0.640625 C 14.535156 -0.640625 15.320312 -0.734375 16.09375 -0.921875 C 16.875 -1.109375 17.640625 -1.425781 18.390625 -1.875 L 18.390625 -8.390625 C 18.390625 -9.335938 18.3125 -10.046875 18.15625 -10.515625 C 18.007812 -10.984375 17.722656 -11.296875 17.296875 -11.453125 C 16.878906 -11.617188 16.257812 -11.707031 15.4375 -11.71875 L 15.4375 -12.3125 L 24.15625 -12.3125 Z M 24.15625 -11.71875 "/></g></g></g><g fill="#000000" fill-opacity="1"><g transform="translate(55.397418, 94.25709)"><g><path d="M 17.109375 -1.421875 L 12.484375 0.5 L 11.71875 0.5 L 11.71875 -2.765625 C 10.863281 -1.867188 10.144531 -1.1875 9.5625 -0.71875 C 8.976562 -0.25 8.453125 0.0664062 7.984375 0.234375 C 7.523438 0.410156 7.046875 0.5 6.546875 0.5 C 5.660156 0.5 4.953125 0.304688 4.421875 -0.078125 C 3.890625 -0.460938 3.492188 -0.957031 3.234375 -1.5625 C 2.972656 -2.164062 2.800781 -2.8125 2.71875 -3.5 C 2.632812 -4.1875 2.59375 -4.835938 2.59375 -5.453125 L 2.59375 -12.28125 C 2.59375 -13.257812 2.398438 -13.898438 2.015625 -14.203125 C 1.640625 -14.503906 0.96875 -14.65625 0 -14.65625 L 0 -15.265625 L 5.375 -15.265625 L 5.375 -5.0625 C 5.375 -4.476562 5.429688 -3.914062 5.546875 -3.375 C 5.671875 -2.84375 5.914062 -2.40625 6.28125 -2.0625 C 6.644531 -1.726562 7.1875 -1.5625 7.90625 -1.5625 C 8.363281 -1.5625 8.898438 -1.710938 9.515625 -2.015625 C 10.140625 -2.316406 10.875 -2.890625 11.71875 -3.734375 L 11.71875 -12.40625 C 11.71875 -13.332031 11.523438 -13.929688 11.140625 -14.203125 C 10.765625 -14.484375 10.144531 -14.632812 9.28125 -14.65625 L 9.28125 -15.265625 L 14.515625 -15.265625 L 14.515625 -4.046875 C 14.515625 -3.140625 14.59375 -2.53125 14.75 -2.21875 C 14.914062 -1.90625 15.1875 -1.75 15.5625 -1.75 C 15.707031 -1.75 15.898438 -1.765625 16.140625 -1.796875 C 16.378906 -1.835938 16.625 -1.90625 16.875 -2 Z M 17.109375 -1.421875 "/></g></g></g><g fill="#000000" fill-opacity="1"><g transform="translate(72.482074, 94.25709)"><g><path d="M 5.71875 0.5 C 5.238281 0.5 4.765625 0.398438 4.296875 0.203125 C 3.828125 0.00390625 3.441406 -0.378906 3.140625 -0.953125 C 2.847656 -1.535156 2.703125 -2.398438 2.703125 -3.546875 L 2.703125 -14.140625 L 0.25 -14.140625 L 0.25 -14.65625 C 1.320312 -15.039062 2.25 -15.78125 3.03125 -16.875 C 3.820312 -17.96875 4.472656 -19.109375 4.984375 -20.296875 L 5.484375 -20.296875 L 5.484375 -15.265625 L 9.0625 -15.265625 L 9.0625 -14.140625 L 5.484375 -14.140625 L 5.484375 -3.953125 C 5.484375 -2.960938 5.628906 -2.296875 5.921875 -1.953125 C 6.210938 -1.617188 6.570312 -1.441406 7 -1.421875 C 7.414062 -1.390625 7.78125 -1.5 8.09375 -1.75 C 8.40625 -2 8.660156 -2.34375 8.859375 -2.78125 L 9.546875 -2.78125 C 9.203125 -1.664062 8.640625 -0.835938 7.859375 -0.296875 C 7.078125 0.234375 6.363281 0.5 5.71875 0.5 Z M 5.71875 0.5 "/></g></g></g><g fill="#000000" fill-opacity="1"><g transform="translate(81.97355, 94.25709)"><g><path d="M 5.71875 0.5 C 5.238281 0.5 4.765625 0.398438 4.296875 0.203125 C 3.828125 0.00390625 3.441406 -0.378906 3.140625 -0.953125 C 2.847656 -1.535156 2.703125 -2.398438 2.703125 -3.546875 L 2.703125 -14.140625 L 0.25 -14.140625 L 0.25 -14.65625 C 1.320312 -15.039062 2.25 -15.78125 3.03125 -16.875 C 3.820312 -17.96875 4.472656 -19.109375 4.984375 -20.296875 L 5.484375 -20.296875 L 5.484375 -15.265625 L 9.0625 -15.265625 L 9.0625 -14.140625 L 5.484375 -14.140625 L 5.484375 -3.953125 C 5.484375 -2.960938 5.628906 -2.296875 5.921875 -1.953125 C 6.210938 -1.617188 6.570312 -1.441406 7 -1.421875 C 7.414062 -1.390625 7.78125 -1.5 8.09375 -1.75 C 8.40625 -2 8.660156 -2.34375 8.859375 -2.78125 L 9.546875 -2.78125 C 9.203125 -1.664062 8.640625 -0.835938 7.859375 -0.296875 C 7.078125 0.234375 6.363281 0.5 5.71875 0.5 Z M 5.71875 0.5 "/></g></g></g><g fill="#000000" fill-opacity="1"><g transform="translate(91.465026, 94.25709)"><g><path d="M 0.46875 0 L 0.46875 -0.640625 C 1.488281 -0.640625 2.128906 -0.820312 2.390625 -1.1875 C 2.648438 -1.550781 2.78125 -2.203125 2.78125 -3.140625 L 2.78125 -19.25 C 2.78125 -20.039062 2.707031 -20.617188 2.5625 -20.984375 C 2.414062 -21.359375 2.117188 -21.546875 1.671875 -21.546875 C 1.523438 -21.546875 1.34375 -21.523438 1.125 -21.484375 C 0.914062 -21.453125 0.695312 -21.382812 0.46875 -21.28125 L 0.1875 -21.875 L 4.8125 -23.71875 L 5.578125 -23.71875 L 5.578125 -12.546875 C 6.460938 -13.878906 7.328125 -14.738281 8.171875 -15.125 C 9.023438 -15.507812 9.847656 -15.703125 10.640625 -15.703125 C 11.609375 -15.703125 12.359375 -15.488281 12.890625 -15.0625 C 13.429688 -14.632812 13.820312 -14.070312 14.0625 -13.375 C 14.3125 -12.6875 14.460938 -11.941406 14.515625 -11.140625 C 14.578125 -10.335938 14.609375 -9.566406 14.609375 -8.828125 L 14.609375 -3.140625 C 14.609375 -2.160156 14.738281 -1.5 15 -1.15625 C 15.257812 -0.8125 15.894531 -0.640625 16.90625 -0.640625 L 16.90625 0 L 9.359375 0 L 9.359375 -0.640625 C 10.328125 -0.640625 10.976562 -0.796875 11.3125 -1.109375 C 11.65625 -1.421875 11.828125 -2.097656 11.828125 -3.140625 L 11.828125 -8.828125 C 11.828125 -9.328125 11.820312 -9.859375 11.8125 -10.421875 C 11.800781 -10.984375 11.726562 -11.507812 11.59375 -12 C 11.457031 -12.5 11.21875 -12.90625 10.875 -13.21875 C 10.53125 -13.53125 10.023438 -13.6875 9.359375 -13.6875 C 8.847656 -13.6875 8.296875 -13.554688 7.703125 -13.296875 C 7.117188 -13.046875 6.410156 -12.441406 5.578125 -11.484375 L 5.578125 -3.140625 C 5.578125 -2.453125 5.625 -1.925781 5.71875 -1.5625 C 5.820312 -1.195312 6.046875 -0.953125 6.390625 -0.828125 C 6.742188 -0.703125 7.285156 -0.640625 8.015625 -0.640625 L 8.015625 0 Z M 0.46875 0 "/></g></g></g><g fill="#000000" fill-opacity="1"><g transform="translate(108.549682, 94.25709)"><g><path d="M 8.765625 0 L 1.28125 0 L 1.28125 -0.640625 C 2.25 -0.640625 2.878906 -0.796875 3.171875 -1.109375 C 3.460938 -1.421875 3.609375 -2.097656 3.609375 -3.140625 L 3.609375 -11.296875 C 3.609375 -12.023438 3.53125 -12.578125 3.375 -12.953125 C 3.21875 -13.335938 2.914062 -13.53125 2.46875 -13.53125 C 2.320312 -13.53125 2.148438 -13.503906 1.953125 -13.453125 C 1.765625 -13.410156 1.539062 -13.351562 1.28125 -13.28125 L 1.0625 -13.875 L 5.703125 -15.703125 L 6.390625 -15.703125 L 6.390625 -3.140625 C 6.390625 -2.097656 6.539062 -1.421875 6.84375 -1.109375 C 7.15625 -0.796875 7.796875 -0.640625 8.765625 -0.640625 Z M 5.015625 -18.75 C 4.535156 -18.75 4.128906 -18.90625 3.796875 -19.21875 C 3.472656 -19.539062 3.3125 -19.953125 3.3125 -20.453125 C 3.3125 -20.953125 3.476562 -21.351562 3.8125 -21.65625 C 4.15625 -21.96875 4.554688 -22.125 5.015625 -22.125 C 5.484375 -22.125 5.878906 -21.960938 6.203125 -21.640625 C 6.523438 -21.328125 6.6875 -20.929688 6.6875 -20.453125 C 6.6875 -19.984375 6.53125 -19.582031 6.21875 -19.25 C 5.90625 -18.914062 5.503906 -18.75 5.015625 -18.75 Z M 5.015625 -18.75 "/></g></g></g><g fill="#000000" fill-opacity="1"><g transform="translate(118.041158, 94.25709)"><g><path d="M 13.65625 -5.90625 L 14.1875 -5.578125 C 14.050781 -4.578125 13.707031 -3.613281 13.15625 -2.6875 C 12.613281 -1.757812 11.894531 -0.992188 11 -0.390625 C 10.101562 0.203125 9.070312 0.5 7.90625 0.5 C 6.707031 0.5 5.601562 0.175781 4.59375 -0.46875 C 3.582031 -1.125 2.769531 -2.046875 2.15625 -3.234375 C 1.550781 -4.429688 1.25 -5.84375 1.25 -7.46875 C 1.25 -9.195312 1.550781 -10.675781 2.15625 -11.90625 C 2.757812 -13.132812 3.59375 -14.078125 4.65625 -14.734375 C 5.726562 -15.390625 6.953125 -15.71875 8.328125 -15.71875 C 10.015625 -15.71875 11.410156 -15.164062 12.515625 -14.0625 C 13.628906 -12.96875 14.1875 -11.460938 14.1875 -9.546875 L 3.609375 -9.546875 C 3.609375 -8.023438 3.863281 -6.722656 4.375 -5.640625 C 4.882812 -4.554688 5.5625 -3.726562 6.40625 -3.15625 C 7.257812 -2.582031 8.179688 -2.285156 9.171875 -2.265625 C 10.160156 -2.242188 11.023438 -2.492188 11.765625 -3.015625 C 12.515625 -3.535156 13.144531 -4.5 13.65625 -5.90625 Z M 3.609375 -10.453125 L 10.703125 -10.453125 C 10.703125 -11.578125 10.503906 -12.429688 10.109375 -13.015625 C 9.710938 -13.609375 9.25 -14.015625 8.71875 -14.234375 C 8.195312 -14.453125 7.753906 -14.5625 7.390625 -14.5625 C 6.503906 -14.5625 5.6875 -14.207031 4.9375 -13.5 C 4.1875 -12.800781 3.742188 -11.785156 3.609375 -10.453125 Z M 3.609375 -10.453125 "/></g></g></g><g fill="#000000" fill-opacity="1"><g transform="translate(133.210867, 94.25709)"><g><path d="M 9.453125 -15.703125 C 10.078125 -15.703125 10.59375 -15.53125 11 -15.1875 C 11.414062 -14.84375 11.625 -14.40625 11.625 -13.875 C 11.625 -13.476562 11.476562 -13.117188 11.1875 -12.796875 C 10.894531 -12.472656 10.535156 -12.3125 10.109375 -12.3125 C 9.742188 -12.3125 9.429688 -12.410156 9.171875 -12.609375 C 8.910156 -12.804688 8.671875 -13.003906 8.453125 -13.203125 C 8.234375 -13.398438 8.003906 -13.5 7.765625 -13.5 C 7.472656 -13.5 7.128906 -13.265625 6.734375 -12.796875 C 6.335938 -12.335938 5.929688 -11.703125 5.515625 -10.890625 L 5.515625 -3.546875 C 5.515625 -2.566406 5.691406 -1.835938 6.046875 -1.359375 C 6.398438 -0.878906 7.117188 -0.640625 8.203125 -0.640625 L 8.203125 0 L 0.28125 0 L 0.28125 -0.640625 C 0.914062 -0.640625 1.410156 -0.691406 1.765625 -0.796875 C 2.117188 -0.898438 2.367188 -1.148438 2.515625 -1.546875 C 2.660156 -1.953125 2.734375 -2.585938 2.734375 -3.453125 L 2.734375 -9.359375 C 2.734375 -10.429688 2.71875 -11.222656 2.6875 -11.734375 C 2.65625 -12.253906 2.601562 -12.609375 2.53125 -12.796875 C 2.46875 -12.992188 2.375 -13.160156 2.25 -13.296875 C 1.988281 -13.429688 1.710938 -13.507812 1.421875 -13.53125 C 1.128906 -13.550781 0.75 -13.46875 0.28125 -13.28125 L 0.140625 -13.875 L 4.859375 -15.703125 L 5.515625 -15.703125 L 5.515625 -12.28125 C 6.773438 -14.5625 8.085938 -15.703125 9.453125 -15.703125 Z M 9.453125 -15.703125 "/></g></g></g><g fill="#000000" fill-opacity="1"><g transform="translate(144.917021, 94.25709)"><g><path d="M 9.453125 -15.703125 C 10.078125 -15.703125 10.59375 -15.53125 11 -15.1875 C 11.414062 -14.84375 11.625 -14.40625 11.625 -13.875 C 11.625 -13.476562 11.476562 -13.117188 11.1875 -12.796875 C 10.894531 -12.472656 10.535156 -12.3125 10.109375 -12.3125 C 9.742188 -12.3125 9.429688 -12.410156 9.171875 -12.609375 C 8.910156 -12.804688 8.671875 -13.003906 8.453125 -13.203125 C 8.234375 -13.398438 8.003906 -13.5 7.765625 -13.5 C 7.472656 -13.5 7.128906 -13.265625 6.734375 -12.796875 C 6.335938 -12.335938 5.929688 -11.703125 5.515625 -10.890625 L 5.515625 -3.546875 C 5.515625 -2.566406 5.691406 -1.835938 6.046875 -1.359375 C 6.398438 -0.878906 7.117188 -0.640625 8.203125 -0.640625 L 8.203125 0 L 0.28125 0 L 0.28125 -0.640625 C 0.914062 -0.640625 1.410156 -0.691406 1.765625 -0.796875 C 2.117188 -0.898438 2.367188 -1.148438 2.515625 -1.546875 C 2.660156 -1.953125 2.734375 -2.585938 2.734375 -3.453125 L 2.734375 -9.359375 C 2.734375 -10.429688 2.71875 -11.222656 2.6875 -11.734375 C 2.65625 -12.253906 2.601562 -12.609375 2.53125 -12.796875 C 2.46875 -12.992188 2.375 -13.160156 2.25 -13.296875 C 1.988281 -13.429688 1.710938 -13.507812 1.421875 -13.53125 C 1.128906 -13.550781 0.75 -13.46875 0.28125 -13.28125 L 0.140625 -13.875 L 4.859375 -15.703125 L 5.515625 -15.703125 L 5.515625 -12.28125 C 6.773438 -14.5625 8.085938 -15.703125 9.453125 -15.703125 Z M 9.453125 -15.703125 "/></g></g></g><g fill="#000000" fill-opacity="1"><g transform="translate(156.623174, 94.25709)"><g><path d="M 3.25 7.390625 C 2.59375 7.390625 2.050781 7.207031 1.625 6.84375 C 1.195312 6.476562 0.984375 6.023438 0.984375 5.484375 C 0.984375 5.035156 1.128906 4.671875 1.421875 4.390625 C 1.710938 4.117188 2.140625 3.984375 2.703125 3.984375 C 3.054688 3.984375 3.457031 4.078125 3.90625 4.265625 C 4.363281 4.460938 4.734375 4.5625 5.015625 4.5625 C 5.441406 4.5625 5.835938 4.347656 6.203125 3.921875 C 6.578125 3.492188 6.90625 2.972656 7.1875 2.359375 C 7.476562 1.753906 7.722656 1.171875 7.921875 0.609375 C 8.128906 0.046875 8.285156 -0.367188 8.390625 -0.640625 L 2.921875 -12.125 C 2.785156 -12.40625 2.609375 -12.726562 2.390625 -13.09375 C 2.179688 -13.46875 1.898438 -13.804688 1.546875 -14.109375 C 1.203125 -14.421875 0.75 -14.601562 0.1875 -14.65625 L 0.1875 -15.265625 L 7.328125 -15.265625 L 7.328125 -14.65625 C 6.078125 -14.65625 5.453125 -14.28125 5.453125 -13.53125 C 5.453125 -13.09375 5.640625 -12.488281 6.015625 -11.71875 L 9.703125 -4.046875 L 13.140625 -12.484375 C 13.304688 -12.785156 13.410156 -13.113281 13.453125 -13.46875 C 13.503906 -13.820312 13.460938 -14.097656 13.328125 -14.296875 C 13.253906 -14.359375 13.144531 -14.429688 13 -14.515625 C 12.863281 -14.609375 12.5 -14.65625 11.90625 -14.65625 L 11.90625 -15.265625 L 16.875 -15.265625 L 16.875 -14.65625 C 16.394531 -14.632812 16.003906 -14.488281 15.703125 -14.21875 C 15.398438 -13.957031 15.035156 -13.335938 14.609375 -12.359375 L 8.390625 2.890625 C 7.816406 4.328125 7.054688 5.4375 6.109375 6.21875 C 5.171875 7 4.21875 7.390625 3.25 7.390625 Z M 3.25 7.390625 "/></g></g></g><g fill="#000000" fill-opacity="1"><g transform="translate(173.70783, 94.25709)"><g/></g></g><g fill="#000000" fill-opacity="1"><g transform="translate(179.452671, 94.25709)"><g><path d="M 29.640625 0 L 20.03125 0 L 20.03125 -0.640625 C 21.03125 -0.640625 21.753906 -0.757812 22.203125 -1 C 22.660156 -1.238281 22.945312 -1.601562 23.0625 -2.09375 C 23.1875 -2.59375 23.25 -3.210938 23.25 -3.953125 L 23.25 -19.015625 L 14.515625 0 L 13.9375 0 L 5.234375 -19.015625 L 5.234375 -3.953125 C 5.234375 -3.046875 5.300781 -2.351562 5.4375 -1.875 C 5.570312 -1.40625 5.867188 -1.082031 6.328125 -0.90625 C 6.785156 -0.726562 7.484375 -0.640625 8.421875 -0.640625 L 8.421875 0 L 0.59375 0 L 0.59375 -0.640625 C 1.582031 -0.640625 2.296875 -0.757812 2.734375 -1 C 3.171875 -1.25 3.445312 -1.617188 3.5625 -2.109375 C 3.675781 -2.609375 3.734375 -3.222656 3.734375 -3.953125 L 3.734375 -18.671875 C 3.734375 -19.960938 3.523438 -20.835938 3.109375 -21.296875 C 2.691406 -21.753906 1.851562 -21.984375 0.59375 -21.984375 L 0.59375 -22.59375 L 6.984375 -22.59375 L 15.171875 -4.9375 L 23.25 -22.59375 L 29.640625 -22.59375 L 29.640625 -21.984375 C 28.648438 -21.984375 27.925781 -21.859375 27.46875 -21.609375 C 27.019531 -21.367188 26.738281 -21 26.625 -20.5 C 26.507812 -20.007812 26.453125 -19.398438 26.453125 -18.671875 L 26.453125 -3.953125 C 26.453125 -3.023438 26.519531 -2.320312 26.65625 -1.84375 C 26.800781 -1.363281 27.101562 -1.039062 27.5625 -0.875 C 28.03125 -0.71875 28.722656 -0.640625 29.640625 -0.640625 Z M 29.640625 0 "/></g></g></g><g fill="#000000" fill-opacity="1"><g transform="translate(209.825394, 94.25709)"><g><path d="M 15.15625 -3.171875 L 15.15625 -2.203125 C 13.90625 -0.546875 12.679688 0.28125 11.484375 0.28125 C 11.003906 0.28125 10.585938 0.109375 10.234375 -0.234375 C 9.878906 -0.578125 9.703125 -1.234375 9.703125 -2.203125 C 8.816406 -1.503906 8.117188 -0.972656 7.609375 -0.609375 C 7.097656 -0.253906 6.644531 -0.0195312 6.25 0.09375 C 5.863281 0.21875 5.398438 0.28125 4.859375 0.28125 C 3.773438 0.28125 2.898438 -0.0703125 2.234375 -0.78125 C 1.566406 -1.488281 1.234375 -2.429688 1.234375 -3.609375 C 1.234375 -4.179688 1.335938 -4.722656 1.546875 -5.234375 C 1.753906 -5.742188 2.148438 -6.253906 2.734375 -6.765625 C 3.328125 -7.273438 4.1875 -7.800781 5.3125 -8.34375 C 6.4375 -8.894531 7.898438 -9.484375 9.703125 -10.109375 L 9.703125 -10.75 C 9.703125 -12.21875 9.472656 -13.242188 9.015625 -13.828125 C 8.554688 -14.410156 7.835938 -14.703125 6.859375 -14.703125 C 6.171875 -14.703125 5.625 -14.484375 5.21875 -14.046875 C 4.820312 -13.609375 4.613281 -12.878906 4.59375 -11.859375 C 4.613281 -11.367188 4.492188 -10.984375 4.234375 -10.703125 C 3.972656 -10.429688 3.632812 -10.296875 3.21875 -10.296875 C 2.28125 -10.296875 1.8125 -10.820312 1.8125 -11.875 C 1.8125 -12.675781 2.070312 -13.363281 2.59375 -13.9375 C 3.125 -14.507812 3.816406 -14.945312 4.671875 -15.25 C 5.523438 -15.550781 6.429688 -15.703125 7.390625 -15.703125 C 8.867188 -15.703125 9.972656 -15.488281 10.703125 -15.0625 C 11.429688 -14.644531 11.914062 -14.046875 12.15625 -13.265625 C 12.394531 -12.492188 12.515625 -11.570312 12.515625 -10.5 L 12.515625 -5.3125 C 12.515625 -4.59375 12.523438 -4.003906 12.546875 -3.546875 C 12.578125 -3.085938 12.597656 -2.78125 12.609375 -2.625 C 12.679688 -2.082031 12.921875 -1.8125 13.328125 -1.8125 C 13.554688 -1.8125 13.757812 -1.882812 13.9375 -2.03125 C 14.113281 -2.175781 14.519531 -2.554688 15.15625 -3.171875 Z M 9.703125 -3.28125 L 9.703125 -9.140625 C 7.992188 -8.472656 6.738281 -7.875 5.9375 -7.34375 C 5.132812 -6.8125 4.617188 -6.304688 4.390625 -5.828125 C 4.160156 -5.359375 4.046875 -4.878906 4.046875 -4.390625 C 4.046875 -3.617188 4.269531 -2.960938 4.71875 -2.421875 C 5.164062 -1.878906 5.710938 -1.609375 6.359375 -1.609375 C 6.796875 -1.578125 7.285156 -1.707031 7.828125 -2 C 8.378906 -2.289062 9.003906 -2.71875 9.703125 -3.28125 Z M 9.703125 -3.28125 "/></g></g></g><g fill="#000000" fill-opacity="1"><g transform="translate(224.995103, 94.25709)"><g><path d="M 9.453125 -15.703125 C 10.078125 -15.703125 10.59375 -15.53125 11 -15.1875 C 11.414062 -14.84375 11.625 -14.40625 11.625 -13.875 C 11.625 -13.476562 11.476562 -13.117188 11.1875 -12.796875 C 10.894531 -12.472656 10.535156 -12.3125 10.109375 -12.3125 C 9.742188 -12.3125 9.429688 -12.410156 9.171875 -12.609375 C 8.910156 -12.804688 8.671875 -13.003906 8.453125 -13.203125 C 8.234375 -13.398438 8.003906 -13.5 7.765625 -13.5 C 7.472656 -13.5 7.128906 -13.265625 6.734375 -12.796875 C 6.335938 -12.335938 5.929688 -11.703125 5.515625 -10.890625 L 5.515625 -3.546875 C 5.515625 -2.566406 5.691406 -1.835938 6.046875 -1.359375 C 6.398438 -0.878906 7.117188 -0.640625 8.203125 -0.640625 L 8.203125 0 L 0.28125 0 L 0.28125 -0.640625 C 0.914062 -0.640625 1.410156 -0.691406 1.765625 -0.796875 C 2.117188 -0.898438 2.367188 -1.148438 2.515625 -1.546875 C 2.660156 -1.953125 2.734375 -2.585938 2.734375 -3.453125 L 2.734375 -9.359375 C 2.734375 -10.429688 2.71875 -11.222656 2.6875 -11.734375 C 2.65625 -12.253906 2.601562 -12.609375 2.53125 -12.796875 C 2.46875 -12.992188 2.375 -13.160156 2.25 -13.296875 C 1.988281 -13.429688 1.710938 -13.507812 1.421875 -13.53125 C 1.128906 -13.550781 0.75 -13.46875 0.28125 -13.28125 L 0.140625 -13.875 L 4.859375 -15.703125 L 5.515625 -15.703125 L 5.515625 -12.28125 C 6.773438 -14.5625 8.085938 -15.703125 9.453125 -15.703125 Z M 9.453125 -15.703125 "/></g></g></g><g fill="#000000" fill-opacity="1"><g transform="translate(236.701268, 94.25709)"><g><path d="M 8.765625 0 L 1.28125 0 L 1.28125 -0.640625 C 2.25 -0.640625 2.878906 -0.796875 3.171875 -1.109375 C 3.460938 -1.421875 3.609375 -2.097656 3.609375 -3.140625 L 3.609375 -11.296875 C 3.609375 -12.023438 3.53125 -12.578125 3.375 -12.953125 C 3.21875 -13.335938 2.914062 -13.53125 2.46875 -13.53125 C 2.320312 -13.53125 2.148438 -13.503906 1.953125 -13.453125 C 1.765625 -13.410156 1.539062 -13.351562 1.28125 -13.28125 L 1.0625 -13.875 L 5.703125 -15.703125 L 6.390625 -15.703125 L 6.390625 -3.140625 C 6.390625 -2.097656 6.539062 -1.421875 6.84375 -1.109375 C 7.15625 -0.796875 7.796875 -0.640625 8.765625 -0.640625 Z M 5.015625 -18.75 C 4.535156 -18.75 4.128906 -18.90625 3.796875 -19.21875 C 3.472656 -19.539062 3.3125 -19.953125 3.3125 -20.453125 C 3.3125 -20.953125 3.476562 -21.351562 3.8125 -21.65625 C 4.15625 -21.96875 4.554688 -22.125 5.015625 -22.125 C 5.484375 -22.125 5.878906 -21.960938 6.203125 -21.640625 C 6.523438 -21.328125 6.6875 -20.929688 6.6875 -20.453125 C 6.6875 -19.984375 6.53125 -19.582031 6.21875 -19.25 C 5.90625 -18.914062 5.503906 -18.75 5.015625 -18.75 Z M 5.015625 -18.75 "/></g></g></g><g fill="#000000" fill-opacity="1"><g transform="translate(246.192721, 94.25709)"><g><path d="M 15.15625 -3.171875 L 15.15625 -2.203125 C 13.90625 -0.546875 12.679688 0.28125 11.484375 0.28125 C 11.003906 0.28125 10.585938 0.109375 10.234375 -0.234375 C 9.878906 -0.578125 9.703125 -1.234375 9.703125 -2.203125 C 8.816406 -1.503906 8.117188 -0.972656 7.609375 -0.609375 C 7.097656 -0.253906 6.644531 -0.0195312 6.25 0.09375 C 5.863281 0.21875 5.398438 0.28125 4.859375 0.28125 C 3.773438 0.28125 2.898438 -0.0703125 2.234375 -0.78125 C 1.566406 -1.488281 1.234375 -2.429688 1.234375 -3.609375 C 1.234375 -4.179688 1.335938 -4.722656 1.546875 -5.234375 C 1.753906 -5.742188 2.148438 -6.253906 2.734375 -6.765625 C 3.328125 -7.273438 4.1875 -7.800781 5.3125 -8.34375 C 6.4375 -8.894531 7.898438 -9.484375 9.703125 -10.109375 L 9.703125 -10.75 C 9.703125 -12.21875 9.472656 -13.242188 9.015625 -13.828125 C 8.554688 -14.410156 7.835938 -14.703125 6.859375 -14.703125 C 6.171875 -14.703125 5.625 -14.484375 5.21875 -14.046875 C 4.820312 -13.609375 4.613281 -12.878906 4.59375 -11.859375 C 4.613281 -11.367188 4.492188 -10.984375 4.234375 -10.703125 C 3.972656 -10.429688 3.632812 -10.296875 3.21875 -10.296875 C 2.28125 -10.296875 1.8125 -10.820312 1.8125 -11.875 C 1.8125 -12.675781 2.070312 -13.363281 2.59375 -13.9375 C 3.125 -14.507812 3.816406 -14.945312 4.671875 -15.25 C 5.523438 -15.550781 6.429688 -15.703125 7.390625 -15.703125 C 8.867188 -15.703125 9.972656 -15.488281 10.703125 -15.0625 C 11.429688 -14.644531 11.914062 -14.046875 12.15625 -13.265625 C 12.394531 -12.492188 12.515625 -11.570312 12.515625 -10.5 L 12.515625 -5.3125 C 12.515625 -4.59375 12.523438 -4.003906 12.546875 -3.546875 C 12.578125 -3.085938 12.597656 -2.78125 12.609375 -2.625 C 12.679688 -2.082031 12.921875 -1.8125 13.328125 -1.8125 C 13.554688 -1.8125 13.757812 -1.882812 13.9375 -2.03125 C 14.113281 -2.175781 14.519531 -2.554688 15.15625 -3.171875 Z M 9.703125 -3.28125 L 9.703125 -9.140625 C 7.992188 -8.472656 6.738281 -7.875 5.9375 -7.34375 C 5.132812 -6.8125 4.617188 -6.304688 4.390625 -5.828125 C 4.160156 -5.359375 4.046875 -4.878906 4.046875 -4.390625 C 4.046875 -3.617188 4.269531 -2.960938 4.71875 -2.421875 C 5.164062 -1.878906 5.710938 -1.609375 6.359375 -1.609375 C 6.796875 -1.578125 7.285156 -1.707031 7.828125 -2 C 8.378906 -2.289062 9.003906 -2.71875 9.703125 -3.28125 Z M 9.703125 -3.28125 "/></g></g></g><g fill="#000000" fill-opacity="1"><g transform="translate(261.362442, 94.25709)"><g><path d="M 0.4375 0 L 0.4375 -0.640625 C 1.382812 -0.640625 2.003906 -0.816406 2.296875 -1.171875 C 2.585938 -1.523438 2.734375 -2.285156 2.734375 -3.453125 L 2.734375 -9.140625 C 2.734375 -10.335938 2.710938 -11.210938 2.671875 -11.765625 C 2.640625 -12.328125 2.585938 -12.703125 2.515625 -12.890625 C 2.453125 -13.078125 2.363281 -13.210938 2.25 -13.296875 C 1.863281 -13.617188 1.257812 -13.613281 0.4375 -13.28125 L 0.171875 -13.875 L 4.828125 -15.703125 L 5.515625 -15.703125 L 5.515625 -12.515625 C 7.335938 -14.640625 9.046875 -15.703125 10.640625 -15.703125 C 12.128906 -15.703125 13.171875 -15.179688 13.765625 -14.140625 C 14.359375 -13.097656 14.65625 -11.71875 14.65625 -10 L 14.65625 -3.453125 C 14.65625 -2.316406 14.789062 -1.5625 15.0625 -1.1875 C 15.34375 -0.820312 15.988281 -0.640625 17 -0.640625 L 17 0 L 9.359375 0 L 9.359375 -0.640625 C 10.128906 -0.640625 10.6875 -0.707031 11.03125 -0.84375 C 11.382812 -0.988281 11.609375 -1.265625 11.703125 -1.671875 C 11.804688 -2.078125 11.859375 -2.671875 11.859375 -3.453125 L 11.859375 -9.671875 C 11.859375 -11.078125 11.679688 -12.09375 11.328125 -12.71875 C 10.984375 -13.34375 10.359375 -13.65625 9.453125 -13.65625 C 8.828125 -13.65625 8.179688 -13.476562 7.515625 -13.125 C 6.847656 -12.78125 6.179688 -12.234375 5.515625 -11.484375 L 5.515625 -3.453125 C 5.515625 -2.660156 5.566406 -2.0625 5.671875 -1.65625 C 5.785156 -1.25 6.019531 -0.976562 6.375 -0.84375 C 6.726562 -0.707031 7.273438 -0.640625 8.015625 -0.640625 L 8.015625 0 Z M 0.4375 0 "/></g></g></g><g fill="#000000" fill-opacity="1"><g transform="translate(278.447099, 94.25709)"><g><path d="M 8.375 0.5 C 6.945312 0.5 5.6875 0.128906 4.59375 -0.609375 C 3.507812 -1.359375 2.664062 -2.335938 2.0625 -3.546875 C 1.457031 -4.765625 1.15625 -6.082031 1.15625 -7.5 C 1.15625 -8.875 1.453125 -10.1875 2.046875 -11.4375 C 2.640625 -12.6875 3.488281 -13.707031 4.59375 -14.5 C 5.695312 -15.300781 7.007812 -15.703125 8.53125 -15.703125 C 10.007812 -15.703125 11.296875 -15.359375 12.390625 -14.671875 C 13.492188 -13.984375 14.351562 -13.050781 14.96875 -11.875 C 15.582031 -10.695312 15.890625 -9.375 15.890625 -7.90625 C 15.890625 -6.9375 15.734375 -5.953125 15.421875 -4.953125 C 15.109375 -3.960938 14.640625 -3.054688 14.015625 -2.234375 C 13.398438 -1.410156 12.617188 -0.75 11.671875 -0.25 C 10.734375 0.25 9.632812 0.5 8.375 0.5 Z M 9.0625 -0.71875 C 10.1875 -0.71875 11.085938 -1.15625 11.765625 -2.03125 C 12.441406 -2.914062 12.78125 -4.445312 12.78125 -6.625 C 12.78125 -8.132812 12.582031 -9.492188 12.1875 -10.703125 C 11.800781 -11.921875 11.253906 -12.882812 10.546875 -13.59375 C 9.835938 -14.300781 8.992188 -14.65625 8.015625 -14.65625 C 7.429688 -14.65625 6.847656 -14.476562 6.265625 -14.125 C 5.679688 -13.78125 5.195312 -13.1875 4.8125 -12.34375 C 4.425781 -11.5 4.234375 -10.335938 4.234375 -8.859375 C 4.234375 -7.398438 4.429688 -6.050781 4.828125 -4.8125 C 5.222656 -3.582031 5.785156 -2.59375 6.515625 -1.84375 C 7.242188 -1.09375 8.09375 -0.71875 9.0625 -0.71875 Z M 9.0625 -0.71875 "/></g></g></g></g></g></g></g></g></g></mask><clipPath id="99e8b03364"><path d="M 0.886719 0 L 326.109375 0 L 326.109375 136.503906 L 0.886719 136.503906 Z M 0.886719 0 " clip-rule="nonzero"/></clipPath><clipPath id="e06aa63b11"><rect x="0" width="327" y="0" height="137"/></clipPath><clipPath id="e3bf70ab2e"><rect x="0" width="327" y="0" height="137"/></clipPath><clipPath id="c216b695fb"><path d="M 42.167969 56.277344 L 284.59375 56.277344 L 284.59375 136.503906 L 42.167969 136.503906 Z M 42.167969 56.277344 " clip-rule="nonzero"/></clipPath><clipPath id="c8c2eb5439"><path d="M 0.167969 0.277344 L 242.59375 0.277344 L 242.59375 80.503906 L 0.167969 80.503906 Z M 0.167969 0.277344 " clip-rule="nonzero"/></clipPath><clipPath id="a2029c4ce9"><path d="M 0.167969 0.277344 L 242.589844 0.277344 L 242.589844 80.503906 L 0.167969 80.503906 Z M 0.167969 0.277344 " clip-rule="nonzero"/></clipPath><linearGradient x1="111.171997" gradientTransform="matrix(0.745628, 0, 0, 0.741215, 38.486966, 38.41008)" y1="-51.447742" x2="111.171997" gradientUnits="userSpaceOnUse" y2="56.790514" id="81799e9900"><stop stop-opacity="1" stop-color="rgb(100%, 85.488892%, 41.569519%)" offset="0"/><stop stop-opacity="1" stop-color="rgb(100%, 85.488892%, 41.569519%)" offset="0.25"/><stop stop-opacity="1" stop-color="rgb(100%, 85.488892%, 41.569519%)" offset="0.3125"/><stop stop-opacity="1" stop-color="rgb(100%, 85.488892%, 41.569519%)" offset="0.34375"/><stop stop-opacity="1" stop-color="rgb(100%, 85.53009%, 41.737366%)" offset="0.359375"/><stop stop-opacity="1" stop-color="rgb(100%, 85.652161%, 42.219543%)" offset="0.363281"/><stop stop-opacity="1" stop-color="rgb(100%, 85.731506%, 42.5354%)" offset="0.367188"/><stop stop-opacity="1" stop-color="rgb(100%, 85.809326%, 42.849731%)" offset="0.371094"/><stop stop-opacity="1" stop-color="rgb(100%, 85.888672%, 43.165588%)" offset="0.375"/><stop stop-opacity="1" stop-color="rgb(100%, 85.966492%, 43.481445%)" offset="0.378906"/><stop stop-opacity="1" stop-color="rgb(100%, 86.045837%, 43.797302%)" offset="0.382812"/><stop stop-opacity="1" stop-color="rgb(100%, 86.123657%, 44.111633%)" offset="0.386719"/><stop stop-opacity="1" stop-color="rgb(100%, 86.203003%, 44.42749%)" offset="0.390625"/><stop stop-opacity="1" stop-color="rgb(100%, 86.282349%, 44.741821%)" offset="0.394531"/><stop stop-opacity="1" stop-color="rgb(100%, 86.361694%, 45.057678%)" offset="0.398438"/><stop stop-opacity="1" stop-color="rgb(100%, 86.439514%, 45.373535%)" offset="0.402344"/><stop stop-opacity="1" stop-color="rgb(100%, 86.51886%, 45.689392%)" offset="0.40625"/><stop stop-opacity="1" stop-color="rgb(100%, 86.59668%, 46.003723%)" offset="0.410156"/><stop stop-opacity="1" stop-color="rgb(100%, 86.676025%, 46.31958%)" offset="0.414062"/><stop stop-opacity="1" stop-color="rgb(100%, 86.755371%, 46.633911%)" offset="0.417969"/><stop stop-opacity="1" stop-color="rgb(100%, 86.834717%, 46.949768%)" offset="0.421875"/><stop stop-opacity="1" stop-color="rgb(100%, 86.912537%, 47.264099%)" offset="0.425781"/><stop stop-opacity="1" stop-color="rgb(100%, 86.991882%, 47.579956%)" offset="0.429688"/><stop stop-opacity="1" stop-color="rgb(100%, 87.069702%, 47.895813%)" offset="0.433594"/><stop stop-opacity="1" stop-color="rgb(100%, 87.149048%, 48.21167%)" offset="0.4375"/><stop stop-opacity="1" stop-color="rgb(100%, 87.226868%, 48.526001%)" offset="0.441406"/><stop stop-opacity="1" stop-color="rgb(100%, 87.306213%, 48.841858%)" offset="0.445312"/><stop stop-opacity="1" stop-color="rgb(100%, 87.385559%, 49.156189%)" offset="0.449219"/><stop stop-opacity="1" stop-color="rgb(100%, 87.464905%, 49.472046%)" offset="0.453125"/><stop stop-opacity="1" stop-color="rgb(100%, 87.542725%, 49.786377%)" offset="0.457031"/><stop stop-opacity="1" stop-color="rgb(100%, 87.62207%, 50.102234%)" offset="0.460937"/><stop stop-opacity="1" stop-color="rgb(100%, 87.69989%, 50.418091%)" offset="0.464844"/><stop stop-opacity="1" stop-color="rgb(100%, 87.779236%, 50.733948%)" offset="0.46875"/><stop stop-opacity="1" stop-color="rgb(100%, 87.858582%, 51.048279%)" offset="0.472656"/><stop stop-opacity="1" stop-color="rgb(100%, 87.937927%, 51.364136%)" offset="0.476562"/><stop stop-opacity="1" stop-color="rgb(100%, 88.015747%, 51.678467%)" offset="0.480469"/><stop stop-opacity="1" stop-color="rgb(100%, 88.095093%, 51.994324%)" offset="0.484375"/><stop stop-opacity="1" stop-color="rgb(100%, 88.172913%, 52.310181%)" offset="0.488281"/><stop stop-opacity="1" stop-color="rgb(100%, 88.252258%, 52.626038%)" offset="0.492188"/><stop stop-opacity="1" stop-color="rgb(100%, 88.331604%, 52.940369%)" offset="0.496094"/><stop stop-opacity="1" stop-color="rgb(100%, 88.41095%, 53.256226%)" offset="0.5"/><stop stop-opacity="1" stop-color="rgb(100%, 88.48877%, 53.570557%)" offset="0.503906"/><stop stop-opacity="1" stop-color="rgb(100%, 88.568115%, 53.886414%)" offset="0.507812"/><stop stop-opacity="1" stop-color="rgb(100%, 88.645935%, 54.200745%)" offset="0.511719"/><stop stop-opacity="1" stop-color="rgb(100%, 88.725281%, 54.516602%)" offset="0.515625"/><stop stop-opacity="1" stop-color="rgb(100%, 88.803101%, 54.832458%)" offset="0.519531"/><stop stop-opacity="1" stop-color="rgb(100%, 88.882446%, 55.148315%)" offset="0.523438"/><stop stop-opacity="1" stop-color="rgb(100%, 88.961792%, 55.462646%)" offset="0.527344"/><stop stop-opacity="1" stop-color="rgb(100%, 89.041138%, 55.778503%)" offset="0.53125"/><stop stop-opacity="1" stop-color="rgb(100%, 89.118958%, 56.092834%)" offset="0.535156"/><stop stop-opacity="1" stop-color="rgb(100%, 89.198303%, 56.408691%)" offset="0.539062"/><stop stop-opacity="1" stop-color="rgb(100%, 89.276123%, 56.723022%)" offset="0.542969"/><stop stop-opacity="1" stop-color="rgb(100%, 89.355469%, 57.038879%)" offset="0.546875"/><stop stop-opacity="1" stop-color="rgb(100%, 89.434814%, 57.354736%)" offset="0.550781"/><stop stop-opacity="1" stop-color="rgb(100%, 89.51416%, 57.670593%)" offset="0.554688"/><stop stop-opacity="1" stop-color="rgb(100%, 89.59198%, 57.984924%)" offset="0.558594"/><stop stop-opacity="1" stop-color="rgb(100%, 89.671326%, 58.300781%)" offset="0.5625"/><stop stop-opacity="1" stop-color="rgb(100%, 89.749146%, 58.615112%)" offset="0.566406"/><stop stop-opacity="1" stop-color="rgb(100%, 89.828491%, 58.930969%)" offset="0.570312"/><stop stop-opacity="1" stop-color="rgb(100%, 89.907837%, 59.246826%)" offset="0.574219"/><stop stop-opacity="1" stop-color="rgb(100%, 89.987183%, 59.562683%)" offset="0.578125"/><stop stop-opacity="1" stop-color="rgb(100%, 90.065002%, 59.877014%)" offset="0.582031"/><stop stop-opacity="1" stop-color="rgb(100%, 90.144348%, 60.192871%)" offset="0.585938"/><stop stop-opacity="1" stop-color="rgb(100%, 90.222168%, 60.507202%)" offset="0.589844"/><stop stop-opacity="1" stop-color="rgb(100%, 90.301514%, 60.823059%)" offset="0.59375"/><stop stop-opacity="1" stop-color="rgb(100%, 90.379333%, 61.13739%)" offset="0.597656"/><stop stop-opacity="1" stop-color="rgb(100%, 90.458679%, 61.453247%)" offset="0.601562"/><stop stop-opacity="1" stop-color="rgb(100%, 90.538025%, 61.769104%)" offset="0.605469"/><stop stop-opacity="1" stop-color="rgb(100%, 90.617371%, 62.084961%)" offset="0.609375"/><stop stop-opacity="1" stop-color="rgb(100%, 90.69519%, 62.399292%)" offset="0.613281"/><stop stop-opacity="1" stop-color="rgb(100%, 90.774536%, 62.715149%)" offset="0.617188"/><stop stop-opacity="1" stop-color="rgb(100%, 90.852356%, 63.02948%)" offset="0.621094"/><stop stop-opacity="1" stop-color="rgb(100%, 90.931702%, 63.345337%)" offset="0.625"/><stop stop-opacity="1" stop-color="rgb(100%, 91.011047%, 63.659668%)" offset="0.628906"/><stop stop-opacity="1" stop-color="rgb(100%, 91.090393%, 63.975525%)" offset="0.632812"/><stop stop-opacity="1" stop-color="rgb(100%, 91.168213%, 64.291382%)" offset="0.636719"/><stop stop-opacity="1" stop-color="rgb(100%, 91.247559%, 64.607239%)" offset="0.640625"/><stop stop-opacity="1" stop-color="rgb(100%, 91.325378%, 64.92157%)" offset="0.644531"/><stop stop-opacity="1" stop-color="rgb(100%, 91.404724%, 65.237427%)" offset="0.648438"/><stop stop-opacity="1" stop-color="rgb(100%, 91.482544%, 65.551758%)" offset="0.652344"/><stop stop-opacity="1" stop-color="rgb(100%, 91.56189%, 65.867615%)" offset="0.65625"/><stop stop-opacity="1" stop-color="rgb(100%, 91.641235%, 66.183472%)" offset="0.660156"/><stop stop-opacity="1" stop-color="rgb(100%, 91.720581%, 66.499329%)" offset="0.664062"/><stop stop-opacity="1" stop-color="rgb(100%, 91.798401%, 66.81366%)" offset="0.667969"/><stop stop-opacity="1" stop-color="rgb(100%, 91.877747%, 67.129517%)" offset="0.671875"/><stop stop-opacity="1" stop-color="rgb(100%, 91.955566%, 67.443848%)" offset="0.675781"/><stop stop-opacity="1" stop-color="rgb(100%, 92.034912%, 67.759705%)" offset="0.679688"/><stop stop-opacity="1" stop-color="rgb(100%, 92.114258%, 68.074036%)" offset="0.683594"/><stop stop-opacity="1" stop-color="rgb(100%, 92.193604%, 68.389893%)" offset="0.6875"/><stop stop-opacity="1" stop-color="rgb(100%, 92.271423%, 68.70575%)" offset="0.691406"/><stop stop-opacity="1" stop-color="rgb(100%, 92.350769%, 69.021606%)" offset="0.695313"/><stop stop-opacity="1" stop-color="rgb(100%, 92.428589%, 69.335938%)" offset="0.699219"/><stop stop-opacity="1" stop-color="rgb(100%, 92.507935%, 69.651794%)" offset="0.703125"/><stop stop-opacity="1" stop-color="rgb(100%, 92.58728%, 69.966125%)" offset="0.707031"/><stop stop-opacity="1" stop-color="rgb(100%, 92.666626%, 70.281982%)" offset="0.710938"/><stop stop-opacity="1" stop-color="rgb(100%, 92.744446%, 70.596313%)" offset="0.714844"/><stop stop-opacity="1" stop-color="rgb(100%, 92.823792%, 70.91217%)" offset="0.71875"/><stop stop-opacity="1" stop-color="rgb(100%, 92.901611%, 71.228027%)" offset="0.722656"/><stop stop-opacity="1" stop-color="rgb(100%, 92.980957%, 71.543884%)" offset="0.726562"/><stop stop-opacity="1" stop-color="rgb(100%, 93.058777%, 71.858215%)" offset="0.730469"/><stop stop-opacity="1" stop-color="rgb(100%, 93.138123%, 72.174072%)" offset="0.734375"/><stop stop-opacity="1" stop-color="rgb(100%, 93.217468%, 72.488403%)" offset="0.738281"/><stop stop-opacity="1" stop-color="rgb(100%, 93.296814%, 72.80426%)" offset="0.742188"/><stop stop-opacity="1" stop-color="rgb(100%, 93.374634%, 73.120117%)" offset="0.746094"/><stop stop-opacity="1" stop-color="rgb(100%, 93.453979%, 73.435974%)" offset="0.75"/><stop stop-opacity="1" stop-color="rgb(100%, 93.531799%, 73.750305%)" offset="0.753906"/><stop stop-opacity="1" stop-color="rgb(100%, 93.611145%, 74.066162%)" offset="0.757812"/><stop stop-opacity="1" stop-color="rgb(100%, 93.690491%, 74.380493%)" offset="0.761719"/><stop stop-opacity="1" stop-color="rgb(100%, 93.769836%, 74.69635%)" offset="0.765625"/><stop stop-opacity="1" stop-color="rgb(100%, 93.847656%, 75.010681%)" offset="0.769531"/><stop stop-opacity="1" stop-color="rgb(100%, 93.927002%, 75.326538%)" offset="0.773438"/><stop stop-opacity="1" stop-color="rgb(100%, 94.004822%, 75.642395%)" offset="0.777344"/><stop stop-opacity="1" stop-color="rgb(100%, 94.084167%, 75.958252%)" offset="0.78125"/><stop stop-opacity="1" stop-color="rgb(100%, 94.161987%, 76.272583%)" offset="0.785156"/><stop stop-opacity="1" stop-color="rgb(100%, 94.241333%, 76.58844%)" offset="0.789062"/><stop stop-opacity="1" stop-color="rgb(100%, 94.320679%, 76.902771%)" offset="0.792969"/><stop stop-opacity="1" stop-color="rgb(100%, 94.400024%, 77.218628%)" offset="0.796875"/><stop stop-opacity="1" stop-color="rgb(100%, 94.477844%, 77.532959%)" offset="0.800781"/><stop stop-opacity="1" stop-color="rgb(100%, 94.55719%, 77.848816%)" offset="0.804688"/><stop stop-opacity="1" stop-color="rgb(100%, 94.63501%, 78.164673%)" offset="0.808594"/><stop stop-opacity="1" stop-color="rgb(100%, 94.714355%, 78.48053%)" offset="0.8125"/><stop stop-opacity="1" stop-color="rgb(100%, 94.793701%, 78.794861%)" offset="0.816406"/><stop stop-opacity="1" stop-color="rgb(100%, 94.873047%, 79.110718%)" offset="0.820312"/><stop stop-opacity="1" stop-color="rgb(100%, 94.950867%, 79.425049%)" offset="0.824219"/><stop stop-opacity="1" stop-color="rgb(100%, 95.030212%, 79.740906%)" offset="0.828125"/><stop stop-opacity="1" stop-color="rgb(100%, 95.108032%, 80.056763%)" offset="0.832031"/><stop stop-opacity="1" stop-color="rgb(100%, 95.187378%, 80.37262%)" offset="0.835938"/><stop stop-opacity="1" stop-color="rgb(100%, 95.266724%, 80.686951%)" offset="0.839844"/><stop stop-opacity="1" stop-color="rgb(100%, 95.346069%, 81.002808%)" offset="0.84375"/><stop stop-opacity="1" stop-color="rgb(100%, 95.423889%, 81.317139%)" offset="0.847656"/><stop stop-opacity="1" stop-color="rgb(100%, 95.503235%, 81.632996%)" offset="0.851562"/><stop stop-opacity="1" stop-color="rgb(100%, 95.581055%, 81.947327%)" offset="0.855469"/><stop stop-opacity="1" stop-color="rgb(100%, 95.6604%, 82.263184%)" offset="0.859375"/><stop stop-opacity="1" stop-color="rgb(100%, 95.73822%, 82.579041%)" offset="0.863281"/><stop stop-opacity="1" stop-color="rgb(100%, 95.817566%, 82.894897%)" offset="0.867188"/><stop stop-opacity="1" stop-color="rgb(100%, 95.896912%, 83.209229%)" offset="0.871094"/><stop stop-opacity="1" stop-color="rgb(100%, 95.976257%, 83.525085%)" offset="0.875"/><stop stop-opacity="1" stop-color="rgb(100%, 96.054077%, 83.839417%)" offset="0.878906"/><stop stop-opacity="1" stop-color="rgb(100%, 96.133423%, 84.155273%)" offset="0.882813"/><stop stop-opacity="1" stop-color="rgb(100%, 96.211243%, 84.469604%)" offset="0.886719"/><stop stop-opacity="1" stop-color="rgb(100%, 96.290588%, 84.785461%)" offset="0.890625"/><stop stop-opacity="1" stop-color="rgb(100%, 96.369934%, 85.101318%)" offset="0.894531"/><stop stop-opacity="1" stop-color="rgb(100%, 96.44928%, 85.417175%)" offset="0.898438"/><stop stop-opacity="1" stop-color="rgb(100%, 96.5271%, 85.731506%)" offset="0.902344"/><stop stop-opacity="1" stop-color="rgb(100%, 96.606445%, 86.047363%)" offset="0.90625"/><stop stop-opacity="1" stop-color="rgb(100%, 96.684265%, 86.361694%)" offset="0.910156"/><stop stop-opacity="1" stop-color="rgb(100%, 96.763611%, 86.677551%)" offset="0.914062"/><stop stop-opacity="1" stop-color="rgb(100%, 96.810913%, 86.868286%)" offset="0.921875"/><stop stop-opacity="1" stop-color="rgb(100%, 96.859741%, 87.059021%)" offset="0.9375"/><stop stop-opacity="1" stop-color="rgb(100%, 96.859741%, 87.059021%)" offset="1"/></linearGradient><clipPath id="ddeb31a5d1"><rect x="0" width="243" y="0" height="81"/></clipPath><clipPath id="f93d39274c"><path d="M 0.167969 0.277344 L 242.59375 0.277344 L 242.59375 80.503906 L 0.167969 80.503906 Z M 0.167969 0.277344 " clip-rule="nonzero"/></clipPath><clipPath id="d8fcd13a28"><rect x="0" width="243" y="0" height="81"/></clipPath><clipPath id="971be25378"><rect x="0" width="243" y="0" height="81"/></clipPath><mask id="b629f2f79d"><g filter="url(#6e9a4b3f87)"><g transform="matrix(1, 0, 0, 1, -0.000000000000007105, -0.000000000000007105)"><g clip-path="url(#971be25378)"><g clip-path="url(#f93d39274c)"><g transform="matrix(1, 0, 0, 1, -0.000000000000007105, -0.000000000000007105)"><g clip-path="url(#d8fcd13a28)"><g fill="#000000" fill-opacity="1"><g transform="translate(38.244008, 61.441994)"><g><path d="M 0.6875 -6.15625 C 0.6875 -7.082031 0.835938 -7.957031 1.140625 -8.78125 C 1.453125 -9.601562 1.890625 -10.332031 2.453125 -10.96875 C 3.023438 -11.601562 3.707031 -12.097656 4.5 -12.453125 C 5.300781 -12.816406 6.191406 -13 7.171875 -13 C 7.816406 -13 8.359375 -12.925781 8.796875 -12.78125 C 9.234375 -12.632812 9.582031 -12.484375 9.84375 -12.328125 C 10.113281 -12.179688 10.3125 -12.109375 10.4375 -12.109375 C 10.820312 -12.109375 11.082031 -12.40625 11.21875 -13 L 11.5625 -13 L 11.84375 -8.671875 L 11.5625 -8.671875 C 11.175781 -9.984375 10.617188 -10.921875 9.890625 -11.484375 C 9.160156 -12.054688 8.300781 -12.34375 7.3125 -12.34375 C 6.445312 -12.34375 5.675781 -12.117188 5 -11.671875 C 4.320312 -11.222656 3.785156 -10.539062 3.390625 -9.625 C 3.003906 -8.707031 2.8125 -7.550781 2.8125 -6.15625 C 2.8125 -4.332031 3.25 -2.9375 4.125 -1.96875 C 5.007812 -1.007812 6.164062 -0.53125 7.59375 -0.53125 C 8.144531 -0.53125 8.648438 -0.601562 9.109375 -0.75 C 9.566406 -0.894531 10.015625 -1.15625 10.453125 -1.53125 C 10.890625 -1.914062 11.351562 -2.460938 11.84375 -3.171875 L 12.125 -2.984375 C 11.507812 -1.867188 10.773438 -1.039062 9.921875 -0.5 C 9.078125 0.03125 8.0625 0.296875 6.875 0.296875 C 5.894531 0.296875 5.019531 0.125 4.25 -0.21875 C 3.488281 -0.5625 2.84375 -1.03125 2.3125 -1.625 C 1.78125 -2.226562 1.375 -2.921875 1.09375 -3.703125 C 0.820312 -4.484375 0.6875 -5.300781 0.6875 -6.15625 Z M 0.6875 -6.15625 "/></g></g></g><g fill="#000000" fill-opacity="1"><g transform="translate(51.050689, 61.441994)"><g><path d="M 4.703125 0.28125 C 3.898438 0.28125 3.191406 0.0703125 2.578125 -0.34375 C 1.972656 -0.757812 1.5 -1.3125 1.15625 -2 C 0.8125 -2.6875 0.640625 -3.425781 0.640625 -4.21875 C 0.640625 -4.988281 0.804688 -5.722656 1.140625 -6.421875 C 1.472656 -7.128906 1.953125 -7.707031 2.578125 -8.15625 C 3.203125 -8.601562 3.941406 -8.828125 4.796875 -8.828125 C 5.617188 -8.828125 6.335938 -8.632812 6.953125 -8.25 C 7.578125 -7.863281 8.0625 -7.335938 8.40625 -6.671875 C 8.757812 -6.015625 8.9375 -5.273438 8.9375 -4.453125 C 8.9375 -3.898438 8.847656 -3.34375 8.671875 -2.78125 C 8.492188 -2.226562 8.226562 -1.71875 7.875 -1.25 C 7.53125 -0.789062 7.09375 -0.421875 6.5625 -0.140625 C 6.03125 0.140625 5.410156 0.28125 4.703125 0.28125 Z M 5.09375 -0.40625 C 5.71875 -0.40625 6.222656 -0.648438 6.609375 -1.140625 C 6.992188 -1.640625 7.1875 -2.5 7.1875 -3.71875 C 7.1875 -4.570312 7.078125 -5.335938 6.859375 -6.015625 C 6.640625 -6.703125 6.328125 -7.242188 5.921875 -7.640625 C 5.523438 -8.035156 5.050781 -8.234375 4.5 -8.234375 C 4.175781 -8.234375 3.847656 -8.132812 3.515625 -7.9375 C 3.191406 -7.738281 2.921875 -7.398438 2.703125 -6.921875 C 2.484375 -6.453125 2.375 -5.804688 2.375 -4.984375 C 2.375 -4.160156 2.484375 -3.398438 2.703125 -2.703125 C 2.929688 -2.015625 3.25 -1.457031 3.65625 -1.03125 C 4.070312 -0.613281 4.550781 -0.40625 5.09375 -0.40625 Z M 5.09375 -0.40625 "/></g></g></g><g fill="#000000" fill-opacity="1"><g transform="translate(60.655699, 61.441994)"><g><path d="M 0.25 0 L 0.25 -0.359375 C 0.78125 -0.359375 1.125 -0.457031 1.28125 -0.65625 C 1.445312 -0.851562 1.53125 -1.28125 1.53125 -1.9375 L 1.53125 -5.140625 C 1.53125 -5.816406 1.519531 -6.3125 1.5 -6.625 C 1.488281 -6.9375 1.460938 -7.144531 1.421875 -7.25 C 1.378906 -7.351562 1.328125 -7.425781 1.265625 -7.46875 C 1.046875 -7.644531 0.707031 -7.640625 0.25 -7.453125 L 0.09375 -7.796875 L 2.71875 -8.828125 L 3.09375 -8.828125 L 3.09375 -7.03125 C 4.125 -8.226562 5.085938 -8.828125 5.984375 -8.828125 C 6.816406 -8.828125 7.398438 -8.53125 7.734375 -7.9375 C 8.066406 -7.351562 8.234375 -6.578125 8.234375 -5.609375 L 8.234375 -1.9375 C 8.234375 -1.300781 8.3125 -0.878906 8.46875 -0.671875 C 8.625 -0.460938 8.988281 -0.359375 9.5625 -0.359375 L 9.5625 0 L 5.265625 0 L 5.265625 -0.359375 C 5.691406 -0.359375 6.003906 -0.394531 6.203125 -0.46875 C 6.398438 -0.550781 6.523438 -0.707031 6.578125 -0.9375 C 6.640625 -1.164062 6.671875 -1.5 6.671875 -1.9375 L 6.671875 -5.4375 C 6.671875 -6.226562 6.570312 -6.796875 6.375 -7.140625 C 6.175781 -7.492188 5.820312 -7.671875 5.3125 -7.671875 C 4.957031 -7.671875 4.59375 -7.570312 4.21875 -7.375 C 3.84375 -7.1875 3.46875 -6.878906 3.09375 -6.453125 L 3.09375 -1.9375 C 3.09375 -1.488281 3.125 -1.148438 3.1875 -0.921875 C 3.25 -0.703125 3.378906 -0.550781 3.578125 -0.46875 C 3.785156 -0.394531 4.09375 -0.359375 4.5 -0.359375 L 4.5 0 Z M 0.25 0 "/></g></g></g><g fill="#000000" fill-opacity="1"><g transform="translate(70.260709, 61.441994)"><g><path d="M 6.8125 -2.15625 C 6.8125 -1.71875 6.675781 -1.3125 6.40625 -0.9375 C 6.132812 -0.570312 5.78125 -0.273438 5.34375 -0.046875 C 4.90625 0.171875 4.4375 0.28125 3.9375 0.28125 C 3.46875 0.28125 3.035156 0.191406 2.640625 0.015625 C 2.242188 -0.160156 1.90625 -0.265625 1.625 -0.296875 C 1.550781 -0.296875 1.484375 -0.242188 1.421875 -0.140625 C 1.367188 -0.046875 1.328125 0.0390625 1.296875 0.125 L 0.984375 0.125 L 0.984375 -2.9375 L 1.296875 -2.9375 C 1.453125 -2.070312 1.78125 -1.414062 2.28125 -0.96875 C 2.78125 -0.519531 3.332031 -0.296875 3.9375 -0.296875 C 4.394531 -0.296875 4.753906 -0.421875 5.015625 -0.671875 C 5.273438 -0.929688 5.40625 -1.226562 5.40625 -1.5625 C 5.414062 -1.957031 5.316406 -2.289062 5.109375 -2.5625 C 4.898438 -2.84375 4.625 -3.082031 4.28125 -3.28125 C 3.9375 -3.476562 3.570312 -3.671875 3.1875 -3.859375 C 2.8125 -4.054688 2.453125 -4.269531 2.109375 -4.5 C 1.765625 -4.726562 1.484375 -5.003906 1.265625 -5.328125 C 1.046875 -5.648438 0.9375 -6.050781 0.9375 -6.53125 C 0.9375 -7.164062 1.175781 -7.707031 1.65625 -8.15625 C 2.144531 -8.601562 2.832031 -8.828125 3.71875 -8.828125 C 4.113281 -8.828125 4.488281 -8.769531 4.84375 -8.65625 C 5.195312 -8.539062 5.445312 -8.484375 5.59375 -8.484375 C 5.6875 -8.484375 5.757812 -8.503906 5.8125 -8.546875 C 5.875 -8.585938 5.941406 -8.679688 6.015625 -8.828125 L 6.328125 -8.828125 L 6.328125 -5.890625 L 6.015625 -5.890625 C 5.804688 -6.828125 5.5 -7.457031 5.09375 -7.78125 C 4.6875 -8.113281 4.222656 -8.28125 3.703125 -8.28125 C 3.128906 -8.28125 2.707031 -8.175781 2.4375 -7.96875 C 2.175781 -7.769531 2.039062 -7.503906 2.03125 -7.171875 C 2.019531 -6.804688 2.125 -6.484375 2.34375 -6.203125 C 2.5625 -5.929688 2.851562 -5.6875 3.21875 -5.46875 C 3.582031 -5.257812 3.96875 -5.050781 4.375 -4.84375 C 4.789062 -4.644531 5.179688 -4.421875 5.546875 -4.171875 C 5.921875 -3.929688 6.222656 -3.648438 6.453125 -3.328125 C 6.691406 -3.003906 6.8125 -2.613281 6.8125 -2.15625 Z M 6.8125 -2.15625 "/></g></g></g><g fill="#000000" fill-opacity="1"><g transform="translate(77.731272, 61.441994)"><g><path d="M 9.609375 -0.796875 L 7.015625 0.28125 L 6.59375 0.28125 L 6.59375 -1.546875 C 6.113281 -1.046875 5.707031 -0.664062 5.375 -0.40625 C 5.050781 -0.144531 4.753906 0.03125 4.484375 0.125 C 4.222656 0.226562 3.953125 0.28125 3.671875 0.28125 C 3.179688 0.28125 2.785156 0.175781 2.484375 -0.03125 C 2.191406 -0.25 1.96875 -0.53125 1.8125 -0.875 C 1.664062 -1.21875 1.566406 -1.582031 1.515625 -1.96875 C 1.472656 -2.351562 1.453125 -2.71875 1.453125 -3.0625 L 1.453125 -6.90625 C 1.453125 -7.457031 1.34375 -7.816406 1.125 -7.984375 C 0.914062 -8.148438 0.539062 -8.234375 0 -8.234375 L 0 -8.578125 L 3.03125 -8.578125 L 3.03125 -2.84375 C 3.03125 -2.507812 3.0625 -2.191406 3.125 -1.890625 C 3.1875 -1.597656 3.320312 -1.351562 3.53125 -1.15625 C 3.738281 -0.96875 4.046875 -0.875 4.453125 -0.875 C 4.703125 -0.875 5 -0.957031 5.34375 -1.125 C 5.695312 -1.300781 6.113281 -1.625 6.59375 -2.09375 L 6.59375 -6.96875 C 6.59375 -7.488281 6.484375 -7.828125 6.265625 -7.984375 C 6.046875 -8.140625 5.695312 -8.222656 5.21875 -8.234375 L 5.21875 -8.578125 L 8.15625 -8.578125 L 8.15625 -2.28125 C 8.15625 -1.757812 8.203125 -1.410156 8.296875 -1.234375 C 8.390625 -1.066406 8.539062 -0.984375 8.75 -0.984375 C 8.832031 -0.984375 8.941406 -0.992188 9.078125 -1.015625 C 9.210938 -1.035156 9.347656 -1.070312 9.484375 -1.125 Z M 9.609375 -0.796875 "/></g></g></g><g fill="#000000" fill-opacity="1"><g transform="translate(87.336283, 61.441994)"><g><path d="M 4.9375 0 L 0.71875 0 L 0.71875 -0.359375 C 1.300781 -0.359375 1.65625 -0.488281 1.78125 -0.75 C 1.914062 -1.007812 1.984375 -1.40625 1.984375 -1.9375 L 1.984375 -9.71875 C 1.984375 -10.363281 1.972656 -10.835938 1.953125 -11.140625 C 1.929688 -11.441406 1.898438 -11.644531 1.859375 -11.75 C 1.828125 -11.851562 1.78125 -11.929688 1.71875 -11.984375 C 1.5625 -12.085938 1.398438 -12.125 1.234375 -12.09375 C 1.066406 -12.070312 0.894531 -12.03125 0.71875 -11.96875 L 0.546875 -12.296875 L 3.140625 -13.328125 L 3.53125 -13.328125 L 3.53125 -1.9375 C 3.53125 -1.539062 3.5625 -1.222656 3.625 -0.984375 C 3.6875 -0.753906 3.816406 -0.59375 4.015625 -0.5 C 4.210938 -0.40625 4.519531 -0.359375 4.9375 -0.359375 Z M 4.9375 0 "/></g></g></g><g fill="#000000" fill-opacity="1"><g transform="translate(92.672399, 61.441994)"><g><path d="M 3.203125 0.28125 C 2.941406 0.28125 2.675781 0.222656 2.40625 0.109375 C 2.144531 -0.00390625 1.929688 -0.222656 1.765625 -0.546875 C 1.597656 -0.867188 1.515625 -1.351562 1.515625 -2 L 1.515625 -7.953125 L 0.140625 -7.953125 L 0.140625 -8.234375 C 0.742188 -8.453125 1.265625 -8.867188 1.703125 -9.484375 C 2.148438 -10.097656 2.515625 -10.738281 2.796875 -11.40625 L 3.078125 -11.40625 L 3.078125 -8.578125 L 5.09375 -8.578125 L 5.09375 -7.953125 L 3.078125 -7.953125 L 3.078125 -2.21875 C 3.078125 -1.664062 3.160156 -1.289062 3.328125 -1.09375 C 3.492188 -0.90625 3.695312 -0.804688 3.9375 -0.796875 C 4.164062 -0.785156 4.367188 -0.847656 4.546875 -0.984375 C 4.722656 -1.128906 4.867188 -1.320312 4.984375 -1.5625 L 5.359375 -1.5625 C 5.171875 -0.9375 4.859375 -0.472656 4.421875 -0.171875 C 3.984375 0.128906 3.578125 0.28125 3.203125 0.28125 Z M 3.203125 0.28125 "/></g></g></g><g fill="#000000" fill-opacity="1"><g transform="translate(98.008516, 61.441994)"><g><path d="M 4.703125 0.28125 C 3.898438 0.28125 3.191406 0.0703125 2.578125 -0.34375 C 1.972656 -0.757812 1.5 -1.3125 1.15625 -2 C 0.8125 -2.6875 0.640625 -3.425781 0.640625 -4.21875 C 0.640625 -4.988281 0.804688 -5.722656 1.140625 -6.421875 C 1.472656 -7.128906 1.953125 -7.707031 2.578125 -8.15625 C 3.203125 -8.601562 3.941406 -8.828125 4.796875 -8.828125 C 5.617188 -8.828125 6.335938 -8.632812 6.953125 -8.25 C 7.578125 -7.863281 8.0625 -7.335938 8.40625 -6.671875 C 8.757812 -6.015625 8.9375 -5.273438 8.9375 -4.453125 C 8.9375 -3.898438 8.847656 -3.34375 8.671875 -2.78125 C 8.492188 -2.226562 8.226562 -1.71875 7.875 -1.25 C 7.53125 -0.789062 7.09375 -0.421875 6.5625 -0.140625 C 6.03125 0.140625 5.410156 0.28125 4.703125 0.28125 Z M 5.09375 -0.40625 C 5.71875 -0.40625 6.222656 -0.648438 6.609375 -1.140625 C 6.992188 -1.640625 7.1875 -2.5 7.1875 -3.71875 C 7.1875 -4.570312 7.078125 -5.335938 6.859375 -6.015625 C 6.640625 -6.703125 6.328125 -7.242188 5.921875 -7.640625 C 5.523438 -8.035156 5.050781 -8.234375 4.5 -8.234375 C 4.175781 -8.234375 3.847656 -8.132812 3.515625 -7.9375 C 3.191406 -7.738281 2.921875 -7.398438 2.703125 -6.921875 C 2.484375 -6.453125 2.375 -5.804688 2.375 -4.984375 C 2.375 -4.160156 2.484375 -3.398438 2.703125 -2.703125 C 2.929688 -2.015625 3.25 -1.457031 3.65625 -1.03125 C 4.070312 -0.613281 4.550781 -0.40625 5.09375 -0.40625 Z M 5.09375 -0.40625 "/></g></g></g><g fill="#000000" fill-opacity="1"><g transform="translate(107.613526, 61.441994)"><g><path d="M 5.3125 -8.828125 C 5.664062 -8.828125 5.957031 -8.726562 6.1875 -8.53125 C 6.414062 -8.34375 6.53125 -8.097656 6.53125 -7.796875 C 6.53125 -7.566406 6.445312 -7.363281 6.28125 -7.1875 C 6.113281 -7.007812 5.914062 -6.921875 5.6875 -6.921875 C 5.476562 -6.921875 5.300781 -6.972656 5.15625 -7.078125 C 5.007812 -7.191406 4.875 -7.304688 4.75 -7.421875 C 4.625 -7.535156 4.492188 -7.59375 4.359375 -7.59375 C 4.203125 -7.59375 4.007812 -7.460938 3.78125 -7.203125 C 3.5625 -6.941406 3.332031 -6.582031 3.09375 -6.125 L 3.09375 -2 C 3.09375 -1.445312 3.191406 -1.035156 3.390625 -0.765625 C 3.597656 -0.492188 4.003906 -0.359375 4.609375 -0.359375 L 4.609375 0 L 0.15625 0 L 0.15625 -0.359375 C 0.507812 -0.359375 0.785156 -0.382812 0.984375 -0.4375 C 1.191406 -0.5 1.332031 -0.640625 1.40625 -0.859375 C 1.488281 -1.085938 1.53125 -1.445312 1.53125 -1.9375 L 1.53125 -5.265625 C 1.53125 -5.867188 1.519531 -6.3125 1.5 -6.59375 C 1.488281 -6.882812 1.460938 -7.082031 1.421875 -7.1875 C 1.378906 -7.300781 1.328125 -7.394531 1.265625 -7.46875 C 1.117188 -7.550781 0.960938 -7.597656 0.796875 -7.609375 C 0.628906 -7.617188 0.414062 -7.566406 0.15625 -7.453125 L 0.078125 -7.796875 L 2.734375 -8.828125 L 3.09375 -8.828125 L 3.09375 -6.90625 C 3.8125 -8.1875 4.550781 -8.828125 5.3125 -8.828125 Z M 5.3125 -8.828125 "/></g></g></g><g fill="#000000" fill-opacity="1"><g transform="translate(114.194743, 61.441994)"><g/></g></g><g fill="#000000" fill-opacity="1"><g transform="translate(117.424503, 61.441994)"><g><path d="M 5.921875 0 L 0.484375 0 L 0.484375 -0.359375 C 1.035156 -0.359375 1.441406 -0.429688 1.703125 -0.578125 C 1.960938 -0.722656 2.125 -0.9375 2.1875 -1.21875 C 2.25 -1.5 2.28125 -1.84375 2.28125 -2.25 L 2.28125 -10.46875 C 2.28125 -11 2.238281 -11.394531 2.15625 -11.65625 C 2.082031 -11.925781 1.914062 -12.109375 1.65625 -12.203125 C 1.394531 -12.304688 1.003906 -12.359375 0.484375 -12.359375 L 0.484375 -12.703125 L 5.921875 -12.703125 L 5.921875 -12.359375 C 5.378906 -12.359375 4.976562 -12.285156 4.71875 -12.140625 C 4.457031 -11.992188 4.285156 -11.78125 4.203125 -11.5 C 4.128906 -11.226562 4.09375 -10.882812 4.09375 -10.46875 L 4.09375 -2.25 C 4.09375 -1.71875 4.132812 -1.316406 4.21875 -1.046875 C 4.300781 -0.773438 4.472656 -0.59375 4.734375 -0.5 C 4.992188 -0.40625 5.390625 -0.359375 5.921875 -0.359375 Z M 5.921875 0 "/></g></g></g><g fill="#000000" fill-opacity="1"><g transform="translate(123.80912, 61.441994)"><g><path d="M 0.28125 0 L 0.28125 -0.359375 C 0.644531 -0.359375 0.914062 -0.394531 1.09375 -0.46875 C 1.28125 -0.550781 1.40625 -0.703125 1.46875 -0.921875 C 1.53125 -1.148438 1.5625 -1.488281 1.5625 -1.9375 L 1.5625 -5.21875 C 1.5625 -6 1.539062 -6.585938 1.5 -6.984375 C 1.46875 -7.390625 1.273438 -7.59375 0.921875 -7.59375 C 0.734375 -7.59375 0.519531 -7.546875 0.28125 -7.453125 L 0.125 -7.796875 L 2.734375 -8.828125 L 3.140625 -8.828125 L 3.140625 -7.015625 C 3.597656 -7.515625 3.992188 -7.894531 4.328125 -8.15625 C 4.671875 -8.414062 4.984375 -8.59375 5.265625 -8.6875 C 5.546875 -8.78125 5.828125 -8.828125 6.109375 -8.828125 C 6.617188 -8.828125 7.070312 -8.679688 7.46875 -8.390625 C 7.875 -8.097656 8.144531 -7.640625 8.28125 -7.015625 C 8.914062 -7.742188 9.457031 -8.226562 9.90625 -8.46875 C 10.351562 -8.707031 10.816406 -8.828125 11.296875 -8.828125 C 11.984375 -8.828125 12.53125 -8.585938 12.9375 -8.109375 C 13.351562 -7.628906 13.5625 -6.8125 13.5625 -5.65625 L 13.5625 -1.9375 C 13.5625 -1.28125 13.644531 -0.851562 13.8125 -0.65625 C 13.988281 -0.457031 14.335938 -0.359375 14.859375 -0.359375 L 14.859375 0 L 10.625 0 L 10.625 -0.359375 C 11.070312 -0.359375 11.390625 -0.410156 11.578125 -0.515625 C 11.773438 -0.617188 11.890625 -0.785156 11.921875 -1.015625 C 11.960938 -1.242188 11.984375 -1.550781 11.984375 -1.9375 L 11.984375 -5.65625 C 11.984375 -6.425781 11.867188 -6.960938 11.640625 -7.265625 C 11.421875 -7.566406 11.066406 -7.71875 10.578125 -7.71875 C 10.304688 -7.71875 9.976562 -7.640625 9.59375 -7.484375 C 9.21875 -7.328125 8.8125 -7.015625 8.375 -6.546875 L 8.375 -1.9375 C 8.375 -1.53125 8.394531 -1.210938 8.4375 -0.984375 C 8.488281 -0.753906 8.609375 -0.59375 8.796875 -0.5 C 8.992188 -0.40625 9.3125 -0.359375 9.75 -0.359375 L 9.75 0 L 5.390625 0 L 5.390625 -0.359375 C 5.878906 -0.359375 6.222656 -0.410156 6.421875 -0.515625 C 6.617188 -0.628906 6.734375 -0.800781 6.765625 -1.03125 C 6.796875 -1.269531 6.8125 -1.570312 6.8125 -1.9375 L 6.8125 -5.65625 C 6.8125 -6.414062 6.675781 -6.953125 6.40625 -7.265625 C 6.144531 -7.578125 5.785156 -7.734375 5.328125 -7.734375 C 4.890625 -7.734375 4.476562 -7.601562 4.09375 -7.34375 C 3.71875 -7.09375 3.398438 -6.828125 3.140625 -6.546875 L 3.140625 -1.9375 C 3.140625 -1.457031 3.175781 -1.101562 3.25 -0.875 C 3.332031 -0.65625 3.472656 -0.515625 3.671875 -0.453125 C 3.867188 -0.390625 4.148438 -0.359375 4.515625 -0.359375 L 4.515625 0 Z M 0.28125 0 "/></g></g></g><g fill="#000000" fill-opacity="1"><g transform="translate(138.750247, 61.441994)"><g><path d="M 4.703125 0.28125 C 3.898438 0.28125 3.191406 0.0703125 2.578125 -0.34375 C 1.972656 -0.757812 1.5 -1.3125 1.15625 -2 C 0.8125 -2.6875 0.640625 -3.425781 0.640625 -4.21875 C 0.640625 -4.988281 0.804688 -5.722656 1.140625 -6.421875 C 1.472656 -7.128906 1.953125 -7.707031 2.578125 -8.15625 C 3.203125 -8.601562 3.941406 -8.828125 4.796875 -8.828125 C 5.617188 -8.828125 6.335938 -8.632812 6.953125 -8.25 C 7.578125 -7.863281 8.0625 -7.335938 8.40625 -6.671875 C 8.757812 -6.015625 8.9375 -5.273438 8.9375 -4.453125 C 8.9375 -3.898438 8.847656 -3.34375 8.671875 -2.78125 C 8.492188 -2.226562 8.226562 -1.71875 7.875 -1.25 C 7.53125 -0.789062 7.09375 -0.421875 6.5625 -0.140625 C 6.03125 0.140625 5.410156 0.28125 4.703125 0.28125 Z M 5.09375 -0.40625 C 5.71875 -0.40625 6.222656 -0.648438 6.609375 -1.140625 C 6.992188 -1.640625 7.1875 -2.5 7.1875 -3.71875 C 7.1875 -4.570312 7.078125 -5.335938 6.859375 -6.015625 C 6.640625 -6.703125 6.328125 -7.242188 5.921875 -7.640625 C 5.523438 -8.035156 5.050781 -8.234375 4.5 -8.234375 C 4.175781 -8.234375 3.847656 -8.132812 3.515625 -7.9375 C 3.191406 -7.738281 2.921875 -7.398438 2.703125 -6.921875 C 2.484375 -6.453125 2.375 -5.804688 2.375 -4.984375 C 2.375 -4.160156 2.484375 -3.398438 2.703125 -2.703125 C 2.929688 -2.015625 3.25 -1.457031 3.65625 -1.03125 C 4.070312 -0.613281 4.550781 -0.40625 5.09375 -0.40625 Z M 5.09375 -0.40625 "/></g></g></g><g fill="#000000" fill-opacity="1"><g transform="translate(148.355258, 61.441994)"><g><path d="M 8.9375 -4.640625 C 8.9375 -3.691406 8.726562 -2.847656 8.3125 -2.109375 C 7.90625 -1.367188 7.363281 -0.785156 6.6875 -0.359375 C 6.019531 0.0664062 5.289062 0.28125 4.5 0.28125 C 3.519531 0.28125 2.484375 -0.0859375 1.390625 -0.828125 L 1.390625 -9.703125 C 1.390625 -10.347656 1.378906 -10.820312 1.359375 -11.125 C 1.335938 -11.425781 1.304688 -11.628906 1.265625 -11.734375 C 1.222656 -11.835938 1.160156 -11.921875 1.078125 -11.984375 C 0.984375 -12.066406 0.863281 -12.109375 0.71875 -12.109375 C 0.570312 -12.109375 0.351562 -12.0625 0.0625 -11.96875 L -0.078125 -12.296875 L 2.515625 -13.328125 L 2.953125 -13.328125 L 2.953125 -7.09375 C 3.773438 -8.25 4.675781 -8.828125 5.65625 -8.828125 C 6.238281 -8.828125 6.773438 -8.65625 7.265625 -8.3125 C 7.765625 -7.976562 8.164062 -7.5 8.46875 -6.875 C 8.78125 -6.25 8.9375 -5.503906 8.9375 -4.640625 Z M 7.3125 -4.09375 C 7.3125 -5.164062 7.070312 -6.003906 6.59375 -6.609375 C 6.113281 -7.222656 5.546875 -7.53125 4.890625 -7.53125 C 4.660156 -7.53125 4.398438 -7.46875 4.109375 -7.34375 C 3.816406 -7.226562 3.429688 -6.957031 2.953125 -6.53125 L 2.953125 -1.359375 C 3.585938 -0.734375 4.265625 -0.421875 4.984375 -0.421875 C 5.359375 -0.421875 5.722656 -0.554688 6.078125 -0.828125 C 6.441406 -1.109375 6.738281 -1.519531 6.96875 -2.0625 C 7.195312 -2.613281 7.3125 -3.289062 7.3125 -4.09375 Z M 7.3125 -4.09375 "/></g></g></g><g fill="#000000" fill-opacity="1"><g transform="translate(157.960268, 61.441994)"><g><path d="M 4.921875 0 L 0.71875 0 L 0.71875 -0.359375 C 1.257812 -0.359375 1.613281 -0.445312 1.78125 -0.625 C 1.945312 -0.800781 2.03125 -1.179688 2.03125 -1.765625 L 2.03125 -6.34375 C 2.03125 -6.757812 1.984375 -7.070312 1.890625 -7.28125 C 1.804688 -7.488281 1.640625 -7.59375 1.390625 -7.59375 C 1.304688 -7.59375 1.207031 -7.582031 1.09375 -7.5625 C 0.988281 -7.539062 0.863281 -7.503906 0.71875 -7.453125 L 0.59375 -7.796875 L 3.203125 -8.828125 L 3.59375 -8.828125 L 3.59375 -1.765625 C 3.59375 -1.179688 3.675781 -0.800781 3.84375 -0.625 C 4.019531 -0.445312 4.378906 -0.359375 4.921875 -0.359375 Z M 2.8125 -10.546875 C 2.550781 -10.546875 2.328125 -10.632812 2.140625 -10.8125 C 1.953125 -10.988281 1.859375 -11.21875 1.859375 -11.5 C 1.859375 -11.78125 1.953125 -12.003906 2.140625 -12.171875 C 2.335938 -12.347656 2.5625 -12.4375 2.8125 -12.4375 C 3.070312 -12.4375 3.296875 -12.34375 3.484375 -12.15625 C 3.671875 -11.976562 3.765625 -11.757812 3.765625 -11.5 C 3.765625 -11.238281 3.675781 -11.015625 3.5 -10.828125 C 3.320312 -10.640625 3.09375 -10.546875 2.8125 -10.546875 Z M 2.8125 -10.546875 "/></g></g></g><g fill="#000000" fill-opacity="1"><g transform="translate(163.296385, 61.441994)"><g><path d="M 4.9375 0 L 0.71875 0 L 0.71875 -0.359375 C 1.300781 -0.359375 1.65625 -0.488281 1.78125 -0.75 C 1.914062 -1.007812 1.984375 -1.40625 1.984375 -1.9375 L 1.984375 -9.71875 C 1.984375 -10.363281 1.972656 -10.835938 1.953125 -11.140625 C 1.929688 -11.441406 1.898438 -11.644531 1.859375 -11.75 C 1.828125 -11.851562 1.78125 -11.929688 1.71875 -11.984375 C 1.5625 -12.085938 1.398438 -12.125 1.234375 -12.09375 C 1.066406 -12.070312 0.894531 -12.03125 0.71875 -11.96875 L 0.546875 -12.296875 L 3.140625 -13.328125 L 3.53125 -13.328125 L 3.53125 -1.9375 C 3.53125 -1.539062 3.5625 -1.222656 3.625 -0.984375 C 3.6875 -0.753906 3.816406 -0.59375 4.015625 -0.5 C 4.210938 -0.40625 4.519531 -0.359375 4.9375 -0.359375 Z M 4.9375 0 "/></g></g></g><g fill="#000000" fill-opacity="1"><g transform="translate(168.632501, 61.441994)"><g><path d="M 4.921875 0 L 0.71875 0 L 0.71875 -0.359375 C 1.257812 -0.359375 1.613281 -0.445312 1.78125 -0.625 C 1.945312 -0.800781 2.03125 -1.179688 2.03125 -1.765625 L 2.03125 -6.34375 C 2.03125 -6.757812 1.984375 -7.070312 1.890625 -7.28125 C 1.804688 -7.488281 1.640625 -7.59375 1.390625 -7.59375 C 1.304688 -7.59375 1.207031 -7.582031 1.09375 -7.5625 C 0.988281 -7.539062 0.863281 -7.503906 0.71875 -7.453125 L 0.59375 -7.796875 L 3.203125 -8.828125 L 3.59375 -8.828125 L 3.59375 -1.765625 C 3.59375 -1.179688 3.675781 -0.800781 3.84375 -0.625 C 4.019531 -0.445312 4.378906 -0.359375 4.921875 -0.359375 Z M 2.8125 -10.546875 C 2.550781 -10.546875 2.328125 -10.632812 2.140625 -10.8125 C 1.953125 -10.988281 1.859375 -11.21875 1.859375 -11.5 C 1.859375 -11.78125 1.953125 -12.003906 2.140625 -12.171875 C 2.335938 -12.347656 2.5625 -12.4375 2.8125 -12.4375 C 3.070312 -12.4375 3.296875 -12.34375 3.484375 -12.15625 C 3.671875 -11.976562 3.765625 -11.757812 3.765625 -11.5 C 3.765625 -11.238281 3.675781 -11.015625 3.5 -10.828125 C 3.320312 -10.640625 3.09375 -10.546875 2.8125 -10.546875 Z M 2.8125 -10.546875 "/></g></g></g><g fill="#000000" fill-opacity="1"><g transform="translate(173.968618, 61.441994)"><g><path d="M 8.515625 -1.78125 L 8.515625 -1.234375 C 7.804688 -0.304688 7.117188 0.15625 6.453125 0.15625 C 6.179688 0.15625 5.945312 0.0625 5.75 -0.125 C 5.550781 -0.320312 5.453125 -0.691406 5.453125 -1.234375 C 4.953125 -0.835938 4.554688 -0.539062 4.265625 -0.34375 C 3.984375 -0.144531 3.734375 -0.015625 3.515625 0.046875 C 3.296875 0.117188 3.035156 0.15625 2.734375 0.15625 C 2.117188 0.15625 1.625 -0.0390625 1.25 -0.4375 C 0.875 -0.84375 0.6875 -1.375 0.6875 -2.03125 C 0.6875 -2.351562 0.742188 -2.65625 0.859375 -2.9375 C 0.984375 -3.226562 1.210938 -3.515625 1.546875 -3.796875 C 1.878906 -4.085938 2.359375 -4.382812 2.984375 -4.6875 C 3.617188 -5 4.441406 -5.332031 5.453125 -5.6875 L 5.453125 -6.03125 C 5.453125 -6.863281 5.320312 -7.441406 5.0625 -7.765625 C 4.8125 -8.097656 4.410156 -8.265625 3.859375 -8.265625 C 3.472656 -8.265625 3.164062 -8.140625 2.9375 -7.890625 C 2.71875 -7.648438 2.597656 -7.242188 2.578125 -6.671875 C 2.597656 -6.390625 2.53125 -6.171875 2.375 -6.015625 C 2.226562 -5.859375 2.039062 -5.78125 1.8125 -5.78125 C 1.28125 -5.78125 1.015625 -6.078125 1.015625 -6.671875 C 1.015625 -7.117188 1.160156 -7.503906 1.453125 -7.828125 C 1.753906 -8.148438 2.144531 -8.394531 2.625 -8.5625 C 3.101562 -8.738281 3.613281 -8.828125 4.15625 -8.828125 C 4.988281 -8.828125 5.609375 -8.707031 6.015625 -8.46875 C 6.421875 -8.226562 6.691406 -7.890625 6.828125 -7.453125 C 6.960938 -7.023438 7.03125 -6.503906 7.03125 -5.890625 L 7.03125 -2.984375 C 7.03125 -2.578125 7.035156 -2.242188 7.046875 -1.984375 C 7.066406 -1.734375 7.082031 -1.566406 7.09375 -1.484375 C 7.132812 -1.171875 7.265625 -1.015625 7.484375 -1.015625 C 7.617188 -1.015625 7.734375 -1.054688 7.828125 -1.140625 C 7.929688 -1.222656 8.160156 -1.4375 8.515625 -1.78125 Z M 5.453125 -1.84375 L 5.453125 -5.140625 C 4.492188 -4.765625 3.785156 -4.425781 3.328125 -4.125 C 2.878906 -3.820312 2.59375 -3.539062 2.46875 -3.28125 C 2.34375 -3.019531 2.28125 -2.75 2.28125 -2.46875 C 2.28125 -2.03125 2.40625 -1.660156 2.65625 -1.359375 C 2.90625 -1.054688 3.210938 -0.90625 3.578125 -0.90625 C 3.816406 -0.882812 4.09375 -0.953125 4.40625 -1.109375 C 4.71875 -1.273438 5.066406 -1.519531 5.453125 -1.84375 Z M 6.875 -12.453125 C 6.875 -12.265625 6.796875 -12.09375 6.640625 -11.9375 C 6.484375 -11.78125 6.300781 -11.640625 6.09375 -11.515625 L 3.328125 -9.765625 L 2.546875 -9.765625 L 5.21875 -12.4375 C 5.445312 -12.65625 5.632812 -12.8125 5.78125 -12.90625 C 5.9375 -13.007812 6.117188 -13.0625 6.328125 -13.0625 C 6.453125 -13.0625 6.570312 -13.003906 6.6875 -12.890625 C 6.8125 -12.773438 6.875 -12.628906 6.875 -12.453125 Z M 6.875 -12.453125 "/></g></g></g><g fill="#000000" fill-opacity="1"><g transform="translate(182.497049, 61.441994)"><g><path d="M 5.3125 -8.828125 C 5.664062 -8.828125 5.957031 -8.726562 6.1875 -8.53125 C 6.414062 -8.34375 6.53125 -8.097656 6.53125 -7.796875 C 6.53125 -7.566406 6.445312 -7.363281 6.28125 -7.1875 C 6.113281 -7.007812 5.914062 -6.921875 5.6875 -6.921875 C 5.476562 -6.921875 5.300781 -6.972656 5.15625 -7.078125 C 5.007812 -7.191406 4.875 -7.304688 4.75 -7.421875 C 4.625 -7.535156 4.492188 -7.59375 4.359375 -7.59375 C 4.203125 -7.59375 4.007812 -7.460938 3.78125 -7.203125 C 3.5625 -6.941406 3.332031 -6.582031 3.09375 -6.125 L 3.09375 -2 C 3.09375 -1.445312 3.191406 -1.035156 3.390625 -0.765625 C 3.597656 -0.492188 4.003906 -0.359375 4.609375 -0.359375 L 4.609375 0 L 0.15625 0 L 0.15625 -0.359375 C 0.507812 -0.359375 0.785156 -0.382812 0.984375 -0.4375 C 1.191406 -0.5 1.332031 -0.640625 1.40625 -0.859375 C 1.488281 -1.085938 1.53125 -1.445312 1.53125 -1.9375 L 1.53125 -5.265625 C 1.53125 -5.867188 1.519531 -6.3125 1.5 -6.59375 C 1.488281 -6.882812 1.460938 -7.082031 1.421875 -7.1875 C 1.378906 -7.300781 1.328125 -7.394531 1.265625 -7.46875 C 1.117188 -7.550781 0.960938 -7.597656 0.796875 -7.609375 C 0.628906 -7.617188 0.414062 -7.566406 0.15625 -7.453125 L 0.078125 -7.796875 L 2.734375 -8.828125 L 3.09375 -8.828125 L 3.09375 -6.90625 C 3.8125 -8.1875 4.550781 -8.828125 5.3125 -8.828125 Z M 5.3125 -8.828125 "/></g></g></g><g fill="#000000" fill-opacity="1"><g transform="translate(189.078265, 61.441994)"><g><path d="M 4.921875 0 L 0.71875 0 L 0.71875 -0.359375 C 1.257812 -0.359375 1.613281 -0.445312 1.78125 -0.625 C 1.945312 -0.800781 2.03125 -1.179688 2.03125 -1.765625 L 2.03125 -6.34375 C 2.03125 -6.757812 1.984375 -7.070312 1.890625 -7.28125 C 1.804688 -7.488281 1.640625 -7.59375 1.390625 -7.59375 C 1.304688 -7.59375 1.207031 -7.582031 1.09375 -7.5625 C 0.988281 -7.539062 0.863281 -7.503906 0.71875 -7.453125 L 0.59375 -7.796875 L 3.203125 -8.828125 L 3.59375 -8.828125 L 3.59375 -1.765625 C 3.59375 -1.179688 3.675781 -0.800781 3.84375 -0.625 C 4.019531 -0.445312 4.378906 -0.359375 4.921875 -0.359375 Z M 2.8125 -10.546875 C 2.550781 -10.546875 2.328125 -10.632812 2.140625 -10.8125 C 1.953125 -10.988281 1.859375 -11.21875 1.859375 -11.5 C 1.859375 -11.78125 1.953125 -12.003906 2.140625 -12.171875 C 2.335938 -12.347656 2.5625 -12.4375 2.8125 -12.4375 C 3.070312 -12.4375 3.296875 -12.34375 3.484375 -12.15625 C 3.671875 -11.976562 3.765625 -11.757812 3.765625 -11.5 C 3.765625 -11.238281 3.675781 -11.015625 3.5 -10.828125 C 3.320312 -10.640625 3.09375 -10.546875 2.8125 -10.546875 Z M 2.8125 -10.546875 "/></g></g></g><g fill="#000000" fill-opacity="1"><g transform="translate(194.414382, 61.441994)"><g><path d="M 4.703125 0.28125 C 3.898438 0.28125 3.191406 0.0703125 2.578125 -0.34375 C 1.972656 -0.757812 1.5 -1.3125 1.15625 -2 C 0.8125 -2.6875 0.640625 -3.425781 0.640625 -4.21875 C 0.640625 -4.988281 0.804688 -5.722656 1.140625 -6.421875 C 1.472656 -7.128906 1.953125 -7.707031 2.578125 -8.15625 C 3.203125 -8.601562 3.941406 -8.828125 4.796875 -8.828125 C 5.617188 -8.828125 6.335938 -8.632812 6.953125 -8.25 C 7.578125 -7.863281 8.0625 -7.335938 8.40625 -6.671875 C 8.757812 -6.015625 8.9375 -5.273438 8.9375 -4.453125 C 8.9375 -3.898438 8.847656 -3.34375 8.671875 -2.78125 C 8.492188 -2.226562 8.226562 -1.71875 7.875 -1.25 C 7.53125 -0.789062 7.09375 -0.421875 6.5625 -0.140625 C 6.03125 0.140625 5.410156 0.28125 4.703125 0.28125 Z M 5.09375 -0.40625 C 5.71875 -0.40625 6.222656 -0.648438 6.609375 -1.140625 C 6.992188 -1.640625 7.1875 -2.5 7.1875 -3.71875 C 7.1875 -4.570312 7.078125 -5.335938 6.859375 -6.015625 C 6.640625 -6.703125 6.328125 -7.242188 5.921875 -7.640625 C 5.523438 -8.035156 5.050781 -8.234375 4.5 -8.234375 C 4.175781 -8.234375 3.847656 -8.132812 3.515625 -7.9375 C 3.191406 -7.738281 2.921875 -7.398438 2.703125 -6.921875 C 2.484375 -6.453125 2.375 -5.804688 2.375 -4.984375 C 2.375 -4.160156 2.484375 -3.398438 2.703125 -2.703125 C 2.929688 -2.015625 3.25 -1.457031 3.65625 -1.03125 C 4.070312 -0.613281 4.550781 -0.40625 5.09375 -0.40625 Z M 5.09375 -0.40625 "/></g></g></g></g></g></g></g></g></g></mask><clipPath id="a7d7102153"><path d="M 0.167969 0.277344 L 242.589844 0.277344 L 242.589844 80.503906 L 0.167969 80.503906 Z M 0.167969 0.277344 " clip-rule="nonzero"/></clipPath><clipPath id="dcc626ce18"><rect x="0" width="243" y="0" height="81"/></clipPath><clipPath id="34c449c424"><rect x="0" width="243" y="0" height="81"/></clipPath></defs><g clip-path="url(#83beec7236)"><path fill="#ffeb99" d="M 125.632812 -0.00390625 L 195.058594 -0.00390625 L 195.058594 3.113281 L 125.632812 3.113281 Z M 125.632812 -0.00390625 " fill-opacity="1" fill-rule="nonzero"/></g><g clip-path="url(#557d33c0aa)"><path fill="#ffeb99" d="M 161.980469 66.402344 L 167.097656 62.429688 L 167.097656 10.121094 L 171.699219 10.121094 L 171.699219 58.871094 L 176.808594 54.902344 L 176.808594 10.121094 L 181.492188 10.121094 L 181.492188 51.28125 L 186.597656 47.316406 L 186.597656 10.121094 L 190.277344 10.121094 L 190.277344 5.15625 L 161.980469 5.15625 Z M 161.980469 66.402344 " fill-opacity="1" fill-rule="nonzero"/></g><g clip-path="url(#a049380a4a)"><path fill="#ffeb99" d="M 158.710938 5.152344 L 158.710938 15.09375 L 153.59375 15.09375 L 153.59375 10.125 L 139.210938 10.125 L 139.210938 43.808594 L 153.59375 54.949219 L 153.59375 40.460938 L 146.898438 35.269531 L 146.898438 27.785156 L 158.710938 36.9375 L 158.710938 66.398438 L 134.082031 47.324219 L 134.082031 10.125 L 130.414062 10.125 L 130.414062 5.152344 Z M 158.710938 5.152344 " fill-opacity="1" fill-rule="nonzero"/></g><g clip-path="url(#4ccf5e75bc)"><g transform="matrix(1, 0, 0, 1, 0, -0.000000000000003064)"><g clip-path="url(#e3bf70ab2e)"><g clip-path="url(#c72c53cf4e)"><g mask="url(#f5a9dbc30d)"><g transform="matrix(1, 0, 0, 1, 0, -0.000000000000003064)"><g clip-path="url(#e06aa63b11)"><g clip-path="url(#99e8b03364)"><path fill="url(#8504622cbd)" d="M 0.886719 0 L 0.886719 136.503906 L 326.113281 136.503906 L 326.113281 0 Z M 0.886719 0 " fill-rule="nonzero"/></g></g></g></g></g></g></g></g><g clip-path="url(#c216b695fb)"><g transform="matrix(1, 0, 0, 1, 42, 56)"><g clip-path="url(#34c449c424)"><g clip-path="url(#c8c2eb5439)"><g mask="url(#b629f2f79d)"><g transform="matrix(1, 0, 0, 1, -0.000000000000007105, -0.000000000000007105)"><g clip-path="url(#dcc626ce18)"><g clip-path="url(#a7d7102153)"><path fill="url(#81799e9900)" d="M 0.167969 0.277344 L 0.167969 80.503906 L 242.589844 80.503906 L 242.589844 0.277344 Z M 0.167969 0.277344 " fill-rule="nonzero"/></g></g></g></g></g></g></g></g></svg>